<?xml version="1.0" encoding="UTF-8"?>
<!DOCTYPE svg PUBLIC "-//W3C//DTD SVG 1.1//EN" "http://www.w3.org/Graphics/SVG/1.1/DTD/svg11.dtd">
<svg xmlns="http://www.w3.org/2000/svg" version="1.1" width="216px" height="216px" style="shape-rendering:geometricPrecision; text-rendering:geometricPrecision; image-rendering:optimizeQuality; fill-rule:evenodd; clip-rule:evenodd" xmlns:xlink="http://www.w3.org/1999/xlink">
<g><path style="opacity:0.008" fill="#000000" d="M -0.5,-0.5 C 1.16667,-0.5 2.83333,-0.5 4.5,-0.5C 4.83333,2.16667 5.16667,2.16667 5.5,-0.5C 5.83333,-0.5 6.16667,-0.5 6.5,-0.5C 6.83333,0.833333 7.16667,0.833333 7.5,-0.5C 16.8333,-0.5 26.1667,-0.5 35.5,-0.5C 35.8333,2.16667 36.1667,2.16667 36.5,-0.5C 37.5,-0.5 38.5,-0.5 39.5,-0.5C 39.8333,2.16667 40.1667,2.16667 40.5,-0.5C 41.8333,-0.5 43.1667,-0.5 44.5,-0.5C 43.537,0.3635 43.537,1.03017 44.5,1.5C 45.2975,1.04311 45.6309,0.376442 45.5,-0.5C 48.1667,-0.5 50.8333,-0.5 53.5,-0.5C 54.1667,2.16667 54.8333,2.16667 55.5,-0.5C 57.5,-0.5 59.5,-0.5 61.5,-0.5C 61.5,0.833333 62.1667,1.5 63.5,1.5C 63.5,0.833333 63.5,0.166667 63.5,-0.5C 90.5,-0.5 117.5,-0.5 144.5,-0.5C 144.833,0.833333 145.167,0.833333 145.5,-0.5C 149.5,-0.5 153.5,-0.5 157.5,-0.5C 158.167,0.833333 158.833,0.833333 159.5,-0.5C 163.5,-0.5 167.5,-0.5 171.5,-0.5C 171.833,0.833333 172.167,0.833333 172.5,-0.5C 181.167,-0.5 189.833,-0.5 198.5,-0.5C 198.833,0.833333 199.167,0.833333 199.5,-0.5C 203.5,-0.5 207.5,-0.5 211.5,-0.5C 212.167,0.833333 212.833,0.833333 213.5,-0.5C 214.167,-0.5 214.833,-0.5 215.5,-0.5C 215.5,0.5 215.5,1.5 215.5,2.5C 214.167,2.83333 214.167,3.16667 215.5,3.5C 215.5,46.1667 215.5,88.8333 215.5,131.5C 214.167,132.167 214.167,132.833 215.5,133.5C 215.5,137.5 215.5,141.5 215.5,145.5C 213.067,146.548 213.067,147.214 215.5,147.5C 215.5,151.5 215.5,155.5 215.5,159.5C 212.833,160.167 212.833,160.833 215.5,161.5C 215.5,165.167 215.5,168.833 215.5,172.5C 213.067,173.548 213.067,174.214 215.5,174.5C 215.5,178.167 215.5,181.833 215.5,185.5C 214.167,186.167 214.167,186.833 215.5,187.5C 215.5,191.5 215.5,195.5 215.5,199.5C 213.067,200.548 213.067,201.214 215.5,201.5C 215.5,205.5 215.5,209.5 215.5,213.5C 214.167,213.5 213.5,214.167 213.5,215.5C 210.5,215.5 207.5,215.5 204.5,215.5C 204.167,212.833 203.833,212.833 203.5,215.5C 202.833,215.5 202.167,215.5 201.5,215.5C 201.214,213.067 200.548,213.067 199.5,215.5C 196.833,215.5 194.167,215.5 191.5,215.5C 191.167,212.833 190.833,212.833 190.5,215.5C 189.5,215.5 188.5,215.5 187.5,215.5C 186.833,214.167 186.167,214.167 185.5,215.5C 181.833,215.5 178.167,215.5 174.5,215.5C 174.214,213.067 173.548,213.067 172.5,215.5C 168.833,215.5 165.167,215.5 161.5,215.5C 160.833,212.833 160.167,212.833 159.5,215.5C 156.5,215.5 153.5,215.5 150.5,215.5C 150.167,212.833 149.833,212.833 149.5,215.5C 148.833,215.5 148.167,215.5 147.5,215.5C 147.214,213.067 146.548,213.067 145.5,215.5C 142.833,215.5 140.167,215.5 137.5,215.5C 137.167,212.833 136.833,212.833 136.5,215.5C 135.5,215.5 134.5,215.5 133.5,215.5C 132.833,214.167 132.167,214.167 131.5,215.5C 87.5,215.5 43.5,215.5 -0.5,215.5C -0.5,164.833 -0.5,114.167 -0.5,63.5C 1.23846,61.8805 1.73846,59.8805 1,57.5C 0.721579,58.4158 0.221579,59.0825 -0.5,59.5C -0.5,58.1667 -0.5,56.8333 -0.5,55.5C 2.16667,54.8333 2.16667,54.1667 -0.5,53.5C -0.5,52.8333 -0.5,52.1667 -0.5,51.5C 0.376442,51.6309 1.04311,51.2975 1.5,50.5C 1.03017,49.537 0.3635,49.537 -0.5,50.5C -0.5,47.1667 -0.5,43.8333 -0.5,40.5C 2.16667,40.1667 2.16667,39.8333 -0.5,39.5C -0.5,28.8333 -0.5,18.1667 -0.5,7.5C 0.833333,7.16667 0.833333,6.83333 -0.5,6.5C -0.5,6.16667 -0.5,5.83333 -0.5,5.5C 2.16667,4.83333 2.16667,4.16667 -0.5,3.5C -0.5,2.16667 -0.5,0.833333 -0.5,-0.5 Z M 63.5,1.5 C 65.337,1.63945 65.6704,2.30612 64.5,3.5C 63.7025,3.04311 63.3691,2.37644 63.5,1.5 Z M 107.5,1.5 C 109.337,1.63945 109.67,2.30612 108.5,3.5C 107.702,3.04311 107.369,2.37644 107.5,1.5 Z M 119.5,1.5 C 120.978,1.23798 122.311,1.57131 123.5,2.5C 122.833,2.83333 122.167,3.16667 121.5,3.5C 120.287,3.25284 119.62,2.58617 119.5,1.5 Z M 2.5,65.5 C 3.08419,68.2084 3.08419,70.8751 2.5,73.5C 1.55075,70.8742 1.55075,68.2075 2.5,65.5 Z M 1.5,79.5 C 2.47197,78.2486 3.13864,78.582 3.5,80.5C 3.12044,82.4743 2.78711,84.4743 2.5,86.5C 1.86702,84.0045 1.53369,81.6712 1.5,79.5 Z M 2.5,95.5 C 2.09409,93.8908 2.09409,92.5575 2.5,91.5C 3.78202,92.9584 3.78202,94.2918 2.5,95.5 Z M 2.5,95.5 C 3.2916,96.9669 3.2916,98.3002 2.5,99.5C 1.21798,98.0416 1.21798,96.7082 2.5,95.5 Z M 2.5,105.5 C 3.70901,107.435 3.54234,109.435 2,111.5C 1.50987,109.455 1.67653,107.455 2.5,105.5 Z M 1.5,119.5 C 2.69459,119.866 3.36126,120.699 3.5,122C 2.68712,123.342 2.35379,124.508 2.5,125.5C 1.53443,123.604 1.2011,121.604 1.5,119.5 Z M 160.5,131.5 C 163.001,131.511 163.168,132.178 161,133.5C 160.536,132.906 160.369,132.239 160.5,131.5 Z M 174.5,133.5 C 174.167,133.5 173.833,133.5 173.5,133.5C 173.369,132.624 173.702,131.957 174.5,131.5C 175.463,131.97 175.463,132.637 174.5,133.5 Z M 160.5,145.5 C 161.773,146.077 161.773,146.743 160.5,147.5C 159.537,147.03 159.537,146.363 160.5,145.5 Z M 133.5,157.5 C 134.289,157.783 134.956,158.283 135.5,159C 134.184,159.528 133.517,159.028 133.5,157.5 Z M 187.5,157.5 C 188.289,157.783 188.956,158.283 189.5,159C 188.184,159.528 187.517,159.028 187.5,157.5 Z M 147.5,159.5 C 147.483,161.028 146.816,161.528 145.5,161C 146.044,160.283 146.711,159.783 147.5,159.5 Z M 159.5,159.5 C 161.337,159.639 161.67,160.306 160.5,161.5C 159.702,161.043 159.369,160.376 159.5,159.5 Z M 174.5,159.5 C 174.291,160.922 173.791,162.255 173,163.5C 172.227,161.648 172.727,160.314 174.5,159.5 Z M 201.5,159.5 C 201.483,161.028 200.816,161.528 199.5,161C 200.044,160.283 200.711,159.783 201.5,159.5 Z M 131.5,160.5 C 133.646,160.696 133.812,161.696 132,163.5C 131.517,162.552 131.351,161.552 131.5,160.5 Z M 185.5,160.5 C 187.646,160.696 187.812,161.696 186,163.5C 185.517,162.552 185.351,161.552 185.5,160.5 Z M 133.5,173.5 C 133.639,171.663 134.306,171.33 135.5,172.5C 135.043,173.298 134.376,173.631 133.5,173.5 Z M 149.5,173.5 C 148.833,173.5 148.167,173.5 147.5,173.5C 147.786,171.067 148.452,171.067 149.5,173.5 Z M 174.5,174.5 C 173.778,174.918 173.278,175.584 173,176.5C 172.278,174.339 172.945,172.672 175,171.5C 175.47,172.577 175.303,173.577 174.5,174.5 Z M 187.5,173.5 C 187.639,171.663 188.306,171.33 189.5,172.5C 189.043,173.298 188.376,173.631 187.5,173.5 Z M 203.5,173.5 C 202.833,173.5 202.167,173.5 201.5,173.5C 201.786,171.067 202.452,171.067 203.5,173.5 Z M 160.5,172.5 C 162.975,172.747 162.975,173.413 160.5,174.5C 159.537,174.03 159.537,173.363 160.5,172.5 Z M 133.5,173.5 C 133.5,173.833 133.5,174.167 133.5,174.5C 132.778,174.918 132.278,175.584 132,176.5C 131.275,174.843 131.775,173.843 133.5,173.5 Z M 187.5,173.5 C 187.5,173.833 187.5,174.167 187.5,174.5C 186.778,174.918 186.278,175.584 186,176.5C 185.275,174.843 185.775,173.843 187.5,173.5 Z M 160.5,185.5 C 163.001,185.511 163.168,186.178 161,187.5C 160.536,186.906 160.369,186.239 160.5,185.5 Z M 174.5,187.5 C 174.167,187.5 173.833,187.5 173.5,187.5C 173.369,186.624 173.702,185.957 174.5,185.5C 175.463,185.97 175.463,186.637 174.5,187.5 Z M 160.5,199.5 C 161.773,200.077 161.773,200.743 160.5,201.5C 159.537,201.03 159.537,200.363 160.5,199.5 Z M 133.5,211.5 C 134.289,211.783 134.956,212.283 135.5,213C 134.184,213.528 133.517,213.028 133.5,211.5 Z M 187.5,211.5 C 188.289,211.783 188.956,212.283 189.5,213C 188.184,213.528 187.517,213.028 187.5,211.5 Z"/></g>
<g><path style="opacity:0.857" fill="#040a4f" d="M 139.5,99.5 C 135.251,97.9118 131.918,95.2451 129.5,91.5C 132.866,74.3664 126.032,67.3664 109,70.5C 91.5478,67.4501 85.0478,74.4501 89.5,91.5C 86.0897,95.2379 82.0897,98.2379 77.5,100.5C 77.3335,91.1607 77.5002,81.8274 78,72.5C 80.278,67.0544 84.1113,63.0544 89.5,60.5C 102.117,58.027 114.783,57.8603 127.5,60C 133.814,62.6427 137.981,67.1427 140,73.5C 140.824,82.3433 140.657,91.0099 139.5,99.5 Z"/></g>
<g><path style="opacity:0.008" fill="#010102" d="M 129.5,91.5 C 125.035,88.0959 120.369,84.9293 115.5,82C 109.574,80.8898 103.908,81.5564 98.5,84C 95.4691,86.5081 92.4691,89.0081 89.5,91.5C 85.0478,74.4501 91.5478,67.4501 109,70.5C 126.032,67.3664 132.866,74.3664 129.5,91.5 Z"/></g>
<g><path style="opacity:0.868" fill="#f9ce03" d="M 129.5,91.5 C 131.918,95.2451 135.251,97.9118 139.5,99.5C 141.17,102.002 143.336,104.002 146,105.5C 146.799,110.087 146.632,114.587 145.5,119C 143.613,119.163 142.113,118.329 141,116.5C 140.501,121.489 140.334,126.489 140.5,131.5C 136.833,131.5 133.167,131.5 129.5,131.5C 129.803,123.111 129.47,114.778 128.5,106.5C 123.369,102.54 118.369,98.3732 113.5,94C 109.913,91.8511 106.58,92.1845 103.5,95C 98.9788,99.0223 94.3121,102.856 89.5,106.5C 89.3981,114.713 89.3981,123.046 89.5,131.5C 85.5,131.5 81.5,131.5 77.5,131.5C 77.6659,126.489 77.4993,121.489 77,116.5C 75.5557,118.155 73.7224,118.822 71.5,118.5C 71.3343,114.154 71.501,109.821 72,105.5C 74.0289,103.967 75.8622,102.301 77.5,100.5C 82.0897,98.2379 86.0897,95.2379 89.5,91.5C 92.4691,89.0081 95.4691,86.5081 98.5,84C 103.908,81.5564 109.574,80.8898 115.5,82C 120.369,84.9293 125.035,88.0959 129.5,91.5 Z"/></g>
<g><path style="opacity:0.804" fill="#030a4f" d="M 104.5,115.5 C 111.215,113.693 115.548,116.026 117.5,122.5C 116.982,124.9 115.815,126.9 114,128.5C 113.502,131.482 113.335,134.482 113.5,137.5C 110.552,137.777 107.719,137.444 105,136.5C 104.817,131.668 103.651,127.168 101.5,123C 101.548,120.078 102.548,117.578 104.5,115.5 Z"/></g>
<g><path style="opacity:0.854" fill="#030a4e" d="M 140.5,132.5 C 140.533,136.869 140.2,141.202 139.5,145.5C 137.799,146.211 136.799,147.545 136.5,149.5C 135.833,149.5 135.5,149.833 135.5,150.5C 131.66,153.418 127.327,155.251 122.5,156C 111.783,156.875 101.116,156.541 90.5,155C 80.6941,150.816 76.3607,143.316 77.5,132.5C 81.5,132.5 85.5,132.5 89.5,132.5C 89.032,136.467 90.032,139.967 92.5,143C 98.0869,144.094 103.754,144.594 109.5,144.5C 114.941,144.618 120.274,144.118 125.5,143C 128.87,140.303 130.204,136.803 129.5,132.5C 133.167,132.5 136.833,132.5 140.5,132.5 Z"/></g>
</svg>
