<?xml version="1.0" encoding="UTF-8"?>
<!DOCTYPE svg PUBLIC "-//W3C//DTD SVG 1.1//EN" "http://www.w3.org/Graphics/SVG/1.1/DTD/svg11.dtd">
<svg xmlns="http://www.w3.org/2000/svg" version="1.1" width="96px" height="96px" style="shape-rendering:geometricPrecision; text-rendering:geometricPrecision; image-rendering:optimizeQuality; fill-rule:evenodd; clip-rule:evenodd" xmlns:xlink="http://www.w3.org/1999/xlink">
<g><path style="opacity:0.008" fill="#020202" d="M -0.5,-0.5 C 31.5,-0.5 63.5,-0.5 95.5,-0.5C 95.5,31.5 95.5,63.5 95.5,95.5C 63.5,95.5 31.5,95.5 -0.5,95.5C -0.5,63.5 -0.5,31.5 -0.5,-0.5 Z"/></g>
<g><path style="opacity:0.987" fill="#f9f9f9" d="M 91.5,57.5 C 80.6318,85.1031 60.6318,95.6031 31.5,89C 18.1073,82.1074 8.774,71.6074 3.5,57.5C -0.132047,36.0906 7.20129,19.4239 25.5,7.5C 49.848,-2.55229 70.0147,2.78104 86,23.5C 92.1981,34.2113 94.0315,45.5446 91.5,57.5 Z"/></g>
<g><path style="opacity:1" fill="#121558" d="M 65.5,41.5 C 64.7377,39.7376 63.4044,38.7376 61.5,38.5C 64.174,27.1826 59.8406,22.1826 48.5,23.5C 36.7627,21.9099 32.4294,26.9099 35.5,38.5C 33.5956,38.7376 32.2623,39.7376 31.5,41.5C 25.1795,25.4925 30.6795,17.8258 48,18.5C 65.5347,17.6237 71.368,25.2904 65.5,41.5 Z"/></g>
<g><path style="opacity:1" fill="#f5f4f5" d="M 61.5,38.5 C 59.1137,37.6267 57.1137,36.1267 55.5,34C 52.1191,31.7552 48.4525,31.0885 44.5,32C 41.6215,34.3852 38.6215,36.5518 35.5,38.5C 32.4294,26.9099 36.7627,21.9099 48.5,23.5C 59.8406,22.1826 64.174,27.1826 61.5,38.5 Z"/></g>
<g><path style="opacity:1" fill="#fed526" d="M 61.5,38.5 C 62.2623,40.2624 63.5956,41.2624 65.5,41.5C 68.1391,43.9579 70.1391,46.7912 71.5,50C 71.4624,53.8881 70.2958,54.3881 68,51.5C 67.5014,55.1516 67.3347,58.8183 67.5,62.5C 65.5,62.5 63.5,62.5 61.5,62.5C 61.666,57.1563 61.4994,51.8229 61,46.5C 57.227,42.8847 53.0604,39.8847 48.5,37.5C 43.9396,39.8847 39.773,42.8847 36,46.5C 35.5006,51.8229 35.334,57.1563 35.5,62.5C 33.5,62.5 31.5,62.5 29.5,62.5C 29.6653,58.8183 29.4986,55.1516 29,51.5C 26.7042,54.3881 25.5376,53.8881 25.5,50C 25.6667,48.8333 25.8333,47.6667 26,46.5C 28.3284,45.3365 30.1618,43.6698 31.5,41.5C 33.4044,41.2624 34.7377,40.2624 35.5,38.5C 38.6215,36.5518 41.6215,34.3852 44.5,32C 48.4525,31.0885 52.1191,31.7552 55.5,34C 57.1137,36.1267 59.1137,37.6267 61.5,38.5 Z"/></g>
<g><path style="opacity:1" fill="#aaa7b4" d="M 61.5,38.5 C 63.4044,38.7376 64.7377,39.7376 65.5,41.5C 63.5956,41.2624 62.2623,40.2624 61.5,38.5 Z"/></g>
<g><path style="opacity:1" fill="#d0cabe" d="M 35.5,38.5 C 34.7377,40.2624 33.4044,41.2624 31.5,41.5C 32.2623,39.7376 33.5956,38.7376 35.5,38.5 Z"/></g>
<g><path style="opacity:1" fill="#222061" d="M 46.5,52.5 C 48.7224,52.178 50.5557,52.8446 52,54.5C 51.6324,58.1329 51.1324,61.7995 50.5,65.5C 49.1667,65.5 47.8333,65.5 46.5,65.5C 46.5612,62.5123 45.8945,59.6789 44.5,57C 44.5186,55.167 45.1852,53.667 46.5,52.5 Z"/></g>
<g><path style="opacity:0.323" fill="#a5a5a5" d="M 3.5,57.5 C 8.774,71.6074 18.1073,82.1074 31.5,89C 60.6318,95.6031 80.6318,85.1031 91.5,57.5C 85.6201,80.6369 70.6201,92.6369 46.5,93.5C 23.3401,92.0044 9.00681,80.0044 3.5,57.5 Z"/></g>
<g><path style="opacity:1" fill="#0e1255" d="M 29.5,63.5 C 31.5,63.5 33.5,63.5 35.5,63.5C 35.317,65.9363 35.9837,68.103 37.5,70C 44.0573,71.5863 50.724,71.9196 57.5,71C 60.5388,69.4229 61.8721,66.9229 61.5,63.5C 63.5,63.5 65.5,63.5 67.5,63.5C 65.7937,74.6236 59.2937,78.9569 48,76.5C 37.1484,78.6678 30.9817,74.3345 29.5,63.5 Z"/></g>
</svg>
