<?xml version="1.0" encoding="UTF-8"?>
<!DOCTYPE svg PUBLIC "-//W3C//DTD SVG 1.1//EN" "http://www.w3.org/Graphics/SVG/1.1/DTD/svg11.dtd">
<svg xmlns="http://www.w3.org/2000/svg" version="1.1" width="120px" height="120px" style="shape-rendering:geometricPrecision; text-rendering:geometricPrecision; image-rendering:optimizeQuality; fill-rule:evenodd; clip-rule:evenodd" xmlns:xlink="http://www.w3.org/1999/xlink">
<g><path style="opacity:1" fill="#040838" d="M -0.5,-0.5 C 39.5,-0.5 79.5,-0.5 119.5,-0.5C 119.5,39.5 119.5,79.5 119.5,119.5C 79.5,119.5 39.5,119.5 -0.5,119.5C -0.5,79.5 -0.5,39.5 -0.5,-0.5 Z"/></g>
<g><path style="opacity:1" fill="#8a8ca2" d="M 60.5,12.5 C 59.391,12.5569 58.391,12.8902 57.5,13.5C 58.0527,11.4482 59.0527,11.1148 60.5,12.5 Z"/></g>
<g><path style="opacity:1" fill="#e1e0e0" d="M 60.5,12.5 C 61.8897,13.8993 62.8897,15.5659 63.5,17.5C 63.5,18.5 63.5,19.5 63.5,20.5C 63.1667,20.5 62.8333,20.5 62.5,20.5C 62.6309,19.6236 62.2975,18.9569 61.5,18.5C 60.1735,34.3283 60.1735,49.9949 61.5,65.5C 60.791,66.404 59.791,66.7373 58.5,66.5C 58.5,66.1667 58.5,65.8333 58.5,65.5C 59.4964,49.6754 59.8297,33.6754 59.5,17.5C 58.1667,17.5 56.8333,17.5 55.5,17.5C 55.5,18.5 55.5,19.5 55.5,20.5C 50.5256,28.7949 45.1923,36.7949 39.5,44.5C 38.391,44.5569 37.391,44.8902 36.5,45.5C 43.0057,34.483 50.0057,23.8163 57.5,13.5C 58.391,12.8902 59.391,12.5569 60.5,12.5 Z"/></g>
<g><path style="opacity:1" fill="#f9e9ba" d="M 58.5,65.5 C 58.8327,49.8192 58.4994,34.1525 57.5,18.5C 56.7025,18.9569 56.3691,19.6236 56.5,20.5C 56.1667,20.5 55.8333,20.5 55.5,20.5C 55.5,19.5 55.5,18.5 55.5,17.5C 56.8333,17.5 58.1667,17.5 59.5,17.5C 59.8297,33.6754 59.4964,49.6754 58.5,65.5 Z"/></g>
<g><path style="opacity:1" fill="#f2c53f" d="M 58.5,65.5 C 58.1667,65.5 57.8333,65.5 57.5,65.5C 57.8294,50.324 57.4961,35.324 56.5,20.5C 56.3691,19.6236 56.7025,18.9569 57.5,18.5C 58.4994,34.1525 58.8327,49.8192 58.5,65.5 Z"/></g>
<g><path style="opacity:1" fill="#f0b816" d="M 55.5,20.5 C 55.8333,20.5 56.1667,20.5 56.5,20.5C 57.4961,35.324 57.8294,50.324 57.5,65.5C 47.4957,68.6075 37.829,72.2742 28.5,76.5C 25.8478,76.4095 23.5145,77.0762 21.5,78.5C 17.6063,80.1054 16.773,79.1054 19,75.5C 26.0556,65.2846 32.889,54.9512 39.5,44.5C 45.1923,36.7949 50.5256,28.7949 55.5,20.5 Z"/></g>
<g><path style="opacity:1" fill="#0c2e65" d="M 62.5,20.5 C 62.8333,20.5 63.1667,20.5 63.5,20.5C 76.0824,39.3296 88.4157,58.3296 100.5,77.5C 100.158,78.3382 99.4916,78.6716 98.5,78.5C 86.0422,74.3484 73.7089,70.015 61.5,65.5C 61.1706,50.324 61.5039,35.324 62.5,20.5 Z"/></g>
<g><path style="opacity:1" fill="#c6cad6" d="M 63.5,17.5 C 77.3163,37.1191 90.6497,57.1191 103.5,77.5C 102.842,78.3984 102.176,79.3984 101.5,80.5C 100.893,80.3764 100.56,80.0431 100.5,79.5C 101.833,78.8333 101.833,78.1667 100.5,77.5C 88.4157,58.3296 76.0824,39.3296 63.5,20.5C 63.5,19.5 63.5,18.5 63.5,17.5 Z"/></g>
<g><path style="opacity:1" fill="#778caa" d="M 62.5,20.5 C 61.5039,35.324 61.1706,50.324 61.5,65.5C 60.1735,49.9949 60.1735,34.3283 61.5,18.5C 62.2975,18.9569 62.6309,19.6236 62.5,20.5 Z"/></g>
<g><path style="opacity:1" fill="#a7a8b9" d="M 36.5,45.5 C 36.573,47.0269 35.9063,48.0269 34.5,48.5C 34.427,46.9731 35.0937,45.9731 36.5,45.5 Z"/></g>
<g><path style="opacity:1" fill="#a7a9ba" d="M 34.5,48.5 C 34.573,50.0269 33.9063,51.0269 32.5,51.5C 32.427,49.9731 33.0937,48.9731 34.5,48.5 Z"/></g>
<g><path style="opacity:1" fill="#a8a9ba" d="M 28.5,57.5 C 28.573,59.0269 27.9063,60.0269 26.5,60.5C 26.427,58.9731 27.0937,57.9731 28.5,57.5 Z"/></g>
<g><path style="opacity:1" fill="#a1a2b5" d="M 26.5,60.5 C 26.573,62.0269 25.9063,63.0269 24.5,63.5C 24.427,61.9731 25.0937,60.9731 26.5,60.5 Z"/></g>
<g><path style="opacity:1" fill="#a6a8b9" d="M 24.5,63.5 C 24.573,65.0269 23.9063,66.0269 22.5,66.5C 22.427,64.9731 23.0937,63.9731 24.5,63.5 Z"/></g>
<g><path style="opacity:1" fill="#f1ebde" d="M 39.5,44.5 C 32.889,54.9512 26.0556,65.2846 19,75.5C 16.773,79.1054 17.6063,80.1054 21.5,78.5C 20.3646,80.2132 18.698,80.8799 16.5,80.5C 16.5172,78.4352 16.8505,76.4352 17.5,74.5C 17.7497,72.326 18.7497,70.6594 20.5,69.5C 21.9063,69.0269 22.573,68.0269 22.5,66.5C 23.9063,66.0269 24.573,65.0269 24.5,63.5C 25.9063,63.0269 26.573,62.0269 26.5,60.5C 27.9063,60.0269 28.573,59.0269 28.5,57.5C 29.3403,55.1475 30.6736,53.1475 32.5,51.5C 33.9063,51.0269 34.573,50.0269 34.5,48.5C 35.9063,48.0269 36.573,47.0269 36.5,45.5C 37.391,44.8902 38.391,44.5569 39.5,44.5 Z"/></g>
<g><path style="opacity:1" fill="#a0a1b4" d="M 22.5,66.5 C 22.573,68.0269 21.9063,69.0269 20.5,69.5C 20.427,67.9731 21.0937,66.9731 22.5,66.5 Z"/></g>
<g><path style="opacity:1" fill="#0d0f0d" d="M 64.5,69.5 C 74.1335,72.8227 83.8002,76.156 93.5,79.5C 71.6705,80.6629 49.6705,80.8295 27.5,80C 28.056,79.6174 28.3893,79.1174 28.5,78.5C 30.3057,77.9759 31.9724,77.3092 33.5,76.5C 35.698,76.8799 37.3646,76.2132 38.5,74.5C 41.7036,73.0991 45.0369,72.0991 48.5,71.5C 53.7139,70.0315 59.0472,69.3649 64.5,69.5 Z"/></g>
<g><path style="opacity:1" fill="#efe5cc" d="M 57.5,65.5 C 57.8333,65.5 58.1667,65.5 58.5,65.5C 58.5,65.8333 58.5,66.1667 58.5,66.5C 57.8333,66.5 57.5,66.8333 57.5,67.5C 54.4279,68.85 51.4279,70.1833 48.5,71.5C 45.0369,72.0991 41.7036,73.0991 38.5,74.5C 36.597,74.7959 34.9303,75.4625 33.5,76.5C 31.8333,76.5 30.1667,76.5 28.5,76.5C 37.829,72.2742 47.4957,68.6075 57.5,65.5 Z"/></g>
<g><path style="opacity:1" fill="#313331" d="M 57.5,67.5 C 60.1522,67.4095 62.4855,68.0762 64.5,69.5C 59.0472,69.3649 53.7139,70.0315 48.5,71.5C 51.4279,70.1833 54.4279,68.85 57.5,67.5 Z"/></g>
<g><path style="opacity:1" fill="#717271" d="M 38.5,74.5 C 37.3646,76.2132 35.698,76.8799 33.5,76.5C 34.9303,75.4625 36.597,74.7959 38.5,74.5 Z"/></g>
<g><path style="opacity:1" fill="#c3c6c9" d="M 61.5,65.5 C 73.7089,70.015 86.0422,74.3484 98.5,78.5C 98.5,78.8333 98.5,79.1667 98.5,79.5C 98.8039,80.1499 99.1373,80.8165 99.5,81.5C 93.2015,82.4963 86.8682,82.8297 80.5,82.5C 80.5,82.1667 80.5,81.8333 80.5,81.5C 86.1764,81.6661 91.8431,81.4994 97.5,81C 96.255,80.2086 94.9217,79.7086 93.5,79.5C 83.8002,76.156 74.1335,72.8227 64.5,69.5C 62.4855,68.0762 60.1522,67.4095 57.5,67.5C 57.5,66.8333 57.8333,66.5 58.5,66.5C 59.791,66.7373 60.791,66.404 61.5,65.5 Z"/></g>
<g><path style="opacity:1" fill="#f2f2f3" d="M 17.5,74.5 C 16.8505,76.4352 16.5172,78.4352 16.5,80.5C 18.698,80.8799 20.3646,80.2132 21.5,78.5C 24.1522,78.5905 26.4855,77.9238 28.5,76.5C 30.1667,76.5 31.8333,76.5 33.5,76.5C 31.9724,77.3092 30.3057,77.9759 28.5,78.5C 26.4214,78.9707 24.4214,79.6373 22.5,80.5C 21.9569,80.56 21.6236,80.8933 21.5,81.5C 41.1554,82.4996 60.822,82.833 80.5,82.5C 86.8682,82.8297 93.2015,82.4963 99.5,81.5C 99.1373,80.8165 98.8039,80.1499 98.5,79.5C 99.1667,79.5 99.8333,79.5 100.5,79.5C 100.56,80.0431 100.893,80.3764 101.5,80.5C 102.176,79.3984 102.842,78.3984 103.5,77.5C 104.925,78.922 105.925,80.5887 106.5,82.5C 91.0036,83.1666 75.3369,83.4999 59.5,83.5C 43.4855,83.4994 27.8188,82.8328 12.5,81.5C 13.9063,81.0269 14.573,80.0269 14.5,78.5C 14.7376,76.5956 15.7376,75.2623 17.5,74.5 Z"/></g>
<g><path style="opacity:1" fill="#556e94" d="M 100.5,77.5 C 101.833,78.1667 101.833,78.8333 100.5,79.5C 99.8333,79.5 99.1667,79.5 98.5,79.5C 98.5,79.1667 98.5,78.8333 98.5,78.5C 99.4916,78.6716 100.158,78.3382 100.5,77.5 Z"/></g>
<g><path style="opacity:1" fill="#fae8b8" d="M 28.5,76.5 C 26.4855,77.9238 24.1522,78.5905 21.5,78.5C 23.5145,77.0762 25.8478,76.4095 28.5,76.5 Z"/></g>
<g><path style="opacity:1" fill="#9c9db1" d="M 14.5,78.5 C 14.573,80.0269 13.9063,81.0269 12.5,81.5C 12.427,79.9731 13.0937,78.9731 14.5,78.5 Z"/></g>
<g><path style="opacity:1" fill="#414441" d="M 28.5,78.5 C 28.3893,79.1174 28.056,79.6174 27.5,80C 49.6705,80.8295 71.6705,80.6629 93.5,79.5C 94.9217,79.7086 96.255,80.2086 97.5,81C 91.8431,81.4994 86.1764,81.6661 80.5,81.5C 60.9928,81.8303 41.6595,81.497 22.5,80.5C 24.4214,79.6373 26.4214,78.9707 28.5,78.5 Z"/></g>
<g><path style="opacity:1" fill="#dddddd" d="M 22.5,80.5 C 41.6595,81.497 60.9928,81.8303 80.5,81.5C 80.5,81.8333 80.5,82.1667 80.5,82.5C 60.822,82.833 41.1554,82.4996 21.5,81.5C 21.6236,80.8933 21.9569,80.56 22.5,80.5 Z"/></g>
<g><path style="opacity:1" fill="#d0d1da" d="M 12.5,81.5 C 27.8188,82.8328 43.4855,83.4994 59.5,83.5C 75.3369,83.4999 91.0036,83.1666 106.5,82.5C 107.167,82.5 107.5,82.8333 107.5,83.5C 91.6702,84.1666 75.6702,84.4999 59.5,84.5C 43.1524,84.4995 27.1524,83.8328 11.5,82.5C 11.5,81.8333 11.8333,81.5 12.5,81.5 Z"/></g>
<g><path style="opacity:1" fill="#4e5274" d="M 11.5,82.5 C 27.1524,83.8328 43.1524,84.4995 59.5,84.5C 75.6702,84.4999 91.6702,84.1666 107.5,83.5C 108.043,83.56 108.376,83.8933 108.5,84.5C 75.8401,85.4999 43.1735,85.8332 10.5,85.5C 10.2627,84.209 10.596,83.209 11.5,82.5 Z"/></g>
</svg>
