<?xml version="1.0" encoding="UTF-8"?>
<!DOCTYPE svg PUBLIC "-//W3C//DTD SVG 1.1//EN" "http://www.w3.org/Graphics/SVG/1.1/DTD/svg11.dtd">
<svg xmlns="http://www.w3.org/2000/svg" version="1.1" width="40px" height="40px" style="shape-rendering:geometricPrecision; text-rendering:geometricPrecision; image-rendering:optimizeQuality; fill-rule:evenodd; clip-rule:evenodd" xmlns:xlink="http://www.w3.org/1999/xlink">
<g><path style="opacity:1" fill="#040a36" d="M -0.5,-0.5 C 12.8333,-0.5 26.1667,-0.5 39.5,-0.5C 39.5,12.8333 39.5,26.1667 39.5,39.5C 26.1667,39.5 12.8333,39.5 -0.5,39.5C -0.5,26.1667 -0.5,12.8333 -0.5,-0.5 Z"/></g>
<g><path style="opacity:1" fill="#7b8a9f" d="M 21.5,6.5 C 21.5,6.83333 21.5,7.16667 21.5,7.5C 20.2001,12.4001 20.2001,17.4001 21.5,22.5C 20.8333,22.5 20.1667,22.5 19.5,22.5C 19.6661,16.8236 19.4994,11.1569 19,5.5C 18.6174,6.05596 18.1174,6.38929 17.5,6.5C 18.8333,2.5 20.1667,2.5 21.5,6.5 Z"/></g>
<g><path style="opacity:1" fill="#af9f80" d="M 16.5,8.5 C 16.2624,10.4044 15.2624,11.7377 13.5,12.5C 13.7376,10.5956 14.7376,9.26231 16.5,8.5 Z"/></g>
<g><path style="opacity:1" fill="#ebb623" d="M 17.5,22.5 C 14.6027,23.129 11.936,24.129 9.5,25.5C 8.32496,25.719 7.32496,25.3857 6.5,24.5C 7.12723,23.5832 7.46056,22.5832 7.5,21.5C 9.26242,20.7377 10.2624,19.4044 10.5,17.5C 10.3284,16.5084 10.6618,15.8417 11.5,15.5C 12.9063,15.0269 13.573,14.0269 13.5,12.5C 15.2624,11.7377 16.2624,10.4044 16.5,8.5C 17.1174,8.38929 17.6174,8.05596 18,7.5C 18.7777,12.5842 18.6111,17.5842 17.5,22.5 Z"/></g>
<g><path style="opacity:1" fill="#0c2e64" d="M 21.5,7.5 C 24.3842,13.0643 27.7176,18.3976 31.5,23.5C 30.8333,23.8333 30.1667,24.1667 29.5,24.5C 27.0983,22.951 24.4317,22.2843 21.5,22.5C 20.2001,17.4001 20.2001,12.4001 21.5,7.5 Z"/></g>
<g><path style="opacity:1" fill="#5a6784" d="M 21.5,6.5 C 26.1912,12.5358 30.5245,18.8691 34.5,25.5C 32.4352,25.5172 30.4352,25.8505 28.5,26.5C 26.0538,25.3123 23.7205,23.979 21.5,22.5C 24.4317,22.2843 27.0983,22.951 29.5,24.5C 30.1667,24.1667 30.8333,23.8333 31.5,23.5C 27.7176,18.3976 24.3842,13.0643 21.5,7.5C 21.5,7.16667 21.5,6.83333 21.5,6.5 Z"/></g>
<g><path style="opacity:1" fill="#e4c25f" d="M 19.5,22.5 C 18.8333,22.5 18.1667,22.5 17.5,22.5C 18.6111,17.5842 18.7777,12.5842 18,7.5C 17.6174,8.05596 17.1174,8.38929 16.5,8.5C 16.3284,7.50838 16.6618,6.84171 17.5,6.5C 18.1174,6.38929 18.6174,6.05596 19,5.5C 19.4994,11.1569 19.6661,16.8236 19.5,22.5 Z"/></g>
<g><path style="opacity:1" fill="#978d80" d="M 13.5,12.5 C 13.573,14.0269 12.9063,15.0269 11.5,15.5C 11.427,13.9731 12.0937,12.9731 13.5,12.5 Z"/></g>
<g><path style="opacity:1" fill="#afa083" d="M 10.5,17.5 C 10.2624,19.4044 9.26242,20.7377 7.5,21.5C 7.73758,19.5956 8.73758,18.2623 10.5,17.5 Z"/></g>
<g><path style="opacity:1" fill="#4e4c41" d="M 17.5,22.5 C 15.9586,23.6668 14.6252,25.0001 13.5,26.5C 11.901,26.7678 10.5676,26.4345 9.5,25.5C 11.936,24.129 14.6027,23.129 17.5,22.5 Z"/></g>
<g><path style="opacity:1" fill="#1d1f1d" d="M 17.5,22.5 C 18.1667,22.5 18.8333,22.5 19.5,22.5C 20.1667,22.5 20.8333,22.5 21.5,22.5C 23.7205,23.979 26.0538,25.3123 28.5,26.5C 23.5,26.5 18.5,26.5 13.5,26.5C 14.6252,25.0001 15.9586,23.6668 17.5,22.5 Z"/></g>
<g><path style="opacity:1" fill="#939394" d="M 7.5,21.5 C 7.46056,22.5832 7.12723,23.5832 6.5,24.5C 7.32496,25.3857 8.32496,25.719 9.5,25.5C 10.5676,26.4345 11.901,26.7678 13.5,26.5C 18.5,26.5 23.5,26.5 28.5,26.5C 30.4352,25.8505 32.4352,25.5172 34.5,25.5C 34.5,25.8333 34.5,26.1667 34.5,26.5C 29.6782,27.166 24.6782,27.4993 19.5,27.5C 14.1194,27.4942 9.11936,26.8275 4.5,25.5C 5.02561,23.7697 6.02561,22.4363 7.5,21.5 Z"/></g>
<g><path style="opacity:1" fill="#676a85" d="M 4.5,25.5 C 9.11936,26.8275 14.1194,27.4942 19.5,27.5C 24.6782,27.4993 29.6782,27.166 34.5,26.5C 35.0431,26.56 35.3764,26.8933 35.5,27.5C 24.8541,28.4987 14.1874,28.832 3.5,28.5C 3.26269,27.209 3.59603,26.209 4.5,25.5 Z"/></g>
</svg>
