<?xml version="1.0" encoding="UTF-8"?>
<!DOCTYPE svg PUBLIC "-//W3C//DTD SVG 1.1//EN" "http://www.w3.org/Graphics/SVG/1.1/DTD/svg11.dtd">
<svg xmlns="http://www.w3.org/2000/svg" version="1.1" width="87px" height="87px" style="shape-rendering:geometricPrecision; text-rendering:geometricPrecision; image-rendering:optimizeQuality; fill-rule:evenodd; clip-rule:evenodd" xmlns:xlink="http://www.w3.org/1999/xlink">
<g><path style="opacity:1" fill="#040938" d="M -0.5,-0.5 C 28.5,-0.5 57.5,-0.5 86.5,-0.5C 86.5,28.5 86.5,57.5 86.5,86.5C 57.5,86.5 28.5,86.5 -0.5,86.5C -0.5,57.5 -0.5,28.5 -0.5,-0.5 Z"/></g>
<g><path style="opacity:1" fill="#f0b817" d="M 40.5,14.5 C 41.4946,25.3206 41.8279,36.3206 41.5,47.5C 32.4891,50.2756 23.8225,53.6089 15.5,57.5C 14.209,57.7373 13.209,57.404 12.5,56.5C 21.7485,43.0046 30.7485,29.338 39.5,15.5C 40.1667,15.5 40.5,15.1667 40.5,14.5 Z"/></g>
<g><path style="opacity:1" fill="#0d2e65" d="M 45.5,14.5 C 54.8595,28.851 64.1928,43.1843 73.5,57.5C 71.8828,56.962 70.2161,56.6287 68.5,56.5C 60.9829,53.3236 53.3163,50.3236 45.5,47.5C 45.1667,47.5 44.8333,47.5 44.5,47.5C 44.1721,36.3206 44.5054,25.3206 45.5,14.5 Z"/></g>
<g><path style="opacity:1" fill="#eae2ce" d="M 44.5,10.5 C 44.4431,11.609 44.1098,12.609 43.5,13.5C 43.1719,25.0123 43.5052,36.3456 44.5,47.5C 44.8333,47.5 45.1667,47.5 45.5,47.5C 44.1667,48.1667 42.8333,48.8333 41.5,49.5C 33.4379,51.9651 25.4379,54.6318 17.5,57.5C 17.1667,57.5 16.8333,57.5 16.5,57.5C 16.1667,57.5 15.8333,57.5 15.5,57.5C 23.8225,53.6089 32.4891,50.2756 41.5,47.5C 42.824,36.3265 42.824,24.9931 41.5,13.5C 40.8933,13.6236 40.56,13.9569 40.5,14.5C 40.5,15.1667 40.1667,15.5 39.5,15.5C 39.5,14.5 39.5,13.5 39.5,12.5C 40.4787,10.8546 41.812,9.5213 43.5,8.5C 44.2975,8.95689 44.6309,9.62356 44.5,10.5 Z"/></g>
<g><path style="opacity:1" fill="#d3cfcb" d="M 39.5,12.5 C 39.5,13.5 39.5,14.5 39.5,15.5C 30.7485,29.338 21.7485,43.0046 12.5,56.5C 11.5,57.1667 10.5,57.8333 9.5,58.5C 19.114,42.8917 29.114,27.5583 39.5,12.5 Z"/></g>
<g><path style="opacity:1" fill="#f3cc57" d="M 40.5,14.5 C 40.56,13.9569 40.8933,13.6236 41.5,13.5C 42.824,24.9931 42.824,36.3265 41.5,47.5C 41.8279,36.3206 41.4946,25.3206 40.5,14.5 Z"/></g>
<g><path style="opacity:1" fill="#8c9eb7" d="M 43.5,13.5 C 44.4916,13.3284 45.1583,13.6618 45.5,14.5C 44.5054,25.3206 44.1721,36.3206 44.5,47.5C 43.5052,36.3456 43.1719,25.0123 43.5,13.5 Z"/></g>
<g><path style="opacity:1" fill="#b5bbca" d="M 44.5,10.5 C 55.2187,25.8906 65.5521,41.5572 75.5,57.5C 74.8333,57.5 74.1667,57.5 73.5,57.5C 64.1928,43.1843 54.8595,28.851 45.5,14.5C 45.1583,13.6618 44.4916,13.3284 43.5,13.5C 44.1098,12.609 44.4431,11.609 44.5,10.5 Z"/></g>
<g><path style="opacity:1" fill="#131513" d="M 41.5,49.5 C 50.5744,51.8679 59.5744,54.5346 68.5,57.5C 51.5,58.8333 34.5,58.8333 17.5,57.5C 25.4379,54.6318 33.4379,51.9651 41.5,49.5 Z"/></g>
<g><path style="opacity:1" fill="#aaaeb2" d="M 45.5,47.5 C 53.3163,50.3236 60.9829,53.3236 68.5,56.5C 68.5,56.8333 68.5,57.1667 68.5,57.5C 59.5744,54.5346 50.5744,51.8679 41.5,49.5C 42.8333,48.8333 44.1667,48.1667 45.5,47.5 Z"/></g>
<g><path style="opacity:1" fill="#edeeef" d="M 12.5,56.5 C 13.209,57.404 14.209,57.7373 15.5,57.5C 15.8333,57.5 16.1667,57.5 16.5,57.5C 25.141,58.8316 34.141,59.4983 43.5,59.5C 52.5,59.1667 61.5,58.8333 70.5,58.5C 70.0431,57.7025 69.3764,57.3691 68.5,57.5C 68.5,57.1667 68.5,56.8333 68.5,56.5C 70.2161,56.6287 71.8828,56.962 73.5,57.5C 74.1667,57.5 74.8333,57.5 75.5,57.5C 75.4142,58.4959 75.7476,59.3292 76.5,60C 53.6629,60.8296 30.9963,60.663 8.5,59.5C 8.5,58.8333 8.83333,58.5 9.5,58.5C 10.5,57.8333 11.5,57.1667 12.5,56.5 Z"/></g>
<g><path style="opacity:1" fill="#959695" d="M 16.5,57.5 C 16.8333,57.5 17.1667,57.5 17.5,57.5C 34.5,58.8333 51.5,58.8333 68.5,57.5C 69.3764,57.3691 70.0431,57.7025 70.5,58.5C 61.5,58.8333 52.5,59.1667 43.5,59.5C 34.141,59.4983 25.141,58.8316 16.5,57.5 Z"/></g>
<g><path style="opacity:1" fill="#9ea0b3" d="M 75.5,57.5 C 76.5,57.8333 77.1667,58.5 77.5,59.5C 54.5239,61.4899 31.1906,62.1565 7.5,61.5C 7.32842,60.5084 7.66175,59.8417 8.5,59.5C 30.9963,60.663 53.6629,60.8296 76.5,60C 75.7476,59.3292 75.4142,58.4959 75.5,57.5 Z"/></g>
<g><path style="opacity:1" fill="#21244f" d="M 77.5,59.5 C 78.404,60.209 78.7373,61.209 78.5,62.5C 54.6608,62.8309 30.9941,62.4976 7.5,61.5C 31.1906,62.1565 54.5239,61.4899 77.5,59.5 Z"/></g>
</svg>
