<?xml version="1.0" encoding="UTF-8"?>
<!DOCTYPE svg PUBLIC "-//W3C//DTD SVG 1.1//EN" "http://www.w3.org/Graphics/SVG/1.1/DTD/svg11.dtd">
<svg xmlns="http://www.w3.org/2000/svg" version="1.1" width="180px" height="180px" style="shape-rendering:geometricPrecision; text-rendering:geometricPrecision; image-rendering:optimizeQuality; fill-rule:evenodd; clip-rule:evenodd" xmlns:xlink="http://www.w3.org/1999/xlink">
<g><path style="opacity:1" fill="#040939" d="M -0.5,-0.5 C 59.5,-0.5 119.5,-0.5 179.5,-0.5C 179.5,59.5 179.5,119.5 179.5,179.5C 119.5,179.5 59.5,179.5 -0.5,179.5C -0.5,119.5 -0.5,59.5 -0.5,-0.5 Z"/></g>
<g><path style="opacity:1" fill="#f3f3f2" d="M 160.5,124.5 C 137.009,125.833 113.176,126.5 89,126.5C 64.8239,126.5 40.9905,125.833 17.5,124.5C 41.1152,88.2229 65.1152,52.2229 89.5,16.5C 113.193,52.5177 136.859,88.5177 160.5,124.5 Z"/></g>
<g><path style="opacity:1" fill="#f6d36e" d="M 86.5,27.5 C 86.56,26.9569 86.8933,26.6236 87.5,26.5C 88.8286,49.3298 88.8286,71.9964 87.5,94.5C 87.8308,71.9938 87.4974,49.6604 86.5,27.5 Z"/></g>
<g><path style="opacity:1" fill="#f1b811" d="M 86.5,27.5 C 87.4974,49.6604 87.8308,71.9938 87.5,94.5C 87.7135,96.1439 87.3802,97.6439 86.5,99C 65.9325,106.244 45.5991,113.077 25.5,119.5C 45.8436,88.8048 66.1769,58.1381 86.5,27.5 Z"/></g>
<g><path style="opacity:1" fill="#072c64" d="M 93.5,29.5 C 113.452,59.897 133.785,90.0636 154.5,120C 133.744,113.358 113.078,106.191 92.5,98.5C 92.1692,75.3273 92.5025,52.3273 93.5,29.5 Z"/></g>
<g><path style="opacity:1" fill="#395884" d="M 93.5,29.5 C 92.5025,52.3273 92.1692,75.3273 92.5,98.5C 91.3369,75.0036 91.1702,51.3369 92,27.5C 92.7172,28.0442 93.2172,28.7109 93.5,29.5 Z"/></g>
<g><path style="opacity:1" fill="#0c0f0c" d="M 144.5,120.5 C 121.339,121.498 98.006,121.831 74.5,121.5C 61.3226,121.829 48.3226,121.495 35.5,120.5C 53.2096,113.874 71.043,107.541 89,101.5C 107.473,107.935 125.973,114.269 144.5,120.5 Z"/></g>
<g><path style="opacity:1" fill="#5d5f5d" d="M 35.5,120.5 C 48.3226,121.495 61.3226,121.829 74.5,121.5C 74.5,121.833 74.5,122.167 74.5,122.5C 60.496,122.667 46.496,122.5 32.5,122C 33.5266,121.487 34.5266,120.987 35.5,120.5 Z"/></g>
<g><path style="opacity:1" fill="#2d302d" d="M 144.5,120.5 C 145.766,121.09 147.099,121.59 148.5,122C 123.836,122.5 99.1689,122.667 74.5,122.5C 74.5,122.167 74.5,121.833 74.5,121.5C 98.006,121.831 121.339,121.498 144.5,120.5 Z"/></g>
<g><path style="opacity:1" fill="#b7b8c6" d="M 17.5,124.5 C 40.9905,125.833 64.8239,126.5 89,126.5C 113.176,126.5 137.009,125.833 160.5,124.5C 161.478,124.811 162.145,125.478 162.5,126.5C 113.5,127.833 64.5,127.833 15.5,126.5C 15.8555,125.478 16.5222,124.811 17.5,124.5 Z"/></g>
</svg>
