<?xml version="1.0" encoding="UTF-8"?>
<!DOCTYPE svg PUBLIC "-//W3C//DTD SVG 1.1//EN" "http://www.w3.org/Graphics/SVG/1.1/DTD/svg11.dtd">
<svg xmlns="http://www.w3.org/2000/svg" version="1.1" width="76px" height="76px" style="shape-rendering:geometricPrecision; text-rendering:geometricPrecision; image-rendering:optimizeQuality; fill-rule:evenodd; clip-rule:evenodd" xmlns:xlink="http://www.w3.org/1999/xlink">
<g><path style="opacity:1" fill="#040a37" d="M -0.5,-0.5 C 24.8333,-0.5 50.1667,-0.5 75.5,-0.5C 75.5,24.8333 75.5,50.1667 75.5,75.5C 50.1667,75.5 24.8333,75.5 -0.5,75.5C -0.5,50.1667 -0.5,24.8333 -0.5,-0.5 Z"/></g>
<g><path style="opacity:1" fill="#83859c" d="M 38.5,8.5 C 37.391,8.55688 36.391,8.89022 35.5,9.5C 36.1403,6.31784 37.1403,5.98451 38.5,8.5 Z"/></g>
<g><path style="opacity:1" fill="#e9e7e1" d="M 38.5,8.5 C 38.4142,9.4959 38.7476,10.3292 39.5,11C 38.9056,11.4643 38.2389,11.631 37.5,11.5C 36.8333,11.5 36.1667,11.5 35.5,11.5C 35.5,10.8333 35.5,10.1667 35.5,9.5C 36.391,8.89022 37.391,8.55688 38.5,8.5 Z"/></g>
<g><path style="opacity:1" fill="#f0d78c" d="M 35.5,11.5 C 36.1667,11.5 36.8333,11.5 37.5,11.5C 37.8274,21.6806 37.494,31.6806 36.5,41.5C 36.6665,31.8276 36.4998,22.1609 36,12.5C 35.6174,13.056 35.1174,13.3893 34.5,13.5C 34.3284,12.5084 34.6618,11.8417 35.5,11.5 Z"/></g>
<g><path style="opacity:1" fill="#a09ea7" d="M 35.5,9.5 C 35.5,10.1667 35.5,10.8333 35.5,11.5C 34.6618,11.8417 34.3284,12.5084 34.5,13.5C 33.6618,13.8417 33.3284,14.5084 33.5,15.5C 32.0937,15.9731 31.427,16.9731 31.5,18.5C 30.0937,18.9731 29.427,19.9731 29.5,21.5C 27.7376,22.2623 26.7376,23.5956 26.5,25.5C 25.0937,25.9731 24.427,26.9731 24.5,28.5C 23.8333,28.5 23.5,28.8333 23.5,29.5C 23.1667,29.5 22.8333,29.5 22.5,29.5C 26.0536,22.2889 30.3869,15.6223 35.5,9.5 Z"/></g>
<g><path style="opacity:1" fill="#0b2d64" d="M 40.5,15.5 C 47.6599,25.1477 54.3266,35.1477 60.5,45.5C 60.6309,46.3764 60.2975,47.0431 59.5,47.5C 57.3821,46.0541 55.0488,45.3874 52.5,45.5C 48.2157,44.7387 44.2157,43.4053 40.5,41.5C 39.1855,32.735 39.1855,24.0683 40.5,15.5 Z"/></g>
<g><path style="opacity:1" fill="#f1d075" d="M 33.5,15.5 C 33.573,17.0269 32.9063,18.0269 31.5,18.5C 31.427,16.9731 32.0937,15.9731 33.5,15.5 Z"/></g>
<g><path style="opacity:1" fill="#385682" d="M 39.5,12.5 C 40.1098,13.391 40.4431,14.391 40.5,15.5C 39.1855,24.0683 39.1855,32.735 40.5,41.5C 40.1667,41.5 39.8333,41.5 39.5,41.5C 38.1667,31.8333 38.1667,22.1667 39.5,12.5 Z"/></g>
<g><path style="opacity:1" fill="#f0d075" d="M 31.5,18.5 C 31.573,20.0269 30.9063,21.0269 29.5,21.5C 29.427,19.9731 30.0937,18.9731 31.5,18.5 Z"/></g>
<g><path style="opacity:1" fill="#efb81d" d="M 36.5,41.5 C 35.8333,41.5 35.5,41.8333 35.5,42.5C 34.0413,42.4326 32.7079,42.7659 31.5,43.5C 27.6052,44.4624 23.9385,45.7957 20.5,47.5C 17.8187,47.4621 15.3187,48.1287 13,49.5C 12.5,49.3333 12,49.1667 11.5,49C 12.2524,48.3292 12.5858,47.4959 12.5,46.5C 13.9063,46.0269 14.573,45.0269 14.5,43.5C 15.9063,43.0269 16.573,42.0269 16.5,40.5C 16.3284,39.5084 16.6618,38.8417 17.5,38.5C 19.7349,35.7089 21.7349,32.7089 23.5,29.5C 23.5,28.8333 23.8333,28.5 24.5,28.5C 25.9063,28.0269 26.573,27.0269 26.5,25.5C 28.2624,24.7377 29.2624,23.4044 29.5,21.5C 30.9063,21.0269 31.573,20.0269 31.5,18.5C 32.9063,18.0269 33.573,17.0269 33.5,15.5C 33.3284,14.5084 33.6618,13.8417 34.5,13.5C 35.1174,13.3893 35.6174,13.056 36,12.5C 36.4998,22.1609 36.6665,31.8276 36.5,41.5 Z"/></g>
<g><path style="opacity:1" fill="#b3babf" d="M 38.5,8.5 C 39.9063,8.97306 40.573,9.97306 40.5,11.5C 40.5,12.1667 40.1667,12.5 39.5,12.5C 38.1667,22.1667 38.1667,31.8333 39.5,41.5C 38.4324,42.4345 37.099,42.7678 35.5,42.5C 35.5,41.8333 35.8333,41.5 36.5,41.5C 37.494,31.6806 37.8274,21.6806 37.5,11.5C 38.2389,11.631 38.9056,11.4643 39.5,11C 38.7476,10.3292 38.4142,9.4959 38.5,8.5 Z"/></g>
<g><path style="opacity:1" fill="#efd17f" d="M 29.5,21.5 C 29.2624,23.4044 28.2624,24.7377 26.5,25.5C 26.7376,23.5956 27.7376,22.2623 29.5,21.5 Z"/></g>
<g><path style="opacity:1" fill="#8e97a9" d="M 40.5,11.5 C 49.3275,23.816 57.6608,36.4827 65.5,49.5C 63.8333,50.1667 62.1667,50.8333 60.5,51.5C 59.3646,49.7868 57.698,49.1201 55.5,49.5C 50.6597,47.5287 45.6597,45.6954 40.5,44C 37.4453,43.3658 34.4453,43.5325 31.5,44.5C 31.5,44.1667 31.5,43.8333 31.5,43.5C 32.7079,42.7659 34.0413,42.4326 35.5,42.5C 37.099,42.7678 38.4324,42.4345 39.5,41.5C 39.8333,41.5 40.1667,41.5 40.5,41.5C 44.2157,43.4053 48.2157,44.7387 52.5,45.5C 55.8452,47.9524 59.5118,48.9524 63.5,48.5C 62.8118,47.1451 61.8118,46.1451 60.5,45.5C 54.3266,35.1477 47.6599,25.1477 40.5,15.5C 40.4431,14.391 40.1098,13.391 39.5,12.5C 40.1667,12.5 40.5,12.1667 40.5,11.5 Z"/></g>
<g><path style="opacity:1" fill="#ecd593" d="M 26.5,25.5 C 26.573,27.0269 25.9063,28.0269 24.5,28.5C 24.427,26.9731 25.0937,25.9731 26.5,25.5 Z"/></g>
<g><path style="opacity:1" fill="#c3bdb8" d="M 22.5,29.5 C 22.8333,29.5 23.1667,29.5 23.5,29.5C 21.7349,32.7089 19.7349,35.7089 17.5,38.5C 17.5,37.8333 17.5,37.1667 17.5,36.5C 18.8109,33.8646 20.4776,31.5313 22.5,29.5 Z"/></g>
<g><path style="opacity:1" fill="#8c8c9d" d="M 17.5,36.5 C 17.5,37.1667 17.5,37.8333 17.5,38.5C 16.6618,38.8417 16.3284,39.5084 16.5,40.5C 15.0937,40.9731 14.427,41.9731 14.5,43.5C 13.0937,43.9731 12.427,44.9731 12.5,46.5C 11.5,46.8333 10.8333,47.5 10.5,48.5C 10.1667,48.5 9.83333,48.5 9.5,48.5C 11.6735,44.1477 14.3401,40.1477 17.5,36.5 Z"/></g>
<g><path style="opacity:1" fill="#ecd69a" d="M 16.5,40.5 C 16.573,42.0269 15.9063,43.0269 14.5,43.5C 14.427,41.9731 15.0937,40.9731 16.5,40.5 Z"/></g>
<g><path style="opacity:1" fill="#111311" d="M 55.5,49.5 C 44.0073,50.6595 32.3407,50.8261 20.5,50C 21.4158,49.7216 22.0825,49.2216 22.5,48.5C 25.2609,46.7951 28.2609,45.4617 31.5,44.5C 34.4453,43.5325 37.4453,43.3658 40.5,44C 45.6597,45.6954 50.6597,47.5287 55.5,49.5 Z"/></g>
<g><path style="opacity:1" fill="#ecd698" d="M 14.5,43.5 C 14.573,45.0269 13.9063,46.0269 12.5,46.5C 12.427,44.9731 13.0937,43.9731 14.5,43.5 Z"/></g>
<g><path style="opacity:1" fill="#36517e" d="M 52.5,45.5 C 55.0488,45.3874 57.3821,46.0541 59.5,47.5C 60.2975,47.0431 60.6309,46.3764 60.5,45.5C 61.8118,46.1451 62.8118,47.1451 63.5,48.5C 59.5118,48.9524 55.8452,47.9524 52.5,45.5 Z"/></g>
<g><path style="opacity:1" fill="#b6ad92" d="M 31.5,43.5 C 31.5,43.8333 31.5,44.1667 31.5,44.5C 28.2609,45.4617 25.2609,46.7951 22.5,48.5C 21.8333,48.5 21.1667,48.5 20.5,48.5C 20.5,48.1667 20.5,47.8333 20.5,47.5C 23.9385,45.7957 27.6052,44.4624 31.5,43.5 Z"/></g>
<g><path style="opacity:1" fill="#ddcea2" d="M 12.5,46.5 C 12.5858,47.4959 12.2524,48.3292 11.5,49C 12,49.1667 12.5,49.3333 13,49.5C 15.3187,48.1287 17.8187,47.4621 20.5,47.5C 20.5,47.8333 20.5,48.1667 20.5,48.5C 18.4214,48.9707 16.4214,49.6373 14.5,50.5C 12.5168,50.8432 11.1834,50.1765 10.5,48.5C 10.8333,47.5 11.5,46.8333 12.5,46.5 Z"/></g>
<g><path style="opacity:1" fill="#585a58" d="M 20.5,48.5 C 21.1667,48.5 21.8333,48.5 22.5,48.5C 22.0825,49.2216 21.4158,49.7216 20.5,50C 32.3407,50.8261 44.0073,50.6595 55.5,49.5C 57.698,49.1201 59.3646,49.7868 60.5,51.5C 44.9909,51.8295 29.6576,51.4962 14.5,50.5C 16.4214,49.6373 18.4214,48.9707 20.5,48.5 Z"/></g>
<g><path style="opacity:1" fill="#cdcece" d="M 9.5,48.5 C 9.83333,48.5 10.1667,48.5 10.5,48.5C 11.1834,50.1765 12.5168,50.8432 14.5,50.5C 29.6576,51.4962 44.9909,51.8295 60.5,51.5C 62.1667,50.8333 63.8333,50.1667 65.5,49.5C 65.4142,50.4959 65.7476,51.3292 66.5,52C 47.1581,52.833 27.8247,52.6664 8.5,51.5C 9.12723,50.5832 9.46056,49.5832 9.5,48.5 Z"/></g>
<g><path style="opacity:1" fill="#adaebd" d="M 9.5,48.5 C 9.46056,49.5832 9.12723,50.5832 8.5,51.5C 27.8247,52.6664 47.1581,52.833 66.5,52C 65.7476,51.3292 65.4142,50.4959 65.5,49.5C 66.8118,50.1451 67.8118,51.1451 68.5,52.5C 47.8333,53.8333 27.1667,53.8333 6.5,52.5C 7.03514,50.739 8.03514,49.4057 9.5,48.5 Z"/></g>
</svg>
