<?xml version="1.0" encoding="UTF-8"?>
<!DOCTYPE svg PUBLIC "-//W3C//DTD SVG 1.1//EN" "http://www.w3.org/Graphics/SVG/1.1/DTD/svg11.dtd">
<svg xmlns="http://www.w3.org/2000/svg" version="1.1" width="20px" height="20px" style="shape-rendering:geometricPrecision; text-rendering:geometricPrecision; image-rendering:optimizeQuality; fill-rule:evenodd; clip-rule:evenodd" xmlns:xlink="http://www.w3.org/1999/xlink">
<g><path style="opacity:1" fill="#050b36" d="M -0.5,-0.5 C 6.16667,-0.5 12.8333,-0.5 19.5,-0.5C 19.5,6.16667 19.5,12.8333 19.5,19.5C 12.8333,19.5 6.16667,19.5 -0.5,19.5C -0.5,12.8333 -0.5,6.16667 -0.5,-0.5 Z"/></g>
<g><path style="opacity:1" fill="#3f4b6e" d="M 8.5,2.5 C 8.55999,1.95691 8.89333,1.62358 9.5,1.5C 12.6628,5.15592 15.3295,9.15592 17.5,13.5C 12.2079,14.4948 6.8746,14.8282 1.5,14.5C 1.26269,13.209 1.59603,12.209 2.5,11.5C 3.87135,12.7868 5.70469,13.4535 8,13.5C 14.9018,12.9116 15.0684,12.245 8.5,11.5C 9.77518,8.39625 9.77518,5.39625 8.5,2.5 Z"/></g>
<g><path style="opacity:1" fill="#dcae30" d="M 8.5,2.5 C 9.77518,5.39625 9.77518,8.39625 8.5,11.5C 7.06953,11.4208 5.73619,11.7542 4.5,12.5C 3.70245,12.0431 3.36912,11.3764 3.5,10.5C 5.16667,7.83333 6.83333,5.16667 8.5,2.5 Z"/></g>
<g><path style="opacity:1" fill="#4d4d4c" d="M 3.5,10.5 C 3.36912,11.3764 3.70245,12.0431 4.5,12.5C 5.73619,11.7542 7.06953,11.4208 8.5,11.5C 15.0684,12.245 14.9018,12.9116 8,13.5C 5.70469,13.4535 3.87135,12.7868 2.5,11.5C 2.5,10.8333 2.83333,10.5 3.5,10.5 Z"/></g>
</svg>
