<?xml version="1.0" encoding="UTF-8"?>
<!DOCTYPE svg PUBLIC "-//W3C//DTD SVG 1.1//EN" "http://www.w3.org/Graphics/SVG/1.1/DTD/svg11.dtd">
<svg xmlns="http://www.w3.org/2000/svg" version="1.1" width="80px" height="80px" style="shape-rendering:geometricPrecision; text-rendering:geometricPrecision; image-rendering:optimizeQuality; fill-rule:evenodd; clip-rule:evenodd" xmlns:xlink="http://www.w3.org/1999/xlink">
<g><path style="opacity:1" fill="#040937" d="M -0.5,-0.5 C 26.1667,-0.5 52.8333,-0.5 79.5,-0.5C 79.5,26.1667 79.5,52.8333 79.5,79.5C 52.8333,79.5 26.1667,79.5 -0.5,79.5C -0.5,52.8333 -0.5,26.1667 -0.5,-0.5 Z"/></g>
<g><path style="opacity:1" fill="#a8aaba" d="M 41.5,10.5 C 39.7367,9.04622 38.4033,9.37955 37.5,11.5C 37.1667,11.5 36.8333,11.5 36.5,11.5C 36.7118,9.61589 37.7118,8.28255 39.5,7.5C 40.9185,8.00475 41.5852,9.00475 41.5,10.5 Z"/></g>
<g><path style="opacity:1" fill="#eeefee" d="M 41.5,10.5 C 41.5,11.1667 41.5,11.8333 41.5,12.5C 40.8333,12.5 40.1667,12.5 39.5,12.5C 39.1583,11.6618 38.4916,11.3284 37.5,11.5C 38.4033,9.37955 39.7367,9.04622 41.5,10.5 Z"/></g>
<g><path style="opacity:1" fill="#f1da94" d="M 36.5,11.5 C 36.8333,11.5 37.1667,11.5 37.5,11.5C 38.4916,11.3284 39.1583,11.6618 39.5,12.5C 39.8276,23.0135 39.4942,33.3468 38.5,43.5C 38.6665,33.1613 38.4998,22.828 38,12.5C 37.6174,13.056 37.1174,13.3893 36.5,13.5C 36.5,12.8333 36.5,12.1667 36.5,11.5 Z"/></g>
<g><path style="opacity:1" fill="#0c2e65" d="M 42.5,15.5 C 50.9341,27.5138 59.2675,39.6805 67.5,52C 66.552,52.4828 65.552,52.6495 64.5,52.5C 56.9829,49.3236 49.3163,46.3236 41.5,43.5C 41.1731,33.985 41.5064,24.6517 42.5,15.5 Z"/></g>
<g><path style="opacity:1" fill="#3d5b86" d="M 41.5,13.5 C 41.8333,14.1667 42.1667,14.8333 42.5,15.5C 41.5064,24.6517 41.1731,33.985 41.5,43.5C 40.1667,33.5 40.1667,23.5 41.5,13.5 Z"/></g>
<g><path style="opacity:1" fill="#f4d47b" d="M 30.5,23.5 C 30.573,25.0269 29.9063,26.0269 28.5,26.5C 28.427,24.9731 29.0937,23.9731 30.5,23.5 Z"/></g>
<g><path style="opacity:1" fill="#b9bfc3" d="M 39.5,12.5 C 40.1667,12.5 40.8333,12.5 41.5,12.5C 41.5,12.8333 41.5,13.1667 41.5,13.5C 40.1667,23.5 40.1667,33.5 41.5,43.5C 40.791,44.404 39.791,44.7373 38.5,44.5C 38.5,44.1667 38.5,43.8333 38.5,43.5C 39.4942,33.3468 39.8276,23.0135 39.5,12.5 Z"/></g>
<g><path style="opacity:1" fill="#f0b819" d="M 38.5,43.5 C 31.0674,45.7804 23.734,48.2804 16.5,51C 15.944,51.3826 15.6107,51.8826 15.5,52.5C 13.901,52.7678 12.5676,52.4345 11.5,51.5C 17.414,43.3399 23.0807,35.0065 28.5,26.5C 29.9063,26.0269 30.573,25.0269 30.5,23.5C 32.5,20.1667 34.5,16.8333 36.5,13.5C 37.1174,13.3893 37.6174,13.056 38,12.5C 38.4998,22.828 38.6665,33.1613 38.5,43.5 Z"/></g>
<g><path style="opacity:1" fill="#c0bab6" d="M 36.5,11.5 C 36.5,12.1667 36.5,12.8333 36.5,13.5C 34.5,16.8333 32.5,20.1667 30.5,23.5C 29.0937,23.9731 28.427,24.9731 28.5,26.5C 23.0807,35.0065 17.414,43.3399 11.5,51.5C 10.8333,51.8333 10.1667,52.1667 9.5,52.5C 18.1145,38.5574 27.1145,24.8907 36.5,11.5 Z"/></g>
<g><path style="opacity:1" fill="#a0a9bc" d="M 41.5,10.5 C 51.6607,24.8158 61.3274,39.4824 70.5,54.5C 68.5,53.1667 66.5,53.1667 64.5,54.5C 64.5,53.8333 64.5,53.1667 64.5,52.5C 65.552,52.6495 66.552,52.4828 67.5,52C 59.2675,39.6805 50.9341,27.5138 42.5,15.5C 42.1667,14.8333 41.8333,14.1667 41.5,13.5C 41.5,13.1667 41.5,12.8333 41.5,12.5C 41.5,11.8333 41.5,11.1667 41.5,10.5 Z"/></g>
<g><path style="opacity:1" fill="#121312" d="M 37.5,45.5 C 39.5273,45.3379 41.5273,45.5045 43.5,46C 49.063,48.3855 54.7296,50.5522 60.5,52.5C 47.0102,53.4957 33.3435,53.829 19.5,53.5C 21.0764,52.8571 22.4097,51.8571 23.5,50.5C 28.1618,48.8348 32.8285,47.1682 37.5,45.5 Z"/></g>
<g><path style="opacity:1" fill="#9da3a9" d="M 41.5,43.5 C 49.3163,46.3236 56.9829,49.3236 64.5,52.5C 64.5,53.1667 64.5,53.8333 64.5,54.5C 64.1667,54.5 63.8333,54.5 63.5,54.5C 63.1788,52.9519 62.1788,52.2852 60.5,52.5C 54.7296,50.5522 49.063,48.3855 43.5,46C 41.5273,45.5045 39.5273,45.3379 37.5,45.5C 37.5,44.8333 37.8333,44.5 38.5,44.5C 39.791,44.7373 40.791,44.404 41.5,43.5 Z"/></g>
<g><path style="opacity:1" fill="#d4c8a8" d="M 38.5,43.5 C 38.5,43.8333 38.5,44.1667 38.5,44.5C 37.8333,44.5 37.5,44.8333 37.5,45.5C 32.8285,47.1682 28.1618,48.8348 23.5,50.5C 21.4214,50.9707 19.4214,51.6373 17.5,52.5C 16.8333,52.5 16.1667,52.5 15.5,52.5C 15.6107,51.8826 15.944,51.3826 16.5,51C 23.734,48.2804 31.0674,45.7804 38.5,43.5 Z"/></g>
<g><path style="opacity:1" fill="#4a4c49" d="M 23.5,50.5 C 22.4097,51.8571 21.0764,52.8571 19.5,53.5C 18.5084,53.6716 17.8417,53.3382 17.5,52.5C 19.4214,51.6373 21.4214,50.9707 23.5,50.5 Z"/></g>
<g><path style="opacity:1" fill="#747674" d="M 15.5,52.5 C 16.1667,52.5 16.8333,52.5 17.5,52.5C 17.8417,53.3382 18.5084,53.6716 19.5,53.5C 33.3435,53.829 47.0102,53.4957 60.5,52.5C 62.1788,52.2852 63.1788,52.9519 63.5,54.5C 47.1317,55.1514 31.1317,54.4848 15.5,52.5 Z"/></g>
<g><path style="opacity:1" fill="#e3e4e4" d="M 11.5,51.5 C 12.5676,52.4345 13.901,52.7678 15.5,52.5C 31.1317,54.4848 47.1317,55.1514 63.5,54.5C 63.8333,54.5 64.1667,54.5 64.5,54.5C 66.5,53.1667 68.5,53.1667 70.5,54.5C 50.0041,55.6626 29.3374,55.8293 8.5,55C 9.25244,54.3292 9.58577,53.4959 9.5,52.5C 10.1667,52.1667 10.8333,51.8333 11.5,51.5 Z"/></g>
<g><path style="opacity:1" fill="#a6a8b9" d="M 9.5,52.5 C 9.58577,53.4959 9.25244,54.3292 8.5,55C 29.3374,55.8293 50.0041,55.6626 70.5,54.5C 71.3382,54.8417 71.6716,55.5084 71.5,56.5C 49.8072,57.1555 28.4738,56.4888 7.5,54.5C 7.83333,53.5 8.5,52.8333 9.5,52.5 Z"/></g>
<g><path style="opacity:1" fill="#1d214c" d="M 7.5,54.5 C 28.4738,56.4888 49.8072,57.1555 71.5,56.5C 49.663,57.8284 27.663,57.8284 5.5,56.5C 5.85549,55.4777 6.52216,54.811 7.5,54.5 Z"/></g>
</svg>
