<?xml version="1.0" encoding="UTF-8"?>
<!DOCTYPE svg PUBLIC "-//W3C//DTD SVG 1.1//EN" "http://www.w3.org/Graphics/SVG/1.1/DTD/svg11.dtd">
<svg xmlns="http://www.w3.org/2000/svg" version="1.1" width="1024px" height="1024px" style="shape-rendering:geometricPrecision; text-rendering:geometricPrecision; image-rendering:optimizeQuality; fill-rule:evenodd; clip-rule:evenodd" xmlns:xlink="http://www.w3.org/1999/xlink">
<g><path style="opacity:1" fill="#040939" d="M -0.5,-0.5 C 340.833,-0.5 682.167,-0.5 1023.5,-0.5C 1023.5,340.833 1023.5,682.167 1023.5,1023.5C 682.167,1023.5 340.833,1023.5 -0.5,1023.5C -0.5,682.167 -0.5,340.833 -0.5,-0.5 Z"/></g>
<g><path style="opacity:1" fill="#80829b" d="M 513.5,97.5 C 511.5,96.1667 509.5,96.1667 507.5,97.5C 507.97,96.3065 508.97,95.6399 510.5,95.5C 512.03,95.6399 513.03,96.3065 513.5,97.5 Z"/></g>
<g><path style="opacity:1" fill="#fbfbfb" d="M 513.5,97.5 C 514.167,98.8333 514.833,100.167 515.5,101.5C 515.66,103.153 516.326,104.486 517.5,105.5C 517.602,109.744 519.602,112.41 523.5,113.5C 523.797,116.76 525.13,119.427 527.5,121.5C 528.833,121.5 529.5,122.167 529.5,123.5C 529.354,126.554 530.687,128.554 533.5,129.5C 533.602,133.744 535.602,136.41 539.5,137.5C 539.157,139.483 539.824,140.817 541.5,141.5C 542.63,146.612 545.297,150.612 549.5,153.5C 550.63,158.612 553.297,162.612 557.5,165.5C 558.63,170.612 561.297,174.612 565.5,177.5C 566.007,181.866 568.007,185.2 571.5,187.5C 571.5,188.833 571.5,190.167 571.5,191.5C 572.5,191.5 573.5,191.5 574.5,191.5C 574.5,192.833 574.5,194.167 574.5,195.5C 575.5,195.5 576.5,195.5 577.5,195.5C 579.186,198.504 581.186,201.17 583.5,203.5C 583.5,204.167 583.5,204.833 583.5,205.5C 584.007,210.308 586.34,213.641 590.5,215.5C 590.238,216.978 590.571,218.311 591.5,219.5C 592.409,221.375 593.743,222.708 595.5,223.5C 595.97,227.304 597.97,229.971 601.5,231.5C 602.522,233.544 603.522,235.544 604.5,237.5C 604.238,238.978 604.571,240.311 605.5,241.5C 607.725,245.338 610.392,248.672 613.5,251.5C 614.533,253.085 615.866,254.419 617.5,255.5C 618.364,257.919 619.697,259.919 621.5,261.5C 621.157,263.483 621.824,264.817 623.5,265.5C 623.157,267.483 623.824,268.817 625.5,269.5C 626.167,269.5 626.833,269.5 627.5,269.5C 628.465,272.493 629.798,275.16 631.5,277.5C 631.5,279.5 631.5,281.5 631.5,283.5C 633.199,283.527 634.533,284.194 635.5,285.5C 636.833,285.5 637.5,286.167 637.5,287.5C 637.354,290.554 638.687,292.554 641.5,293.5C 641.602,297.744 643.602,300.41 647.5,301.5C 647.157,303.483 647.824,304.817 649.5,305.5C 650.63,310.612 653.297,314.612 657.5,317.5C 658.63,322.612 661.297,326.612 665.5,329.5C 665.857,331.589 666.523,333.589 667.5,335.5C 669.725,339.338 672.392,342.672 675.5,345.5C 676.833,345.5 677.5,346.167 677.5,347.5C 677.157,349.483 677.824,350.817 679.5,351.5C 680.667,353.041 682,354.375 683.5,355.5C 684.522,357.544 685.522,359.544 686.5,361.5C 686.17,365.488 687.837,368.155 691.5,369.5C 692.167,369.5 692.833,369.5 693.5,369.5C 694.505,373.523 696.505,376.856 699.5,379.5C 699.157,381.483 699.824,382.817 701.5,383.5C 701.87,386.267 703.204,388.267 705.5,389.5C 705.157,391.483 705.824,392.817 707.5,393.5C 708.167,393.5 708.833,393.5 709.5,393.5C 710.505,397.523 712.505,400.856 715.5,403.5C 715.5,404.167 715.5,404.833 715.5,405.5C 715.602,409.744 717.602,412.41 721.5,413.5C 721.5,414.833 721.5,416.167 721.5,417.5C 723.199,417.527 724.533,418.194 725.5,419.5C 725.157,421.483 725.824,422.817 727.5,423.5C 728.833,423.5 729.5,424.167 729.5,425.5C 729.157,427.483 729.824,428.817 731.5,429.5C 731.682,433.216 733.348,435.883 736.5,437.5C 739.323,440.475 741.656,443.808 743.5,447.5C 743.354,450.554 744.687,452.554 747.5,453.5C 747.157,455.483 747.824,456.817 749.5,457.5C 753.553,461.569 756.887,466.235 759.5,471.5C 760.364,473.919 761.697,475.919 763.5,477.5C 763.354,480.554 764.687,482.554 767.5,483.5C 769.797,485.623 771.13,488.29 771.5,491.5C 772.533,493.085 773.866,494.419 775.5,495.5C 776.167,496.833 776.833,498.167 777.5,499.5C 778.15,501.435 778.483,503.435 778.5,505.5C 779.5,505.5 780.5,505.5 781.5,505.5C 781.5,506.833 782.167,507.5 783.5,507.5C 784.846,514.216 788.179,519.55 793.5,523.5C 794.15,525.435 794.483,527.435 794.5,529.5C 795.5,529.5 796.5,529.5 797.5,529.5C 797.857,531.589 798.523,533.589 799.5,535.5C 801.725,539.338 804.392,542.672 807.5,545.5C 809.477,548.09 811.477,550.757 813.5,553.5C 813.157,555.483 813.824,556.817 815.5,557.5C 816.122,559.122 817.122,560.455 818.5,561.5C 818.238,562.978 818.571,564.311 819.5,565.5C 820.409,567.375 821.743,568.708 823.5,569.5C 824.833,569.5 825.5,570.167 825.5,571.5C 826.15,573.435 826.483,575.435 826.5,577.5C 827.5,577.5 828.5,577.5 829.5,577.5C 829.157,579.483 829.824,580.817 831.5,581.5C 831.5,582.833 832.167,583.5 833.5,583.5C 833.157,585.483 833.824,586.817 835.5,587.5C 835.354,590.554 836.687,592.554 839.5,593.5C 839.354,596.554 840.687,598.554 843.5,599.5C 844.007,603.866 846.007,607.2 849.5,609.5C 850.833,609.5 851.5,610.167 851.5,611.5C 851.97,615.304 853.97,617.971 857.5,619.5C 857.157,621.483 857.824,622.817 859.5,623.5C 861.303,625.081 862.636,627.081 863.5,629.5C 863.975,633.309 865.975,635.975 869.5,637.5C 870.167,638.833 870.833,640.167 871.5,641.5C 871.258,645.917 873.258,648.583 877.5,649.5C 878.167,650.833 878.833,652.167 879.5,653.5C 879.157,655.483 879.824,656.817 881.5,657.5C 882.833,657.5 883.5,658.167 883.5,659.5C 883.5,660.833 884.167,661.5 885.5,661.5C 885.5,662.167 885.5,662.833 885.5,663.5C 885.995,665.482 886.495,667.482 887,669.5C 890.237,671.231 892.07,673.898 892.5,677.5C 893.5,677.5 894.5,677.5 895.5,677.5C 895.157,679.483 895.824,680.817 897.5,681.5C 897.5,682.833 897.5,684.167 897.5,685.5C 898.5,685.5 899.5,685.5 900.5,685.5C 900.5,686.833 900.5,688.167 900.5,689.5C 901.5,689.5 902.5,689.5 903.5,689.5C 903.157,691.483 903.824,692.817 905.5,693.5C 905.602,697.744 907.602,700.41 911.5,701.5C 912.167,702.833 912.833,704.167 913.5,705.5C 913.5,706.833 913.5,708.167 913.5,709.5C 914.5,709.5 915.5,709.5 916.5,709.5C 916.157,711.483 916.824,712.817 918.5,713.5C 919.833,716.833 921.167,720.167 922.5,723.5C 813.5,723.5 704.5,723.5 595.5,723.5C 428.163,724.165 261.163,723.499 94.5,721.5C 96.3465,719.97 97.3465,717.97 97.5,715.5C 97.5,714.833 97.5,714.167 97.5,713.5C 99.0618,713.267 100.395,712.6 101.5,711.5C 104.793,708.97 106.793,705.637 107.5,701.5C 107.5,700.833 107.5,700.167 107.5,699.5C 108.167,699.5 108.833,699.5 109.5,699.5C 110.376,699.631 111.043,699.298 111.5,698.5C 112.864,695.483 114.197,692.483 115.5,689.5C 117.176,688.817 117.843,687.483 117.5,685.5C 119.903,685.607 121.736,684.607 123,682.5C 124.803,678.918 126.303,675.251 127.5,671.5C 127.5,670.833 127.5,670.167 127.5,669.5C 130.594,667.728 132.594,665.062 133.5,661.5C 135.104,660.713 135.771,659.38 135.5,657.5C 137.264,656.674 138.598,655.341 139.5,653.5C 141.176,652.817 141.843,651.483 141.5,649.5C 143.176,648.817 143.843,647.483 143.5,645.5C 146.594,643.728 148.594,641.062 149.5,637.5C 151.176,636.817 151.843,635.483 151.5,633.5C 153.264,632.674 154.598,631.341 155.5,629.5C 158.313,628.554 159.646,626.554 159.5,623.5C 159.5,622.833 159.5,622.167 159.5,621.5C 161.5,620.833 162.833,619.5 163.5,617.5C 165.176,616.817 165.843,615.483 165.5,613.5C 166.473,611.553 167.473,609.553 168.5,607.5C 169.265,606.388 170.265,605.721 171.5,605.5C 174.313,604.554 175.646,602.554 175.5,599.5C 175.354,596.446 176.687,594.446 179.5,593.5C 181.176,592.817 181.843,591.483 181.5,589.5C 181.5,588.167 182.167,587.5 183.5,587.5C 185.176,586.817 185.843,585.483 185.5,583.5C 189.03,577.082 193.03,571.082 197.5,565.5C 199.176,564.817 199.843,563.483 199.5,561.5C 201.982,560.337 203.316,558.337 203.5,555.5C 205.509,553.134 207.176,550.468 208.5,547.5C 209.265,546.388 210.265,545.721 211.5,545.5C 214.313,544.554 215.646,542.554 215.5,539.5C 215.157,537.517 215.824,536.183 217.5,535.5C 219.176,534.817 219.843,533.483 219.5,531.5C 220.167,529.5 221.5,528.167 223.5,527.5C 226.708,525.926 228.042,523.259 227.5,519.5C 230.5,519.833 231.833,518.5 231.5,515.5C 231.5,514.167 231.5,512.833 231.5,511.5C 234.5,511.833 235.833,510.5 235.5,507.5C 237.523,504.757 239.523,502.09 241.5,499.5C 243.176,498.817 243.843,497.483 243.5,495.5C 245.176,494.817 245.843,493.483 245.5,491.5C 247.176,490.817 247.843,489.483 247.5,487.5C 249.833,487.167 251.167,485.833 251.5,483.5C 253.264,482.674 254.598,481.341 255.5,479.5C 259.238,474.576 263.071,469.576 267,464.5C 268.903,461.829 269.736,458.829 269.5,455.5C 270.5,455.5 271.5,455.5 272.5,455.5C 272.433,454.041 272.766,452.708 273.5,451.5C 275.176,450.817 275.843,449.483 275.5,447.5C 276.833,447.5 277.5,446.833 277.5,445.5C 278.364,443.081 279.697,441.081 281.5,439.5C 284.687,437.656 286.687,434.989 287.5,431.5C 288.833,428.833 290.167,426.167 291.5,423.5C 292.833,423.5 293.5,422.833 293.5,421.5C 293.5,420.833 293.5,420.167 293.5,419.5C 298.119,418.873 300.119,416.206 299.5,411.5C 301.176,410.817 301.843,409.483 301.5,407.5C 303.264,406.674 304.598,405.341 305.5,403.5C 307.176,402.817 307.843,401.483 307.5,399.5C 308.167,398.167 308.833,396.833 309.5,395.5C 311.5,394.833 312.833,393.5 313.5,391.5C 316.313,390.554 317.646,388.554 317.5,385.5C 317.5,384.833 317.5,384.167 317.5,383.5C 319.264,382.674 320.598,381.341 321.5,379.5C 323.14,376.22 324.807,372.886 326.5,369.5C 327.265,368.388 328.265,367.721 329.5,367.5C 332.313,366.554 333.646,364.554 333.5,361.5C 336.044,360.292 337.378,358.292 337.5,355.5C 339.176,354.817 339.843,353.483 339.5,351.5C 340.364,349.081 341.697,347.081 343.5,345.5C 344.833,345.5 346.167,345.5 347.5,345.5C 348.167,342.833 348.833,340.167 349.5,337.5C 350.833,335.5 352.167,333.5 353.5,331.5C 355.176,330.817 355.843,329.483 355.5,327.5C 357.398,322.945 360.065,318.945 363.5,315.5C 365.424,313.416 367.591,311.416 370,309.5C 371.715,307.065 372.882,304.398 373.5,301.5C 373.5,300.833 373.5,300.167 373.5,299.5C 375.982,298.337 377.316,296.337 377.5,293.5C 378.859,291.482 380.193,289.482 381.5,287.5C 383.957,286.265 385.29,284.265 385.5,281.5C 387.176,280.817 387.843,279.483 387.5,277.5C 388.833,276.167 390.167,274.833 391.5,273.5C 392.5,273.5 393.5,273.5 394.5,273.5C 395.454,270.857 396.454,268.19 397.5,265.5C 397.5,264.833 397.5,264.167 397.5,263.5C 400.659,260.958 402.659,257.624 403.5,253.5C 405.477,250.91 407.477,248.243 409.5,245.5C 411.264,244.674 412.598,243.341 413.5,241.5C 418.155,238.842 420.821,234.842 421.5,229.5C 424.893,227.927 426.226,225.26 425.5,221.5C 428.594,219.728 430.594,217.062 431.5,213.5C 434.697,212.888 436.031,210.888 435.5,207.5C 435.5,206.833 435.5,206.167 435.5,205.5C 436.791,205.737 437.791,205.404 438.5,204.5C 441.245,201.165 444.078,197.832 447,194.5C 447.494,192.866 447.66,191.199 447.5,189.5C 449.176,188.817 449.843,187.483 449.5,185.5C 450.167,184.167 450.833,182.833 451.5,181.5C 452.833,180.833 454.167,180.167 455.5,179.5C 457.296,176.177 459.796,173.177 463,170.5C 463.494,168.866 463.66,167.199 463.5,165.5C 465.078,164.934 466.412,163.934 467.5,162.5C 469.289,160.39 470.622,158.056 471.5,155.5C 471.5,154.833 471.5,154.167 471.5,153.5C 473.176,152.817 473.843,151.483 473.5,149.5C 474.833,149.5 475.5,148.833 475.5,147.5C 476.364,145.081 477.697,143.081 479.5,141.5C 482.313,140.554 483.646,138.554 483.5,135.5C 483.5,134.833 483.5,134.167 483.5,133.5C 484.833,133.5 486.167,133.5 487.5,133.5C 487.5,132.167 487.5,130.833 487.5,129.5C 489.176,128.817 489.843,127.483 489.5,125.5C 493.24,124.23 495.24,121.564 495.5,117.5C 500.131,114.859 502.798,110.859 503.5,105.5C 506.313,104.554 507.646,102.554 507.5,99.5C 507.5,98.8333 507.5,98.1667 507.5,97.5C 509.5,96.1667 511.5,96.1667 513.5,97.5 Z"/></g>
<g><path style="opacity:1" fill="#afb0c0" d="M 507.5,99.5 C 507.646,102.554 506.313,104.554 503.5,105.5C 503.354,102.446 504.687,100.446 507.5,99.5 Z"/></g>
<g><path style="opacity:1" fill="#585b7c" d="M 515.5,101.5 C 517.5,102.167 518.833,103.5 519.5,105.5C 518.833,105.5 518.167,105.5 517.5,105.5C 516.326,104.486 515.66,103.153 515.5,101.5 Z"/></g>
<g><path style="opacity:1" fill="#515376" d="M 501.5,107.5 C 501.167,109.833 499.833,111.167 497.5,111.5C 498.326,109.736 499.659,108.402 501.5,107.5 Z"/></g>
<g><path style="opacity:1" fill="#bfc0cc" d="M 503.5,105.5 C 502.798,110.859 500.131,114.859 495.5,117.5C 495.614,115.282 496.28,113.282 497.5,111.5C 499.833,111.167 501.167,109.833 501.5,107.5C 501.5,106.167 502.167,105.5 503.5,105.5 Z"/></g>
<g><path style="opacity:1" fill="#b1b2c2" d="M 517.5,105.5 C 518.167,105.5 518.833,105.5 519.5,105.5C 520.833,108.167 522.167,110.833 523.5,113.5C 519.602,112.41 517.602,109.744 517.5,105.5 Z"/></g>
<g><path style="opacity:1" fill="#aaabbc" d="M 523.5,113.5 C 525.847,115.527 527.181,118.194 527.5,121.5C 525.13,119.427 523.797,116.76 523.5,113.5 Z"/></g>
<g><path style="opacity:1" fill="#afb0c0" d="M 495.5,117.5 C 495.24,121.564 493.24,124.23 489.5,125.5C 490.473,123.553 491.473,121.553 492.5,119.5C 493.265,118.388 494.265,117.721 495.5,117.5 Z"/></g>
<g><path style="opacity:1" fill="#9ea0b3" d="M 489.5,125.5 C 489.843,127.483 489.176,128.817 487.5,129.5C 487.157,127.517 487.824,126.183 489.5,125.5 Z"/></g>
<g><path style="opacity:1" fill="#a0a2b4" d="M 529.5,123.5 C 532.313,124.446 533.646,126.446 533.5,129.5C 530.687,128.554 529.354,126.554 529.5,123.5 Z"/></g>
<g><path style="opacity:1" fill="#a8a9bb" d="M 487.5,129.5 C 487.5,130.833 487.5,132.167 487.5,133.5C 486.167,133.5 484.833,133.5 483.5,133.5C 484.167,131.5 485.5,130.167 487.5,129.5 Z"/></g>
<g><path style="opacity:1" fill="#b8b9c7" d="M 533.5,129.5 C 535.477,132.09 537.477,134.757 539.5,137.5C 535.602,136.41 533.602,133.744 533.5,129.5 Z"/></g>
<g><path style="opacity:1" fill="#a8a9ba" d="M 483.5,135.5 C 483.646,138.554 482.313,140.554 479.5,141.5C 479.354,138.446 480.687,136.446 483.5,135.5 Z"/></g>
<g><path style="opacity:1" fill="#8e90a6" d="M 539.5,137.5 C 541.176,138.183 541.843,139.517 541.5,141.5C 539.824,140.817 539.157,139.483 539.5,137.5 Z"/></g>
<g><path style="opacity:1" fill="#afb0c0" d="M 541.5,141.5 C 543.357,144.372 545.69,147.039 548.5,149.5C 549.429,150.689 549.762,152.022 549.5,153.5C 545.297,150.612 542.63,146.612 541.5,141.5 Z"/></g>
<g><path style="opacity:1" fill="#8f91a7" d="M 475.5,147.5 C 475.5,148.833 474.833,149.5 473.5,149.5C 473.5,148.167 474.167,147.5 475.5,147.5 Z"/></g>
<g><path style="opacity:1" fill="#9b9db1" d="M 473.5,149.5 C 473.843,151.483 473.176,152.817 471.5,153.5C 471.157,151.517 471.824,150.183 473.5,149.5 Z"/></g>
<g><path style="opacity:1" fill="#fcf2d7" d="M 503.5,541.5 C 503.5,526.167 503.5,510.833 503.5,495.5C 503.5,458.5 503.5,421.5 503.5,384.5C 503.5,306.5 503.5,228.5 503.5,150.5C 501.833,150.5 500.167,150.5 498.5,150.5C 498.737,151.791 498.404,152.791 497.5,153.5C 497.5,152.167 497.5,150.833 497.5,149.5C 500.167,149.5 502.833,149.5 505.5,149.5C 505.667,273.167 505.5,396.834 505,520.5C 504.829,527.679 504.329,534.679 503.5,541.5 Z"/></g>
<g><path style="opacity:1" fill="#f2b80e" d="M 503.5,384.5 C 503.5,421.5 503.5,458.5 503.5,495.5C 502.23,510.651 501.563,525.984 501.5,541.5C 501.831,548.863 501.497,556.197 500.5,563.5C 483.56,569.652 466.56,575.652 449.5,581.5C 441.953,583.876 434.619,586.543 427.5,589.5C 421.142,590.586 415.142,592.586 409.5,595.5C 407.102,595.259 405.102,595.926 403.5,597.5C 399.723,597.934 396.39,599.267 393.5,601.5C 389.788,602.028 386.121,602.862 382.5,604C 381.944,604.383 381.611,604.883 381.5,605.5C 379.102,605.259 377.102,605.926 375.5,607.5C 374.833,607.5 374.167,607.5 373.5,607.5C 371.302,607.875 369.302,608.542 367.5,609.5C 361.88,610.987 356.547,612.987 351.5,615.5C 348.852,616.162 346.185,616.829 343.5,617.5C 342.287,617.747 341.62,618.414 341.5,619.5C 338.583,619.365 335.916,620.032 333.5,621.5C 329.241,622.309 325.241,623.642 321.5,625.5C 319.302,625.875 317.302,626.542 315.5,627.5C 312.721,628.889 309.721,629.722 306.5,630C 305.944,630.383 305.611,630.883 305.5,631.5C 302.447,631.111 299.78,631.777 297.5,633.5C 295.518,633.995 293.518,634.495 291.5,635C 290.244,635.417 289.577,636.25 289.5,637.5C 286.583,637.365 283.916,638.032 281.5,639.5C 279.102,639.259 277.102,639.926 275.5,641.5C 273.518,641.995 271.518,642.495 269.5,643C 268.244,643.417 267.577,644.25 267.5,645.5C 262.647,645.546 257.98,646.546 253.5,648.5C 252.388,649.265 251.721,650.265 251.5,651.5C 243.861,652.575 236.527,654.575 229.5,657.5C 227.302,657.875 225.302,658.542 223.5,659.5C 219.797,660.41 216.464,661.744 213.5,663.5C 210.918,663.025 208.918,663.692 207.5,665.5C 205.302,665.875 203.302,666.542 201.5,667.5C 200.833,667.5 200.167,667.5 199.5,667.5C 194.356,668.212 189.689,669.878 185.5,672.5C 185.5,672.833 185.5,673.167 185.5,673.5C 182.302,672.964 179.635,673.631 177.5,675.5C 174.445,677.118 171.111,678.452 167.5,679.5C 164.918,679.025 162.918,679.692 161.5,681.5C 156.682,682.02 152.016,683.02 147.5,684.5C 147.5,682.167 147.5,679.833 147.5,677.5C 149.91,677.079 151.743,675.746 153,673.5C 155.667,669.316 158.167,664.983 160.5,660.5C 161.325,659.614 162.325,659.281 163.5,659.5C 164.337,655.489 166.004,651.823 168.5,648.5C 169.325,647.614 170.325,647.281 171.5,647.5C 173.127,643.568 174.793,639.568 176.5,635.5C 182.013,627.142 188.013,619.142 194.5,611.5C 202.262,598.3 210.262,585.3 218.5,572.5C 222.151,569.209 224.818,565.209 226.5,560.5C 227.325,559.614 228.325,559.281 229.5,559.5C 229.819,556.194 231.153,553.527 233.5,551.5C 234.82,550.058 236.486,549.392 238.5,549.5C 238.517,547.435 238.85,545.435 239.5,543.5C 241.5,540.167 243.5,536.833 245.5,533.5C 246.5,533.5 247.5,533.5 248.5,533.5C 248.639,530.412 249.639,527.745 251.5,525.5C 252.364,523.081 253.697,521.081 255.5,519.5C 258.893,517.974 260.226,515.307 259.5,511.5C 262.818,505.534 266.818,500.201 271.5,495.5C 274.006,491.897 277.006,488.563 280.5,485.5C 282.562,481.644 284.228,477.644 285.5,473.5C 286.997,469.835 288.997,466.502 291.5,463.5C 293.303,461.919 294.636,459.919 295.5,457.5C 304.998,441.837 314.998,426.504 325.5,411.5C 326.5,411.5 327.5,411.5 328.5,411.5C 329.454,408.857 330.454,406.19 331.5,403.5C 334.472,400.174 337.139,396.507 339.5,392.5C 340.946,390.382 341.613,388.049 341.5,385.5C 342.833,385.5 344.167,385.5 345.5,385.5C 345.201,383.396 345.534,381.396 346.5,379.5C 349.722,374.338 353.389,369.671 357.5,365.5C 359.63,364.036 360.963,362.036 361.5,359.5C 372.062,343.392 382.395,327.059 392.5,310.5C 393.325,309.614 394.325,309.281 395.5,309.5C 396.962,305.243 398.962,301.243 401.5,297.5C 403.796,296.267 405.13,294.267 405.5,291.5C 409.448,287.644 412.448,282.977 414.5,277.5C 415.265,276.388 416.265,275.721 417.5,275.5C 422.755,272.325 425.422,267.658 425.5,261.5C 427.972,257.279 430.972,253.279 434.5,249.5C 436.744,245.686 438.411,241.686 439.5,237.5C 440.833,237.5 442.167,237.5 443.5,237.5C 443.482,232.857 445.482,229.523 449.5,227.5C 451.01,225.678 452.343,223.678 453.5,221.5C 454.428,218.87 455.428,216.204 456.5,213.5C 461.238,207.766 465.572,201.766 469.5,195.5C 470.675,195.719 471.675,195.386 472.5,194.5C 473.792,191.712 475.626,189.378 478,187.5C 478.982,184.706 480.149,182.039 481.5,179.5C 482.143,176.217 483.81,173.551 486.5,171.5C 487.466,169.604 487.799,167.604 487.5,165.5C 488.675,165.719 489.675,165.386 490.5,164.5C 491.154,162.142 492.487,160.475 494.5,159.5C 496.011,158.498 497.678,157.831 499.5,157.5C 499.201,155.396 499.534,153.396 500.5,151.5C 501.086,151.709 501.586,152.043 502,152.5C 502.167,230.001 502.667,307.334 503.5,384.5 Z"/></g>
<g><path style="opacity:1" fill="#5c5e7f" d="M 471.5,153.5 C 471.5,154.167 471.5,154.833 471.5,155.5C 470.167,156.167 468.833,156.833 467.5,157.5C 467.525,154.821 468.858,153.488 471.5,153.5 Z"/></g>
<g><path style="opacity:1" fill="#f4c845" d="M 503.5,384.5 C 502.667,307.334 502.167,230.001 502,152.5C 501.586,152.043 501.086,151.709 500.5,151.5C 499.534,153.396 499.201,155.396 499.5,157.5C 497.678,157.831 496.011,158.498 494.5,159.5C 495.35,157.397 496.35,155.397 497.5,153.5C 498.404,152.791 498.737,151.791 498.5,150.5C 500.167,150.5 501.833,150.5 503.5,150.5C 503.5,228.5 503.5,306.5 503.5,384.5 Z"/></g>
<g><path style="opacity:1" fill="#a9abbc" d="M 549.5,153.5 C 551.357,156.372 553.69,159.039 556.5,161.5C 557.429,162.689 557.762,164.022 557.5,165.5C 553.297,162.612 550.63,158.612 549.5,153.5 Z"/></g>
<g><path style="opacity:1" fill="#bdbecb" d="M 471.5,155.5 C 470.622,158.056 469.289,160.39 467.5,162.5C 466.412,163.934 465.078,164.934 463.5,165.5C 463.966,162.376 465.299,159.71 467.5,157.5C 468.833,156.833 470.167,156.167 471.5,155.5 Z"/></g>
<g><path style="opacity:1" fill="#032b63" d="M 527.5,163.5 C 528.833,163.5 529.5,164.167 529.5,165.5C 530.15,167.435 530.483,169.435 530.5,171.5C 532.322,171.831 533.989,172.498 535.5,173.5C 536.833,173.5 537.5,174.167 537.5,175.5C 538.298,177.966 539.631,179.966 541.5,181.5C 543.037,184.602 545.037,187.268 547.5,189.5C 546.75,193.697 548.083,197.03 551.5,199.5C 552.429,200.689 552.762,202.022 552.5,203.5C 553.5,203.5 554.5,203.5 555.5,203.5C 556.833,203.5 557.5,204.167 557.5,205.5C 557.87,208.267 559.204,210.267 561.5,211.5C 562.72,213.282 563.386,215.282 563.5,217.5C 564.833,217.5 566.167,217.5 567.5,217.5C 567.5,218.833 567.5,220.167 567.5,221.5C 567.602,225.744 569.602,228.41 573.5,229.5C 573.157,231.483 573.824,232.817 575.5,233.5C 576.63,238.612 579.297,242.612 583.5,245.5C 583.857,247.589 584.523,249.589 585.5,251.5C 587.397,254.686 589.731,257.353 592.5,259.5C 593.362,263.901 595.696,267.234 599.5,269.5C 604.142,276.092 608.808,282.758 613.5,289.5C 613.157,291.483 613.824,292.817 615.5,293.5C 615.602,297.744 617.602,300.41 621.5,301.5C 621.5,302.833 622.167,303.5 623.5,303.5C 623.157,305.483 623.824,306.817 625.5,307.5C 626.63,312.612 629.297,316.612 633.5,319.5C 634.63,324.612 637.297,328.612 641.5,331.5C 642.63,336.612 645.297,340.612 649.5,343.5C 649.602,347.744 651.602,350.41 655.5,351.5C 655.157,353.483 655.824,354.817 657.5,355.5C 658.167,355.5 658.833,355.5 659.5,355.5C 661.054,359.39 662.387,363.39 663.5,367.5C 665.199,367.527 666.533,368.194 667.5,369.5C 667.157,371.483 667.824,372.817 669.5,373.5C 670.833,373.5 671.5,374.167 671.5,375.5C 671.157,377.483 671.824,378.817 673.5,379.5C 673.602,383.744 675.602,386.41 679.5,387.5C 680.167,388.833 680.833,390.167 681.5,391.5C 681.602,395.744 683.602,398.41 687.5,399.5C 687.157,401.483 687.824,402.817 689.5,403.5C 690.167,405.5 691.5,406.833 693.5,407.5C 694.364,409.919 695.697,411.919 697.5,413.5C 698.65,416.298 699.983,418.965 701.5,421.5C 702.15,423.435 702.483,425.435 702.5,427.5C 704.322,427.831 705.989,428.498 707.5,429.5C 708.007,433.866 710.007,437.2 713.5,439.5C 714.833,439.5 715.5,440.167 715.5,441.5C 715.87,444.267 717.204,446.267 719.5,447.5C 720.833,449.5 722.167,451.5 723.5,453.5C 723.5,455.5 723.5,457.5 723.5,459.5C 724.675,459.281 725.675,459.614 726.5,460.5C 728.167,463.167 729.833,465.833 731.5,468.5C 732.588,469.934 733.922,470.934 735.5,471.5C 737.5,474.167 739.5,476.833 741.5,479.5C 741.157,481.483 741.824,482.817 743.5,483.5C 744.007,487.866 746.007,491.2 749.5,493.5C 750.393,495.297 751.726,496.63 753.5,497.5C 754.364,499.919 755.697,501.919 757.5,503.5C 757.87,506.267 759.204,508.267 761.5,509.5C 762.833,511.5 764.167,513.5 765.5,515.5C 765.87,518.267 767.204,520.267 769.5,521.5C 770.364,523.919 771.697,525.919 773.5,527.5C 773.797,530.76 775.13,533.427 777.5,535.5C 778.833,535.5 779.5,536.167 779.5,537.5C 779.354,540.554 780.687,542.554 783.5,543.5C 785.303,545.081 786.636,547.081 787.5,549.5C 787.682,553.216 789.348,555.883 792.5,557.5C 797.205,563.209 801.538,569.209 805.5,575.5C 805.354,578.554 806.687,580.554 809.5,581.5C 810.15,583.435 810.483,585.435 810.5,587.5C 811.5,587.5 812.5,587.5 813.5,587.5C 813.975,591.309 815.975,593.975 819.5,595.5C 820.364,597.919 821.697,599.919 823.5,601.5C 823.157,603.483 823.824,604.817 825.5,605.5C 827.303,607.081 828.636,609.081 829.5,611.5C 829.354,614.554 830.687,616.554 833.5,617.5C 836.14,621.426 838.807,625.426 841.5,629.5C 841.602,633.744 843.602,636.41 847.5,637.5C 847.877,639.258 848.544,640.925 849.5,642.5C 851.299,645.163 853.299,647.496 855.5,649.5C 855.157,651.483 855.824,652.817 857.5,653.5C 860.326,658.984 864.159,663.984 869,668.5C 869.483,669.448 869.649,670.448 869.5,671.5C 870.15,673.435 870.483,675.435 870.5,677.5C 871.5,677.5 872.5,677.5 873.5,677.5C 874.833,677.5 875.5,678.167 875.5,679.5C 876.038,681.117 876.371,682.784 876.5,684.5C 869.599,682.358 862.599,680.691 855.5,679.5C 854.878,677.665 853.544,676.498 851.5,676C 847.689,674.261 843.689,673.428 839.5,673.5C 838.082,671.692 836.082,671.025 833.5,671.5C 831.365,669.631 828.698,668.964 825.5,669.5C 823.305,667.583 820.638,666.249 817.5,665.5C 816.082,663.692 814.082,663.025 811.5,663.5C 809.365,661.631 806.698,660.964 803.5,661.5C 801.305,659.583 798.638,658.249 795.5,657.5C 793.898,655.926 791.898,655.259 789.5,655.5C 787.365,653.631 784.698,652.964 781.5,653.5C 779.305,651.583 776.638,650.249 773.5,649.5C 771.898,647.926 769.898,647.259 767.5,647.5C 764.298,645.789 760.965,643.955 757.5,642C 755.527,641.505 753.527,641.338 751.5,641.5C 749.898,639.926 747.898,639.259 745.5,639.5C 743.365,637.631 740.698,636.964 737.5,637.5C 735.305,635.583 732.638,634.249 729.5,633.5C 727.898,631.926 725.898,631.259 723.5,631.5C 723.631,630.624 723.298,629.957 722.5,629.5C 720.199,628.675 717.865,628.008 715.5,627.5C 712.673,627.416 710.006,626.75 707.5,625.5C 705.898,623.926 703.898,623.259 701.5,623.5C 700.082,621.692 698.082,621.025 695.5,621.5C 692.325,619.868 688.992,618.535 685.5,617.5C 683.898,615.926 681.898,615.259 679.5,615.5C 678.082,613.692 676.082,613.025 673.5,613.5C 669.737,611.557 665.737,610.223 661.5,609.5C 658.226,606.34 654.226,605.007 649.5,605.5C 646.757,603.142 643.423,601.809 639.5,601.5C 636.66,599.085 633.327,597.752 629.5,597.5C 626.36,595.67 623.026,593.837 619.5,592C 617.527,591.505 615.527,591.338 613.5,591.5C 608.534,588.731 603.201,586.731 597.5,585.5C 596.833,585.5 596.167,585.5 595.5,585.5C 594.36,584.199 593.027,583.032 591.5,582C 586.108,580.59 580.775,579.09 575.5,577.5C 574.833,577.5 574.167,577.5 573.5,577.5C 570.66,575.085 567.327,573.752 563.5,573.5C 560.298,571.789 556.965,569.955 553.5,568C 551.527,567.505 549.527,567.338 547.5,567.5C 545.898,565.926 543.898,565.259 541.5,565.5C 538.298,563.789 534.965,561.955 531.5,560C 530.207,559.51 528.873,559.343 527.5,559.5C 526.839,481.373 526.172,403.373 525.5,325.5C 525.5,324.833 525.5,324.167 525.5,323.5C 525.333,269.832 525.5,216.166 526,162.5C 526.383,163.056 526.883,163.389 527.5,163.5 Z"/></g>
<g><path style="opacity:1" fill="#c9c9d4" d="M 463.5,165.5 C 463.66,167.199 463.494,168.866 463,170.5C 459.796,173.177 457.296,176.177 455.5,179.5C 455.5,178.833 455.5,178.167 455.5,177.5C 455.351,176.448 455.517,175.448 456,174.5C 458.764,171.583 461.264,168.583 463.5,165.5 Z"/></g>
<g><path style="opacity:1" fill="#4f658f" d="M 529.5,165.5 C 533.025,167.025 535.025,169.691 535.5,173.5C 533.989,172.498 532.322,171.831 530.5,171.5C 530.483,169.435 530.15,167.435 529.5,165.5 Z"/></g>
<g><path style="opacity:1" fill="#a5a7b8" d="M 557.5,165.5 C 559.357,168.372 561.69,171.039 564.5,173.5C 565.429,174.689 565.762,176.022 565.5,177.5C 561.297,174.612 558.63,170.612 557.5,165.5 Z"/></g>
<g><path style="opacity:1" fill="#5a5c7d" d="M 455.5,177.5 C 455.5,178.167 455.5,178.833 455.5,179.5C 454.167,180.167 452.833,180.833 451.5,181.5C 451.525,178.821 452.858,177.488 455.5,177.5 Z"/></g>
<g><path style="opacity:1" fill="#8b9cb6" d="M 537.5,175.5 C 539.822,176.802 541.155,178.802 541.5,181.5C 539.631,179.966 538.298,177.966 537.5,175.5 Z"/></g>
<g><path style="opacity:1" fill="#abadbd" d="M 565.5,177.5 C 567.13,179.359 568.796,181.359 570.5,183.5C 571.429,184.689 571.762,186.022 571.5,187.5C 568.007,185.2 566.007,181.866 565.5,177.5 Z"/></g>
<g><path style="opacity:1" fill="#9395aa" d="M 449.5,185.5 C 449.843,187.483 449.176,188.817 447.5,189.5C 447.157,187.517 447.824,186.183 449.5,185.5 Z"/></g>
<g><path style="opacity:1" fill="#aaabbc" d="M 571.5,187.5 C 574.145,188.812 576.145,190.812 577.5,193.5C 577.5,194.167 577.5,194.833 577.5,195.5C 576.5,195.5 575.5,195.5 574.5,195.5C 574.5,194.167 574.5,192.833 574.5,191.5C 573.5,191.5 572.5,191.5 571.5,191.5C 571.5,190.167 571.5,188.833 571.5,187.5 Z"/></g>
<g><path style="opacity:1" fill="#c9cad5" d="M 447.5,189.5 C 447.66,191.199 447.494,192.866 447,194.5C 444.078,197.832 441.245,201.165 438.5,204.5C 439.242,202.02 440.242,199.687 441.5,197.5C 443.523,194.757 445.523,192.09 447.5,189.5 Z"/></g>
<g><path style="opacity:1" fill="#f7cf62" d="M 481.5,179.5 C 480.149,182.039 478.982,184.706 478,187.5C 475.626,189.378 473.792,191.712 472.5,194.5C 471.675,195.386 470.675,195.719 469.5,195.5C 469.877,193.742 470.544,192.075 471.5,190.5C 474.624,186.539 477.957,182.872 481.5,179.5 Z"/></g>
<g><path style="opacity:1" fill="#3e4066" d="M 577.5,193.5 C 578.643,193.908 579.643,194.575 580.5,195.5C 582.058,197.991 583.058,200.657 583.5,203.5C 581.186,201.17 579.186,198.504 577.5,195.5C 577.5,194.833 577.5,194.167 577.5,193.5 Z"/></g>
<g><path style="opacity:1" fill="#4c638d" d="M 547.5,189.5 C 550.149,194.127 552.816,198.793 555.5,203.5C 554.5,203.5 553.5,203.5 552.5,203.5C 552.762,202.022 552.429,200.689 551.5,199.5C 548.083,197.03 546.75,193.697 547.5,189.5 Z"/></g>
<g><path style="opacity:1" fill="#727490" d="M 441.5,197.5 C 440.242,199.687 439.242,202.02 438.5,204.5C 437.791,205.404 436.791,205.737 435.5,205.5C 436.542,202.07 438.542,199.403 441.5,197.5 Z"/></g>
<g><path style="opacity:1" fill="#a2b0c5" d="M 557.5,205.5 C 560.313,206.446 561.646,208.446 561.5,211.5C 559.204,210.267 557.87,208.267 557.5,205.5 Z"/></g>
<g><path style="opacity:1" fill="#b2b3c2" d="M 583.5,205.5 C 587.439,209.793 591.106,214.46 594.5,219.5C 595.429,220.689 595.762,222.022 595.5,223.5C 593.743,222.708 592.409,221.375 591.5,219.5C 590.571,218.311 590.238,216.978 590.5,215.5C 586.34,213.641 584.007,210.308 583.5,205.5 Z"/></g>
<g><path style="opacity:1" fill="#a6a7b9" d="M 435.5,207.5 C 436.031,210.888 434.697,212.888 431.5,213.5C 431.354,210.446 432.687,208.446 435.5,207.5 Z"/></g>
<g><path style="opacity:1" fill="#787a95" d="M 431.5,213.5 C 430.594,217.062 428.594,219.728 425.5,221.5C 426.066,217.68 428.066,215.013 431.5,213.5 Z"/></g>
<g><path style="opacity:1" fill="#f7d676" d="M 453.5,221.5 C 452.343,223.678 451.01,225.678 449.5,227.5C 449.581,224.487 450.914,222.487 453.5,221.5 Z"/></g>
<g><path style="opacity:1" fill="#455e89" d="M 567.5,221.5 C 569.477,224.09 571.477,226.757 573.5,229.5C 569.602,228.41 567.602,225.744 567.5,221.5 Z"/></g>
<g><path style="opacity:1" fill="#a4a5b7" d="M 425.5,221.5 C 426.226,225.26 424.893,227.927 421.5,229.5C 421.819,226.194 423.153,223.527 425.5,221.5 Z"/></g>
<g><path style="opacity:1" fill="#9294a9" d="M 595.5,223.5 C 598.95,225.063 600.95,227.73 601.5,231.5C 597.97,229.971 595.97,227.304 595.5,223.5 Z"/></g>
<g><path style="opacity:1" fill="#647b9e" d="M 573.5,229.5 C 575.176,230.183 575.843,231.517 575.5,233.5C 573.824,232.817 573.157,231.483 573.5,229.5 Z"/></g>
<g><path style="opacity:1" fill="#47486d" d="M 601.5,231.5 C 604.697,232.112 606.031,234.112 605.5,237.5C 605.167,237.5 604.833,237.5 604.5,237.5C 603.522,235.544 602.522,233.544 601.5,231.5 Z"/></g>
<g><path style="opacity:1" fill="#c1c3cf" d="M 421.5,229.5 C 420.821,234.842 418.155,238.842 413.5,241.5C 413.5,240.833 413.5,240.167 413.5,239.5C 415.906,237.4 417.573,234.734 418.5,231.5C 419.265,230.388 420.265,229.721 421.5,229.5 Z"/></g>
<g><path style="opacity:1" fill="#465f89" d="M 575.5,233.5 C 577.357,236.372 579.69,239.039 582.5,241.5C 583.429,242.689 583.762,244.022 583.5,245.5C 579.297,242.612 576.63,238.612 575.5,233.5 Z"/></g>
<g><path style="opacity:1" fill="#6a6c8a" d="M 413.5,239.5 C 413.5,240.167 413.5,240.833 413.5,241.5C 412.598,243.341 411.264,244.674 409.5,245.5C 409.87,242.733 411.204,240.733 413.5,239.5 Z"/></g>
<g><path style="opacity:1" fill="#c5c6d2" d="M 604.5,237.5 C 604.833,237.5 605.167,237.5 605.5,237.5C 608.167,241.5 610.833,245.5 613.5,249.5C 613.5,250.167 613.5,250.833 613.5,251.5C 610.392,248.672 607.725,245.338 605.5,241.5C 604.571,240.311 604.238,238.978 604.5,237.5 Z"/></g>
<g><path style="opacity:1" fill="#3a5482" d="M 583.5,245.5 C 587.47,249.413 590.47,254.08 592.5,259.5C 589.731,257.353 587.397,254.686 585.5,251.5C 584.523,249.589 583.857,247.589 583.5,245.5 Z"/></g>
<g><path style="opacity:1" fill="#7a7c97" d="M 613.5,249.5 C 615.982,250.663 617.316,252.663 617.5,255.5C 615.866,254.419 614.533,253.085 613.5,251.5C 613.5,250.833 613.5,250.167 613.5,249.5 Z"/></g>
<g><path style="opacity:1" fill="#9eaec3" d="M 527.5,159.5 C 526.417,159.461 525.417,159.127 524.5,158.5C 523.5,201.495 523.167,244.495 523.5,287.5C 522.833,263.833 522.167,240.167 521.5,216.5C 521.5,196.167 521.5,175.833 521.5,155.5C 524.554,155.354 526.554,156.687 527.5,159.5 Z"/></g>
<g><path style="opacity:1" fill="#4e6a91" d="M 527.5,159.5 C 527.5,160.167 527.5,160.833 527.5,161.5C 526.504,161.586 525.671,161.252 525,160.5C 524.5,202.832 524.333,245.165 524.5,287.5C 524.167,287.5 523.833,287.5 523.5,287.5C 523.167,244.495 523.5,201.495 524.5,158.5C 525.417,159.127 526.417,159.461 527.5,159.5 Z"/></g>
<g><path style="opacity:1" fill="#393a62" d="M 617.5,255.5 C 618.833,255.5 620.167,255.5 621.5,255.5C 621.5,257.5 621.5,259.5 621.5,261.5C 619.697,259.919 618.364,257.919 617.5,255.5 Z"/></g>
<g><path style="opacity:1" fill="#585b7c" d="M 403.5,253.5 C 402.659,257.624 400.659,260.958 397.5,263.5C 398.479,259.539 400.479,256.206 403.5,253.5 Z"/></g>
<g><path style="opacity:1" fill="#81829c" d="M 621.5,261.5 C 623.176,262.183 623.843,263.517 623.5,265.5C 621.824,264.817 621.157,263.483 621.5,261.5 Z"/></g>
<g><path style="opacity:1" fill="#3d5784" d="M 592.5,259.5 C 596.045,262.036 598.379,265.369 599.5,269.5C 595.696,267.234 593.362,263.901 592.5,259.5 Z"/></g>
<g><path style="opacity:1" fill="#a8a9ba" d="M 623.5,265.5 C 625.176,266.183 625.843,267.517 625.5,269.5C 623.824,268.817 623.157,267.483 623.5,265.5 Z"/></g>
<g><path style="opacity:1" fill="#f6ca52" d="M 425.5,261.5 C 425.422,267.658 422.755,272.325 417.5,275.5C 419.691,270.437 422.358,265.77 425.5,261.5 Z"/></g>
<g><path style="opacity:1" fill="#bfc0cc" d="M 397.5,265.5 C 396.454,268.19 395.454,270.857 394.5,273.5C 393.5,273.5 392.5,273.5 391.5,273.5C 392.473,271.553 393.473,269.553 394.5,267.5C 395.265,266.388 396.265,265.721 397.5,265.5 Z"/></g>
<g><path style="opacity:1" fill="#535678" d="M 627.5,269.5 C 630.407,271.315 631.741,273.981 631.5,277.5C 629.798,275.16 628.465,272.493 627.5,269.5 Z"/></g>
<g><path style="opacity:1" fill="#636684" d="M 387.5,277.5 C 387.843,279.483 387.176,280.817 385.5,281.5C 385.66,279.847 386.326,278.514 387.5,277.5 Z"/></g>
<g><path style="opacity:1" fill="#c0c0cd" d="M 631.5,277.5 C 633.847,279.527 635.181,282.194 635.5,285.5C 634.533,284.194 633.199,283.527 631.5,283.5C 631.5,281.5 631.5,279.5 631.5,277.5 Z"/></g>
<g><path style="opacity:1" fill="#595c7c" d="M 385.5,281.5 C 385.29,284.265 383.957,286.265 381.5,287.5C 381.684,284.663 383.018,282.663 385.5,281.5 Z"/></g>
<g><path style="opacity:1" fill="#335380" d="M 527.5,161.5 C 527.5,162.167 527.5,162.833 527.5,163.5C 526.883,163.389 526.383,163.056 526,162.5C 525.5,216.166 525.333,269.832 525.5,323.5C 524.505,311.678 524.172,299.678 524.5,287.5C 524.333,245.165 524.5,202.832 525,160.5C 525.671,161.252 526.504,161.586 527.5,161.5 Z"/></g>
<g><path style="opacity:1" fill="#587096" d="M 613.5,289.5 C 615.176,290.183 615.843,291.517 615.5,293.5C 613.824,292.817 613.157,291.483 613.5,289.5 Z"/></g>
<g><path style="opacity:1" fill="#a9aabb" d="M 637.5,287.5 C 640.313,288.446 641.646,290.446 641.5,293.5C 638.687,292.554 637.354,290.554 637.5,287.5 Z"/></g>
<g><path style="opacity:1" fill="#505175" d="M 377.5,293.5 C 377.316,296.337 375.982,298.337 373.5,299.5C 373.354,296.446 374.687,294.446 377.5,293.5 Z"/></g>
<g><path style="opacity:1" fill="#fae5aa" d="M 405.5,291.5 C 405.13,294.267 403.796,296.267 401.5,297.5C 401.929,294.853 403.262,292.853 405.5,291.5 Z"/></g>
<g><path style="opacity:1" fill="#435b87" d="M 615.5,293.5 C 616.735,293.721 617.735,294.388 618.5,295.5C 619.527,297.553 620.527,299.553 621.5,301.5C 617.602,300.41 615.602,297.744 615.5,293.5 Z"/></g>
<g><path style="opacity:1" fill="#c0c1cd" d="M 641.5,293.5 C 643.477,296.09 645.477,298.757 647.5,301.5C 643.602,300.41 641.602,297.744 641.5,293.5 Z"/></g>
<g><path style="opacity:1" fill="#9698ad" d="M 647.5,301.5 C 649.176,302.183 649.843,303.517 649.5,305.5C 647.824,304.817 647.157,303.483 647.5,301.5 Z"/></g>
<g><path style="opacity:1" fill="#7589a8" d="M 623.5,303.5 C 625.176,304.183 625.843,305.517 625.5,307.5C 623.824,306.817 623.157,305.483 623.5,303.5 Z"/></g>
<g><path style="opacity:1" fill="#b0b1c1" d="M 373.5,301.5 C 372.882,304.398 371.715,307.065 370,309.5C 367.591,311.416 365.424,313.416 363.5,315.5C 363.238,314.022 363.571,312.689 364.5,311.5C 367.056,307.684 370.056,304.351 373.5,301.5 Z"/></g>
<g><path style="opacity:1" fill="#b6b7c5" d="M 649.5,305.5 C 651.357,308.372 653.69,311.039 656.5,313.5C 657.429,314.689 657.762,316.022 657.5,317.5C 653.297,314.612 650.63,310.612 649.5,305.5 Z"/></g>
<g><path style="opacity:1" fill="#546b92" d="M 625.5,307.5 C 627.357,310.372 629.69,313.039 632.5,315.5C 633.429,316.689 633.762,318.022 633.5,319.5C 629.297,316.612 626.63,312.612 625.5,307.5 Z"/></g>
<g><path style="opacity:1" fill="#b2b3c2" d="M 657.5,317.5 C 659.357,320.372 661.69,323.039 664.5,325.5C 665.429,326.689 665.762,328.022 665.5,329.5C 661.297,326.612 658.63,322.612 657.5,317.5 Z"/></g>
<g><path style="opacity:1" fill="#516891" d="M 633.5,319.5 C 635.357,322.372 637.69,325.039 640.5,327.5C 641.429,328.689 641.762,330.022 641.5,331.5C 637.297,328.612 634.63,324.612 633.5,319.5 Z"/></g>
<g><path style="opacity:1" fill="#abacbc" d="M 355.5,327.5 C 355.843,329.483 355.176,330.817 353.5,331.5C 353.5,330.833 353.5,330.167 353.5,329.5C 353.5,328.167 354.167,327.5 355.5,327.5 Z"/></g>
<g><path style="opacity:1" fill="#b8b9c7" d="M 665.5,329.5 C 668.773,333.132 671.773,337.132 674.5,341.5C 675.429,342.689 675.762,344.022 675.5,345.5C 672.392,342.672 669.725,339.338 667.5,335.5C 666.523,333.589 665.857,331.589 665.5,329.5 Z"/></g>
<g><path style="opacity:1" fill="#535677" d="M 353.5,329.5 C 353.5,330.167 353.5,330.833 353.5,331.5C 352.167,333.5 350.833,335.5 349.5,337.5C 348.833,337.5 348.167,337.5 347.5,337.5C 348.616,334.088 350.616,331.422 353.5,329.5 Z"/></g>
<g><path style="opacity:1" fill="#4e668f" d="M 641.5,331.5 C 643.357,334.372 645.69,337.039 648.5,339.5C 649.429,340.689 649.762,342.022 649.5,343.5C 645.297,340.612 642.63,336.612 641.5,331.5 Z"/></g>
<g><path style="opacity:1" fill="#bcbdca" d="M 347.5,337.5 C 348.167,337.5 348.833,337.5 349.5,337.5C 348.833,340.167 348.167,342.833 347.5,345.5C 346.167,345.5 344.833,345.5 343.5,345.5C 344.833,342.833 346.167,340.167 347.5,337.5 Z"/></g>
<g><path style="opacity:1" fill="#48608a" d="M 649.5,343.5 C 651.477,346.09 653.477,348.757 655.5,351.5C 651.602,350.41 649.602,347.744 649.5,343.5 Z"/></g>
<g><path style="opacity:1" fill="#aeb0c0" d="M 677.5,347.5 C 678.833,347.5 679.5,348.167 679.5,349.5C 679.5,350.167 679.5,350.833 679.5,351.5C 677.824,350.817 677.157,349.483 677.5,347.5 Z"/></g>
<g><path style="opacity:1" fill="#505275" d="M 679.5,349.5 C 682.325,350.478 683.658,352.478 683.5,355.5C 682,354.375 680.667,353.041 679.5,351.5C 679.5,350.833 679.5,350.167 679.5,349.5 Z"/></g>
<g><path style="opacity:1" fill="#a8a9ba" d="M 339.5,351.5 C 339.843,353.483 339.176,354.817 337.5,355.5C 337.157,353.517 337.824,352.183 339.5,351.5 Z"/></g>
<g><path style="opacity:1" fill="#6b81a3" d="M 655.5,351.5 C 657.176,352.183 657.843,353.517 657.5,355.5C 655.824,354.817 655.157,353.483 655.5,351.5 Z"/></g>
<g><path style="opacity:1" fill="#a6a8b9" d="M 337.5,355.5 C 337.378,358.292 336.044,360.292 333.5,361.5C 333.684,358.663 335.018,356.663 337.5,355.5 Z"/></g>
<g><path style="opacity:1" fill="#aab7ca" d="M 659.5,355.5 C 663.715,359.262 666.382,363.929 667.5,369.5C 666.533,368.194 665.199,367.527 663.5,367.5C 662.387,363.39 661.054,359.39 659.5,355.5 Z"/></g>
<g><path style="opacity:1" fill="#0e3469" d="M 525.5,325.5 C 526.172,403.373 526.839,481.373 527.5,559.5C 526.833,559.5 526.167,559.5 525.5,559.5C 525.5,481.5 525.5,403.5 525.5,325.5 Z"/></g>
<g><path style="opacity:1" fill="#f8d574" d="M 361.5,359.5 C 360.963,362.036 359.63,364.036 357.5,365.5C 357.342,362.478 358.675,360.478 361.5,359.5 Z"/></g>
<g><path style="opacity:1" fill="#b0b2c1" d="M 333.5,361.5 C 333.646,364.554 332.313,366.554 329.5,367.5C 329.354,364.446 330.687,362.446 333.5,361.5 Z"/></g>
<g><path style="opacity:1" fill="#b2b4c3" d="M 686.5,361.5 C 689.4,363.399 691.066,366.066 691.5,369.5C 687.837,368.155 686.17,365.488 686.5,361.5 Z"/></g>
<g><path style="opacity:1" fill="#404167" d="M 693.5,369.5 C 694.643,369.908 695.643,370.575 696.5,371.5C 698.058,373.991 699.058,376.657 699.5,379.5C 696.505,376.856 694.505,373.523 693.5,369.5 Z"/></g>
<g><path style="opacity:1" fill="#60779b" d="M 667.5,369.5 C 669.176,370.183 669.843,371.517 669.5,373.5C 667.824,372.817 667.157,371.483 667.5,369.5 Z"/></g>
<g><path style="opacity:1" fill="#657b9f" d="M 671.5,375.5 C 673.176,376.183 673.843,377.517 673.5,379.5C 671.824,378.817 671.157,377.483 671.5,375.5 Z"/></g>
<g><path style="opacity:1" fill="#626483" d="M 321.5,379.5 C 320.598,381.341 319.264,382.674 317.5,383.5C 317.525,380.821 318.858,379.488 321.5,379.5 Z"/></g>
<g><path style="opacity:1" fill="#7d7f98" d="M 699.5,379.5 C 701.176,380.183 701.843,381.517 701.5,383.5C 699.824,382.817 699.157,381.483 699.5,379.5 Z"/></g>
<g><path style="opacity:1" fill="#4b628c" d="M 673.5,379.5 C 674.735,379.721 675.735,380.388 676.5,381.5C 677.527,383.553 678.527,385.553 679.5,387.5C 675.602,386.41 673.602,383.744 673.5,379.5 Z"/></g>
<g><path style="opacity:1" fill="#9193a8" d="M 701.5,383.5 C 703.822,384.802 705.155,386.802 705.5,389.5C 703.204,388.267 701.87,386.267 701.5,383.5 Z"/></g>
<g><path style="opacity:1" fill="#adafbf" d="M 317.5,385.5 C 317.646,388.554 316.313,390.554 313.5,391.5C 313.354,388.446 314.687,386.446 317.5,385.5 Z"/></g>
<g><path style="opacity:1" fill="#999baf" d="M 705.5,389.5 C 707.176,390.183 707.843,391.517 707.5,393.5C 705.824,392.817 705.157,391.483 705.5,389.5 Z"/></g>
<g><path style="opacity:1" fill="#636584" d="M 313.5,391.5 C 312.833,393.5 311.5,394.833 309.5,395.5C 309.525,392.821 310.858,391.488 313.5,391.5 Z"/></g>
<g><path style="opacity:1" fill="#393a62" d="M 709.5,393.5 C 710.643,393.908 711.643,394.575 712.5,395.5C 714.058,397.991 715.058,400.657 715.5,403.5C 712.505,400.856 710.505,397.523 709.5,393.5 Z"/></g>
<g><path style="opacity:1" fill="#c9d1dd" d="M 521.5,216.5 C 522.167,240.167 522.833,263.833 523.5,287.5C 523.5,335.5 523.5,383.5 523.5,431.5C 521.844,360.007 521.177,288.34 521.5,216.5 Z"/></g>
<g><path style="opacity:1" fill="#3e5784" d="M 681.5,391.5 C 683.477,394.09 685.477,396.757 687.5,399.5C 683.602,398.41 681.602,395.744 681.5,391.5 Z"/></g>
<g><path style="opacity:1" fill="#a1a2b5" d="M 307.5,399.5 C 307.843,401.483 307.176,402.817 305.5,403.5C 305.5,402.833 305.5,402.167 305.5,401.5C 305.5,400.167 306.167,399.5 307.5,399.5 Z"/></g>
<g><path style="opacity:1" fill="#5d759a" d="M 687.5,399.5 C 689.176,400.183 689.843,401.517 689.5,403.5C 687.824,402.817 687.157,401.483 687.5,399.5 Z"/></g>
<g><path style="opacity:1" fill="#a8b5c9" d="M 689.5,403.5 C 690.833,403.5 692.167,403.5 693.5,403.5C 693.5,404.833 693.5,406.167 693.5,407.5C 691.5,406.833 690.167,405.5 689.5,403.5 Z"/></g>
<g><path style="opacity:1" fill="#555779" d="M 305.5,401.5 C 305.5,402.167 305.5,402.833 305.5,403.5C 304.598,405.341 303.264,406.674 301.5,407.5C 301.87,404.733 303.204,402.733 305.5,401.5 Z"/></g>
<g><path style="opacity:1" fill="#797b95" d="M 301.5,407.5 C 301.843,409.483 301.176,410.817 299.5,411.5C 299.157,409.517 299.824,408.183 301.5,407.5 Z"/></g>
<g><path style="opacity:1" fill="#f7d065" d="M 331.5,403.5 C 330.454,406.19 329.454,408.857 328.5,411.5C 327.5,411.5 326.5,411.5 325.5,411.5C 326.066,407.68 328.066,405.013 331.5,403.5 Z"/></g>
<g><path style="opacity:1" fill="#b9bac7" d="M 715.5,405.5 C 717.477,408.09 719.477,410.757 721.5,413.5C 717.602,412.41 715.602,409.744 715.5,405.5 Z"/></g>
<g><path style="opacity:1" fill="#84869f" d="M 721.5,413.5 C 723.982,414.663 725.316,416.663 725.5,419.5C 724.533,418.194 723.199,417.527 721.5,417.5C 721.5,416.167 721.5,414.833 721.5,413.5 Z"/></g>
<g><path style="opacity:1" fill="#a4a5b8" d="M 299.5,411.5 C 300.119,416.206 298.119,418.873 293.5,419.5C 295.523,416.757 297.523,414.09 299.5,411.5 Z"/></g>
<g><path style="opacity:1" fill="#a8b4c8" d="M 697.5,413.5 C 700.458,415.403 702.458,418.07 703.5,421.5C 702.833,421.5 702.167,421.5 701.5,421.5C 699.983,418.965 698.65,416.298 697.5,413.5 Z"/></g>
<g><path style="opacity:1" fill="#8f91a7" d="M 293.5,421.5 C 293.5,422.833 292.833,423.5 291.5,423.5C 291.5,422.167 292.167,421.5 293.5,421.5 Z"/></g>
<g><path style="opacity:1" fill="#9395aa" d="M 725.5,419.5 C 727.176,420.183 727.843,421.517 727.5,423.5C 725.824,422.817 725.157,421.483 725.5,419.5 Z"/></g>
<g><path style="opacity:1" fill="#536991" d="M 701.5,421.5 C 702.167,421.5 702.833,421.5 703.5,421.5C 705.701,423.71 707.034,426.376 707.5,429.5C 705.989,428.498 704.322,427.831 702.5,427.5C 702.483,425.435 702.15,423.435 701.5,421.5 Z"/></g>
<g><path style="opacity:1" fill="#888aa2" d="M 729.5,425.5 C 731.176,426.183 731.843,427.517 731.5,429.5C 729.824,428.817 729.157,427.483 729.5,425.5 Z"/></g>
<g><path style="opacity:1" fill="#57597b" d="M 291.5,423.5 C 290.167,426.167 288.833,428.833 287.5,431.5C 286.833,431.5 286.167,431.5 285.5,431.5C 286.056,427.711 288.056,425.045 291.5,423.5 Z"/></g>
<g><path style="opacity:1" fill="#6d83a4" d="M 523.5,287.5 C 523.833,287.5 524.167,287.5 524.5,287.5C 524.172,299.678 524.505,311.678 525.5,323.5C 525.5,324.167 525.5,324.833 525.5,325.5C 525.5,403.5 525.5,481.5 525.5,559.5C 523.505,517.18 522.839,474.513 523.5,431.5C 523.5,383.5 523.5,335.5 523.5,287.5 Z"/></g>
<g><path style="opacity:1" fill="#4f678f" d="M 707.5,429.5 C 709.13,431.359 710.796,433.359 712.5,435.5C 713.429,436.689 713.762,438.022 713.5,439.5C 710.007,437.2 708.007,433.866 707.5,429.5 Z"/></g>
<g><path style="opacity:1" fill="#bdbfcb" d="M 731.5,429.5 C 733.639,431.757 735.306,434.424 736.5,437.5C 733.348,435.883 731.682,433.216 731.5,429.5 Z"/></g>
<g><path style="opacity:1" fill="#b6b7c6" d="M 285.5,431.5 C 286.167,431.5 286.833,431.5 287.5,431.5C 286.687,434.989 284.687,437.656 281.5,439.5C 281.5,438.167 281.5,436.833 281.5,435.5C 284.5,435.833 285.833,434.5 285.5,431.5 Z"/></g>
<g><path style="opacity:1" fill="#6e84a5" d="M 715.5,441.5 C 717.796,442.733 719.13,444.733 719.5,447.5C 717.204,446.267 715.87,444.267 715.5,441.5 Z"/></g>
<g><path style="opacity:1" fill="#8c8ea4" d="M 277.5,445.5 C 277.5,446.833 276.833,447.5 275.5,447.5C 275.5,446.167 276.167,445.5 277.5,445.5 Z"/></g>
<g><path style="opacity:1" fill="#9799ad" d="M 275.5,447.5 C 275.843,449.483 275.176,450.817 273.5,451.5C 273.157,449.517 273.824,448.183 275.5,447.5 Z"/></g>
<g><path style="opacity:1" fill="#8e90a6" d="M 743.5,447.5 C 746.313,448.446 747.646,450.446 747.5,453.5C 744.687,452.554 743.354,450.554 743.5,447.5 Z"/></g>
<g><path style="opacity:1" fill="#8f90a6" d="M 273.5,451.5 C 272.766,452.708 272.433,454.041 272.5,455.5C 271.5,455.5 270.5,455.5 269.5,455.5C 270.167,453.5 271.5,452.167 273.5,451.5 Z"/></g>
<g><path style="opacity:1" fill="#a6a7b9" d="M 747.5,453.5 C 749.176,454.183 749.843,455.517 749.5,457.5C 747.824,456.817 747.157,455.483 747.5,453.5 Z"/></g>
<g><path style="opacity:1" fill="#475f8a" d="M 723.5,453.5 C 727.127,458.028 730.794,462.695 734.5,467.5C 735.429,468.689 735.762,470.022 735.5,471.5C 733.922,470.934 732.588,469.934 731.5,468.5C 729.833,465.833 728.167,463.167 726.5,460.5C 725.675,459.614 724.675,459.281 723.5,459.5C 723.5,457.5 723.5,455.5 723.5,453.5 Z"/></g>
<g><path style="opacity:1" fill="#f9de93" d="M 295.5,457.5 C 294.636,459.919 293.303,461.919 291.5,463.5C 291.581,460.487 292.914,458.487 295.5,457.5 Z"/></g>
<g><path style="opacity:1" fill="#a9aabb" d="M 269.5,455.5 C 269.736,458.829 268.903,461.829 267,464.5C 263.071,469.576 259.238,474.576 255.5,479.5C 255.5,478.833 255.5,478.167 255.5,477.5C 255.5,476.833 255.5,476.167 255.5,475.5C 257.833,475.167 259.167,473.833 259.5,471.5C 262.844,466.152 266.177,460.818 269.5,455.5 Z"/></g>
<g><path style="opacity:1" fill="#525376" d="M 759.5,471.5 C 762.697,472.112 764.031,474.112 763.5,477.5C 761.697,475.919 760.364,473.919 759.5,471.5 Z"/></g>
<g><path style="opacity:1" fill="#494c70" d="M 259.5,471.5 C 259.167,473.833 257.833,475.167 255.5,475.5C 256.326,473.736 257.659,472.402 259.5,471.5 Z"/></g>
<g><path style="opacity:1" fill="#727490" d="M 255.5,477.5 C 255.5,478.167 255.5,478.833 255.5,479.5C 254.598,481.341 253.264,482.674 251.5,483.5C 251.87,480.733 253.204,478.733 255.5,477.5 Z"/></g>
<g><path style="opacity:1" fill="#677d9f" d="M 741.5,479.5 C 743.176,480.183 743.843,481.517 743.5,483.5C 741.824,482.817 741.157,481.483 741.5,479.5 Z"/></g>
<g><path style="opacity:1" fill="#84869e" d="M 763.5,477.5 C 766.313,478.446 767.646,480.446 767.5,483.5C 764.687,482.554 763.354,480.554 763.5,477.5 Z"/></g>
<g><path style="opacity:1" fill="#f5c749" d="M 285.5,473.5 C 284.228,477.644 282.562,481.644 280.5,485.5C 277.006,488.563 274.006,491.897 271.5,495.5C 271.34,493.801 271.506,492.134 272,490.5C 277.009,485.098 281.509,479.431 285.5,473.5 Z"/></g>
<g><path style="opacity:1" fill="#494b6f" d="M 251.5,483.5 C 251.167,485.833 249.833,487.167 247.5,487.5C 248.326,485.736 249.659,484.402 251.5,483.5 Z"/></g>
<g><path style="opacity:1" fill="#435c88" d="M 743.5,483.5 C 745.477,486.09 747.477,488.757 749.5,491.5C 749.5,492.167 749.5,492.833 749.5,493.5C 746.007,491.2 744.007,487.866 743.5,483.5 Z"/></g>
<g><path style="opacity:1" fill="#6c6e8b" d="M 245.5,491.5 C 245.843,493.483 245.176,494.817 243.5,495.5C 243.66,493.847 244.326,492.514 245.5,491.5 Z"/></g>
<g><path style="opacity:1" fill="#a0afc4" d="M 749.5,491.5 C 752.313,492.446 753.646,494.446 753.5,497.5C 751.726,496.63 750.393,495.297 749.5,493.5C 749.5,492.833 749.5,492.167 749.5,491.5 Z"/></g>
<g><path style="opacity:1" fill="#80839b" d="M 771.5,491.5 C 774.5,491.167 775.833,492.5 775.5,495.5C 773.866,494.419 772.533,493.085 771.5,491.5 Z"/></g>
<g><path style="opacity:1" fill="#9496ab" d="M 243.5,495.5 C 243.843,497.483 243.176,498.817 241.5,499.5C 241.157,497.517 241.824,496.183 243.5,495.5 Z"/></g>
<g><path style="opacity:1" fill="#aaabbc" d="M 777.5,499.5 C 780.313,500.446 781.646,502.446 781.5,505.5C 781.646,502.446 780.313,500.446 777.5,499.5 Z"/></g>
<g><path style="opacity:1" fill="#9baac1" d="M 757.5,503.5 C 760.313,504.446 761.646,506.446 761.5,509.5C 759.204,508.267 757.87,506.267 757.5,503.5 Z"/></g>
<g><path style="opacity:1" fill="#8689a0" d="M 781.5,505.5 C 782.833,505.5 783.5,506.167 783.5,507.5C 783.5,506.167 782.833,505.5 781.5,505.5 Z"/></g>
<g><path style="opacity:1" fill="#4a4c70" d="M 235.5,507.5 C 235.833,510.5 234.5,511.833 231.5,511.5C 232.167,509.5 233.5,508.167 235.5,507.5 Z"/></g>
<g><path style="opacity:1" fill="#f7d26a" d="M 259.5,511.5 C 260.226,515.307 258.893,517.974 255.5,519.5C 256.247,516.413 257.58,513.746 259.5,511.5 Z"/></g>
<g><path style="opacity:1" fill="#b1b3c2" d="M 783.5,507.5 C 785.074,507.937 786.241,508.937 787,510.5C 787.05,512.744 787.883,514.411 789.5,515.5C 789.66,517.153 790.326,518.486 791.5,519.5C 793.176,520.183 793.843,521.517 793.5,523.5C 788.179,519.55 784.846,514.216 783.5,507.5 Z"/></g>
<g><path style="opacity:1" fill="#aaabbc" d="M 231.5,515.5 C 231.833,518.5 230.5,519.833 227.5,519.5C 227.525,516.821 228.858,515.488 231.5,515.5 Z"/></g>
<g><path style="opacity:1" fill="#99a8bf" d="M 765.5,515.5 C 768.313,516.446 769.646,518.446 769.5,521.5C 767.204,520.267 765.87,518.267 765.5,515.5 Z"/></g>
<g><path style="opacity:1" fill="#626583" d="M 789.5,515.5 C 791.104,516.287 791.771,517.62 791.5,519.5C 790.326,518.486 789.66,517.153 789.5,515.5 Z"/></g>
<g><path style="opacity:1" fill="#fae3a1" d="M 503.5,495.5 C 503.5,510.833 503.5,526.167 503.5,541.5C 502.833,541.5 502.167,541.5 501.5,541.5C 501.563,525.984 502.23,510.651 503.5,495.5 Z"/></g>
<g><path style="opacity:1" fill="#b6c1d1" d="M 769.5,521.5 C 770.833,521.5 772.167,521.5 773.5,521.5C 773.5,523.5 773.5,525.5 773.5,527.5C 771.697,525.919 770.364,523.919 769.5,521.5 Z"/></g>
<g><path style="opacity:1" fill="#bbbcca" d="M 227.5,519.5 C 228.042,523.259 226.708,525.926 223.5,527.5C 223.974,524.371 225.308,521.705 227.5,519.5 Z"/></g>
<g><path style="opacity:1" fill="#989aae" d="M 793.5,523.5 C 796.313,524.446 797.646,526.446 797.5,529.5C 797.646,526.446 796.313,524.446 793.5,523.5 Z"/></g>
<g><path style="opacity:1" fill="#f6d065" d="M 251.5,525.5 C 249.639,527.745 248.639,530.412 248.5,533.5C 247.5,533.5 246.5,533.5 245.5,533.5C 246.473,531.553 247.473,529.553 248.5,527.5C 249.265,526.388 250.265,525.721 251.5,525.5 Z"/></g>
<g><path style="opacity:1" fill="#506890" d="M 773.5,527.5 C 775.847,529.527 777.181,532.194 777.5,535.5C 775.13,533.427 773.797,530.76 773.5,527.5 Z"/></g>
<g><path style="opacity:1" fill="#8688a0" d="M 219.5,531.5 C 219.843,533.483 219.176,534.817 217.5,535.5C 217.157,533.517 217.824,532.183 219.5,531.5 Z"/></g>
<g><path style="opacity:1" fill="#aeb0c0" d="M 797.5,529.5 C 799.176,530.183 799.843,531.517 799.5,533.5C 800.822,533.33 801.989,533.663 803,534.5C 804.335,538.301 805.835,541.968 807.5,545.5C 804.392,542.672 801.725,539.338 799.5,535.5C 798.523,533.589 797.857,531.589 797.5,529.5 Z"/></g>
<g><path style="opacity:1" fill="#c0c1ce" d="M 215.5,539.5 C 215.646,542.554 214.313,544.554 211.5,545.5C 211.354,542.446 212.687,540.446 215.5,539.5 Z"/></g>
<g><path style="opacity:1" fill="#506891" d="M 779.5,537.5 C 782.313,538.446 783.646,540.446 783.5,543.5C 780.687,542.554 779.354,540.554 779.5,537.5 Z"/></g>
<g><path style="opacity:1" fill="#f6cd5c" d="M 239.5,543.5 C 238.85,545.435 238.517,547.435 238.5,549.5C 236.486,549.392 234.82,550.058 233.5,551.5C 233.525,548.821 234.858,547.488 237.5,547.5C 237.157,545.517 237.824,544.183 239.5,543.5 Z"/></g>
<g><path style="opacity:1" fill="#435b87" d="M 787.5,549.5 C 790.652,551.117 792.318,553.784 792.5,557.5C 789.348,555.883 787.682,553.216 787.5,549.5 Z"/></g>
<g><path style="opacity:1" fill="#a3a4b6" d="M 813.5,553.5 C 815.176,554.183 815.843,555.517 815.5,557.5C 813.824,556.817 813.157,555.483 813.5,553.5 Z"/></g>
<g><path style="opacity:1" fill="#515275" d="M 203.5,555.5 C 203.316,558.337 201.982,560.337 199.5,561.5C 199.354,558.446 200.687,556.446 203.5,555.5 Z"/></g>
<g><path style="opacity:1" fill="#6b6e8b" d="M 815.5,557.5 C 818.5,557.167 819.833,558.5 819.5,561.5C 819.167,561.5 818.833,561.5 818.5,561.5C 817.122,560.455 816.122,559.122 815.5,557.5 Z"/></g>
<g><path style="opacity:1" fill="#5a7297" d="M 525.5,559.5 C 526.167,559.5 526.833,559.5 527.5,559.5C 528.873,559.343 530.207,559.51 531.5,560C 534.965,561.955 538.298,563.789 541.5,565.5C 535.355,565.072 530.022,563.072 525.5,559.5 Z"/></g>
<g><path style="opacity:1" fill="#8c8ea5" d="M 199.5,561.5 C 199.843,563.483 199.176,564.817 197.5,565.5C 197.157,563.517 197.824,562.183 199.5,561.5 Z"/></g>
<g><path style="opacity:1" fill="#597297" d="M 541.5,565.5 C 543.898,565.259 545.898,565.926 547.5,567.5C 545.102,567.741 543.102,567.074 541.5,565.5 Z"/></g>
<g><path style="opacity:1" fill="#aaacbc" d="M 818.5,561.5 C 818.833,561.5 819.167,561.5 819.5,561.5C 821.701,563.71 823.034,566.376 823.5,569.5C 821.743,568.708 820.409,567.375 819.5,565.5C 818.571,564.311 818.238,562.978 818.5,561.5 Z"/></g>
<g><path style="opacity:1" fill="#5a7297" d="M 547.5,567.5 C 549.527,567.338 551.527,567.505 553.5,568C 556.965,569.955 560.298,571.789 563.5,573.5C 557.355,573.072 552.022,571.072 547.5,567.5 Z"/></g>
<g><path style="opacity:1" fill="#7f92af" d="M 563.5,573.5 C 567.327,573.752 570.66,575.085 573.5,577.5C 569.464,577.715 566.13,576.381 563.5,573.5 Z"/></g>
<g><path style="opacity:1" fill="#a6a8b9" d="M 825.5,571.5 C 827.303,573.081 828.636,575.081 829.5,577.5C 828.5,577.5 827.5,577.5 826.5,577.5C 826.483,575.435 826.15,573.435 825.5,571.5 Z"/></g>
<g><path style="opacity:1" fill="#b4b5b4" d="M 515.5,577.5 C 511.374,577.572 507.374,578.239 503.5,579.5C 507.167,576.543 511.167,575.877 515.5,577.5 Z"/></g>
<g><path style="opacity:1" fill="#b9bab9" d="M 515.5,577.5 C 517.482,577.995 519.482,578.495 521.5,579C 522.756,579.417 523.423,580.25 523.5,581.5C 522.167,581.5 520.833,581.5 519.5,581.5C 518.167,580.167 516.833,578.833 515.5,577.5 Z"/></g>
<g><path style="opacity:1" fill="#0a0d0a" d="M 519.5,581.5 C 520.833,581.5 522.167,581.5 523.5,581.5C 525.102,583.074 527.102,583.741 529.5,583.5C 531.5,584.167 533.5,584.833 535.5,585.5C 536.183,587.176 537.517,587.843 539.5,587.5C 540.167,587.5 540.833,587.5 541.5,587.5C 544.34,589.915 547.673,591.248 551.5,591.5C 553.074,594.708 555.741,596.042 559.5,595.5C 562.006,596.75 564.673,597.416 567.5,597.5C 568.183,599.176 569.517,599.843 571.5,599.5C 572.833,599.5 574.167,599.5 575.5,599.5C 577.102,601.074 579.102,601.741 581.5,601.5C 581.369,602.376 581.702,603.043 582.5,603.5C 584.801,604.325 587.135,604.992 589.5,605.5C 590.167,605.5 590.833,605.5 591.5,605.5C 593.102,607.074 595.102,607.741 597.5,607.5C 604.061,611.663 611.395,614.33 619.5,615.5C 622.006,616.75 624.673,617.416 627.5,617.5C 627.5,618.167 627.5,618.833 627.5,619.5C 632.573,621.435 637.906,622.768 643.5,623.5C 645.102,625.074 647.102,625.741 649.5,625.5C 654.022,629.072 659.355,631.072 665.5,631.5C 667.102,633.074 669.102,633.741 671.5,633.5C 671.369,634.376 671.702,635.043 672.5,635.5C 674.801,636.325 677.135,636.992 679.5,637.5C 684.167,638.833 688.833,640.167 693.5,641.5C 695.153,641.66 696.486,642.326 697.5,643.5C 700.237,646.217 703.57,647.55 707.5,647.5C 708.833,647.5 710.167,647.5 711.5,647.5C 713.102,649.074 715.102,649.741 717.5,649.5C 718.918,651.308 720.918,651.975 723.5,651.5C 723.369,652.376 723.702,653.043 724.5,653.5C 726.801,654.325 729.135,654.992 731.5,655.5C 732.167,655.5 732.833,655.5 733.5,655.5C 735.102,657.074 737.102,657.741 739.5,657.5C 746.061,661.663 753.395,664.33 761.5,665.5C 764.006,666.75 766.673,667.416 769.5,667.5C 769.5,668.167 769.5,668.833 769.5,669.5C 773.996,671.127 778.663,672.46 783.5,673.5C 786.006,674.75 788.673,675.416 791.5,675.5C 798.061,679.663 805.395,682.33 813.5,683.5C 813.369,684.376 813.702,685.043 814.5,685.5C 818.192,687.019 821.859,688.353 825.5,689.5C 828.833,690.167 832.167,690.833 835.5,691.5C 835.577,692.75 836.244,693.583 837.5,694C 840.117,694.822 842.784,695.322 845.5,695.5C 845.842,696.338 846.508,696.672 847.5,696.5C 782.335,697.499 717.002,697.832 651.5,697.5C 606.833,697.5 562.167,697.5 517.5,697.5C 458.005,696.147 398.338,695.48 338.5,695.5C 290.162,695.833 241.829,695.5 193.5,694.5C 197.168,693.333 200.502,691.666 203.5,689.5C 207.327,689.248 210.66,687.915 213.5,685.5C 214.167,685.5 214.833,685.5 215.5,685.5C 220.249,684.479 224.916,683.146 229.5,681.5C 233.327,681.248 236.66,679.915 239.5,677.5C 244.602,676.399 249.268,674.399 253.5,671.5C 257.042,670.46 260.375,669.126 263.5,667.5C 268.133,667.84 272.133,666.506 275.5,663.5C 279.5,662.167 283.5,660.833 287.5,659.5C 291.327,659.248 294.66,657.915 297.5,655.5C 299.898,655.741 301.898,655.074 303.5,653.5C 304.167,653.5 304.833,653.5 305.5,653.5C 309.085,653.708 311.751,652.375 313.5,649.5C 315.898,649.741 317.898,649.074 319.5,647.5C 322.187,647.664 324.854,647.497 327.5,647C 334.379,644.058 341.046,640.892 347.5,637.5C 351.327,637.248 354.66,635.915 357.5,633.5C 362.133,633.84 366.133,632.506 369.5,629.5C 374.729,627.724 380.063,626.224 385.5,625C 387.727,624.059 389.727,622.892 391.5,621.5C 393.102,619.926 395.102,619.259 397.5,619.5C 400.994,618.069 404.661,617.236 408.5,617C 410.233,615.811 411.9,614.644 413.5,613.5C 421.017,611.128 428.35,608.462 435.5,605.5C 438.247,605.813 440.914,605.48 443.5,604.5C 444.612,603.735 445.279,602.735 445.5,601.5C 449.787,600.768 453.787,599.435 457.5,597.5C 459.102,595.926 461.102,595.259 463.5,595.5C 467.683,594.743 471.683,593.41 475.5,591.5C 479.536,591.715 482.87,590.381 485.5,587.5C 489.683,586.743 493.683,585.41 497.5,583.5C 502.374,582.987 507.041,581.654 511.5,579.5C 513.972,580.992 516.639,581.658 519.5,581.5 Z"/></g>
<g><path style="opacity:1" fill="#7488a8" d="M 575.5,577.5 C 580.775,579.09 586.108,580.59 591.5,582C 593.027,583.032 594.36,584.199 595.5,585.5C 589.342,584.292 583.342,582.459 577.5,580C 576.244,579.583 575.577,578.75 575.5,577.5 Z"/></g>
<g><path style="opacity:1" fill="#687ea0" d="M 805.5,575.5 C 808.313,576.446 809.646,578.446 809.5,581.5C 806.687,580.554 805.354,578.554 805.5,575.5 Z"/></g>
<g><path style="opacity:1" fill="#9899ae" d="M 829.5,577.5 C 831.176,578.183 831.843,579.517 831.5,581.5C 829.824,580.817 829.157,579.483 829.5,577.5 Z"/></g>
<g><path style="opacity:1" fill="#949594" d="M 523.5,581.5 C 525.898,581.259 527.898,581.926 529.5,583.5C 527.102,583.741 525.102,583.074 523.5,581.5 Z"/></g>
<g><path style="opacity:1" fill="#363836" d="M 515.5,577.5 C 516.833,578.833 518.167,580.167 519.5,581.5C 516.639,581.658 513.972,580.992 511.5,579.5C 507.041,581.654 502.374,582.987 497.5,583.5C 498.167,582.833 498.833,582.167 499.5,581.5C 501.153,581.34 502.486,580.674 503.5,579.5C 507.374,578.239 511.374,577.572 515.5,577.5 Z"/></g>
<g><path style="opacity:1" fill="#8e90a6" d="M 831.5,581.5 C 832.833,581.5 833.5,582.167 833.5,583.5C 833.5,582.167 832.833,581.5 831.5,581.5 Z"/></g>
<g><path style="opacity:1" fill="#fdf0d1" d="M 449.5,581.5 C 449.586,582.496 449.252,583.329 448.5,584C 445.475,584.133 442.808,585.133 440.5,587C 436.184,587.996 431.851,588.83 427.5,589.5C 434.619,586.543 441.953,583.876 449.5,581.5 Z"/></g>
<g><path style="opacity:1" fill="#cdcdcd" d="M 491.5,583.5 C 489.5,584.833 487.5,586.167 485.5,587.5C 482.673,587.584 480.006,588.25 477.5,589.5C 477.721,588.265 478.388,587.265 479.5,586.5C 483.371,584.874 487.371,583.874 491.5,583.5 Z"/></g>
<g><path style="opacity:1" fill="#6c6e6c" d="M 499.5,581.5 C 498.833,582.167 498.167,582.833 497.5,583.5C 493.683,585.41 489.683,586.743 485.5,587.5C 487.5,586.167 489.5,584.833 491.5,583.5C 494.006,582.25 496.673,581.584 499.5,581.5 Z"/></g>
<g><path style="opacity:1" fill="#adaebe" d="M 185.5,583.5 C 185.843,585.483 185.176,586.817 183.5,587.5C 183.157,585.517 183.824,584.183 185.5,583.5 Z"/></g>
<g><path style="opacity:1" fill="#878887" d="M 535.5,585.5 C 537.483,585.157 538.817,585.824 539.5,587.5C 537.517,587.843 536.183,587.176 535.5,585.5 Z"/></g>
<g><path style="opacity:1" fill="#516890" d="M 809.5,581.5 C 811.982,582.663 813.316,584.663 813.5,587.5C 812.5,587.5 811.5,587.5 810.5,587.5C 810.483,585.435 810.15,583.435 809.5,581.5 Z"/></g>
<g><path style="opacity:1" fill="#9c9db0" d="M 833.5,583.5 C 835.176,584.183 835.843,585.517 835.5,587.5C 833.824,586.817 833.157,585.483 833.5,583.5 Z"/></g>
<g><path style="opacity:1" fill="#7d91ae" d="M 597.5,585.5 C 603.201,586.731 608.534,588.731 613.5,591.5C 610.753,591.813 608.086,591.48 605.5,590.5C 603.389,589.051 601.056,588.051 598.5,587.5C 597.702,587.043 597.369,586.376 597.5,585.5 Z"/></g>
<g><path style="opacity:1" fill="#363836" d="M 485.5,587.5 C 482.87,590.381 479.536,591.715 475.5,591.5C 476.167,590.833 476.833,590.167 477.5,589.5C 480.006,588.25 482.673,587.584 485.5,587.5 Z"/></g>
<g><path style="opacity:1" fill="#949594" d="M 541.5,587.5 C 545.536,587.285 548.87,588.619 551.5,591.5C 547.673,591.248 544.34,589.915 541.5,587.5 Z"/></g>
<g><path style="opacity:1" fill="#60769b" d="M 613.5,591.5 C 615.527,591.338 617.527,591.505 619.5,592C 623.026,593.837 626.36,595.67 629.5,597.5C 623.355,597.072 618.022,595.072 613.5,591.5 Z"/></g>
<g><path style="opacity:1" fill="#afb0c0" d="M 181.5,589.5 C 181.843,591.483 181.176,592.817 179.5,593.5C 179.157,591.517 179.824,590.183 181.5,589.5 Z"/></g>
<g><path style="opacity:1" fill="#6f716f" d="M 477.5,589.5 C 476.833,590.167 476.167,590.833 475.5,591.5C 471.683,593.41 467.683,594.743 463.5,595.5C 467.66,592.422 472.327,590.422 477.5,589.5 Z"/></g>
<g><path style="opacity:1" fill="#6f83a4" d="M 813.5,587.5 C 816.95,589.063 818.95,591.73 819.5,595.5C 815.975,593.975 813.975,591.309 813.5,587.5 Z"/></g>
<g><path style="opacity:1" fill="#a0a1b4" d="M 835.5,587.5 C 838.313,588.446 839.646,590.446 839.5,593.5C 836.687,592.554 835.354,590.554 835.5,587.5 Z"/></g>
<g><path style="opacity:1" fill="#373a37" d="M 551.5,591.5 C 554.006,592.75 556.673,593.416 559.5,593.5C 559.5,594.167 559.5,594.833 559.5,595.5C 555.741,596.042 553.074,594.708 551.5,591.5 Z"/></g>
<g><path style="opacity:1" fill="#fbe6ac" d="M 409.5,595.5 C 407.898,597.074 405.898,597.741 403.5,597.5C 405.102,595.926 407.102,595.259 409.5,595.5 Z"/></g>
<g><path style="opacity:1" fill="#878987" d="M 559.5,593.5 C 561.482,593.995 563.482,594.495 565.5,595C 566.756,595.417 567.423,596.25 567.5,597.5C 564.673,597.416 562.006,596.75 559.5,595.5C 559.5,594.833 559.5,594.167 559.5,593.5 Z"/></g>
<g><path style="opacity:1" fill="#5b5c5b" d="M 567.5,597.5 C 569.483,597.157 570.817,597.824 571.5,599.5C 569.517,599.843 568.183,599.176 567.5,597.5 Z"/></g>
<g><path style="opacity:1" fill="#a1a2b5" d="M 839.5,593.5 C 842.313,594.446 843.646,596.446 843.5,599.5C 840.687,598.554 839.354,596.554 839.5,593.5 Z"/></g>
<g><path style="opacity:1" fill="#aaabaa" d="M 575.5,599.5 C 577.898,599.259 579.898,599.926 581.5,601.5C 579.102,601.741 577.102,601.074 575.5,599.5 Z"/></g>
<g><path style="opacity:1" fill="#fceec7" d="M 403.5,597.5 C 402.263,599.097 400.596,600.263 398.5,601C 396.866,601.494 395.199,601.66 393.5,601.5C 396.39,599.267 399.723,597.934 403.5,597.5 Z"/></g>
<g><path style="opacity:1" fill="#7f807f" d="M 457.5,597.5 C 453.787,599.435 449.787,600.768 445.5,601.5C 446.167,600.833 446.833,600.167 447.5,599.5C 450.584,597.899 453.917,597.232 457.5,597.5 Z"/></g>
<g><path style="opacity:1" fill="#899bb5" d="M 629.5,597.5 C 633.327,597.752 636.66,599.085 639.5,601.5C 635.464,601.715 632.13,600.381 629.5,597.5 Z"/></g>
<g><path style="opacity:1" fill="#b7b8c6" d="M 175.5,599.5 C 175.646,602.554 174.313,604.554 171.5,605.5C 171.354,602.446 172.687,600.446 175.5,599.5 Z"/></g>
<g><path style="opacity:1" fill="#b9bab9" d="M 447.5,599.5 C 446.833,600.167 446.167,600.833 445.5,601.5C 441.958,602.54 438.625,603.874 435.5,605.5C 434.833,605.5 434.167,605.5 433.5,605.5C 433.577,604.25 434.244,603.417 435.5,603C 439.438,601.526 443.438,600.359 447.5,599.5 Z"/></g>
<g><path style="opacity:1" fill="#383a38" d="M 445.5,601.5 C 445.279,602.735 444.612,603.735 443.5,604.5C 440.914,605.48 438.247,605.813 435.5,605.5C 438.625,603.874 441.958,602.54 445.5,601.5 Z"/></g>
<g><path style="opacity:1" fill="#7b7d7b" d="M 581.5,601.5 C 583.482,601.995 585.482,602.495 587.5,603C 588.756,603.417 589.423,604.25 589.5,605.5C 589.423,604.25 588.756,603.417 587.5,603C 585.482,602.495 583.482,601.995 581.5,601.5 Z"/></g>
<g><path style="opacity:1" fill="#6d82a3" d="M 823.5,601.5 C 825.176,602.183 825.843,603.517 825.5,605.5C 823.824,604.817 823.157,603.483 823.5,601.5 Z"/></g>
<g><path style="opacity:1" fill="#c0c2ce" d="M 843.5,599.5 C 846.225,602.263 848.225,605.597 849.5,609.5C 846.007,607.2 844.007,603.866 843.5,599.5 Z"/></g>
<g><path style="opacity:1" fill="#8b8c8b" d="M 591.5,605.5 C 593.898,605.259 595.898,605.926 597.5,607.5C 595.102,607.741 593.102,607.074 591.5,605.5 Z"/></g>
<g><path style="opacity:1" fill="#fae7b1" d="M 381.5,605.5 C 379.898,607.074 377.898,607.741 375.5,607.5C 377.102,605.926 379.102,605.259 381.5,605.5 Z"/></g>
<g><path style="opacity:1" fill="#f9de91" d="M 373.5,607.5 C 373.5,608.167 373.5,608.833 373.5,609.5C 371.5,609.5 369.5,609.5 367.5,609.5C 369.302,608.542 371.302,607.875 373.5,607.5 Z"/></g>
<g><path style="opacity:1" fill="#7a7c7a" d="M 433.5,605.5 C 434.167,605.5 434.833,605.5 435.5,605.5C 428.35,608.462 421.017,611.128 413.5,613.5C 419.682,609.621 426.348,606.955 433.5,605.5 Z"/></g>
<g><path style="opacity:1" fill="#8798b4" d="M 649.5,605.5 C 654.226,605.007 658.226,606.34 661.5,609.5C 657.112,609.059 653.112,607.725 649.5,605.5 Z"/></g>
<g><path style="opacity:1" fill="#8c8d8c" d="M 597.5,607.5 C 599.527,607.338 601.527,607.505 603.5,608C 607.118,610.409 611.118,611.909 615.5,612.5C 616.901,613.521 618.235,614.521 619.5,615.5C 611.395,614.33 604.061,611.663 597.5,607.5 Z"/></g>
<g><path style="opacity:1" fill="#fcefcc" d="M 367.5,609.5 C 369.5,609.5 371.5,609.5 373.5,609.5C 366.745,612.87 359.412,614.87 351.5,615.5C 356.547,612.987 361.88,610.987 367.5,609.5 Z"/></g>
<g><path style="opacity:1" fill="#637a9e" d="M 673.5,613.5 C 676.082,613.025 678.082,613.692 679.5,615.5C 677.102,615.741 675.102,615.074 673.5,613.5 Z"/></g>
<g><path style="opacity:1" fill="#abacbd" d="M 165.5,613.5 C 165.843,615.483 165.176,616.817 163.5,617.5C 163.157,615.517 163.824,614.183 165.5,613.5 Z"/></g>
<g><path style="opacity:1" fill="#7c7d7c" d="M 413.5,613.5 C 411.9,614.644 410.233,615.811 408.5,617C 404.661,617.236 400.994,618.069 397.5,619.5C 397.369,618.624 397.702,617.957 398.5,617.5C 401.056,616.949 403.389,615.949 405.5,614.5C 408.086,613.52 410.753,613.187 413.5,613.5 Z"/></g>
<g><path style="opacity:1" fill="#61799d" d="M 679.5,615.5 C 681.898,615.259 683.898,615.926 685.5,617.5C 683.102,617.741 681.102,617.074 679.5,615.5 Z"/></g>
<g><path style="opacity:1" fill="#5f769a" d="M 829.5,611.5 C 832.313,612.446 833.646,614.446 833.5,617.5C 830.687,616.554 829.354,614.554 829.5,611.5 Z"/></g>
<g><path style="opacity:1" fill="#8c8da4" d="M 851.5,611.5 C 854.95,613.063 856.95,615.73 857.5,619.5C 853.97,617.971 851.97,615.304 851.5,611.5 Z"/></g>
<g><path style="opacity:1" fill="#fbe8b3" d="M 351.5,615.5 C 348.665,617.785 345.332,619.118 341.5,619.5C 341.62,618.414 342.287,617.747 343.5,617.5C 346.185,616.829 348.852,616.162 351.5,615.5 Z"/></g>
<g><path style="opacity:1" fill="#acadac" d="M 627.5,617.5 C 629.698,617.875 631.698,618.542 633.5,619.5C 631.5,619.5 629.5,619.5 627.5,619.5C 627.5,618.833 627.5,618.167 627.5,617.5 Z"/></g>
<g><path style="opacity:1" fill="#6d6f8c" d="M 163.5,617.5 C 162.833,619.5 161.5,620.833 159.5,621.5C 159.525,618.821 160.858,617.488 163.5,617.5 Z"/></g>
<g><path style="opacity:1" fill="#797a79" d="M 627.5,619.5 C 629.5,619.5 631.5,619.5 633.5,619.5C 637.203,620.41 640.536,621.744 643.5,623.5C 637.906,622.768 632.573,621.435 627.5,619.5 Z"/></g>
<g><path style="opacity:1" fill="#657d9f" d="M 695.5,621.5 C 698.082,621.025 700.082,621.692 701.5,623.5C 699.102,623.741 697.102,623.074 695.5,621.5 Z"/></g>
<g><path style="opacity:1" fill="#8d8ea5" d="M 857.5,619.5 C 859.176,620.183 859.843,621.517 859.5,623.5C 857.824,622.817 857.157,621.483 857.5,619.5 Z"/></g>
<g><path style="opacity:1" fill="#f9e29e" d="M 333.5,621.5 C 330.313,624.925 326.313,626.259 321.5,625.5C 325.241,623.642 329.241,622.309 333.5,621.5 Z"/></g>
<g><path style="opacity:1" fill="#a1a2a1" d="M 643.5,623.5 C 645.898,623.259 647.898,623.926 649.5,625.5C 647.102,625.741 645.102,625.074 643.5,623.5 Z"/></g>
<g><path style="opacity:1" fill="#667e9f" d="M 701.5,623.5 C 703.898,623.259 705.898,623.926 707.5,625.5C 705.102,625.741 703.102,625.074 701.5,623.5 Z"/></g>
<g><path style="opacity:1" fill="#f8d77b" d="M 321.5,625.5 C 320.082,627.308 318.082,627.975 315.5,627.5C 317.302,626.542 319.302,625.875 321.5,625.5 Z"/></g>
<g><path style="opacity:1" fill="#7a7b7a" d="M 391.5,621.5 C 389.727,622.892 387.727,624.059 385.5,625C 380.063,626.224 374.729,627.724 369.5,629.5C 375.963,624.708 383.296,622.041 391.5,621.5 Z"/></g>
<g><path style="opacity:1" fill="#b2b4c3" d="M 159.5,623.5 C 159.646,626.554 158.313,628.554 155.5,629.5C 155.5,628.833 155.5,628.167 155.5,627.5C 156.167,625.5 157.5,624.167 159.5,623.5 Z"/></g>
<g><path style="opacity:1" fill="#9b9c9b" d="M 649.5,625.5 C 651.527,625.338 653.527,625.505 655.5,626C 658.965,627.955 662.298,629.789 665.5,631.5C 659.355,631.072 654.022,629.072 649.5,625.5 Z"/></g>
<g><path style="opacity:1" fill="#bfc8d7" d="M 707.5,625.5 C 710.006,626.75 712.673,627.416 715.5,627.5C 716.833,628.833 718.167,630.167 719.5,631.5C 715.883,631.517 712.55,630.517 709.5,628.5C 708.388,627.735 707.721,626.735 707.5,625.5 Z"/></g>
<g><path style="opacity:1" fill="#49638c" d="M 715.5,627.5 C 717.865,628.008 720.199,628.675 722.5,629.5C 723.298,629.957 723.631,630.624 723.5,631.5C 722.167,631.5 720.833,631.5 719.5,631.5C 718.167,630.167 716.833,628.833 715.5,627.5 Z"/></g>
<g><path style="opacity:1" fill="#6981a2" d="M 723.5,631.5 C 725.898,631.259 727.898,631.926 729.5,633.5C 727.102,633.741 725.102,633.074 723.5,631.5 Z"/></g>
<g><path style="opacity:1" fill="#5e6080" d="M 155.5,627.5 C 155.5,628.167 155.5,628.833 155.5,629.5C 154.598,631.341 153.264,632.674 151.5,633.5C 151.87,630.733 153.204,628.733 155.5,627.5 Z"/></g>
<g><path style="opacity:1" fill="#f8db85" d="M 305.5,631.5 C 303.365,633.369 300.698,634.036 297.5,633.5C 299.78,631.777 302.447,631.111 305.5,631.5 Z"/></g>
<g><path style="opacity:1" fill="#5b5d5b" d="M 369.5,629.5 C 366.133,632.506 362.133,633.84 357.5,633.5C 358.833,632.833 360.167,632.167 361.5,631.5C 364.006,630.25 366.673,629.584 369.5,629.5 Z"/></g>
<g><path style="opacity:1" fill="#929392" d="M 665.5,631.5 C 667.898,631.259 669.898,631.926 671.5,633.5C 669.102,633.741 667.102,633.074 665.5,631.5 Z"/></g>
<g><path style="opacity:1" fill="#8e8f8e" d="M 361.5,631.5 C 360.167,632.167 358.833,632.833 357.5,633.5C 354.66,635.915 351.327,637.248 347.5,637.5C 349.804,635.343 352.471,633.676 355.5,632.5C 357.396,631.534 359.396,631.201 361.5,631.5 Z"/></g>
<g><path style="opacity:1" fill="#455e89" d="M 841.5,629.5 C 843.477,632.09 845.477,634.757 847.5,637.5C 843.602,636.41 841.602,633.744 841.5,629.5 Z"/></g>
<g><path style="opacity:1" fill="#8788a0" d="M 863.5,629.5 C 866.95,631.063 868.95,633.73 869.5,637.5C 865.975,635.975 863.975,633.309 863.5,629.5 Z"/></g>
<g><path style="opacity:1" fill="#fbe4a7" d="M 297.5,633.5 C 297.5,634.5 297.5,635.5 297.5,636.5C 294.763,636.401 292.096,636.735 289.5,637.5C 289.577,636.25 290.244,635.417 291.5,635C 293.518,634.495 295.518,633.995 297.5,633.5 Z"/></g>
<g><path style="opacity:1" fill="#555755" d="M 671.5,633.5 C 674.006,634.75 676.673,635.416 679.5,635.5C 679.5,636.167 679.5,636.833 679.5,637.5C 677.135,636.992 674.801,636.325 672.5,635.5C 671.702,635.043 671.369,634.376 671.5,633.5 Z"/></g>
<g><path style="opacity:1" fill="#83859d" d="M 151.5,633.5 C 151.843,635.483 151.176,636.817 149.5,637.5C 149.157,635.517 149.824,634.183 151.5,633.5 Z"/></g>
<g><path style="opacity:1" fill="#aaabaa" d="M 679.5,635.5 C 684.905,636.004 689.572,638.004 693.5,641.5C 688.833,640.167 684.167,638.833 679.5,637.5C 679.5,636.833 679.5,636.167 679.5,635.5 Z"/></g>
<g><path style="opacity:1" fill="#889ab4" d="M 737.5,637.5 C 740.698,636.964 743.365,637.631 745.5,639.5C 742.572,639.435 739.905,638.768 737.5,637.5 Z"/></g>
<g><path style="opacity:1" fill="#6e84a5" d="M 745.5,639.5 C 747.898,639.259 749.898,639.926 751.5,641.5C 749.102,641.741 747.102,641.074 745.5,639.5 Z"/></g>
<g><path style="opacity:1" fill="#f8dd8f" d="M 281.5,639.5 C 280.082,641.308 278.082,641.975 275.5,641.5C 277.102,639.926 279.102,639.259 281.5,639.5 Z"/></g>
<g><path style="opacity:1" fill="#afb0af" d="M 333.5,641.5 C 329.144,644.328 324.477,646.328 319.5,647.5C 317.898,649.074 315.898,649.741 313.5,649.5C 315.599,648.248 317.599,646.748 319.5,645C 324.279,644.006 328.946,642.839 333.5,641.5 Z"/></g>
<g><path style="opacity:1" fill="#fcecc0" d="M 275.5,641.5 C 275.5,642.5 275.5,643.5 275.5,644.5C 272.721,644.279 270.054,644.612 267.5,645.5C 267.577,644.25 268.244,643.417 269.5,643C 271.518,642.495 273.518,641.995 275.5,641.5 Z"/></g>
<g><path style="opacity:1" fill="#676987" d="M 149.5,637.5 C 148.594,641.062 146.594,643.728 143.5,645.5C 144.066,641.68 146.066,639.013 149.5,637.5 Z"/></g>
<g><path style="opacity:1" fill="#6f84a4" d="M 751.5,641.5 C 753.527,641.338 755.527,641.505 757.5,642C 760.965,643.955 764.298,645.789 767.5,647.5C 761.355,647.072 756.022,645.072 751.5,641.5 Z"/></g>
<g><path style="opacity:1" fill="#b9c3d3" d="M 847.5,637.5 C 852.231,640.212 854.897,644.212 855.5,649.5C 853.299,647.496 851.299,645.163 849.5,642.5C 848.544,640.925 847.877,639.258 847.5,637.5 Z"/></g>
<g><path style="opacity:1" fill="#414441" d="M 347.5,637.5 C 341.046,640.892 334.379,644.058 327.5,647C 324.854,647.497 322.187,647.664 319.5,647.5C 324.477,646.328 329.144,644.328 333.5,641.5C 338.183,640.155 342.849,638.822 347.5,637.5 Z"/></g>
<g><path style="opacity:1" fill="#4d4f4d" d="M 697.5,643.5 C 700.932,643.757 704.266,644.424 707.5,645.5C 707.5,646.167 707.5,646.833 707.5,647.5C 703.57,647.55 700.237,646.217 697.5,643.5 Z"/></g>
<g><path style="opacity:1" fill="#a3a4a3" d="M 707.5,645.5 C 709.483,645.157 710.817,645.824 711.5,647.5C 710.167,647.5 708.833,647.5 707.5,647.5C 707.5,646.833 707.5,646.167 707.5,645.5 Z"/></g>
<g><path style="opacity:1" fill="#b0b1c1" d="M 871.5,641.5 C 873.984,643.8 875.984,646.467 877.5,649.5C 873.258,648.583 871.258,645.917 871.5,641.5 Z"/></g>
<g><path style="opacity:1" fill="#9a9b9a" d="M 711.5,647.5 C 713.898,647.259 715.898,647.926 717.5,649.5C 715.102,649.741 713.102,649.074 711.5,647.5 Z"/></g>
<g><path style="opacity:1" fill="#7389a7" d="M 767.5,647.5 C 769.898,647.259 771.898,647.926 773.5,649.5C 771.102,649.741 769.102,649.074 767.5,647.5 Z"/></g>
<g><path style="opacity:1" fill="#82839c" d="M 143.5,645.5 C 143.843,647.483 143.176,648.817 141.5,649.5C 141.157,647.517 141.824,646.183 143.5,645.5 Z"/></g>
<g><path style="opacity:1" fill="#fcecc1" d="M 267.5,645.5 C 262.792,648.494 257.459,650.494 251.5,651.5C 251.721,650.265 252.388,649.265 253.5,648.5C 257.98,646.546 262.647,645.546 267.5,645.5 Z"/></g>
<g><path style="opacity:1" fill="#bcc6d5" d="M 773.5,649.5 C 776.638,650.249 779.305,651.583 781.5,653.5C 778.833,653.167 776.167,652.833 773.5,652.5C 773.5,651.5 773.5,650.5 773.5,649.5 Z"/></g>
<g><path style="opacity:1" fill="#a5a6b8" d="M 141.5,649.5 C 141.843,651.483 141.176,652.817 139.5,653.5C 139.5,652.833 139.5,652.167 139.5,651.5C 139.5,650.167 140.167,649.5 141.5,649.5 Z"/></g>
<g><path style="opacity:1" fill="#454745" d="M 313.5,649.5 C 311.751,652.375 309.085,653.708 305.5,653.5C 307.573,651.13 310.24,649.797 313.5,649.5 Z"/></g>
<g><path style="opacity:1" fill="#637a9d" d="M 855.5,649.5 C 857.176,650.183 857.843,651.517 857.5,653.5C 855.824,652.817 855.157,651.483 855.5,649.5 Z"/></g>
<g><path style="opacity:1" fill="#686a68" d="M 723.5,651.5 C 726.638,652.249 729.305,653.583 731.5,655.5C 729.135,654.992 726.801,654.325 724.5,653.5C 723.702,653.043 723.369,652.376 723.5,651.5 Z"/></g>
<g><path style="opacity:1" fill="#666866" d="M 303.5,653.5 C 301.898,655.074 299.898,655.741 297.5,655.5C 299.102,653.926 301.102,653.259 303.5,653.5 Z"/></g>
<g><path style="opacity:1" fill="#8e9fb8" d="M 781.5,653.5 C 784.698,652.964 787.365,653.631 789.5,655.5C 786.572,655.435 783.905,654.768 781.5,653.5 Z"/></g>
<g><path style="opacity:1" fill="#8a8b8a" d="M 733.5,655.5 C 735.898,655.259 737.898,655.926 739.5,657.5C 737.102,657.741 735.102,657.074 733.5,655.5 Z"/></g>
<g><path style="opacity:1" fill="#778cab" d="M 789.5,655.5 C 791.898,655.259 793.898,655.926 795.5,657.5C 793.102,657.741 791.102,657.074 789.5,655.5 Z"/></g>
<g><path style="opacity:1" fill="#5b5d7d" d="M 139.5,651.5 C 139.5,652.167 139.5,652.833 139.5,653.5C 138.598,655.341 137.264,656.674 135.5,657.5C 135.87,654.733 137.204,652.733 139.5,651.5 Z"/></g>
<g><path style="opacity:1" fill="#a0a1b4" d="M 879.5,653.5 C 881.176,654.183 881.843,655.517 881.5,657.5C 879.824,656.817 879.157,655.483 879.5,653.5 Z"/></g>
<g><path style="opacity:1" fill="#f8dd8d" d="M 229.5,657.5 C 228.082,659.308 226.082,659.975 223.5,659.5C 225.302,658.542 227.302,657.875 229.5,657.5 Z"/></g>
<g><path style="opacity:1" fill="#686a68" d="M 297.5,655.5 C 294.66,657.915 291.327,659.248 287.5,659.5C 288.167,658.833 288.833,658.167 289.5,657.5C 292.006,656.25 294.673,655.584 297.5,655.5 Z"/></g>
<g><path style="opacity:1" fill="#bec8d7" d="M 795.5,657.5 C 798.638,658.249 801.305,659.583 803.5,661.5C 800.833,661.167 798.167,660.833 795.5,660.5C 795.5,659.5 795.5,658.5 795.5,657.5 Z"/></g>
<g><path style="opacity:1" fill="#b6b7b6" d="M 289.5,657.5 C 288.833,658.167 288.167,658.833 287.5,659.5C 283.5,660.833 279.5,662.167 275.5,663.5C 275.33,662.178 275.663,661.011 276.5,660C 280.829,659.023 285.162,658.19 289.5,657.5 Z"/></g>
<g><path style="opacity:1" fill="#8b8c8b" d="M 739.5,657.5 C 741.527,657.338 743.527,657.505 745.5,658C 749.118,660.409 753.118,661.909 757.5,662.5C 758.901,663.521 760.235,664.521 761.5,665.5C 753.395,664.33 746.061,661.663 739.5,657.5 Z"/></g>
<g><path style="opacity:1" fill="#6c6e8b" d="M 883.5,659.5 C 884.833,659.5 885.5,660.167 885.5,661.5C 885.5,660.167 884.833,659.5 883.5,659.5 Z"/></g>
<g><path style="opacity:1" fill="#fae29e" d="M 223.5,659.5 C 220.912,662.331 217.579,663.665 213.5,663.5C 216.464,661.744 219.797,660.41 223.5,659.5 Z"/></g>
<g><path style="opacity:1" fill="#92a2bb" d="M 803.5,661.5 C 806.698,660.964 809.365,661.631 811.5,663.5C 808.572,663.435 805.905,662.768 803.5,661.5 Z"/></g>
<g><path style="opacity:1" fill="#f8d982" d="M 213.5,663.5 C 211.698,664.458 209.698,665.125 207.5,665.5C 208.918,663.692 210.918,663.025 213.5,663.5 Z"/></g>
<g><path style="opacity:1" fill="#6c82a3" d="M 811.5,663.5 C 814.082,663.025 816.082,663.692 817.5,665.5C 815.102,665.741 813.102,665.074 811.5,663.5 Z"/></g>
<g><path style="opacity:1" fill="#fae3a5" d="M 207.5,665.5 C 206.082,667.308 204.082,667.975 201.5,667.5C 203.302,666.542 205.302,665.875 207.5,665.5 Z"/></g>
<g><path style="opacity:1" fill="#6d6f6d" d="M 275.5,663.5 C 272.133,666.506 268.133,667.84 263.5,667.5C 264.833,666.833 266.167,666.167 267.5,665.5C 270.006,664.25 272.673,663.584 275.5,663.5 Z"/></g>
<g><path style="opacity:1" fill="#656785" d="M 133.5,661.5 C 132.594,665.062 130.594,667.728 127.5,669.5C 128.066,665.68 130.066,663.013 133.5,661.5 Z"/></g>
<g><path style="opacity:1" fill="#abacab" d="M 769.5,667.5 C 771.698,667.875 773.698,668.542 775.5,669.5C 773.5,669.5 771.5,669.5 769.5,669.5C 769.5,668.833 769.5,668.167 769.5,667.5 Z"/></g>
<g><path style="opacity:1" fill="#f7d36e" d="M 199.5,667.5 C 196.933,668.916 194.266,670.416 191.5,672C 189.527,672.495 187.527,672.662 185.5,672.5C 189.689,669.878 194.356,668.212 199.5,667.5 Z"/></g>
<g><path style="opacity:1" fill="#acadac" d="M 267.5,665.5 C 266.167,666.167 264.833,666.833 263.5,667.5C 260.375,669.126 257.042,670.46 253.5,671.5C 253.577,670.25 254.244,669.417 255.5,669C 259.271,667.065 263.271,665.898 267.5,665.5 Z"/></g>
<g><path style="opacity:1" fill="#94a4bc" d="M 825.5,669.5 C 828.698,668.964 831.365,669.631 833.5,671.5C 830.572,671.435 827.905,670.768 825.5,669.5 Z"/></g>
<g><path style="opacity:1" fill="#686a68" d="M 769.5,669.5 C 771.5,669.5 773.5,669.5 775.5,669.5C 777.5,670.167 779.5,670.833 781.5,671.5C 782.167,672.167 782.833,672.833 783.5,673.5C 778.663,672.46 773.996,671.127 769.5,669.5 Z"/></g>
<g><path style="opacity:1" fill="#7086a5" d="M 833.5,671.5 C 836.082,671.025 838.082,671.692 839.5,673.5C 837.102,673.741 835.102,673.074 833.5,671.5 Z"/></g>
<g><path style="opacity:1" fill="#a9aabc" d="M 885.5,663.5 C 889.104,666.65 892.27,670.316 895,674.5C 895.483,675.448 895.649,676.448 895.5,677.5C 894.5,677.5 893.5,677.5 892.5,677.5C 892.07,673.898 890.237,671.231 887,669.5C 886.495,667.482 885.995,665.482 885.5,663.5 Z"/></g>
<g><path style="opacity:1" fill="#657b9e" d="M 839.5,673.5 C 843.689,673.428 847.689,674.261 851.5,676C 853.544,676.498 854.878,677.665 855.5,679.5C 849.705,678.242 844.372,676.242 839.5,673.5 Z"/></g>
<g><path style="opacity:1" fill="#f8d983" d="M 185.5,673.5 C 185.389,674.117 185.056,674.617 184.5,675C 182.19,675.497 179.857,675.663 177.5,675.5C 179.635,673.631 182.302,672.964 185.5,673.5 Z"/></g>
<g><path style="opacity:1" fill="#646664" d="M 253.5,671.5 C 249.268,674.399 244.602,676.399 239.5,677.5C 241.195,675.656 243.195,674.323 245.5,673.5C 248.006,672.25 250.673,671.584 253.5,671.5 Z"/></g>
<g><path style="opacity:1" fill="#aaacaa" d="M 781.5,671.5 C 785.327,671.752 788.66,673.085 791.5,675.5C 788.673,675.416 786.006,674.75 783.5,673.5C 782.833,672.833 782.167,672.167 781.5,671.5 Z"/></g>
<g><path style="opacity:1" fill="#4b618c" d="M 869.5,671.5 C 872.313,672.446 873.646,674.446 873.5,677.5C 873.646,674.446 872.313,672.446 869.5,671.5 Z"/></g>
<g><path style="opacity:1" fill="#aeafae" d="M 245.5,673.5 C 243.195,674.323 241.195,675.656 239.5,677.5C 236.673,677.584 234.006,678.25 231.5,679.5C 231.577,678.25 232.244,677.417 233.5,677C 237.271,675.065 241.271,673.898 245.5,673.5 Z"/></g>
<g><path style="opacity:1" fill="#9d9e9d" d="M 791.5,675.5 C 793.527,675.338 795.527,675.505 797.5,676C 801.118,678.409 805.118,679.909 809.5,680.5C 810.901,681.521 812.235,682.521 813.5,683.5C 805.395,682.33 798.061,679.663 791.5,675.5 Z"/></g>
<g><path style="opacity:1" fill="#f7db87" d="M 167.5,679.5 C 165.698,680.458 163.698,681.125 161.5,681.5C 162.918,679.692 164.918,679.025 167.5,679.5 Z"/></g>
<g><path style="opacity:1" fill="#363936" d="M 239.5,677.5 C 236.66,679.915 233.327,681.248 229.5,681.5C 230.167,680.833 230.833,680.167 231.5,679.5C 234.006,678.25 236.673,677.584 239.5,677.5 Z"/></g>
<g><path style="opacity:1" fill="#9597ac" d="M 895.5,677.5 C 897.176,678.183 897.843,679.517 897.5,681.5C 895.824,680.817 895.157,679.483 895.5,677.5 Z"/></g>
<g><path style="opacity:1" fill="#f8da85" d="M 161.5,681.5 C 158.677,683.565 155.343,684.898 151.5,685.5C 149.955,685.489 148.622,685.156 147.5,684.5C 152.016,683.02 156.682,682.02 161.5,681.5 Z"/></g>
<g><path style="opacity:1" fill="#5a7297" d="M 855.5,679.5 C 862.599,680.691 869.599,682.358 876.5,684.5C 876.371,682.784 876.038,681.117 875.5,679.5C 878.892,680.99 880.226,683.657 879.5,687.5C 871.023,686.008 863.023,683.341 855.5,679.5 Z"/></g>
<g><path style="opacity:1" fill="#bfc0cc" d="M 127.5,671.5 C 126.303,675.251 124.803,678.918 123,682.5C 121.736,684.607 119.903,685.607 117.5,685.5C 120.13,680.223 123.464,675.556 127.5,671.5 Z"/></g>
<g><path style="opacity:1" fill="#808280" d="M 231.5,679.5 C 230.833,680.167 230.167,680.833 229.5,681.5C 224.916,683.146 220.249,684.479 215.5,685.5C 218.582,683.811 221.582,681.978 224.5,680C 226.81,679.503 229.143,679.337 231.5,679.5 Z"/></g>
<g><path style="opacity:1" fill="#9e9fb2" d="M 897.5,681.5 C 900.95,683.063 902.95,685.73 903.5,689.5C 902.5,689.5 901.5,689.5 900.5,689.5C 900.5,688.167 900.5,686.833 900.5,685.5C 899.5,685.5 898.5,685.5 897.5,685.5C 897.5,684.167 897.5,682.833 897.5,681.5 Z"/></g>
<g><path style="opacity:1" fill="#babbba" d="M 213.5,685.5 C 210.66,687.915 207.327,689.248 203.5,689.5C 202.833,689.5 202.167,689.5 201.5,689.5C 205.086,687.538 209.086,686.205 213.5,685.5 Z"/></g>
<g><path style="opacity:1" fill="#a3a4b6" d="M 117.5,685.5 C 117.843,687.483 117.176,688.817 115.5,689.5C 115.157,687.517 115.824,686.183 117.5,685.5 Z"/></g>
<g><path style="opacity:1" fill="#3d3f3d" d="M 813.5,683.5 C 816.006,684.75 818.673,685.416 821.5,685.5C 822.833,686.833 824.167,688.167 825.5,689.5C 821.859,688.353 818.192,687.019 814.5,685.5C 813.702,685.043 813.369,684.376 813.5,683.5 Z"/></g>
<g><path style="opacity:1" fill="#b6b7b6" d="M 821.5,685.5 C 826.915,686.708 832.249,688.208 837.5,690C 839.727,690.941 841.727,692.108 843.5,693.5C 840.673,693.416 838.006,692.75 835.5,691.5C 832.167,690.833 828.833,690.167 825.5,689.5C 824.167,688.167 822.833,686.833 821.5,685.5 Z"/></g>
<g><path style="opacity:1" fill="#8e90a7" d="M 903.5,689.5 C 905.176,690.183 905.843,691.517 905.5,693.5C 903.824,692.817 903.157,691.483 903.5,689.5 Z"/></g>
<g><path style="opacity:1" fill="#4e504e" d="M 835.5,691.5 C 838.006,692.75 840.673,693.416 843.5,693.5C 844.492,693.328 845.158,693.662 845.5,694.5C 845.5,694.833 845.5,695.167 845.5,695.5C 842.784,695.322 840.117,694.822 837.5,694C 836.244,693.583 835.577,692.75 835.5,691.5 Z"/></g>
<g><path style="opacity:1" fill="#515351" d="M 201.5,689.5 C 202.167,689.5 202.833,689.5 203.5,689.5C 200.502,691.666 197.168,693.333 193.5,694.5C 241.829,695.5 290.162,695.833 338.5,695.5C 338.5,695.833 338.5,696.167 338.5,696.5C 289.5,696.5 240.5,696.5 191.5,696.5C 191.5,695.5 191.5,694.5 191.5,693.5C 194.756,692.214 198.089,690.88 201.5,689.5 Z"/></g>
<g><path style="opacity:1" fill="#3d403d" d="M 338.5,696.5 C 338.5,696.167 338.5,695.833 338.5,695.5C 398.338,695.48 458.005,696.147 517.5,697.5C 457.762,697.829 398.095,697.496 338.5,696.5 Z"/></g>
<g><path style="opacity:1" fill="#45466b" d="M 111.5,693.5 C 111.296,695.685 110.63,697.685 109.5,699.5C 108.833,699.5 108.167,699.5 107.5,699.5C 107.354,696.446 108.687,694.446 111.5,693.5 Z"/></g>
<g><path style="opacity:1" fill="#bebfcc" d="M 115.5,689.5 C 114.197,692.483 112.864,695.483 111.5,698.5C 111.043,699.298 110.376,699.631 109.5,699.5C 110.63,697.685 111.296,695.685 111.5,693.5C 112.167,691.5 113.5,690.167 115.5,689.5 Z"/></g>
<g><path style="opacity:1" fill="#898b89" d="M 189.5,693.5 C 190.167,693.5 190.833,693.5 191.5,693.5C 191.5,694.5 191.5,695.5 191.5,696.5C 240.5,696.5 289.5,696.5 338.5,696.5C 398.095,697.496 457.762,697.829 517.5,697.5C 562.167,697.5 606.833,697.5 651.5,697.5C 680.662,698.498 709.995,698.831 739.5,698.5C 739.5,698.833 739.5,699.167 739.5,699.5C 710.167,699.5 680.833,699.5 651.5,699.5C 591.833,699.5 532.167,699.5 472.5,699.5C 383.667,698.495 294.667,697.828 205.5,697.5C 200.167,697.5 194.833,697.5 189.5,697.5C 189.5,696.167 189.5,694.833 189.5,693.5 Z"/></g>
<g><path style="opacity:1" fill="#525452" d="M 847.5,696.5 C 848.376,696.369 849.043,696.702 849.5,697.5C 812.839,698.5 776.173,698.833 739.5,698.5C 709.995,698.831 680.662,698.498 651.5,697.5C 717.002,697.832 782.335,697.499 847.5,696.5 Z"/></g>
<g><path style="opacity:1" fill="#dfe0df" d="M 189.5,693.5 C 189.5,694.833 189.5,696.167 189.5,697.5C 194.833,697.5 200.167,697.5 205.5,697.5C 234.833,698.167 264.167,698.833 293.5,699.5C 258.167,699.5 222.833,699.5 187.5,699.5C 187.025,696.918 187.692,694.918 189.5,693.5 Z"/></g>
<g><path style="opacity:1" fill="#c8c9c8" d="M 205.5,697.5 C 294.667,697.828 383.667,698.495 472.5,699.5C 412.833,699.5 353.167,699.5 293.5,699.5C 264.167,698.833 234.833,698.167 205.5,697.5 Z"/></g>
<g><path style="opacity:1" fill="#757775" d="M 845.5,695.5 C 847.5,695.5 849.5,695.5 851.5,695.5C 851.5,696.833 851.5,698.167 851.5,699.5C 814.5,699.5 777.5,699.5 740.5,699.5C 740.167,699.5 739.833,699.5 739.5,699.5C 739.5,699.167 739.5,698.833 739.5,698.5C 776.173,698.833 812.839,698.5 849.5,697.5C 849.043,696.702 848.376,696.369 847.5,696.5C 846.508,696.672 845.842,696.338 845.5,695.5 Z"/></g>
<g><path style="opacity:1" fill="#d4d4d4" d="M 651.5,699.5 C 680.833,699.5 710.167,699.5 739.5,699.5C 739.833,699.5 740.167,699.5 740.5,699.5C 740.833,700.167 741.167,700.833 741.5,701.5C 711.148,702.159 681.148,701.492 651.5,699.5 Z"/></g>
<g><path style="opacity:1" fill="#b5b6b5" d="M 845.5,695.5 C 845.5,695.167 845.5,694.833 845.5,694.5C 849.58,694.103 853.246,695.103 856.5,697.5C 857.429,698.689 857.762,700.022 857.5,701.5C 818.833,701.5 780.167,701.5 741.5,701.5C 741.167,700.833 740.833,700.167 740.5,699.5C 777.5,699.5 814.5,699.5 851.5,699.5C 851.5,698.167 851.5,696.833 851.5,695.5C 849.5,695.5 847.5,695.5 845.5,695.5 Z"/></g>
<g><path style="opacity:1" fill="#9fa0b3" d="M 905.5,693.5 C 908.95,695.063 910.95,697.73 911.5,701.5C 907.602,700.41 905.602,697.744 905.5,693.5 Z"/></g>
<g><path style="opacity:1" fill="#9495ab" d="M 913.5,705.5 C 916.95,707.063 918.95,709.73 919.5,713.5C 919.167,713.5 918.833,713.5 918.5,713.5C 916.824,712.817 916.157,711.483 916.5,709.5C 915.5,709.5 914.5,709.5 913.5,709.5C 913.5,708.167 913.5,706.833 913.5,705.5 Z"/></g>
<g><path style="opacity:1" fill="#b9bac8" d="M 107.5,701.5 C 106.793,705.637 104.793,708.97 101.5,711.5C 101.704,709.315 102.37,707.315 103.5,705.5C 104.167,703.5 105.5,702.167 107.5,701.5 Z"/></g>
<g><path style="opacity:1" fill="#4a4c70" d="M 103.5,705.5 C 102.37,707.315 101.704,709.315 101.5,711.5C 100.395,712.6 99.0618,713.267 97.5,713.5C 98.6111,710.167 100.611,707.501 103.5,705.5 Z"/></g>
<g><path style="opacity:1" fill="#d7d8e0" d="M 93.5,721.5 C 93.8333,721.5 94.1667,721.5 94.5,721.5C 261.163,723.499 428.163,724.165 595.5,723.5C 595.5,723.833 595.5,724.167 595.5,724.5C 428.167,724.5 260.833,724.5 93.5,724.5C 93.5,723.5 93.5,722.5 93.5,721.5 Z"/></g>
<g><path style="opacity:1" fill="#e5e6ea" d="M 918.5,713.5 C 918.833,713.5 919.167,713.5 919.5,713.5C 920.807,715.482 922.141,717.482 923.5,719.5C 923.5,720.167 923.5,720.833 923.5,721.5C 923.5,722.5 923.5,723.5 923.5,724.5C 814.167,724.5 704.833,724.5 595.5,724.5C 595.5,724.167 595.5,723.833 595.5,723.5C 704.5,723.5 813.5,723.5 922.5,723.5C 921.167,720.167 919.833,716.833 918.5,713.5 Z"/></g>
<g><path style="opacity:1" fill="#aaacbc" d="M 93.5,721.5 C 93.5,722.5 93.5,723.5 93.5,724.5C 260.833,724.5 428.167,724.5 595.5,724.5C 595.5,724.833 595.5,725.167 595.5,725.5C 550.167,725.5 504.833,725.5 459.5,725.5C 413.5,725.5 367.5,725.5 321.5,725.5C 275.5,725.5 229.5,725.5 183.5,725.5C 153.167,725.5 122.833,725.5 92.5,725.5C 92.2322,723.901 92.5655,722.568 93.5,721.5 Z"/></g>
<g><path style="opacity:1" fill="#cbccd6" d="M 923.5,721.5 C 924.434,722.568 924.768,723.901 924.5,725.5C 860.833,725.5 797.167,725.5 733.5,725.5C 687.5,725.5 641.5,725.5 595.5,725.5C 595.5,725.167 595.5,724.833 595.5,724.5C 704.833,724.5 814.167,724.5 923.5,724.5C 923.5,723.5 923.5,722.5 923.5,721.5 Z"/></g>
<g><path style="opacity:1" fill="#4b4e72" d="M 97.5,715.5 C 97.3465,717.97 96.3465,719.97 94.5,721.5C 94.1667,721.5 93.8333,721.5 93.5,721.5C 92.5655,722.568 92.2322,723.901 92.5,725.5C 122.833,725.5 153.167,725.5 183.5,725.5C 228.5,726.167 273.5,726.833 318.5,727.5C 242.833,727.5 167.167,727.5 91.5,727.5C 91.3367,725.143 91.5034,722.81 92,720.5C 93.8533,718.72 95.6866,717.053 97.5,715.5 Z"/></g>
<g><path style="opacity:1" fill="#5c5f7f" d="M 183.5,725.5 C 229.5,725.5 275.5,725.5 321.5,725.5C 366.5,726.167 411.5,726.833 456.5,727.5C 410.5,727.5 364.5,727.5 318.5,727.5C 273.5,726.833 228.5,726.167 183.5,725.5 Z"/></g>
<g><path style="opacity:1" fill="#696c89" d="M 321.5,725.5 C 367.5,725.5 413.5,725.5 459.5,725.5C 504.5,726.167 549.5,726.833 594.5,727.5C 548.5,727.5 502.5,727.5 456.5,727.5C 411.5,726.833 366.5,726.167 321.5,725.5 Z"/></g>
<g><path style="opacity:1" fill="#787b94" d="M 459.5,725.5 C 504.833,725.5 550.167,725.5 595.5,725.5C 640.833,726.167 686.167,726.833 731.5,727.5C 685.833,727.5 640.167,727.5 594.5,727.5C 549.5,726.833 504.5,726.167 459.5,725.5 Z"/></g>
<g><path style="opacity:1" fill="#8789a0" d="M 595.5,725.5 C 641.5,725.5 687.5,725.5 733.5,725.5C 779.5,726.167 825.5,726.833 871.5,727.5C 824.833,727.5 778.167,727.5 731.5,727.5C 686.167,726.833 640.833,726.167 595.5,725.5 Z"/></g>
<g><path style="opacity:1" fill="#9395a9" d="M 923.5,719.5 C 926.708,721.074 928.042,723.741 927.5,727.5C 908.833,727.5 890.167,727.5 871.5,727.5C 825.5,726.833 779.5,726.167 733.5,725.5C 797.167,725.5 860.833,725.5 924.5,725.5C 924.768,723.901 924.434,722.568 923.5,721.5C 923.5,720.833 923.5,720.167 923.5,719.5 Z"/></g>
</svg>
