<?xml version="1.0" encoding="UTF-8"?>
<!DOCTYPE svg PUBLIC "-//W3C//DTD SVG 1.1//EN" "http://www.w3.org/Graphics/SVG/1.1/DTD/svg11.dtd">
<svg xmlns="http://www.w3.org/2000/svg" version="1.1" width="72px" height="72px" style="shape-rendering:geometricPrecision; text-rendering:geometricPrecision; image-rendering:optimizeQuality; fill-rule:evenodd; clip-rule:evenodd" xmlns:xlink="http://www.w3.org/1999/xlink">
<g><path style="opacity:0.01" fill="#020202" d="M -0.5,-0.5 C 23.5,-0.5 47.5,-0.5 71.5,-0.5C 71.5,23.5 71.5,47.5 71.5,71.5C 47.5,71.5 23.5,71.5 -0.5,71.5C -0.5,47.5 -0.5,23.5 -0.5,-0.5 Z"/></g>
<g><path style="opacity:0.985" fill="#f5f5f7" d="M 64.5,53.5 C 54.5866,65.1121 41.9199,70.1121 26.5,68.5C 19.9888,67.7552 14.9888,64.7552 11.5,59.5C 9.32653,55.1477 6.65986,51.1477 3.5,47.5C 2.53862,45.7354 2.20528,43.7354 2.5,41.5C 2.5,37.5 2.5,33.5 2.5,29.5C 4.99233,16.1744 12.659,7.34109 25.5,3C 45.9926,-0.976018 60.1593,6.52398 68,25.5C 70.0493,33.9155 69.7159,42.2488 67,50.5C 66.1482,51.5707 65.3149,52.5707 64.5,53.5 Z"/></g>
<g><path style="opacity:1" fill="#49497e" d="M 31.5,14.5 C 31.3893,15.1174 31.056,15.6174 30.5,16C 25.2203,17.0946 19.887,17.5946 14.5,17.5C 20.0563,16.5785 25.7229,15.5785 31.5,14.5 Z"/></g>
<g><path style="opacity:1" fill="#1c1c5d" d="M 14.5,17.5 C 19.887,17.5946 25.2203,17.0946 30.5,16C 31.056,15.6174 31.3893,15.1174 31.5,14.5C 32.5774,13.9816 33.7441,13.6483 35,13.5C 42.0056,15.715 49.1723,17.0483 56.5,17.5C 57.3547,26.9878 55.8547,35.9878 52,44.5C 47.783,50.2103 42.283,54.2103 35.5,56.5C 25.3745,52.8742 18.8745,45.8742 16,35.5C 14.8379,29.5551 14.3379,23.5551 14.5,17.5 Z"/></g>
<g><path style="opacity:1" fill="#f2f3f6" d="M 35.5,26.5 C 39.487,29.7516 43.487,33.085 47.5,36.5C 47.0431,37.2975 46.3764,37.6309 45.5,37.5C 44.3,40.6977 44.3,44.031 45.5,47.5C 42.4881,50.0072 39.1547,52.0072 35.5,53.5C 31.5966,51.9218 28.2632,49.5885 25.5,46.5C 26.4025,43.6085 26.7359,40.6085 26.5,37.5C 25.209,37.7373 24.209,37.404 23.5,36.5C 27.0076,34.5749 28.341,31.5749 27.5,27.5C 29.451,27.2267 30.951,27.8934 32,29.5C 33.0391,28.2899 34.2058,27.2899 35.5,26.5 Z"/></g>
<g><path style="opacity:1" fill="#b4c7d9" d="M 45.5,47.5 C 44.3,44.031 44.3,40.6977 45.5,37.5C 45.3367,39.8568 45.5034,42.1902 46,44.5C 50.5535,37.5836 52.3869,29.9169 51.5,21.5C 46.0755,20.9295 40.7421,19.9295 35.5,18.5C 33.7839,18.6287 32.1172,18.962 30.5,19.5C 26.8026,20.0078 23.1359,20.6745 19.5,21.5C 19.5,23.8333 19.5,26.1667 19.5,28.5C 19.8434,34.3639 21.6767,39.6973 25,44.5C 25.4955,42.5273 25.6621,40.5273 25.5,38.5C 24.325,38.719 23.325,38.3857 22.5,37.5C 22.6236,36.8933 22.9569,36.56 23.5,36.5C 24.209,37.404 25.209,37.7373 26.5,37.5C 26.7359,40.6085 26.4025,43.6085 25.5,46.5C 24.2058,45.7101 23.0391,44.7101 22,43.5C 18.0985,35.9614 16.5985,27.9614 17.5,19.5C 23.5708,18.9365 29.5708,17.9365 35.5,16.5C 41.6926,18.4053 48.0259,19.4053 54.5,19.5C 54.1994,26.6368 53.0328,33.6368 51,40.5C 49.3029,43.02 47.4695,45.3533 45.5,47.5 Z"/></g>
<g><path style="opacity:1" fill="#0d9cd6" d="M 30.5,19.5 C 27.7429,22.1219 25.0762,24.9552 22.5,28C 21.552,28.4828 20.552,28.6495 19.5,28.5C 19.5,26.1667 19.5,23.8333 19.5,21.5C 23.1359,20.6745 26.8026,20.0078 30.5,19.5 Z"/></g>
<g><path style="opacity:1" fill="#114f8b" d="M 35.5,18.5 C 40.7421,19.9295 46.0755,20.9295 51.5,21.5C 52.3869,29.9169 50.5535,37.5836 46,44.5C 45.5034,42.1902 45.3367,39.8568 45.5,37.5C 46.3764,37.6309 47.0431,37.2975 47.5,36.5C 43.487,33.085 39.487,29.7516 35.5,26.5C 35.5,23.8333 35.5,21.1667 35.5,18.5 Z"/></g>
<g><path style="opacity:1" fill="#126d92" d="M 35.5,18.5 C 35.5,21.1667 35.5,23.8333 35.5,26.5C 34.2058,27.2899 33.0391,28.2899 32,29.5C 30.951,27.8934 29.451,27.2267 27.5,27.5C 28.341,31.5749 27.0076,34.5749 23.5,36.5C 22.9569,36.56 22.6236,36.8933 22.5,37.5C 23.325,38.3857 24.325,38.719 25.5,38.5C 25.6621,40.5273 25.4955,42.5273 25,44.5C 21.6767,39.6973 19.8434,34.3639 19.5,28.5C 20.552,28.6495 21.552,28.4828 22.5,28C 25.0762,24.9552 27.7429,22.1219 30.5,19.5C 32.1172,18.962 33.7839,18.6287 35.5,18.5 Z"/></g>
<g><path style="opacity:0.078" fill="#8c8c8c" d="M 2.5,29.5 C 2.5,33.5 2.5,37.5 2.5,41.5C 1.6311,39.016 0.964434,36.3493 0.5,33.5C 0.668206,31.8295 1.33487,30.4961 2.5,29.5 Z"/></g>
<g><path style="opacity:1" fill="#232362" d="M 33.5,37.5 C 35.1667,37.5 36.8333,37.5 38.5,37.5C 37.5804,39.8809 37.5804,42.2143 38.5,44.5C 36.9547,45.4519 35.288,45.7852 33.5,45.5C 33.5,42.8333 33.5,40.1667 33.5,37.5 Z"/></g>
<g><path style="opacity:0.141" fill="#a7a7a7" d="M 3.5,47.5 C 6.65986,51.1477 9.32653,55.1477 11.5,59.5C 10.5041,59.5858 9.67076,59.2524 9,58.5C 6.60719,55.0478 4.77386,51.3811 3.5,47.5 Z"/></g>
<g><path style="opacity:0.349" fill="#a2a2a2" d="M 64.5,53.5 C 58.2129,64.4917 48.5462,70.1584 35.5,70.5C 32.1864,70.6575 29.1864,69.9908 26.5,68.5C 41.9199,70.1121 54.5866,65.1121 64.5,53.5 Z"/></g>
</svg>
