<?xml version="1.0" encoding="UTF-8"?>
<!DOCTYPE svg PUBLIC "-//W3C//DTD SVG 1.1//EN" "http://www.w3.org/Graphics/SVG/1.1/DTD/svg11.dtd">
<svg xmlns="http://www.w3.org/2000/svg" version="1.1" width="162px" height="162px" style="shape-rendering:geometricPrecision; text-rendering:geometricPrecision; image-rendering:optimizeQuality; fill-rule:evenodd; clip-rule:evenodd" xmlns:xlink="http://www.w3.org/1999/xlink">
<g><path style="opacity:0.009" fill="#000000" d="M -0.5,-0.5 C 13.1667,-0.5 26.8333,-0.5 40.5,-0.5C 40.8333,0.833333 41.1667,0.833333 41.5,-0.5C 43.1667,-0.5 44.8333,-0.5 46.5,-0.5C 46.8333,0.833333 47.1667,0.833333 47.5,-0.5C 85.5,-0.5 123.5,-0.5 161.5,-0.5C 161.5,39.5 161.5,79.5 161.5,119.5C 160.167,119.833 160.167,120.167 161.5,120.5C 161.5,133.833 161.5,147.167 161.5,160.5C 160.833,160.5 160.5,160.833 160.5,161.5C 106.833,161.5 53.1667,161.5 -0.5,161.5C -0.5,122.833 -0.5,84.1667 -0.5,45.5C 0.833333,45.1667 0.833333,44.8333 -0.5,44.5C -0.5,43.5 -0.5,42.5 -0.5,41.5C 0.833333,41.1667 0.833333,40.8333 -0.5,40.5C -0.5,28.1667 -0.5,15.8333 -0.5,3.5C 0.833333,3.16667 0.833333,2.83333 -0.5,2.5C -0.5,1.5 -0.5,0.5 -0.5,-0.5 Z"/></g>
<g><path style="opacity:0.77" fill="#f3f2f1" d="M 78.5,35.5 C 79.9778,35.238 81.3112,35.5713 82.5,36.5C 96.3299,57.4905 110.163,78.4905 124,99.5C 125.009,101.025 125.509,102.692 125.5,104.5C 95.1593,104.833 64.826,104.5 34.5,103.5C 49.1842,80.7861 63.8509,58.1195 78.5,35.5 Z"/></g>
<g><path style="opacity:1" fill="#f1b919" d="M 78.5,42.5 C 79.496,56.9905 79.8293,71.6572 79.5,86.5C 67.4605,90.2909 55.4605,94.2909 43.5,98.5C 43.1667,98 42.8333,97.5 42.5,97C 54.3801,78.7358 66.3801,60.5691 78.5,42.5 Z"/></g>
<g><path style="opacity:1" fill="#0b2d65" d="M 83.5,44.5 C 95.4898,62.4714 107.49,80.4714 119.5,98.5C 118.767,99.087 117.767,99.087 116.5,98.5C 105.575,94.5227 94.5748,90.5227 83.5,86.5C 82.8333,86.5 82.5,86.1667 82.5,85.5C 82.171,71.6565 82.5043,57.9898 83.5,44.5 Z"/></g>
<g><path style="opacity:1" fill="#f9e9ba" d="M 78.5,42.5 C 78.56,41.9569 78.8933,41.6236 79.5,41.5C 80.8262,56.6614 80.8262,71.6614 79.5,86.5C 79.8293,71.6572 79.496,56.9905 78.5,42.5 Z"/></g>
<g><path style="opacity:1" fill="#687fa0" d="M 83.5,44.5 C 82.5043,57.9898 82.171,71.6565 82.5,85.5C 81.1743,71.661 81.1743,57.661 82.5,43.5C 83.1067,43.6236 83.44,43.9569 83.5,44.5 Z"/></g>
<g><path style="opacity:1" fill="#0f110f" d="M 78.5,88.5 C 89.7583,91.031 100.758,94.3643 111.5,98.5C 91.1667,99.8333 70.8333,99.8333 50.5,98.5C 59.7525,94.9711 69.0859,91.6378 78.5,88.5 Z"/></g>
<g><path style="opacity:1" fill="#363836" d="M 50.5,98.5 C 70.8333,99.8333 91.1667,99.8333 111.5,98.5C 112.756,98.4614 113.756,98.9614 114.5,100C 91.9962,100.83 69.6629,100.663 47.5,99.5C 48.209,98.596 49.209,98.2627 50.5,98.5 Z"/></g>
<g><path style="opacity:1" fill="#c9cbcc" d="M 83.5,86.5 C 94.5748,90.5227 105.575,94.5227 116.5,98.5C 115.45,98.9046 115.45,99.5712 116.5,100.5C 93.1667,101.833 69.8333,101.833 46.5,100.5C 46.6236,99.8933 46.9569,99.56 47.5,99.5C 69.6629,100.663 91.9962,100.83 114.5,100C 113.756,98.9614 112.756,98.4614 111.5,98.5C 100.758,94.3643 89.7583,91.031 78.5,88.5C 80.1667,87.8333 81.8333,87.1667 83.5,86.5 Z"/></g>
</svg>
