<?xml version="1.0" encoding="UTF-8"?>
<!DOCTYPE svg PUBLIC "-//W3C//DTD SVG 1.1//EN" "http://www.w3.org/Graphics/SVG/1.1/DTD/svg11.dtd">
<svg xmlns="http://www.w3.org/2000/svg" version="1.1" width="216px" height="216px" style="shape-rendering:geometricPrecision; text-rendering:geometricPrecision; image-rendering:optimizeQuality; fill-rule:evenodd; clip-rule:evenodd" xmlns:xlink="http://www.w3.org/1999/xlink">
<g><path style="opacity:0.008" fill="#000000" d="M -0.5,-0.5 C 1.16667,-0.5 2.83333,-0.5 4.5,-0.5C 4.83333,2.16667 5.16667,2.16667 5.5,-0.5C 5.83333,-0.5 6.16667,-0.5 6.5,-0.5C 6.83333,0.833333 7.16667,0.833333 7.5,-0.5C 16.8333,-0.5 26.1667,-0.5 35.5,-0.5C 35.8333,2.16667 36.1667,2.16667 36.5,-0.5C 37.5,-0.5 38.5,-0.5 39.5,-0.5C 39.8333,2.16667 40.1667,2.16667 40.5,-0.5C 41.8333,-0.5 43.1667,-0.5 44.5,-0.5C 43.537,0.3635 43.537,1.03017 44.5,1.5C 45.2975,1.04311 45.6309,0.376442 45.5,-0.5C 48.1667,-0.5 50.8333,-0.5 53.5,-0.5C 54.1667,2.16667 54.8333,2.16667 55.5,-0.5C 57.5,-0.5 59.5,-0.5 61.5,-0.5C 61.5,0.833333 62.1667,1.5 63.5,1.5C 63.5,0.833333 63.5,0.166667 63.5,-0.5C 90.5,-0.5 117.5,-0.5 144.5,-0.5C 144.833,0.833333 145.167,0.833333 145.5,-0.5C 149.5,-0.5 153.5,-0.5 157.5,-0.5C 158.167,0.833333 158.833,0.833333 159.5,-0.5C 163.5,-0.5 167.5,-0.5 171.5,-0.5C 171.833,0.833333 172.167,0.833333 172.5,-0.5C 181.167,-0.5 189.833,-0.5 198.5,-0.5C 198.833,0.833333 199.167,0.833333 199.5,-0.5C 203.5,-0.5 207.5,-0.5 211.5,-0.5C 212.167,0.833333 212.833,0.833333 213.5,-0.5C 214.167,-0.5 214.833,-0.5 215.5,-0.5C 215.5,0.5 215.5,1.5 215.5,2.5C 214.167,2.83333 214.167,3.16667 215.5,3.5C 215.5,46.1667 215.5,88.8333 215.5,131.5C 214.167,132.167 214.167,132.833 215.5,133.5C 215.5,137.5 215.5,141.5 215.5,145.5C 213.067,146.548 213.067,147.214 215.5,147.5C 215.5,151.5 215.5,155.5 215.5,159.5C 212.833,160.167 212.833,160.833 215.5,161.5C 215.5,165.167 215.5,168.833 215.5,172.5C 213.067,173.548 213.067,174.214 215.5,174.5C 215.5,178.167 215.5,181.833 215.5,185.5C 214.167,186.167 214.167,186.833 215.5,187.5C 215.5,191.5 215.5,195.5 215.5,199.5C 213.067,200.548 213.067,201.214 215.5,201.5C 215.5,205.5 215.5,209.5 215.5,213.5C 214.167,213.5 213.5,214.167 213.5,215.5C 210.5,215.5 207.5,215.5 204.5,215.5C 204.167,212.833 203.833,212.833 203.5,215.5C 202.833,215.5 202.167,215.5 201.5,215.5C 201.214,213.067 200.548,213.067 199.5,215.5C 196.833,215.5 194.167,215.5 191.5,215.5C 191.167,212.833 190.833,212.833 190.5,215.5C 189.5,215.5 188.5,215.5 187.5,215.5C 186.833,214.167 186.167,214.167 185.5,215.5C 181.833,215.5 178.167,215.5 174.5,215.5C 174.214,213.067 173.548,213.067 172.5,215.5C 168.833,215.5 165.167,215.5 161.5,215.5C 160.833,212.833 160.167,212.833 159.5,215.5C 156.5,215.5 153.5,215.5 150.5,215.5C 150.167,212.833 149.833,212.833 149.5,215.5C 148.833,215.5 148.167,215.5 147.5,215.5C 147.214,213.067 146.548,213.067 145.5,215.5C 142.833,215.5 140.167,215.5 137.5,215.5C 137.167,212.833 136.833,212.833 136.5,215.5C 135.5,215.5 134.5,215.5 133.5,215.5C 132.833,214.167 132.167,214.167 131.5,215.5C 87.5,215.5 43.5,215.5 -0.5,215.5C -0.5,164.833 -0.5,114.167 -0.5,63.5C 1.23846,61.8805 1.73846,59.8805 1,57.5C 0.721579,58.4158 0.221579,59.0825 -0.5,59.5C -0.5,58.1667 -0.5,56.8333 -0.5,55.5C 2.16667,54.8333 2.16667,54.1667 -0.5,53.5C -0.5,52.8333 -0.5,52.1667 -0.5,51.5C 0.376442,51.6309 1.04311,51.2975 1.5,50.5C 1.03017,49.537 0.3635,49.537 -0.5,50.5C -0.5,47.1667 -0.5,43.8333 -0.5,40.5C 2.16667,40.1667 2.16667,39.8333 -0.5,39.5C -0.5,28.8333 -0.5,18.1667 -0.5,7.5C 0.833333,7.16667 0.833333,6.83333 -0.5,6.5C -0.5,6.16667 -0.5,5.83333 -0.5,5.5C 2.16667,4.83333 2.16667,4.16667 -0.5,3.5C -0.5,2.16667 -0.5,0.833333 -0.5,-0.5 Z M 63.5,1.5 C 65.337,1.63945 65.6704,2.30612 64.5,3.5C 63.7025,3.04311 63.3691,2.37644 63.5,1.5 Z M 107.5,1.5 C 109.337,1.63945 109.67,2.30612 108.5,3.5C 107.702,3.04311 107.369,2.37644 107.5,1.5 Z M 119.5,1.5 C 120.978,1.23798 122.311,1.57131 123.5,2.5C 122.833,2.83333 122.167,3.16667 121.5,3.5C 120.287,3.25284 119.62,2.58617 119.5,1.5 Z M 2.5,65.5 C 3.08419,68.2084 3.08419,70.8751 2.5,73.5C 1.55075,70.8742 1.55075,68.2075 2.5,65.5 Z M 1.5,79.5 C 2.47197,78.2486 3.13864,78.582 3.5,80.5C 3.12044,82.4743 2.78711,84.4743 2.5,86.5C 1.86702,84.0045 1.53369,81.6712 1.5,79.5 Z M 2.5,95.5 C 2.09409,93.8908 2.09409,92.5575 2.5,91.5C 3.78202,92.9584 3.78202,94.2918 2.5,95.5 Z M 2.5,95.5 C 3.2916,96.9669 3.2916,98.3002 2.5,99.5C 1.21798,98.0416 1.21798,96.7082 2.5,95.5 Z M 2.5,105.5 C 3.70901,107.435 3.54234,109.435 2,111.5C 1.50987,109.455 1.67653,107.455 2.5,105.5 Z M 1.5,119.5 C 2.69459,119.866 3.36126,120.699 3.5,122C 2.68712,123.342 2.35379,124.508 2.5,125.5C 1.53443,123.604 1.2011,121.604 1.5,119.5 Z M 174.5,133.5 C 174.167,133.5 173.833,133.5 173.5,133.5C 173.369,132.624 173.702,131.957 174.5,131.5C 175.463,131.97 175.463,132.637 174.5,133.5 Z M 160.5,145.5 C 161.773,146.077 161.773,146.743 160.5,147.5C 159.537,147.03 159.537,146.363 160.5,145.5 Z M 133.5,157.5 C 134.289,157.783 134.956,158.283 135.5,159C 134.184,159.528 133.517,159.028 133.5,157.5 Z M 187.5,157.5 C 188.289,157.783 188.956,158.283 189.5,159C 188.184,159.528 187.517,159.028 187.5,157.5 Z M 147.5,159.5 C 147.483,161.028 146.816,161.528 145.5,161C 146.044,160.283 146.711,159.783 147.5,159.5 Z M 159.5,159.5 C 161.337,159.639 161.67,160.306 160.5,161.5C 159.702,161.043 159.369,160.376 159.5,159.5 Z M 174.5,159.5 C 174.291,160.922 173.791,162.255 173,163.5C 172.227,161.648 172.727,160.314 174.5,159.5 Z M 201.5,159.5 C 201.483,161.028 200.816,161.528 199.5,161C 200.044,160.283 200.711,159.783 201.5,159.5 Z M 131.5,160.5 C 133.646,160.696 133.812,161.696 132,163.5C 131.517,162.552 131.351,161.552 131.5,160.5 Z M 185.5,160.5 C 187.646,160.696 187.812,161.696 186,163.5C 185.517,162.552 185.351,161.552 185.5,160.5 Z M 133.5,173.5 C 133.639,171.663 134.306,171.33 135.5,172.5C 135.043,173.298 134.376,173.631 133.5,173.5 Z M 149.5,173.5 C 148.833,173.5 148.167,173.5 147.5,173.5C 147.786,171.067 148.452,171.067 149.5,173.5 Z M 174.5,174.5 C 173.778,174.918 173.278,175.584 173,176.5C 172.278,174.339 172.945,172.672 175,171.5C 175.47,172.577 175.303,173.577 174.5,174.5 Z M 187.5,173.5 C 187.639,171.663 188.306,171.33 189.5,172.5C 189.043,173.298 188.376,173.631 187.5,173.5 Z M 203.5,173.5 C 202.833,173.5 202.167,173.5 201.5,173.5C 201.786,171.067 202.452,171.067 203.5,173.5 Z M 160.5,172.5 C 162.975,172.747 162.975,173.413 160.5,174.5C 159.537,174.03 159.537,173.363 160.5,172.5 Z M 133.5,173.5 C 133.5,173.833 133.5,174.167 133.5,174.5C 132.778,174.918 132.278,175.584 132,176.5C 131.275,174.843 131.775,173.843 133.5,173.5 Z M 187.5,173.5 C 187.5,173.833 187.5,174.167 187.5,174.5C 186.778,174.918 186.278,175.584 186,176.5C 185.275,174.843 185.775,173.843 187.5,173.5 Z M 160.5,185.5 C 163.001,185.511 163.168,186.178 161,187.5C 160.536,186.906 160.369,186.239 160.5,185.5 Z M 174.5,187.5 C 174.167,187.5 173.833,187.5 173.5,187.5C 173.369,186.624 173.702,185.957 174.5,185.5C 175.463,185.97 175.463,186.637 174.5,187.5 Z M 160.5,199.5 C 161.773,200.077 161.773,200.743 160.5,201.5C 159.537,201.03 159.537,200.363 160.5,199.5 Z M 133.5,211.5 C 134.289,211.783 134.956,212.283 135.5,213C 134.184,213.528 133.517,213.028 133.5,211.5 Z M 187.5,211.5 C 188.289,211.783 188.956,212.283 189.5,213C 188.184,213.528 187.517,213.028 187.5,211.5 Z"/></g>
<g><path style="opacity:0.79" fill="#f5f4f2" d="M 105.5,47.5 C 106.978,47.238 108.311,47.5713 109.5,48.5C 128.17,77.843 147.337,106.843 167,135.5C 167.49,136.793 167.657,138.127 167.5,139.5C 127.167,139.5 86.8333,139.5 46.5,139.5C 46.4914,137.692 46.9914,136.025 48,134.5C 67.6858,105.781 86.8525,76.7812 105.5,47.5 Z"/></g>
<g><path style="opacity:1" fill="#f4cb51" d="M 105.5,115.5 C 105.83,96.326 105.497,77.326 104.5,58.5C 104.369,57.6236 104.702,56.9569 105.5,56.5C 106.828,76.3293 106.828,95.9959 105.5,115.5 Z"/></g>
<g><path style="opacity:1" fill="#f1b812" d="M 104.5,58.5 C 105.497,77.326 105.83,96.326 105.5,115.5C 88.965,120.567 72.6317,126.234 56.5,132.5C 56.1667,132.167 55.8333,131.833 55.5,131.5C 71.5004,106.853 87.8337,82.52 104.5,58.5 Z"/></g>
<g><path style="opacity:1" fill="#092d64" d="M 110.5,58.5 C 126.837,82.3457 143.003,106.346 159,130.5C 159.688,131.332 159.521,131.998 158.5,132.5C 157.583,131.873 156.583,131.539 155.5,131.5C 140.358,125.539 125.025,119.873 109.5,114.5C 109.17,95.6592 109.503,76.9925 110.5,58.5 Z"/></g>
<g><path style="opacity:1" fill="#bec8d6" d="M 110.5,58.5 C 109.503,76.9925 109.17,95.6592 109.5,114.5C 108.172,95.6625 108.172,76.6625 109.5,57.5C 110.107,57.6236 110.44,57.9569 110.5,58.5 Z"/></g>
<g><path style="opacity:1" fill="#0e100e" d="M 106.5,117.5 C 121.614,122.227 136.614,127.227 151.5,132.5C 122.5,133.833 93.5,133.833 64.5,132.5C 78.4957,127.501 92.4957,122.501 106.5,117.5 Z"/></g>
<g><path style="opacity:1" fill="#dbdde0" d="M 109.5,114.5 C 125.025,119.873 140.358,125.539 155.5,131.5C 154.508,131.328 153.842,131.662 153.5,132.5C 152.833,132.5 152.167,132.5 151.5,132.5C 136.614,127.227 121.614,122.227 106.5,117.5C 107.694,116.728 108.694,115.728 109.5,114.5 Z"/></g>
<g><path style="opacity:1" fill="#636463" d="M 64.5,132.5 C 93.5,133.833 122.5,133.833 151.5,132.5C 152.167,132.5 152.833,132.5 153.5,132.5C 153.918,133.222 154.584,133.722 155.5,134C 124.167,134.667 92.8333,134.667 61.5,134C 62.2438,132.961 63.2438,132.461 64.5,132.5 Z"/></g>
</svg>
