<?xml version="1.0" encoding="UTF-8"?>
<!DOCTYPE svg PUBLIC "-//W3C//DTD SVG 1.1//EN" "http://www.w3.org/Graphics/SVG/1.1/DTD/svg11.dtd">
<svg xmlns="http://www.w3.org/2000/svg" version="1.1" width="108px" height="108px" style="shape-rendering:geometricPrecision; text-rendering:geometricPrecision; image-rendering:optimizeQuality; fill-rule:evenodd; clip-rule:evenodd" xmlns:xlink="http://www.w3.org/1999/xlink">
<g><path style="opacity:0.011" fill="#000000" d="M -0.5,-0.5 C 35.5,-0.5 71.5,-0.5 107.5,-0.5C 107.5,35.5 107.5,71.5 107.5,107.5C 71.5,107.5 35.5,107.5 -0.5,107.5C -0.5,71.5 -0.5,35.5 -0.5,-0.5 Z"/></g>
<g><path style="opacity:0.666" fill="#f2f1ef" d="M 51.5,23.5 C 53.9806,23.3234 55.8139,24.3234 57,26.5C 65.2642,40.097 73.9309,53.4304 83,66.5C 83.4828,67.448 83.6495,68.448 83.5,69.5C 63.1557,69.833 42.8224,69.4996 22.5,68.5C 32.6712,53.745 42.3379,38.745 51.5,23.5 Z"/></g>
<g><path style="opacity:1" fill="#111211" d="M 32.5,65.5 C 34.921,65.1218 37.2543,64.4552 39.5,63.5C 44.2589,62.1419 48.9256,60.4752 53.5,58.5C 60.4951,60.9968 67.4951,63.4968 74.5,66C 60.3272,66.8273 46.3272,66.6607 32.5,65.5 Z"/></g>
<g><path style="opacity:1" fill="#b4b6b7" d="M 53.5,28.5 C 54.4916,28.3284 55.1583,28.6618 55.5,29.5C 54.5064,38.6517 54.1731,47.985 54.5,57.5C 62.3796,59.7921 70.0463,62.4588 77.5,65.5C 76.2617,65.81 76.2617,66.31 77.5,67C 62.1558,67.8329 46.8225,67.6662 31.5,66.5C 31.6236,65.8933 31.9569,65.56 32.5,65.5C 46.3272,66.6607 60.3272,66.8273 74.5,66C 67.4951,63.4968 60.4951,60.9968 53.5,58.5C 48.9256,60.4752 44.2589,62.1419 39.5,63.5C 39.8333,62.8333 40.1667,62.1667 40.5,61.5C 44.4963,60.1692 48.4963,58.8359 52.5,57.5C 53.4938,48.0144 53.8271,38.3478 53.5,28.5 Z"/></g>
<g><path style="opacity:1" fill="#0f3066" d="M 55.5,29.5 C 63.3661,41.391 71.3661,53.2244 79.5,65C 78.9056,65.4643 78.2389,65.631 77.5,65.5C 70.0463,62.4588 62.3796,59.7921 54.5,57.5C 54.1731,47.985 54.5064,38.6517 55.5,29.5 Z"/></g>
<g><path style="opacity:1" fill="#f0b817" d="M 51.5,29.5 C 52.4936,38.6517 52.8269,47.985 52.5,57.5C 48.4963,58.8359 44.4963,60.1692 40.5,61.5C 36.2708,63.2952 31.9374,64.4618 27.5,65C 35.363,52.9892 43.363,41.1559 51.5,29.5 Z"/></g>
<g><path style="opacity:1" fill="#f6db8a" d="M 51.5,29.5 C 51.8417,28.6618 52.5084,28.3284 53.5,28.5C 53.8271,38.3478 53.4938,48.0144 52.5,57.5C 52.8269,47.985 52.4936,38.6517 51.5,29.5 Z"/></g>
</svg>
