<?xml version="1.0" encoding="UTF-8"?>
<!DOCTYPE svg PUBLIC "-//W3C//DTD SVG 1.1//EN" "http://www.w3.org/Graphics/SVG/1.1/DTD/svg11.dtd">
<svg xmlns="http://www.w3.org/2000/svg" version="1.1" width="512px" height="512px" style="shape-rendering:geometricPrecision; text-rendering:geometricPrecision; image-rendering:optimizeQuality; fill-rule:evenodd; clip-rule:evenodd" xmlns:xlink="http://www.w3.org/1999/xlink">
<g><path style="opacity:0.196" fill="#a9a9a9" d="M 467.5,83.5 C 467.662,85.5273 467.495,87.5273 467,89.5C 466.237,86.9365 465.737,86.9365 465.5,89.5C 466.663,202.52 466.829,315.52 466,428.5C 466.763,425.937 467.263,425.937 467.5,428.5C 466.833,429.833 466.167,431.167 465.5,432.5C 466.046,434.135 466.38,435.801 466.5,437.5C 462.365,456.916 450.365,467.583 430.5,469.5C 428.473,469.662 426.473,469.495 424.5,469C 427.063,468.237 427.063,467.737 424.5,467.5C 311.48,468.663 198.48,468.829 85.5,468C 86.5,468.333 87.5,468.667 88.5,469C 86.5273,469.495 84.5273,469.662 82.5,469.5C 66.7664,468.214 55.2664,460.548 48,446.5C 45.8795,441.018 44.5461,435.351 44,429.5C 43.3333,315.167 43.3333,200.833 44,86.5C 46.8366,62.33 60.3366,48.83 84.5,46C 198.833,45.3333 313.167,45.3333 427.5,46C 450.73,48.0664 464.064,60.5664 467.5,83.5 Z"/></g>
<g><path style="opacity:1" fill="#fefefe" d="M 79.5,52.5 C 196.5,52.3333 313.5,52.5 430.5,53C 444.894,55.7275 453.727,64.2275 457,78.5C 457.667,195.833 457.667,313.167 457,430.5C 454.042,445.791 444.876,454.625 429.5,457C 312.5,457.667 195.5,457.667 78.5,457C 64.2549,453.754 55.7549,444.921 53,430.5C 52.3333,313.5 52.3333,196.5 53,79.5C 56.0408,64.6271 64.8742,55.6271 79.5,52.5 Z"/></g>
<g><path style="opacity:0.024" fill="#b8b8b8" d="M 87.5,46.5 C 200.169,46.1667 312.835,46.5 425.5,47.5C 312.501,48.6667 199.501,48.8333 86.5,48C 87.056,47.6174 87.3893,47.1174 87.5,46.5 Z"/></g>
<g><path style="opacity:0.024" fill="#b8b8b8" d="M 44.5,88.5 C 45.1174,88.6107 45.6174,88.944 46,89.5C 46.8333,202.168 46.6667,314.835 45.5,427.5C 44.5,314.502 44.1667,201.502 44.5,88.5 Z"/></g>
<g><path style="opacity:0.016" fill="#9d9d9d" d="M 467.5,83.5 C 468.666,199.666 468.833,315.999 468,432.5C 467.802,434.382 467.302,436.048 466.5,437.5C 466.38,435.801 466.046,434.135 465.5,432.5C 466.167,431.167 466.833,429.833 467.5,428.5C 467.263,425.937 466.763,425.937 466,428.5C 466.829,315.52 466.663,202.52 465.5,89.5C 465.737,86.9365 466.237,86.9365 467,89.5C 467.495,87.5273 467.662,85.5273 467.5,83.5 Z"/></g>
<g><path style="opacity:1" fill="#a5463c" d="M 216.5,120.5 C 216.5,120.833 216.5,121.167 216.5,121.5C 209.637,121.638 202.97,122.304 196.5,123.5C 195.395,124.6 194.062,125.267 192.5,125.5C 193.625,123.871 194.959,122.371 196.5,121C 203.158,120.5 209.825,120.334 216.5,120.5 Z"/></g>
<g><path style="opacity:1" fill="#971a11" d="M 216.5,121.5 C 216.842,122.338 217.508,122.672 218.5,122.5C 219.394,131.87 220.728,141.203 222.5,150.5C 222.428,152.56 222.095,154.56 221.5,156.5C 223.342,162.742 225.342,168.909 227.5,175C 226.101,178.603 226.434,182.103 228.5,185.5C 227.448,187.223 227.448,188.89 228.5,190.5C 227.975,191.192 227.308,191.692 226.5,192C 228.431,196.132 228.431,200.132 226.5,204C 226.735,204.873 227.069,205.707 227.5,206.5C 226.531,208.573 225.865,210.739 225.5,213C 227.584,214.907 227.584,216.573 225.5,218C 226.833,219.667 226.833,221.333 225.5,223C 227.422,224.46 228.089,226.127 227.5,228C 230.424,234.691 232.424,241.691 233.5,249C 232.803,251.159 233.137,253.326 234.5,255.5C 234.679,258.146 234.012,260.813 232.5,263.5C 233.025,264.192 233.692,264.692 234.5,265C 233.572,265.388 232.905,266.055 232.5,267C 235.011,272.203 236.511,277.703 237,283.5C 238.054,286.693 239.554,289.693 241.5,292.5C 241.291,293.086 240.957,293.586 240.5,294C 241.756,298.039 242.423,302.206 242.5,306.5C 244.167,306.5 245.833,306.5 247.5,306.5C 241.833,307.833 236.167,307.833 230.5,306.5C 219.636,245.384 208.303,184.384 196.5,123.5C 202.97,122.304 209.637,121.638 216.5,121.5 Z"/></g>
<g><path style="opacity:1" fill="#a11e14" d="M 218.5,122.5 C 221.279,122.279 223.946,122.612 226.5,123.5C 227.479,129.406 228.812,135.239 230.5,141C 230.783,143.898 230.783,146.898 230.5,150C 231.836,152.81 232.169,155.643 231.5,158.5C 232.04,159.748 232.707,160.915 233.5,162C 233.174,168.35 234.174,174.683 236.5,181C 235.799,191.42 235.799,201.753 236.5,212C 233.956,214.222 233.956,216.389 236.5,218.5C 235.943,220.235 235.61,221.902 235.5,223.5C 237.622,231.991 239.622,240.491 241.5,249C 240.576,252.195 240.91,255.361 242.5,258.5C 241.919,273.342 245.253,286.842 252.5,299C 261.067,303.564 270.067,305.397 279.5,304.5C 279.5,304.833 279.5,305.167 279.5,305.5C 268.848,306.196 258.181,306.53 247.5,306.5C 245.833,306.5 244.167,306.5 242.5,306.5C 242.423,302.206 241.756,298.039 240.5,294C 240.957,293.586 241.291,293.086 241.5,292.5C 239.554,289.693 238.054,286.693 237,283.5C 236.511,277.703 235.011,272.203 232.5,267C 232.905,266.055 233.572,265.388 234.5,265C 233.692,264.692 233.025,264.192 232.5,263.5C 234.012,260.813 234.679,258.146 234.5,255.5C 233.137,253.326 232.803,251.159 233.5,249C 232.424,241.691 230.424,234.691 227.5,228C 228.089,226.127 227.422,224.46 225.5,223C 226.833,221.333 226.833,219.667 225.5,218C 227.584,216.573 227.584,214.907 225.5,213C 225.865,210.739 226.531,208.573 227.5,206.5C 227.069,205.707 226.735,204.873 226.5,204C 228.431,200.132 228.431,196.132 226.5,192C 227.308,191.692 227.975,191.192 228.5,190.5C 227.448,188.89 227.448,187.223 228.5,185.5C 226.434,182.103 226.101,178.603 227.5,175C 225.342,168.909 223.342,162.742 221.5,156.5C 222.095,154.56 222.428,152.56 222.5,150.5C 220.728,141.203 219.394,131.87 218.5,122.5 Z"/></g>
<g><path style="opacity:1" fill="#c36259" d="M 216.5,120.5 C 224.352,120.175 232.018,120.508 239.5,121.5C 244.5,122.167 249.5,122.833 254.5,123.5C 251.833,123.5 249.167,123.5 246.5,123.5C 243.5,123.5 240.5,123.5 237.5,123.5C 233.833,123.5 230.167,123.5 226.5,123.5C 223.946,122.612 221.279,122.279 218.5,122.5C 217.508,122.672 216.842,122.338 216.5,121.5C 216.5,121.167 216.5,120.833 216.5,120.5 Z"/></g>
<g><path style="opacity:1" fill="#efb9b5" d="M 239.5,121.5 C 255.69,121.358 271.69,122.025 287.5,123.5C 276.5,123.5 265.5,123.5 254.5,123.5C 249.5,122.833 244.5,122.167 239.5,121.5 Z"/></g>
<g><path style="opacity:1" fill="#cf2e23" d="M 246.5,123.5 C 249.167,123.5 251.833,123.5 254.5,123.5C 265.5,123.5 276.5,123.5 287.5,123.5C 287.5,123.833 287.5,124.167 287.5,124.5C 281.833,124.5 276.167,124.5 270.5,124.5C 266.167,124.5 261.833,124.5 257.5,124.5C 258.28,130.972 259.614,137.305 261.5,143.5C 260.719,147.218 260.386,150.885 260.5,154.5C 262.013,156.535 262.679,158.869 262.5,161.5C 261.345,167.371 261.345,173.038 262.5,178.5C 264.021,180.286 264.354,182.119 263.5,184C 265.754,185.054 266.087,186.554 264.5,188.5C 265.167,190.5 265.833,192.5 266.5,194.5C 265.769,199.746 264.769,204.579 263.5,209C 263.73,211.7 264.73,214.033 266.5,216C 265.833,216.667 265.167,217.333 264.5,218C 265.445,219.911 265.445,221.911 264.5,224C 266.187,226.21 267.187,228.71 267.5,231.5C 266.833,233.833 266.167,236.167 265.5,238.5C 266.77,240.97 267.77,243.47 268.5,246C 266.043,247.154 266.043,248.488 268.5,250C 267.833,250.667 267.167,251.333 266.5,252C 268.745,254.896 269.078,258.063 267.5,261.5C 269.987,267.813 271.987,273.313 273.5,278C 279.12,279.231 284.287,281.397 289,284.5C 291.603,283.929 294.103,283.595 296.5,283.5C 296.721,286.279 296.388,288.946 295.5,291.5C 294.662,291.842 294.328,292.508 294.5,293.5C 293.277,290.648 291.277,289.981 288.5,291.5C 287.252,290.96 286.085,290.293 285,289.5C 271.57,291.973 263.07,286.639 259.5,273.5C 259.709,272.914 260.043,272.414 260.5,272C 259.262,272.077 258.262,271.911 257.5,271.5C 258.64,263.93 258.64,256.43 257.5,249C 255.822,246.708 255.489,244.041 256.5,241C 255.863,233.375 254.53,225.875 252.5,218.5C 253.776,213.813 253.776,209.146 252.5,204.5C 253.136,199.898 254.136,195.398 255.5,191C 254.833,190.333 254.167,189.667 253.5,189C 254.139,186.589 254.473,184.089 254.5,181.5C 252.637,173.204 250.971,164.871 249.5,156.5C 248.965,152.559 249.632,148.725 251.5,145C 250.953,144.075 250.287,143.242 249.5,142.5C 248.825,137.919 247.825,133.419 246.5,129C 247.662,127.274 247.329,125.774 245.5,124.5C 246.167,124.5 246.5,124.167 246.5,123.5 Z"/></g>
<g><path style="opacity:1" fill="#dd3327" d="M 270.5,124.5 C 276.167,124.5 281.833,124.5 287.5,124.5C 298.836,124.759 310.169,125.093 321.5,125.5C 321.5,126.833 321.5,128.167 321.5,129.5C 314.087,173.061 307.087,217.061 300.5,261.5C 299.199,265.943 298.532,270.609 298.5,275.5C 298.5,276.167 298.167,276.5 297.5,276.5C 293.818,276.665 290.152,276.499 286.5,276C 282.414,271.375 278.747,266.375 275.5,261C 276.421,252.711 276.588,244.211 276,235.5C 274.691,233.314 274.524,231.147 275.5,229C 274.572,228.612 273.905,227.945 273.5,227C 276.309,222.976 276.976,218.642 275.5,214C 276.022,213.05 276.689,212.216 277.5,211.5C 275.487,209.353 273.82,207.019 272.5,204.5C 272.57,203.228 272.903,202.062 273.5,201C 272.217,197.936 271.55,194.603 271.5,191C 271.228,185.672 272.562,180.839 275.5,176.5C 274.167,174.833 274.167,173.167 275.5,171.5C 275.278,168.046 273.945,165.213 271.5,163C 272.293,161.915 272.96,160.748 273.5,159.5C 270.829,156.315 270.162,152.815 271.5,149C 270.513,146.689 269.513,144.355 268.5,142C 268.89,136.497 268.89,131.164 268.5,126C 269.416,125.722 270.082,125.222 270.5,124.5 Z"/></g>
<g><path style="opacity:1" fill="#eb7d73" d="M 287.5,124.5 C 287.5,124.167 287.5,123.833 287.5,123.5C 299.167,123.5 310.833,123.5 322.5,123.5C 322.795,125.735 322.461,127.735 321.5,129.5C 321.5,128.167 321.5,126.833 321.5,125.5C 310.169,125.093 298.836,124.759 287.5,124.5 Z"/></g>
<g><path style="opacity:1" fill="#d73024" d="M 270.5,124.5 C 270.082,125.222 269.416,125.722 268.5,126C 268.89,131.164 268.89,136.497 268.5,142C 269.513,144.355 270.513,146.689 271.5,149C 270.162,152.815 270.829,156.315 273.5,159.5C 272.96,160.748 272.293,161.915 271.5,163C 273.945,165.213 275.278,168.046 275.5,171.5C 274.167,173.167 274.167,174.833 275.5,176.5C 272.562,180.839 271.228,185.672 271.5,191C 271.55,194.603 272.217,197.936 273.5,201C 272.903,202.062 272.57,203.228 272.5,204.5C 273.82,207.019 275.487,209.353 277.5,211.5C 276.689,212.216 276.022,213.05 275.5,214C 276.976,218.642 276.309,222.976 273.5,227C 273.905,227.945 274.572,228.612 275.5,229C 274.524,231.147 274.691,233.314 276,235.5C 276.588,244.211 276.421,252.711 275.5,261C 278.747,266.375 282.414,271.375 286.5,276C 290.152,276.499 293.818,276.665 297.5,276.5C 297.802,279.059 297.468,281.393 296.5,283.5C 294.103,283.595 291.603,283.929 289,284.5C 284.287,281.397 279.12,279.231 273.5,278C 271.987,273.313 269.987,267.813 267.5,261.5C 269.078,258.063 268.745,254.896 266.5,252C 267.167,251.333 267.833,250.667 268.5,250C 266.043,248.488 266.043,247.154 268.5,246C 267.77,243.47 266.77,240.97 265.5,238.5C 266.167,236.167 266.833,233.833 267.5,231.5C 267.187,228.71 266.187,226.21 264.5,224C 265.445,221.911 265.445,219.911 264.5,218C 265.167,217.333 265.833,216.667 266.5,216C 264.73,214.033 263.73,211.7 263.5,209C 264.769,204.579 265.769,199.746 266.5,194.5C 265.833,192.5 265.167,190.5 264.5,188.5C 266.087,186.554 265.754,185.054 263.5,184C 264.354,182.119 264.021,180.286 262.5,178.5C 261.345,173.038 261.345,167.371 262.5,161.5C 262.679,158.869 262.013,156.535 260.5,154.5C 260.386,150.885 260.719,147.218 261.5,143.5C 259.614,137.305 258.28,130.972 257.5,124.5C 261.833,124.5 266.167,124.5 270.5,124.5 Z"/></g>
<g><path style="opacity:1" fill="#701612" d="M 196.5,123.5 C 208.303,184.384 219.636,245.384 230.5,306.5C 228.143,306.663 225.81,306.497 223.5,306C 221.347,305.901 219.681,305.067 218.5,303.5C 218.59,300.848 217.924,298.515 216.5,296.5C 215.612,293.946 215.279,291.279 215.5,288.5C 215.741,286.102 215.074,284.102 213.5,282.5C 213.247,278.96 212.581,275.627 211.5,272.5C 210.376,268.217 209.376,263.884 208.5,259.5C 207.66,255.015 206.66,250.681 205.5,246.5C 205.5,246.167 205.5,245.833 205.5,245.5C 204.532,239.968 203.199,234.634 201.5,229.5C 201.5,229.167 201.5,228.833 201.5,228.5C 201.59,225.848 200.924,223.515 199.5,221.5C 197.667,212.695 195.667,204.029 193.5,195.5C 192.579,188.408 191.245,181.408 189.5,174.5C 189.31,171.145 188.31,168.145 186.5,165.5C 186.5,165.167 186.5,164.833 186.5,164.5C 186.343,157.529 184.843,150.862 182,144.5C 181.452,140.83 180.952,137.163 180.5,133.5C 181.922,132.075 183.589,131.075 185.5,130.5C 187.47,129.838 189.47,129.172 191.5,128.5C 192.386,127.675 192.719,126.675 192.5,125.5C 194.062,125.267 195.395,124.6 196.5,123.5 Z"/></g>
<g><path style="opacity:1" fill="#96514a" d="M 192.5,125.5 C 192.719,126.675 192.386,127.675 191.5,128.5C 189.47,129.172 187.47,129.838 185.5,130.5C 187.228,128.123 189.561,126.456 192.5,125.5 Z"/></g>
<g><path style="opacity:1" fill="#b78784" d="M 180.5,133.5 C 180.952,137.163 181.452,140.83 182,144.5C 184.843,150.862 186.343,157.529 186.5,164.5C 183.279,155.436 180.945,145.936 179.5,136C 179.528,134.93 179.861,134.097 180.5,133.5 Z"/></g>
<g><path style="opacity:1" fill="#ba261b" d="M 237.5,123.5 C 240.5,123.5 243.5,123.5 246.5,123.5C 246.5,124.167 246.167,124.5 245.5,124.5C 244.127,124.343 242.793,124.51 241.5,125C 243.123,135.876 245.123,146.876 247.5,158C 247.916,163.29 247.916,168.624 247.5,174C 248.374,177.366 249.374,180.7 250.5,184C 250.817,193.683 250.483,203.683 249.5,214C 250.841,225.382 252.508,236.715 254.5,248C 253.963,249.792 253.63,251.625 253.5,253.5C 254.429,259.649 254.929,265.649 255,271.5C 256.786,274.958 258.119,278.624 259,282.5C 261.356,285.022 263.523,287.688 265.5,290.5C 275.29,293.133 284.956,294.799 294.5,295.5C 293.85,297.435 293.517,299.435 293.5,301.5C 289.179,299.958 284.679,298.958 280,298.5C 279.228,298.645 278.561,298.978 278,299.5C 272.137,298.259 266.304,296.759 260.5,295C 257.051,292.576 254.551,289.409 253,285.5C 252.424,280.525 250.924,275.859 248.5,271.5C 248.322,266.766 248.322,261.766 248.5,256.5C 248.188,250.823 247.188,245.323 245.5,240C 246.022,239.439 246.355,238.772 246.5,238C 244.155,231.392 242.822,224.726 242.5,218C 243.019,205.479 243.352,193.145 243.5,181C 240.642,162.5 237.642,144 234.5,125.5C 235.602,124.824 236.602,124.158 237.5,123.5 Z"/></g>
<g><path style="opacity:1" fill="#af2218" d="M 226.5,123.5 C 230.167,123.5 233.833,123.5 237.5,123.5C 236.602,124.158 235.602,124.824 234.5,125.5C 237.642,144 240.642,162.5 243.5,181C 243.352,193.145 243.019,205.479 242.5,218C 242.822,224.726 244.155,231.392 246.5,238C 246.355,238.772 246.022,239.439 245.5,240C 247.188,245.323 248.188,250.823 248.5,256.5C 248.322,261.766 248.322,266.766 248.5,271.5C 250.924,275.859 252.424,280.525 253,285.5C 254.551,289.409 257.051,292.576 260.5,295C 266.304,296.759 272.137,298.259 278,299.5C 278.561,298.978 279.228,298.645 280,298.5C 284.679,298.958 289.179,299.958 293.5,301.5C 293.5,302.5 293.5,303.5 293.5,304.5C 288.833,304.5 284.167,304.5 279.5,304.5C 270.067,305.397 261.067,303.564 252.5,299C 245.253,286.842 241.919,273.342 242.5,258.5C 240.91,255.361 240.576,252.195 241.5,249C 239.622,240.491 237.622,231.991 235.5,223.5C 235.61,221.902 235.943,220.235 236.5,218.5C 233.956,216.389 233.956,214.222 236.5,212C 235.799,201.753 235.799,191.42 236.5,181C 234.174,174.683 233.174,168.35 233.5,162C 232.707,160.915 232.04,159.748 231.5,158.5C 232.169,155.643 231.836,152.81 230.5,150C 230.783,146.898 230.783,143.898 230.5,141C 228.812,135.239 227.479,129.406 226.5,123.5 Z"/></g>
<g><path style="opacity:1" fill="#c4291e" d="M 245.5,124.5 C 247.329,125.774 247.662,127.274 246.5,129C 247.825,133.419 248.825,137.919 249.5,142.5C 250.287,143.242 250.953,144.075 251.5,145C 249.632,148.725 248.965,152.559 249.5,156.5C 250.971,164.871 252.637,173.204 254.5,181.5C 254.473,184.089 254.139,186.589 253.5,189C 254.167,189.667 254.833,190.333 255.5,191C 254.136,195.398 253.136,199.898 252.5,204.5C 253.776,209.146 253.776,213.813 252.5,218.5C 254.53,225.875 255.863,233.375 256.5,241C 255.489,244.041 255.822,246.708 257.5,249C 258.64,256.43 258.64,263.93 257.5,271.5C 258.262,271.911 259.262,272.077 260.5,272C 260.043,272.414 259.709,272.914 259.5,273.5C 263.07,286.639 271.57,291.973 285,289.5C 286.085,290.293 287.252,290.96 288.5,291.5C 291.277,289.981 293.277,290.648 294.5,293.5C 294.5,294.167 294.5,294.833 294.5,295.5C 284.956,294.799 275.29,293.133 265.5,290.5C 263.523,287.688 261.356,285.022 259,282.5C 258.119,278.624 256.786,274.958 255,271.5C 254.929,265.649 254.429,259.649 253.5,253.5C 253.63,251.625 253.963,249.792 254.5,248C 252.508,236.715 250.841,225.382 249.5,214C 250.483,203.683 250.817,193.683 250.5,184C 249.374,180.7 248.374,177.366 247.5,174C 247.916,168.624 247.916,163.29 247.5,158C 245.123,146.876 243.123,135.876 241.5,125C 242.793,124.51 244.127,124.343 245.5,124.5 Z"/></g>
<g><path style="opacity:1" fill="#ad7875" d="M 186.5,165.5 C 188.31,168.145 189.31,171.145 189.5,174.5C 188.313,172.928 187.313,171.261 186.5,169.5C 186.5,168.167 186.5,166.833 186.5,165.5 Z"/></g>
<g><path style="opacity:1" fill="#cdacaa" d="M 186.5,169.5 C 187.313,171.261 188.313,172.928 189.5,174.5C 191.245,181.408 192.579,188.408 193.5,195.5C 192.207,194.158 191.374,192.491 191,190.5C 190.139,183.32 188.639,176.32 186.5,169.5 Z"/></g>
<g><path style="opacity:1" fill="#ceaeac" d="M 193.5,195.5 C 195.667,204.029 197.667,212.695 199.5,221.5C 197.615,215.666 195.781,209.666 194,203.5C 193.503,200.854 193.336,198.187 193.5,195.5 Z"/></g>
<g><path style="opacity:1" fill="#b17f7c" d="M 199.5,221.5 C 200.924,223.515 201.59,225.848 201.5,228.5C 200.076,226.485 199.41,224.152 199.5,221.5 Z"/></g>
<g><path style="opacity:1" fill="#c39b99" d="M 201.5,229.5 C 203.199,234.634 204.532,239.968 205.5,245.5C 202.321,240.784 200.987,235.451 201.5,229.5 Z"/></g>
<g><path style="opacity:1" fill="#be9391" d="M 205.5,246.5 C 206.66,250.681 207.66,255.015 208.5,259.5C 205.965,255.645 204.965,251.312 205.5,246.5 Z"/></g>
<g><path style="opacity:1" fill="#f7c6c2" d="M 300.5,261.5 C 300.666,265.514 300.499,269.514 300,273.5C 299.722,274.416 299.222,275.082 298.5,275.5C 298.532,270.609 299.199,265.943 300.5,261.5 Z"/></g>
<g><path style="opacity:1" fill="#c7a19f" d="M 211.5,272.5 C 212.581,275.627 213.247,278.96 213.5,282.5C 212.778,282.082 212.278,281.416 212,280.5C 211.503,277.854 211.336,275.187 211.5,272.5 Z"/></g>
<g><path style="opacity:1" fill="#a9726f" d="M 213.5,282.5 C 215.074,284.102 215.741,286.102 215.5,288.5C 213.926,286.898 213.259,284.898 213.5,282.5 Z"/></g>
<g><path style="opacity:1" fill="#bc928f" d="M 216.5,296.5 C 217.924,298.515 218.59,300.848 218.5,303.5C 217.076,301.485 216.41,299.152 216.5,296.5 Z"/></g>
<g><path style="opacity:1" fill="#bb534b" d="M 295.5,291.5 C 295.167,296.167 294.833,300.833 294.5,305.5C 289.5,305.5 284.5,305.5 279.5,305.5C 279.5,305.167 279.5,304.833 279.5,304.5C 284.167,304.5 288.833,304.5 293.5,304.5C 293.5,303.5 293.5,302.5 293.5,301.5C 293.517,299.435 293.85,297.435 294.5,295.5C 294.5,294.833 294.5,294.167 294.5,293.5C 294.328,292.508 294.662,291.842 295.5,291.5 Z"/></g>
<g><path style="opacity:1" fill="#d73125" d="M 273.5,322.5 C 274.391,323.11 275.391,323.443 276.5,323.5C 282.544,327.211 287.211,332.211 290.5,338.5C 292.418,344.688 292.918,351.021 292,357.5C 291.722,358.416 291.222,359.082 290.5,359.5C 282.29,358.598 274.29,356.098 266.5,352C 262.416,348.336 258.916,344.17 256,339.5C 254.393,333.906 251.56,329.072 247.5,325C 250.98,322.093 254.98,320.593 259.5,320.5C 264.14,321.38 268.806,322.047 273.5,322.5 Z"/></g>
<g><path style="opacity:1" fill="#751e19" d="M 253.5,319.5 C 249.868,320.984 246.534,322.984 243.5,325.5C 238.127,328.379 234.293,332.712 232,338.5C 226.786,357.767 232.953,371.767 250.5,380.5C 248.5,380.5 246.5,380.5 244.5,380.5C 239.997,378.344 235.664,376.011 231.5,373.5C 229.632,369.437 227.465,365.437 225,361.5C 224.333,354.167 224.333,346.833 225,339.5C 227.156,335.368 229.322,331.368 231.5,327.5C 232.552,327.649 233.552,327.483 234.5,327C 239.426,320.901 245.76,318.401 253.5,319.5 Z"/></g>
<g><path style="opacity:1" fill="#f0a099" d="M 273.5,322.5 C 273.5,322.167 273.5,321.833 273.5,321.5C 275.027,321.427 276.027,322.094 276.5,323.5C 275.391,323.443 274.391,323.11 273.5,322.5 Z"/></g>
<g><path style="opacity:1" fill="#c62b20" d="M 253.5,319.5 C 260.301,319.128 266.967,319.794 273.5,321.5C 273.5,321.833 273.5,322.167 273.5,322.5C 268.806,322.047 264.14,321.38 259.5,320.5C 254.98,320.593 250.98,322.093 247.5,325C 251.56,329.072 254.393,333.906 256,339.5C 258.916,344.17 262.416,348.336 266.5,352C 274.29,356.098 282.29,358.598 290.5,359.5C 290.104,362.721 288.771,365.388 286.5,367.5C 270.374,366.515 257.874,359.182 249,345.5C 247.001,339.511 244.501,333.845 241.5,328.5C 242.167,327.5 242.833,326.5 243.5,325.5C 246.534,322.984 249.868,320.984 253.5,319.5 Z"/></g>
<g><path style="opacity:1" fill="#aa2117" d="M 243.5,325.5 C 242.833,326.5 242.167,327.5 241.5,328.5C 239.429,329.572 238.095,331.239 237.5,333.5C 239.421,338.675 241.421,343.842 243.5,349C 243.167,349.333 242.833,349.667 242.5,350C 245.808,354.775 249.474,359.275 253.5,363.5C 257.833,366 262.167,368.5 266.5,371C 267.449,371.617 268.282,371.451 269,370.5C 273.013,371.72 276.847,373.054 280.5,374.5C 277.865,375.811 275.531,377.478 273.5,379.5C 266.018,380.492 258.352,380.825 250.5,380.5C 232.953,371.767 226.786,357.767 232,338.5C 234.293,332.712 238.127,328.379 243.5,325.5 Z"/></g>
<g><path style="opacity:1" fill="#e7a29d" d="M 290.5,338.5 C 291.79,339.058 292.623,340.058 293,341.5C 294.745,351.096 293.245,360.096 288.5,368.5C 288.043,369.298 287.376,369.631 286.5,369.5C 286.5,368.833 286.5,368.167 286.5,367.5C 288.771,365.388 290.104,362.721 290.5,359.5C 291.222,359.082 291.722,358.416 292,357.5C 292.918,351.021 292.418,344.688 290.5,338.5 Z"/></g>
<g><path style="opacity:1" fill="#ba261c" d="M 241.5,328.5 C 244.501,333.845 247.001,339.511 249,345.5C 257.874,359.182 270.374,366.515 286.5,367.5C 286.5,368.167 286.5,368.833 286.5,369.5C 284.5,371.167 282.5,372.833 280.5,374.5C 276.847,373.054 273.013,371.72 269,370.5C 268.282,371.451 267.449,371.617 266.5,371C 262.167,368.5 257.833,366 253.5,363.5C 249.474,359.275 245.808,354.775 242.5,350C 242.833,349.667 243.167,349.333 243.5,349C 241.421,343.842 239.421,338.675 237.5,333.5C 238.095,331.239 239.429,329.572 241.5,328.5 Z"/></g>
<g><path style="opacity:1" fill="#c16d65" d="M 286.5,369.5 C 284.75,372.756 282.417,375.589 279.5,378C 277.846,378.608 276.179,379.108 274.5,379.5C 274.167,379.5 273.833,379.5 273.5,379.5C 275.531,377.478 277.865,375.811 280.5,374.5C 282.5,372.833 284.5,371.167 286.5,369.5 Z"/></g>
<g><path style="opacity:1" fill="#cd9794" d="M 273.5,379.5 C 273.833,379.5 274.167,379.5 274.5,379.5C 269.881,380.828 264.881,381.494 259.5,381.5C 254.322,381.499 249.322,381.166 244.5,380.5C 246.5,380.5 248.5,380.5 250.5,380.5C 258.352,380.825 266.018,380.492 273.5,379.5 Z"/></g>
<g><path style="opacity:0.016" fill="#9d9d9d" d="M 430.5,469.5 C 314.5,470.833 198.5,470.833 82.5,469.5C 84.5273,469.662 86.5273,469.495 88.5,469C 87.5,468.667 86.5,468.333 85.5,468C 198.48,468.829 311.48,468.663 424.5,467.5C 427.063,467.737 427.063,468.237 424.5,469C 426.473,469.495 428.473,469.662 430.5,469.5 Z"/></g>
</svg>
