<?xml version="1.0" encoding="UTF-8"?>
<!DOCTYPE svg PUBLIC "-//W3C//DTD SVG 1.1//EN" "http://www.w3.org/Graphics/SVG/1.1/DTD/svg11.dtd">
<svg xmlns="http://www.w3.org/2000/svg" version="1.1" width="512px" height="512px" style="shape-rendering:geometricPrecision; text-rendering:geometricPrecision; image-rendering:optimizeQuality; fill-rule:evenodd; clip-rule:evenodd" xmlns:xlink="http://www.w3.org/1999/xlink">
<g><path style="opacity:1" fill="#fefefe" d="M -0.5,-0.5 C 170.167,-0.5 340.833,-0.5 511.5,-0.5C 511.5,170.167 511.5,340.833 511.5,511.5C 340.833,511.5 170.167,511.5 -0.5,511.5C -0.5,340.833 -0.5,170.167 -0.5,-0.5 Z"/></g>
<g><path style="opacity:1" fill="#debcb9" d="M 205.5,83.5 C 197.981,83.175 190.648,83.5084 183.5,84.5C 182.5,84.5 181.5,84.5 180.5,84.5C 184.276,83.1752 188.443,82.5085 193,82.5C 197.347,82.501 201.514,82.8343 205.5,83.5 Z"/></g>
<g><path style="opacity:1" fill="#d49f9b" d="M 205.5,84.5 C 205.5,84.1667 205.5,83.8333 205.5,83.5C 218.185,83.3451 230.851,83.6784 243.5,84.5C 243.5,84.8333 243.5,85.1667 243.5,85.5C 230.85,84.7075 218.183,84.3742 205.5,84.5 Z"/></g>
<g><path style="opacity:1" fill="#931a11" d="M 205.5,83.5 C 205.5,83.8333 205.5,84.1667 205.5,84.5C 202.814,85.9881 203.147,86.6547 206.5,86.5C 206.038,87.8799 205.038,88.5466 203.5,88.5C 201.238,87.5331 198.905,86.8664 196.5,86.5C 196.784,89.6318 197.617,92.6318 199,95.5C 199.499,99.1516 199.665,102.818 199.5,106.5C 200.5,106.5 201.5,106.5 202.5,106.5C 202.414,110.857 202.08,115.19 201.5,119.5C 205.073,120.368 205.073,121.868 201.5,124C 202.973,124.71 203.64,125.876 203.5,127.5C 202.325,127.281 201.325,127.614 200.5,128.5C 201.991,130.807 202.991,133.307 203.5,136C 202.185,137.395 202.519,138.395 204.5,139C 203.833,139.667 203.167,140.333 202.5,141C 204.46,144.473 205.46,148.306 205.5,152.5C 206.5,152.5 207.5,152.5 208.5,152.5C 207.736,156.722 207.402,160.888 207.5,165C 208.5,165.833 209.5,166.667 210.5,167.5C 210.003,171.193 209.003,174.693 207.5,178C 208.296,179.092 208.963,180.259 209.5,181.5C 204.82,190.842 202.987,200.842 204,211.5C 204.333,209.167 204.667,206.833 205,204.5C 205.777,207.429 205.61,210.263 204.5,213C 205.623,216.159 206.956,219.159 208.5,222C 207.366,223.016 207.699,223.683 209.5,224C 207.842,224.725 207.342,225.892 208,227.5C 208.317,225.699 208.984,225.366 210,226.5C 210.638,227.609 211.138,228.775 211.5,230C 211.108,231.011 210.441,231.511 209.5,231.5C 210.325,232.386 211.325,232.719 212.5,232.5C 212.137,234.911 213.137,236.411 215.5,237C 212.972,238.017 212.972,239.184 215.5,240.5C 215.069,241.293 214.735,242.127 214.5,243C 215.477,244.497 216.477,245.997 217.5,247.5C 217.315,250.48 216.982,253.48 216.5,256.5C 217.167,257.5 217.833,258.5 218.5,259.5C 216.251,262.757 215.918,266.257 217.5,270C 215.222,272.849 215.889,275.183 219.5,277C 217.893,278.049 217.227,279.549 217.5,281.5C 213.106,260.629 208.606,239.629 204,218.5C 198.772,186.131 193.105,153.797 187,121.5C 182.251,109.351 181.084,97.0175 183.5,84.5C 190.648,83.5084 197.981,83.175 205.5,83.5 Z"/></g>
<g><path style="opacity:1" fill="#f6dbd9" d="M 243.5,85.5 C 243.5,85.1667 243.5,84.8333 243.5,84.5C 261.68,84.5538 279.68,85.2205 297.5,86.5C 295.5,86.5 293.5,86.5 291.5,86.5C 275.494,86.3963 259.494,86.063 243.5,85.5 Z"/></g>
<g><path style="opacity:1" fill="#981b11" d="M 206.5,86.5 C 207.586,93.3457 209.252,100.179 211.5,107C 211.415,108.107 211.081,109.107 210.5,110C 214.492,116.143 215.159,122.643 212.5,129.5C 213.727,130.59 214.56,131.924 215,133.5C 215.392,136.627 216.225,139.627 217.5,142.5C 216.211,145.151 216.711,147.484 219,149.5C 220.094,160.295 220.594,170.962 220.5,181.5C 220.259,184.289 219.592,186.956 218.5,189.5C 218.722,191.055 219.389,192.389 220.5,193.5C 219.833,194.167 219.167,194.833 218.5,195.5C 218.289,198.547 218.622,201.714 219.5,205C 218.983,207.077 218.316,209.077 217.5,211C 219.592,211.953 219.925,213.286 218.5,215C 220.412,218.522 221.579,222.355 222,226.5C 223.022,227.354 223.855,228.354 224.5,229.5C 224.937,232.051 224.937,234.718 224.5,237.5C 224.846,238.696 225.346,238.696 226,237.5C 226.296,240.706 226.796,243.872 227.5,247C 226.742,249.854 227.075,252.687 228.5,255.5C 228.424,258.387 228.424,261.22 228.5,264C 228.095,264.945 227.428,265.612 226.5,266C 227.5,266.333 228.5,266.667 229.5,267C 228.313,268.019 227.313,269.186 226.5,270.5C 228.096,272.96 229.262,275.626 230,278.5C 230.506,287.165 233.006,295.165 237.5,302.5C 237.327,305.24 237.327,307.907 237.5,310.5C 238.625,313.46 239.625,316.46 240.5,319.5C 242.747,320.374 245.08,320.708 247.5,320.5C 239.684,321.492 231.684,321.826 223.5,321.5C 221.724,308.074 219.724,294.74 217.5,281.5C 217.227,279.549 217.893,278.049 219.5,277C 215.889,275.183 215.222,272.849 217.5,270C 215.918,266.257 216.251,262.757 218.5,259.5C 217.833,258.5 217.167,257.5 216.5,256.5C 216.982,253.48 217.315,250.48 217.5,247.5C 216.477,245.997 215.477,244.497 214.5,243C 214.735,242.127 215.069,241.293 215.5,240.5C 212.972,239.184 212.972,238.017 215.5,237C 213.137,236.411 212.137,234.911 212.5,232.5C 211.325,232.719 210.325,232.386 209.5,231.5C 210.441,231.511 211.108,231.011 211.5,230C 211.138,228.775 210.638,227.609 210,226.5C 208.984,225.366 208.317,225.699 208,227.5C 207.342,225.892 207.842,224.725 209.5,224C 207.699,223.683 207.366,223.016 208.5,222C 206.956,219.159 205.623,216.159 204.5,213C 205.61,210.263 205.777,207.429 205,204.5C 204.667,206.833 204.333,209.167 204,211.5C 202.987,200.842 204.82,190.842 209.5,181.5C 208.963,180.259 208.296,179.092 207.5,178C 209.003,174.693 210.003,171.193 210.5,167.5C 209.5,166.667 208.5,165.833 207.5,165C 207.402,160.888 207.736,156.722 208.5,152.5C 207.5,152.5 206.5,152.5 205.5,152.5C 205.46,148.306 204.46,144.473 202.5,141C 203.167,140.333 203.833,139.667 204.5,139C 202.519,138.395 202.185,137.395 203.5,136C 202.991,133.307 201.991,130.807 200.5,128.5C 201.325,127.614 202.325,127.281 203.5,127.5C 203.64,125.876 202.973,124.71 201.5,124C 205.073,121.868 205.073,120.368 201.5,119.5C 202.08,115.19 202.414,110.857 202.5,106.5C 201.5,106.5 200.5,106.5 199.5,106.5C 199.665,102.818 199.499,99.1516 199,95.5C 197.617,92.6318 196.784,89.6318 196.5,86.5C 198.905,86.8664 201.238,87.5331 203.5,88.5C 205.038,88.5466 206.038,87.8799 206.5,86.5 Z"/></g>
<g><path style="opacity:1" fill="#a01e14" d="M 205.5,84.5 C 212.562,85.0458 219.562,86.0458 226.5,87.5C 225.833,87.5 225.167,87.5 224.5,87.5C 221.15,87.335 217.817,87.5017 214.5,88C 215.932,95.316 217.598,102.649 219.5,110C 218.276,118.214 219.276,126.381 222.5,134.5C 222.069,135.293 221.735,136.127 221.5,137C 223.488,141.253 224.155,145.586 223.5,150C 224.742,154.394 226.075,158.727 227.5,163C 225.147,167.782 225.147,172.615 227.5,177.5C 226.833,178.167 226.167,178.833 225.5,179.5C 226.087,181.742 226.421,183.909 226.5,186C 224.653,196.276 223.987,206.442 224.5,216.5C 225.522,217.354 226.355,218.354 227,219.5C 228.29,225.622 229.957,231.622 232,237.5C 233.254,251.186 234.254,264.853 235,278.5C 237.687,292.037 242.353,304.704 249,316.5C 249.333,316.167 249.667,315.833 250,315.5C 257.983,320.457 266.316,320.79 275,316.5C 282.955,317.828 291.122,317.828 299.5,316.5C 300.833,316.5 302.167,316.5 303.5,316.5C 303.5,315.5 303.5,314.5 303.5,313.5C 303.12,311.302 303.787,309.635 305.5,308.5C 305.5,309.167 305.5,309.833 305.5,310.5C 304.527,312.948 304.194,315.615 304.5,318.5C 296.826,318.334 289.159,318.5 281.5,319C 278.964,319.186 276.631,319.686 274.5,320.5C 265.5,320.5 256.5,320.5 247.5,320.5C 245.08,320.708 242.747,320.374 240.5,319.5C 239.625,316.46 238.625,313.46 237.5,310.5C 237.327,307.907 237.327,305.24 237.5,302.5C 233.006,295.165 230.506,287.165 230,278.5C 229.262,275.626 228.096,272.96 226.5,270.5C 227.313,269.186 228.313,268.019 229.5,267C 228.5,266.667 227.5,266.333 226.5,266C 227.428,265.612 228.095,264.945 228.5,264C 228.424,261.22 228.424,258.387 228.5,255.5C 227.075,252.687 226.742,249.854 227.5,247C 226.796,243.872 226.296,240.706 226,237.5C 225.346,238.696 224.846,238.696 224.5,237.5C 224.937,234.718 224.937,232.051 224.5,229.5C 223.855,228.354 223.022,227.354 222,226.5C 221.579,222.355 220.412,218.522 218.5,215C 219.925,213.286 219.592,211.953 217.5,211C 218.316,209.077 218.983,207.077 219.5,205C 218.622,201.714 218.289,198.547 218.5,195.5C 219.167,194.833 219.833,194.167 220.5,193.5C 219.389,192.389 218.722,191.055 218.5,189.5C 219.592,186.956 220.259,184.289 220.5,181.5C 220.594,170.962 220.094,160.295 219,149.5C 216.711,147.484 216.211,145.151 217.5,142.5C 216.225,139.627 215.392,136.627 215,133.5C 214.56,131.924 213.727,130.59 212.5,129.5C 215.159,122.643 214.492,116.143 210.5,110C 211.081,109.107 211.415,108.107 211.5,107C 209.252,100.179 207.586,93.3457 206.5,86.5C 203.147,86.6547 202.814,85.9881 205.5,84.5 Z"/></g>
<g><path style="opacity:1" fill="#be5047" d="M 205.5,84.5 C 218.183,84.3742 230.85,84.7075 243.5,85.5C 245.833,86.1667 248.167,86.8333 250.5,87.5C 248.167,87.5 245.833,87.5 243.5,87.5C 240.167,87.5 236.833,87.5 233.5,87.5C 231.167,87.5 228.833,87.5 226.5,87.5C 219.562,86.0458 212.562,85.0458 205.5,84.5 Z"/></g>
<g><path style="opacity:1" fill="#e89892" d="M 243.5,85.5 C 259.494,86.063 275.494,86.3963 291.5,86.5C 291.5,86.8333 291.5,87.1667 291.5,87.5C 279.167,87.5 266.833,87.5 254.5,87.5C 253.167,87.5 251.833,87.5 250.5,87.5C 248.167,86.8333 245.833,86.1667 243.5,85.5 Z"/></g>
<g><path style="opacity:1" fill="#f5c3bf" d="M 291.5,87.5 C 291.5,87.1667 291.5,86.8333 291.5,86.5C 293.5,86.5 295.5,86.5 297.5,86.5C 309.171,86.3335 320.838,86.5001 332.5,87C 335.365,87.1829 338.031,87.6829 340.5,88.5C 324.169,88.0898 307.835,87.7565 291.5,87.5 Z"/></g>
<g><path style="opacity:1" fill="#d12e23" d="M 254.5,88.5 C 261.833,88.5 269.167,88.5 276.5,88.5C 275.432,89.4345 274.099,89.7678 272.5,89.5C 268.833,89.5 265.167,89.5 261.5,89.5C 261.084,93.6958 260.751,97.6958 260.5,101.5C 263.226,106.197 263.893,111.197 262.5,116.5C 264.797,120.596 264.797,124.429 262.5,128C 263.728,128.779 264.728,129.779 265.5,131C 266.151,136.091 265.484,141.091 263.5,146C 264.199,148.893 265.199,151.726 266.5,154.5C 265.479,158.875 266.145,163.041 268.5,167C 267.663,170.366 267.996,173.7 269.5,177C 269.09,184.094 267.757,190.927 265.5,197.5C 268.655,201.166 269.321,204.999 267.5,209C 268.398,211.099 268.398,213.266 267.5,215.5C 269.009,218.596 270.342,221.762 271.5,225C 271.248,227.394 270.248,229.394 268.5,231C 269.573,232.25 269.573,233.584 268.5,235C 269.952,237.455 270.952,240.122 271.5,243C 271.355,245.638 271.022,248.304 270.5,251C 271.167,252.333 271.833,253.667 272.5,255C 270.721,259.779 271.387,264.112 274.5,268C 274.167,268.333 273.833,268.667 273.5,269C 275.078,274.637 277.078,279.471 279.5,283.5C 281.972,284.896 284.638,285.73 287.5,286C 293.355,291.536 300.022,293.036 307.5,290.5C 307.5,290.833 307.5,291.167 307.5,291.5C 306.532,293.607 306.198,295.941 306.5,298.5C 295.658,296.691 285.658,294.191 276.5,291C 276.167,288 274.5,286.333 271.5,286C 270.809,284.933 270.309,283.766 270,282.5C 269.667,282.833 269.333,283.167 269,283.5C 268.667,281.167 268.333,278.833 268,276.5C 266.639,274.972 265.472,273.305 264.5,271.5C 263.36,260.877 263.36,250.043 264.5,239C 263.877,235.519 263.377,232.019 263,228.5C 262.333,227.833 261.667,227.167 261,226.5C 259.732,220.404 259.565,214.57 260.5,209C 260.646,206.966 259.98,205.299 258.5,204C 258.515,194.989 259.182,185.656 260.5,176C 258.948,169.853 259.281,163.853 261.5,158C 260.422,157.326 259.755,156.326 259.5,155C 258.96,150.212 257.96,145.546 256.5,141C 257.833,137.333 257.833,133.667 256.5,130C 259.378,125.024 259.045,120.19 255.5,115.5C 256.106,113.291 256.773,111.124 257.5,109C 256.03,107.207 255.03,105.207 254.5,103C 255.247,100.453 255.58,97.9528 255.5,95.5C 252.453,94.1249 251.12,91.7916 251.5,88.5C 252.5,88.5 253.5,88.5 254.5,88.5 Z"/></g>
<g><path style="opacity:1" fill="#dd3327" d="M 276.5,88.5 C 297.485,89.3886 318.485,89.7219 339.5,89.5C 339.5,91.1667 339.5,92.8333 339.5,94.5C 338.617,99.1031 338.283,103.77 338.5,108.5C 337.883,108.611 337.383,108.944 337,109.5C 335.454,118.404 334.287,127.404 333.5,136.5C 331.056,144.53 329.723,152.863 329.5,161.5C 329.217,162.289 328.717,162.956 328,163.5C 327.333,170.833 326.667,178.167 326,185.5C 325.617,186.056 325.117,186.389 324.5,186.5C 323.732,187.263 323.232,188.263 323,189.5C 322.103,195.806 321.603,202.139 321.5,208.5C 318.692,230.178 315.026,251.511 310.5,272.5C 310.041,275.49 309.041,278.323 307.5,281C 303.167,281.667 298.833,281.667 294.5,281C 293.663,279.989 293.33,278.822 293.5,277.5C 292.022,277.762 290.689,277.429 289.5,276.5C 287.565,272.723 285.398,269.057 283,265.5C 280.176,264.167 280.343,262.667 283.5,261C 282.833,260.333 282.167,259.667 281.5,259C 282.886,253.823 283.553,248.323 283.5,242.5C 283.916,235.926 282.583,229.759 279.5,224C 280.357,223.311 281.023,222.478 281.5,221.5C 280.397,221.002 279.397,220.669 278.5,220.5C 280.495,217.997 281.829,215.164 282.5,212C 281.87,208.959 281.536,205.959 281.5,203C 284.601,198.803 283.601,195.97 278.5,194.5C 277.534,192.604 277.201,190.604 277.5,188.5C 280.928,187.765 281.094,186.098 278,183.5C 277.667,183.833 277.333,184.167 277,184.5C 276.749,182.567 276.249,180.734 275.5,179C 276.082,173.361 276.416,167.527 276.5,161.5C 279.205,161.62 279.872,160.62 278.5,158.5C 282.426,151.067 282.093,143.734 277.5,136.5C 277.931,135.707 278.265,134.873 278.5,134C 276.055,130.943 274.721,127.776 274.5,124.5C 275.135,121.13 275.468,117.797 275.5,114.5C 271.17,113.016 270.504,110.516 273.5,107C 273.095,106.055 272.428,105.388 271.5,105C 272.747,103.542 272.747,102.042 271.5,100.5C 272.167,99.8333 272.833,99.1667 273.5,98.5C 273.336,95.4844 273.003,92.4844 272.5,89.5C 274.099,89.7678 275.432,89.4345 276.5,88.5 Z"/></g>
<g><path style="opacity:1" fill="#e35d52" d="M 254.5,88.5 C 254.5,88.1667 254.5,87.8333 254.5,87.5C 266.833,87.5 279.167,87.5 291.5,87.5C 307.835,87.7565 324.169,88.0898 340.5,88.5C 340.795,90.7354 340.461,92.7354 339.5,94.5C 339.5,92.8333 339.5,91.1667 339.5,89.5C 318.485,89.7219 297.485,89.3886 276.5,88.5C 269.167,88.5 261.833,88.5 254.5,88.5 Z"/></g>
<g><path style="opacity:1" fill="#d73124" d="M 272.5,89.5 C 273.003,92.4844 273.336,95.4844 273.5,98.5C 272.833,99.1667 272.167,99.8333 271.5,100.5C 272.747,102.042 272.747,103.542 271.5,105C 272.428,105.388 273.095,106.055 273.5,107C 270.504,110.516 271.17,113.016 275.5,114.5C 275.468,117.797 275.135,121.13 274.5,124.5C 274.721,127.776 276.055,130.943 278.5,134C 278.265,134.873 277.931,135.707 277.5,136.5C 282.093,143.734 282.426,151.067 278.5,158.5C 279.872,160.62 279.205,161.62 276.5,161.5C 276.416,167.527 276.082,173.361 275.5,179C 276.249,180.734 276.749,182.567 277,184.5C 277.333,184.167 277.667,183.833 278,183.5C 281.094,186.098 280.928,187.765 277.5,188.5C 277.201,190.604 277.534,192.604 278.5,194.5C 283.601,195.97 284.601,198.803 281.5,203C 281.536,205.959 281.87,208.959 282.5,212C 281.829,215.164 280.495,217.997 278.5,220.5C 279.397,220.669 280.397,221.002 281.5,221.5C 281.023,222.478 280.357,223.311 279.5,224C 282.583,229.759 283.916,235.926 283.5,242.5C 283.553,248.323 282.886,253.823 281.5,259C 282.167,259.667 282.833,260.333 283.5,261C 280.343,262.667 280.176,264.167 283,265.5C 285.398,269.057 287.565,272.723 289.5,276.5C 290.689,277.429 292.022,277.762 293.5,277.5C 293.33,278.822 293.663,279.989 294.5,281C 298.833,281.667 303.167,281.667 307.5,281C 309.041,278.323 310.041,275.49 310.5,272.5C 310.498,277.021 310.164,281.521 309.5,286C 309.431,287.986 308.765,289.486 307.5,290.5C 300.022,293.036 293.355,291.536 287.5,286C 284.638,285.73 281.972,284.896 279.5,283.5C 277.078,279.471 275.078,274.637 273.5,269C 273.833,268.667 274.167,268.333 274.5,268C 271.387,264.112 270.721,259.779 272.5,255C 271.833,253.667 271.167,252.333 270.5,251C 271.022,248.304 271.355,245.638 271.5,243C 270.952,240.122 269.952,237.455 268.5,235C 269.573,233.584 269.573,232.25 268.5,231C 270.248,229.394 271.248,227.394 271.5,225C 270.342,221.762 269.009,218.596 267.5,215.5C 268.398,213.266 268.398,211.099 267.5,209C 269.321,204.999 268.655,201.166 265.5,197.5C 267.757,190.927 269.09,184.094 269.5,177C 267.996,173.7 267.663,170.366 268.5,167C 266.145,163.041 265.479,158.875 266.5,154.5C 265.199,151.726 264.199,148.893 263.5,146C 265.484,141.091 266.151,136.091 265.5,131C 264.728,129.779 263.728,128.779 262.5,128C 264.797,124.429 264.797,120.596 262.5,116.5C 263.893,111.197 263.226,106.197 260.5,101.5C 260.751,97.6958 261.084,93.6958 261.5,89.5C 265.167,89.5 268.833,89.5 272.5,89.5 Z"/></g>
<g><path style="opacity:1" fill="#c6a3a1" d="M 177.5,87.5 C 172.804,91.5212 167.804,95.1878 162.5,98.5C 166.61,93.7385 171.61,90.0718 177.5,87.5 Z"/></g>
<g><path style="opacity:1" fill="#701612" d="M 180.5,84.5 C 181.5,84.5 182.5,84.5 183.5,84.5C 181.084,97.0175 182.251,109.351 187,121.5C 193.105,153.797 198.772,186.131 204,218.5C 208.606,239.629 213.106,260.629 217.5,281.5C 219.724,294.74 221.724,308.074 223.5,321.5C 218.278,320.945 213.278,319.612 208.5,317.5C 208.435,314.572 207.768,311.905 206.5,309.5C 206.435,306.572 205.768,303.905 204.5,301.5C 204.5,301.167 204.5,300.833 204.5,300.5C 204.5,299.167 204.5,297.833 204.5,296.5C 204.59,293.848 203.924,291.515 202.5,289.5C 202.59,286.848 201.924,284.515 200.5,282.5C 199.101,273.579 197.101,264.913 194.5,256.5C 191.963,244.482 189.296,232.482 186.5,220.5C 185.369,214.342 184.035,208.342 182.5,202.5C 183.383,196.46 182.049,191.127 178.5,186.5C 178.5,186.167 178.5,185.833 178.5,185.5C 178.001,181.51 177.501,177.51 177,173.5C 174.479,163.308 171.646,153.308 168.5,143.5C 168.5,143.167 168.5,142.833 168.5,142.5C 167.041,131.859 164.708,121.526 161.5,111.5C 160.952,109.374 160.285,107.374 159.5,105.5C 159.325,103.379 159.659,101.379 160.5,99.5C 161.167,99.1667 161.833,98.8333 162.5,98.5C 167.804,95.1878 172.804,91.5212 177.5,87.5C 178.9,86.9002 179.9,85.9002 180.5,84.5 Z"/></g>
<g><path style="opacity:1" fill="#c39e9d" d="M 160.5,99.5 C 159.659,101.379 159.325,103.379 159.5,105.5C 158.694,104.003 158.028,102.336 157.5,100.5C 158.325,99.6143 159.325,99.281 160.5,99.5 Z"/></g>
<g><path style="opacity:1" fill="#f5c0bd" d="M 340.5,88.5 C 341.158,89.7933 341.492,91.2933 341.5,93C 340.205,98.1676 339.205,103.334 338.5,108.5C 338.283,103.77 338.617,99.1031 339.5,94.5C 340.461,92.7354 340.795,90.7354 340.5,88.5 Z"/></g>
<g><path style="opacity:1" fill="#d6bcbb" d="M 159.5,105.5 C 160.285,107.374 160.952,109.374 161.5,111.5C 161.5,113.833 161.5,116.167 161.5,118.5C 159.946,114.433 159.28,110.1 159.5,105.5 Z"/></g>
<g><path style="opacity:1" fill="#b2807e" d="M 161.5,111.5 C 164.708,121.526 167.041,131.859 168.5,142.5C 167.5,140.5 166.5,138.5 165.5,136.5C 164.547,130.399 163.214,124.399 161.5,118.5C 161.5,116.167 161.5,113.833 161.5,111.5 Z"/></g>
<g><path style="opacity:1" fill="#b22319" d="M 224.5,87.5 C 225.167,87.5 225.833,87.5 226.5,87.5C 228.833,87.5 231.167,87.5 233.5,87.5C 232.048,88.3019 230.382,88.8019 228.5,89C 233.561,112.285 237.061,135.452 239,158.5C 239.692,159.025 240.192,159.692 240.5,160.5C 239.379,168.911 239.379,177.411 240.5,186C 239.984,191.736 239.317,197.403 238.5,203C 239.357,203.689 240.023,204.522 240.5,205.5C 240.413,210.194 240.413,214.861 240.5,219.5C 241.98,224.391 243.313,229.391 244.5,234.5C 243.998,235.716 243.665,236.883 243.5,238C 244.126,238.75 244.626,239.584 245,240.5C 245.406,246.732 246.24,252.899 247.5,259C 247.097,260.473 246.43,261.806 245.5,263C 246.65,272.734 248.817,282.234 252,291.5C 253.74,294.889 255.573,298.222 257.5,301.5C 260.599,304.067 263.933,306.233 267.5,308C 272.126,308.534 276.626,309.367 281,310.5C 285.776,310.611 290.609,310.611 295.5,310.5C 298.34,311.203 301.007,312.203 303.5,313.5C 303.5,314.5 303.5,315.5 303.5,316.5C 302.167,316.5 300.833,316.5 299.5,316.5C 299.082,315.778 298.416,315.278 297.5,315C 292.628,314.754 287.795,314.254 283,313.5C 280.721,313.55 278.388,313.883 276,314.5C 274.982,312.436 273.649,312.102 272,313.5C 267.892,313.214 264.225,311.881 261,309.5C 260.667,309.833 260.333,310.167 260,310.5C 257.254,308.963 254.921,306.963 253,304.5C 251.488,299.907 249.488,295.574 247,291.5C 244.919,282.886 243.086,274.219 241.5,265.5C 242.515,257.339 242.515,249.506 241.5,242C 239.258,231.168 236.924,220.502 234.5,210C 235.305,194.925 235.639,179.758 235.5,164.5C 234.072,153.265 232.405,142.099 230.5,131C 230.603,129.439 230.937,127.939 231.5,126.5C 229.178,121.215 228.178,115.882 228.5,110.5C 228.047,105.039 227.047,99.7054 225.5,94.5C 225.833,93.8333 226.167,93.1667 226.5,92.5C 225.544,90.9246 224.877,89.258 224.5,87.5 Z"/></g>
<g><path style="opacity:1" fill="#f5b9b4" d="M 333.5,136.5 C 333.264,145.17 331.931,153.504 329.5,161.5C 329.723,152.863 331.056,144.53 333.5,136.5 Z"/></g>
<g><path style="opacity:1" fill="#a36865" d="M 168.5,143.5 C 171.646,153.308 174.479,163.308 177,173.5C 177.501,177.51 178.001,181.51 178.5,185.5C 174.111,171.893 170.778,157.893 168.5,143.5 Z"/></g>
<g><path style="opacity:1" fill="#e4d3d3" d="M 165.5,136.5 C 166.5,138.5 167.5,140.5 168.5,142.5C 168.5,142.833 168.5,143.167 168.5,143.5C 170.778,157.893 174.111,171.893 178.5,185.5C 178.5,185.833 178.5,186.167 178.5,186.5C 179.671,191.988 181.005,197.321 182.5,202.5C 182.505,206.534 182.838,210.534 183.5,214.5C 176.096,188.925 170.096,162.925 165.5,136.5 Z"/></g>
<g><path style="opacity:1" fill="#c72a1f" d="M 243.5,87.5 C 245.833,87.5 248.167,87.5 250.5,87.5C 251.833,87.5 253.167,87.5 254.5,87.5C 254.5,87.8333 254.5,88.1667 254.5,88.5C 253.5,88.5 252.5,88.5 251.5,88.5C 251.12,91.7916 252.453,94.1249 255.5,95.5C 255.58,97.9528 255.247,100.453 254.5,103C 255.03,105.207 256.03,107.207 257.5,109C 256.773,111.124 256.106,113.291 255.5,115.5C 259.045,120.19 259.378,125.024 256.5,130C 257.833,133.667 257.833,137.333 256.5,141C 257.96,145.546 258.96,150.212 259.5,155C 259.755,156.326 260.422,157.326 261.5,158C 259.281,163.853 258.948,169.853 260.5,176C 259.182,185.656 258.515,194.989 258.5,204C 259.98,205.299 260.646,206.966 260.5,209C 259.565,214.57 259.732,220.404 261,226.5C 261.667,227.167 262.333,227.833 263,228.5C 263.377,232.019 263.877,235.519 264.5,239C 263.36,250.043 263.36,260.877 264.5,271.5C 265.472,273.305 266.639,274.972 268,276.5C 268.333,278.833 268.667,281.167 269,283.5C 269.333,283.167 269.667,282.833 270,282.5C 270.309,283.766 270.809,284.933 271.5,286C 274.5,286.333 276.167,288 276.5,291C 285.658,294.191 295.658,296.691 306.5,298.5C 306.198,295.941 306.532,293.607 307.5,291.5C 307.736,294.609 307.403,297.609 306.5,300.5C 305.069,301.78 304.402,303.447 304.5,305.5C 295.485,304.569 286.485,303.403 277.5,302C 276.146,300.706 274.812,300.54 273.5,301.5C 272.522,301.023 271.689,300.357 271,299.5C 270.667,299.833 270.333,300.167 270,300.5C 265.758,296.603 262.425,292.603 260,288.5C 258.568,285.998 258.402,283.498 259.5,281C 256.524,279.383 255.524,277.05 256.5,274C 256.095,273.055 255.428,272.388 254.5,272C 256.657,270.915 256.824,269.749 255,268.5C 254.533,263.663 254.033,258.83 253.5,254C 253.446,251.127 254.112,248.46 255.5,246C 255,245.5 254.5,245 254,244.5C 253.632,240.15 253.132,235.817 252.5,231.5C 253.333,229.5 253.166,227.834 252,226.5C 251.26,221.386 250.093,216.386 248.5,211.5C 248.977,210.522 249.643,209.689 250.5,209C 249.376,208.161 248.709,206.994 248.5,205.5C 248.773,201.248 248.939,196.914 249,192.5C 249.374,191.584 249.874,190.75 250.5,190C 249.692,189.692 249.025,189.192 248.5,188.5C 249.744,185.189 249.744,181.856 248.5,178.5C 248.887,176.726 249.553,175.059 250.5,173.5C 249.919,167.91 248.919,162.243 247.5,156.5C 249.149,154.301 248.816,152.468 246.5,151C 247.437,145.511 246.77,139.845 244.5,134C 245.059,133.275 245.392,132.442 245.5,131.5C 242.796,117.767 240.963,104.1 240,90.5C 239.5,90 239,89.5 238.5,89C 240.382,88.8019 242.048,88.3019 243.5,87.5 Z"/></g>
<g><path style="opacity:1" fill="#904945" d="M 178.5,186.5 C 182.049,191.127 183.383,196.46 182.5,202.5C 181.005,197.321 179.671,191.988 178.5,186.5 Z"/></g>
<g><path style="opacity:1" fill="#e56154" d="M 324.5,186.5 C 324.625,194.142 323.625,201.475 321.5,208.5C 321.603,202.139 322.103,195.806 323,189.5C 323.232,188.263 323.732,187.263 324.5,186.5 Z"/></g>
<g><path style="opacity:1" fill="#ba261b" d="M 233.5,87.5 C 236.833,87.5 240.167,87.5 243.5,87.5C 242.048,88.3019 240.382,88.8019 238.5,89C 239,89.5 239.5,90 240,90.5C 240.963,104.1 242.796,117.767 245.5,131.5C 245.392,132.442 245.059,133.275 244.5,134C 246.77,139.845 247.437,145.511 246.5,151C 248.816,152.468 249.149,154.301 247.5,156.5C 248.919,162.243 249.919,167.91 250.5,173.5C 249.553,175.059 248.887,176.726 248.5,178.5C 249.744,181.856 249.744,185.189 248.5,188.5C 249.025,189.192 249.692,189.692 250.5,190C 249.874,190.75 249.374,191.584 249,192.5C 248.939,196.914 248.773,201.248 248.5,205.5C 248.709,206.994 249.376,208.161 250.5,209C 249.643,209.689 248.977,210.522 248.5,211.5C 250.093,216.386 251.26,221.386 252,226.5C 253.166,227.834 253.333,229.5 252.5,231.5C 253.132,235.817 253.632,240.15 254,244.5C 254.5,245 255,245.5 255.5,246C 254.112,248.46 253.446,251.127 253.5,254C 254.033,258.83 254.533,263.663 255,268.5C 256.824,269.749 256.657,270.915 254.5,272C 255.428,272.388 256.095,273.055 256.5,274C 255.524,277.05 256.524,279.383 259.5,281C 258.402,283.498 258.568,285.998 260,288.5C 262.425,292.603 265.758,296.603 270,300.5C 270.333,300.167 270.667,299.833 271,299.5C 271.689,300.357 272.522,301.023 273.5,301.5C 274.812,300.54 276.146,300.706 277.5,302C 286.485,303.403 295.485,304.569 304.5,305.5C 304.402,303.447 305.069,301.78 306.5,300.5C 306.806,303.385 306.473,306.052 305.5,308.5C 303.787,309.635 303.12,311.302 303.5,313.5C 301.007,312.203 298.34,311.203 295.5,310.5C 290.609,310.611 285.776,310.611 281,310.5C 276.626,309.367 272.126,308.534 267.5,308C 263.933,306.233 260.599,304.067 257.5,301.5C 255.573,298.222 253.74,294.889 252,291.5C 248.817,282.234 246.65,272.734 245.5,263C 246.43,261.806 247.097,260.473 247.5,259C 246.24,252.899 245.406,246.732 245,240.5C 244.626,239.584 244.126,238.75 243.5,238C 243.665,236.883 243.998,235.716 244.5,234.5C 243.313,229.391 241.98,224.391 240.5,219.5C 240.413,214.861 240.413,210.194 240.5,205.5C 240.023,204.522 239.357,203.689 238.5,203C 239.317,197.403 239.984,191.736 240.5,186C 239.379,177.411 239.379,168.911 240.5,160.5C 240.192,159.692 239.692,159.025 239,158.5C 237.061,135.452 233.561,112.285 228.5,89C 230.382,88.8019 232.048,88.3019 233.5,87.5 Z"/></g>
<g><path style="opacity:1" fill="#b58684" d="M 182.5,202.5 C 184.035,208.342 185.369,214.342 186.5,220.5C 185.687,218.739 184.687,217.072 183.5,215.5C 183.5,215.167 183.5,214.833 183.5,214.5C 182.838,210.534 182.505,206.534 182.5,202.5 Z"/></g>
<g><path style="opacity:1" fill="#d6bbba" d="M 183.5,215.5 C 184.687,217.072 185.687,218.739 186.5,220.5C 189.296,232.482 191.963,244.482 194.5,256.5C 194.5,257.833 194.5,259.167 194.5,260.5C 192.284,253.309 190.117,245.976 188,238.5C 187.355,230.623 185.855,222.956 183.5,215.5 Z"/></g>
<g><path style="opacity:1" fill="#c19997" d="M 194.5,256.5 C 197.101,264.913 199.101,273.579 200.5,282.5C 200.5,283.833 200.5,285.167 200.5,286.5C 197.899,278.087 195.899,269.421 194.5,260.5C 194.5,259.167 194.5,257.833 194.5,256.5 Z"/></g>
<g><path style="opacity:1" fill="#a71f15" d="M 224.5,87.5 C 224.877,89.258 225.544,90.9246 226.5,92.5C 226.167,93.1667 225.833,93.8333 225.5,94.5C 227.047,99.7054 228.047,105.039 228.5,110.5C 228.178,115.882 229.178,121.215 231.5,126.5C 230.937,127.939 230.603,129.439 230.5,131C 232.405,142.099 234.072,153.265 235.5,164.5C 235.639,179.758 235.305,194.925 234.5,210C 236.924,220.502 239.258,231.168 241.5,242C 242.515,249.506 242.515,257.339 241.5,265.5C 243.086,274.219 244.919,282.886 247,291.5C 249.488,295.574 251.488,299.907 253,304.5C 254.921,306.963 257.254,308.963 260,310.5C 260.333,310.167 260.667,309.833 261,309.5C 264.225,311.881 267.892,313.214 272,313.5C 273.649,312.102 274.982,312.436 276,314.5C 278.388,313.883 280.721,313.55 283,313.5C 287.795,314.254 292.628,314.754 297.5,315C 298.416,315.278 299.082,315.778 299.5,316.5C 291.122,317.828 282.955,317.828 275,316.5C 266.316,320.79 257.983,320.457 250,315.5C 249.667,315.833 249.333,316.167 249,316.5C 242.353,304.704 237.687,292.037 235,278.5C 234.254,264.853 233.254,251.186 232,237.5C 229.957,231.622 228.29,225.622 227,219.5C 226.355,218.354 225.522,217.354 224.5,216.5C 223.987,206.442 224.653,196.276 226.5,186C 226.421,183.909 226.087,181.742 225.5,179.5C 226.167,178.833 226.833,178.167 227.5,177.5C 225.147,172.615 225.147,167.782 227.5,163C 226.075,158.727 224.742,154.394 223.5,150C 224.155,145.586 223.488,141.253 221.5,137C 221.735,136.127 222.069,135.293 222.5,134.5C 219.276,126.381 218.276,118.214 219.5,110C 217.598,102.649 215.932,95.316 214.5,88C 217.817,87.5017 221.15,87.335 224.5,87.5 Z"/></g>
<g><path style="opacity:1" fill="#9a5b57" d="M 200.5,282.5 C 201.924,284.515 202.59,286.848 202.5,289.5C 201.833,288.5 201.167,287.5 200.5,286.5C 200.5,285.167 200.5,283.833 200.5,282.5 Z"/></g>
<g><path style="opacity:1" fill="#c8a6a5" d="M 200.5,286.5 C 201.167,287.5 201.833,288.5 202.5,289.5C 202.5,290.833 202.5,292.167 202.5,293.5C 201.076,291.485 200.41,289.152 200.5,286.5 Z"/></g>
<g><path style="opacity:1" fill="#965552" d="M 202.5,289.5 C 203.924,291.515 204.59,293.848 204.5,296.5C 203.833,295.5 203.167,294.5 202.5,293.5C 202.5,292.167 202.5,290.833 202.5,289.5 Z"/></g>
<g><path style="opacity:1" fill="#c5a09e" d="M 202.5,293.5 C 203.167,294.5 203.833,295.5 204.5,296.5C 204.5,297.833 204.5,299.167 204.5,300.5C 203.076,298.485 202.41,296.152 202.5,293.5 Z"/></g>
<g><path style="opacity:1" fill="#cbaaa8" d="M 204.5,301.5 C 205.768,303.905 206.435,306.572 206.5,309.5C 204.631,307.365 203.964,304.698 204.5,301.5 Z"/></g>
<g><path style="opacity:1" fill="#cfb0ae" d="M 206.5,309.5 C 207.768,311.905 208.435,314.572 208.5,317.5C 206.631,315.365 205.964,312.698 206.5,309.5 Z"/></g>
<g><path style="opacity:1" fill="#c77d77" d="M 305.5,310.5 C 305.5,313.5 305.5,316.5 305.5,319.5C 295.155,319.534 284.821,319.867 274.5,320.5C 276.631,319.686 278.964,319.186 281.5,319C 289.159,318.5 296.826,318.334 304.5,318.5C 304.194,315.615 304.527,312.948 305.5,310.5 Z"/></g>
<g><path style="opacity:1" fill="#731a15" d="M 252.5,337.5 C 250.918,339.374 248.918,340.707 246.5,341.5C 244.901,341.232 243.568,341.566 242.5,342.5C 226.365,352.685 220.198,367.351 224,386.5C 228.501,399.5 237.001,408.834 249.5,414.5C 246.5,414.5 243.5,414.5 240.5,414.5C 239.232,412.953 237.565,411.953 235.5,411.5C 232.775,410.287 230.441,408.454 228.5,406C 227.552,405.517 226.552,405.351 225.5,405.5C 225.405,402.728 224.071,400.728 221.5,399.5C 217.049,392.349 215.383,384.516 216.5,376C 216.667,371.167 216.833,366.333 217,361.5C 219.203,356.3 222.037,351.633 225.5,347.5C 226.5,347.5 227.5,347.5 228.5,347.5C 230.858,345.471 233.192,343.471 235.5,341.5C 240.456,337.816 246.123,336.482 252.5,337.5 Z"/></g>
<g><path style="opacity:1" fill="#d83125" d="M 277.5,340.5 C 277.833,340.5 278.167,340.5 278.5,340.5C 280.033,342.245 282.033,343.245 284.5,343.5C 286.223,345.218 288.223,346.551 290.5,347.5C 291.5,348.833 292.5,350.167 293.5,351.5C 294.08,353.749 295.413,355.415 297.5,356.5C 297.427,358.027 298.094,359.027 299.5,359.5C 300.338,359.842 300.672,360.508 300.5,361.5C 300.5,362.167 300.5,362.833 300.5,363.5C 300.674,365.861 301.007,368.194 301.5,370.5C 301.5,373.5 301.5,376.5 301.5,379.5C 299.304,379.59 297.137,379.923 295,380.5C 291.574,378.147 287.741,376.98 283.5,377C 281.199,374.22 278.199,372.553 274.5,372C 273.773,370.601 273.273,369.101 273,367.5C 272,367.5 271,367.5 270,367.5C 267.185,361.825 263.685,356.492 259.5,351.5C 258.336,348.505 257.17,345.505 256,342.5C 255.25,341.874 254.416,341.374 253.5,341C 256.549,339.238 259.882,338.404 263.5,338.5C 268.14,339.38 272.806,340.047 277.5,340.5 Z"/></g>
<g><path style="opacity:1" fill="#cd2c21" d="M 252.5,337.5 C 258.842,337.334 265.175,337.5 271.5,338C 273.723,338.566 275.723,339.4 277.5,340.5C 272.806,340.047 268.14,339.38 263.5,338.5C 259.882,338.404 256.549,339.238 253.5,341C 254.416,341.374 255.25,341.874 256,342.5C 257.17,345.505 258.336,348.505 259.5,351.5C 263.685,356.492 267.185,361.825 270,367.5C 271,367.5 272,367.5 273,367.5C 273.273,369.101 273.773,370.601 274.5,372C 278.199,372.553 281.199,374.22 283.5,377C 287.741,376.98 291.574,378.147 295,380.5C 297.137,379.923 299.304,379.59 301.5,379.5C 301.5,376.5 301.5,373.5 301.5,370.5C 302.647,374.646 302.814,378.98 302,383.5C 300.711,385.645 299.878,387.978 299.5,390.5C 298.778,390.918 298.278,391.584 298,392.5C 297.612,391.572 296.945,390.905 296,390.5C 283.255,393.727 272.422,390.394 263.5,380.5C 262.311,379.571 260.978,379.238 259.5,379.5C 253.602,368.561 247.602,357.561 241.5,346.5C 242.882,344.451 244.548,342.785 246.5,341.5C 248.918,340.707 250.918,339.374 252.5,337.5 Z"/></g>
<g><path style="opacity:1" fill="#eb847b" d="M 278.5,340.5 C 280.117,341.038 281.784,341.371 283.5,341.5C 283.833,342.167 284.167,342.833 284.5,343.5C 282.033,343.245 280.033,342.245 278.5,340.5 Z"/></g>
<g><path style="opacity:1" fill="#f5bdb9" d="M 283.5,341.5 C 286.747,342.412 289.08,344.412 290.5,347.5C 288.223,346.551 286.223,345.218 284.5,343.5C 284.167,342.833 283.833,342.167 283.5,341.5 Z"/></g>
<g><path style="opacity:1" fill="#985652" d="M 235.5,341.5 C 233.192,343.471 230.858,345.471 228.5,347.5C 229.612,344.054 231.945,342.054 235.5,341.5 Z"/></g>
<g><path style="opacity:1" fill="#c0281d" d="M 246.5,341.5 C 244.548,342.785 242.882,344.451 241.5,346.5C 247.602,357.561 253.602,368.561 259.5,379.5C 260.978,379.238 262.311,379.571 263.5,380.5C 272.422,390.394 283.255,393.727 296,390.5C 296.945,390.905 297.612,391.572 298,392.5C 298.278,391.584 298.778,390.918 299.5,390.5C 298.385,394.947 296.052,398.613 292.5,401.5C 272.454,401.397 256.954,393.064 246,376.5C 242.828,368.822 239.161,361.489 235,354.5C 234.678,352.311 235.178,350.311 236.5,348.5C 238.833,346.833 240.833,344.833 242.5,342.5C 243.568,341.566 244.901,341.232 246.5,341.5 Z"/></g>
<g><path style="opacity:1" fill="#e87a72" d="M 293.5,351.5 C 295.587,352.585 296.92,354.251 297.5,356.5C 295.413,355.415 294.08,353.749 293.5,351.5 Z"/></g>
<g><path style="opacity:1" fill="#ec928b" d="M 297.5,356.5 C 298.906,356.973 299.573,357.973 299.5,359.5C 298.094,359.027 297.427,358.027 297.5,356.5 Z"/></g>
<g><path style="opacity:1" fill="#f5dad8" d="M 300.5,361.5 C 302.097,362.737 303.263,364.404 304,366.5C 304.667,373.833 304.667,381.167 304,388.5C 302.787,390.925 301.621,393.259 300.5,395.5C 301.49,389.511 302.49,383.511 303.5,377.5C 303.908,372.407 302.908,367.74 300.5,363.5C 300.5,362.833 300.5,362.167 300.5,361.5 Z"/></g>
<g><path style="opacity:1" fill="#b6241a" d="M 236.5,348.5 C 235.178,350.311 234.678,352.311 235,354.5C 239.161,361.489 242.828,368.822 246,376.5C 256.954,393.064 272.454,401.397 292.5,401.5C 292.167,402.167 291.833,402.833 291.5,403.5C 288.313,406.593 284.646,408.927 280.5,410.5C 265.737,407.106 252.904,400.106 242,389.5C 241.667,388.5 241.333,387.5 241,386.5C 240,387.833 239,387.833 238,386.5C 235.801,377.345 232.968,368.345 229.5,359.5C 230.679,355.009 233.013,351.343 236.5,348.5 Z"/></g>
<g><path style="opacity:1" fill="#a41f15" d="M 242.5,342.5 C 240.833,344.833 238.833,346.833 236.5,348.5C 233.013,351.343 230.679,355.009 229.5,359.5C 232.968,368.345 235.801,377.345 238,386.5C 239,387.833 240,387.833 241,386.5C 241.333,387.5 241.667,388.5 242,389.5C 252.904,400.106 265.737,407.106 280.5,410.5C 280.389,411.117 280.056,411.617 279.5,412C 269.642,414.252 259.642,415.085 249.5,414.5C 237.001,408.834 228.501,399.5 224,386.5C 220.198,367.351 226.365,352.685 242.5,342.5 Z"/></g>
<g><path style="opacity:1" fill="#d57971" d="M 300.5,363.5 C 302.908,367.74 303.908,372.407 303.5,377.5C 302.49,383.511 301.49,389.511 300.5,395.5C 298.181,397.725 296.348,400.392 295,403.5C 294.184,404.823 293.017,405.489 291.5,405.5C 291.5,404.833 291.5,404.167 291.5,403.5C 291.833,402.833 292.167,402.167 292.5,401.5C 296.052,398.613 298.385,394.947 299.5,390.5C 299.878,387.978 300.711,385.645 302,383.5C 302.814,378.98 302.647,374.646 301.5,370.5C 301.007,368.194 300.674,365.861 300.5,363.5 Z"/></g>
<g><path style="opacity:1" fill="#d2b6b5" d="M 235.5,411.5 C 237.565,411.953 239.232,412.953 240.5,414.5C 240.5,414.833 240.5,415.167 240.5,415.5C 238.449,414.513 236.782,413.18 235.5,411.5 Z"/></g>
<g><path style="opacity:1" fill="#ab4a43" d="M 291.5,403.5 C 291.5,404.167 291.5,404.833 291.5,405.5C 289.202,407.962 286.702,410.295 284,412.5C 282.189,413.078 280.355,413.578 278.5,414C 278.833,414.333 279.167,414.667 279.5,415C 266.504,415.5 253.504,415.667 240.5,415.5C 240.5,415.167 240.5,414.833 240.5,414.5C 243.5,414.5 246.5,414.5 249.5,414.5C 259.642,415.085 269.642,414.252 279.5,412C 280.056,411.617 280.389,411.117 280.5,410.5C 284.646,408.927 288.313,406.593 291.5,403.5 Z"/></g>
</svg>
