<?xml version="1.0" encoding="UTF-8"?>
<!DOCTYPE svg PUBLIC "-//W3C//DTD SVG 1.1//EN" "http://www.w3.org/Graphics/SVG/1.1/DTD/svg11.dtd">
<svg xmlns="http://www.w3.org/2000/svg" version="1.1" width="216px" height="216px" style="shape-rendering:geometricPrecision; text-rendering:geometricPrecision; image-rendering:optimizeQuality; fill-rule:evenodd; clip-rule:evenodd" xmlns:xlink="http://www.w3.org/1999/xlink">
<g><path style="opacity:0.008" fill="#000000" d="M -0.5,-0.5 C 1.16667,-0.5 2.83333,-0.5 4.5,-0.5C 4.83333,2.16667 5.16667,2.16667 5.5,-0.5C 5.83333,-0.5 6.16667,-0.5 6.5,-0.5C 6.83333,0.833333 7.16667,0.833333 7.5,-0.5C 16.8333,-0.5 26.1667,-0.5 35.5,-0.5C 35.8333,2.16667 36.1667,2.16667 36.5,-0.5C 37.5,-0.5 38.5,-0.5 39.5,-0.5C 39.8333,2.16667 40.1667,2.16667 40.5,-0.5C 41.8333,-0.5 43.1667,-0.5 44.5,-0.5C 43.537,0.3635 43.537,1.03017 44.5,1.5C 45.2975,1.04311 45.6309,0.376442 45.5,-0.5C 48.1667,-0.5 50.8333,-0.5 53.5,-0.5C 54.1667,2.16667 54.8333,2.16667 55.5,-0.5C 57.5,-0.5 59.5,-0.5 61.5,-0.5C 61.5,0.833333 62.1667,1.5 63.5,1.5C 63.5,0.833333 63.5,0.166667 63.5,-0.5C 90.5,-0.5 117.5,-0.5 144.5,-0.5C 144.833,0.833333 145.167,0.833333 145.5,-0.5C 149.5,-0.5 153.5,-0.5 157.5,-0.5C 158.167,0.833333 158.833,0.833333 159.5,-0.5C 163.5,-0.5 167.5,-0.5 171.5,-0.5C 171.833,0.833333 172.167,0.833333 172.5,-0.5C 181.167,-0.5 189.833,-0.5 198.5,-0.5C 198.833,0.833333 199.167,0.833333 199.5,-0.5C 203.5,-0.5 207.5,-0.5 211.5,-0.5C 212.167,0.833333 212.833,0.833333 213.5,-0.5C 214.167,-0.5 214.833,-0.5 215.5,-0.5C 215.5,0.5 215.5,1.5 215.5,2.5C 214.167,2.83333 214.167,3.16667 215.5,3.5C 215.5,46.1667 215.5,88.8333 215.5,131.5C 214.167,132.167 214.167,132.833 215.5,133.5C 215.5,137.5 215.5,141.5 215.5,145.5C 213.067,146.548 213.067,147.214 215.5,147.5C 215.5,151.5 215.5,155.5 215.5,159.5C 212.833,160.167 212.833,160.833 215.5,161.5C 215.5,165.167 215.5,168.833 215.5,172.5C 213.067,173.548 213.067,174.214 215.5,174.5C 215.5,178.167 215.5,181.833 215.5,185.5C 214.167,186.167 214.167,186.833 215.5,187.5C 215.5,191.5 215.5,195.5 215.5,199.5C 213.067,200.548 213.067,201.214 215.5,201.5C 215.5,205.5 215.5,209.5 215.5,213.5C 214.167,213.5 213.5,214.167 213.5,215.5C 210.5,215.5 207.5,215.5 204.5,215.5C 204.167,212.833 203.833,212.833 203.5,215.5C 202.833,215.5 202.167,215.5 201.5,215.5C 201.214,213.067 200.548,213.067 199.5,215.5C 196.833,215.5 194.167,215.5 191.5,215.5C 191.167,212.833 190.833,212.833 190.5,215.5C 189.5,215.5 188.5,215.5 187.5,215.5C 186.833,214.167 186.167,214.167 185.5,215.5C 181.833,215.5 178.167,215.5 174.5,215.5C 174.214,213.067 173.548,213.067 172.5,215.5C 168.833,215.5 165.167,215.5 161.5,215.5C 160.833,212.833 160.167,212.833 159.5,215.5C 156.5,215.5 153.5,215.5 150.5,215.5C 150.167,212.833 149.833,212.833 149.5,215.5C 148.833,215.5 148.167,215.5 147.5,215.5C 147.214,213.067 146.548,213.067 145.5,215.5C 142.833,215.5 140.167,215.5 137.5,215.5C 137.167,212.833 136.833,212.833 136.5,215.5C 135.5,215.5 134.5,215.5 133.5,215.5C 132.833,214.167 132.167,214.167 131.5,215.5C 87.5,215.5 43.5,215.5 -0.5,215.5C -0.5,164.833 -0.5,114.167 -0.5,63.5C 1.23846,61.8805 1.73846,59.8805 1,57.5C 0.721579,58.4158 0.221579,59.0825 -0.5,59.5C -0.5,58.1667 -0.5,56.8333 -0.5,55.5C 2.16667,54.8333 2.16667,54.1667 -0.5,53.5C -0.5,52.8333 -0.5,52.1667 -0.5,51.5C 0.376442,51.6309 1.04311,51.2975 1.5,50.5C 1.03017,49.537 0.3635,49.537 -0.5,50.5C -0.5,47.1667 -0.5,43.8333 -0.5,40.5C 2.16667,40.1667 2.16667,39.8333 -0.5,39.5C -0.5,28.8333 -0.5,18.1667 -0.5,7.5C 0.833333,7.16667 0.833333,6.83333 -0.5,6.5C -0.5,6.16667 -0.5,5.83333 -0.5,5.5C 2.16667,4.83333 2.16667,4.16667 -0.5,3.5C -0.5,2.16667 -0.5,0.833333 -0.5,-0.5 Z M 63.5,1.5 C 65.337,1.63945 65.6704,2.30612 64.5,3.5C 63.7025,3.04311 63.3691,2.37644 63.5,1.5 Z M 107.5,1.5 C 109.337,1.63945 109.67,2.30612 108.5,3.5C 107.702,3.04311 107.369,2.37644 107.5,1.5 Z M 119.5,1.5 C 120.978,1.23798 122.311,1.57131 123.5,2.5C 122.833,2.83333 122.167,3.16667 121.5,3.5C 120.287,3.25284 119.62,2.58617 119.5,1.5 Z M 2.5,65.5 C 3.08419,68.2084 3.08419,70.8751 2.5,73.5C 1.55075,70.8742 1.55075,68.2075 2.5,65.5 Z M 1.5,79.5 C 2.47197,78.2486 3.13864,78.582 3.5,80.5C 3.12044,82.4743 2.78711,84.4743 2.5,86.5C 1.86702,84.0045 1.53369,81.6712 1.5,79.5 Z M 2.5,95.5 C 2.09409,93.8908 2.09409,92.5575 2.5,91.5C 3.78202,92.9584 3.78202,94.2918 2.5,95.5 Z M 2.5,95.5 C 3.2916,96.9669 3.2916,98.3002 2.5,99.5C 1.21798,98.0416 1.21798,96.7082 2.5,95.5 Z M 2.5,105.5 C 3.70901,107.435 3.54234,109.435 2,111.5C 1.50987,109.455 1.67653,107.455 2.5,105.5 Z M 1.5,119.5 C 2.69459,119.866 3.36126,120.699 3.5,122C 2.68712,123.342 2.35379,124.508 2.5,125.5C 1.53443,123.604 1.2011,121.604 1.5,119.5 Z M 174.5,133.5 C 174.167,133.5 173.833,133.5 173.5,133.5C 173.369,132.624 173.702,131.957 174.5,131.5C 175.463,131.97 175.463,132.637 174.5,133.5 Z M 187.5,157.5 C 188.289,157.783 188.956,158.283 189.5,159C 188.184,159.528 187.517,159.028 187.5,157.5 Z M 159.5,159.5 C 161.337,159.639 161.67,160.306 160.5,161.5C 159.702,161.043 159.369,160.376 159.5,159.5 Z M 174.5,159.5 C 174.291,160.922 173.791,162.255 173,163.5C 172.227,161.648 172.727,160.314 174.5,159.5 Z M 201.5,159.5 C 201.483,161.028 200.816,161.528 199.5,161C 200.044,160.283 200.711,159.783 201.5,159.5 Z M 185.5,160.5 C 187.646,160.696 187.812,161.696 186,163.5C 185.517,162.552 185.351,161.552 185.5,160.5 Z M 133.5,171.5 C 133.833,171.5 134.167,171.5 134.5,171.5C 135.757,172.623 135.424,173.289 133.5,173.5C 133.5,172.833 133.5,172.167 133.5,171.5 Z M 149.5,173.5 C 148.833,173.5 148.167,173.5 147.5,173.5C 147.786,171.067 148.452,171.067 149.5,173.5 Z M 174.5,174.5 C 173.778,174.918 173.278,175.584 173,176.5C 172.278,174.339 172.945,172.672 175,171.5C 175.47,172.577 175.303,173.577 174.5,174.5 Z M 187.5,173.5 C 187.639,171.663 188.306,171.33 189.5,172.5C 189.043,173.298 188.376,173.631 187.5,173.5 Z M 203.5,173.5 C 202.833,173.5 202.167,173.5 201.5,173.5C 201.786,171.067 202.452,171.067 203.5,173.5 Z M 160.5,172.5 C 162.975,172.747 162.975,173.413 160.5,174.5C 159.537,174.03 159.537,173.363 160.5,172.5 Z M 133.5,173.5 C 133.5,173.833 133.5,174.167 133.5,174.5C 132.778,174.918 132.278,175.584 132,176.5C 131.275,174.843 131.775,173.843 133.5,173.5 Z M 187.5,173.5 C 187.5,173.833 187.5,174.167 187.5,174.5C 186.778,174.918 186.278,175.584 186,176.5C 185.275,174.843 185.775,173.843 187.5,173.5 Z M 160.5,185.5 C 163.001,185.511 163.168,186.178 161,187.5C 160.536,186.906 160.369,186.239 160.5,185.5 Z M 174.5,187.5 C 174.167,187.5 173.833,187.5 173.5,187.5C 173.369,186.624 173.702,185.957 174.5,185.5C 175.463,185.97 175.463,186.637 174.5,187.5 Z M 160.5,199.5 C 161.773,200.077 161.773,200.743 160.5,201.5C 159.537,201.03 159.537,200.363 160.5,199.5 Z M 133.5,211.5 C 134.289,211.783 134.956,212.283 135.5,213C 134.184,213.528 133.517,213.028 133.5,211.5 Z M 187.5,211.5 C 188.289,211.783 188.956,212.283 189.5,213C 188.184,213.528 187.517,213.028 187.5,211.5 Z"/></g>
<g><path style="opacity:0.986" fill="#040839" d="M 123.5,40.5 C 132.026,43.0092 140.026,46.6759 147.5,51.5C 147.842,52.3382 148.508,52.6716 149.5,52.5C 177.351,77.0139 183.684,106.347 168.5,140.5C 160.342,154.325 149.009,164.658 134.5,171.5C 134.167,171.5 133.833,171.5 133.5,171.5C 104.675,181.567 79.1748,176.234 57,155.5C 39.8706,136.556 34.204,114.556 40,89.5C 41.3356,85.4125 42.8356,81.4125 44.5,77.5C 54.9783,58.3318 70.6449,45.9985 91.5,40.5C 102.154,39.1904 112.821,39.1904 123.5,40.5 Z"/></g>
<g><path style="opacity:1" fill="#dee1e6" d="M 159.5,129.5 C 158.732,130.263 158.232,131.263 158,132.5C 157.601,132.272 157.435,131.938 157.5,131.5C 141.936,107.386 126.102,83.3856 110,59.5C 109.167,77.8424 109.334,96.1758 110.5,114.5C 120.322,118.027 129.988,121.694 139.5,125.5C 138.167,125.5 137.5,126.167 137.5,127.5C 128.591,124.186 119.591,121.019 110.5,118C 108.866,117.506 107.199,117.34 105.5,117.5C 105.783,116.711 106.283,116.044 107,115.5C 107.829,95.9956 107.662,76.6623 106.5,57.5C 105.5,57.8333 104.833,58.5 104.5,59.5C 103.488,60.8717 102.488,62.205 101.5,63.5C 101.5,62.1667 100.833,61.5 99.5,61.5C 101.837,58.3191 104.004,54.9858 106,51.5C 107,50.1667 108,50.1667 109,51.5C 126.104,77.3864 142.937,103.386 159.5,129.5 Z"/></g>
<g><path style="opacity:1" fill="#f4ca4d" d="M 106.5,57.5 C 106.83,76.674 106.497,95.674 105.5,114.5C 105.83,95.9924 105.497,77.6591 104.5,59.5C 104.833,58.5 105.5,57.8333 106.5,57.5 Z"/></g>
<g><path style="opacity:1" fill="#f1b813" d="M 104.5,59.5 C 105.497,77.6591 105.83,95.9924 105.5,114.5C 90.0655,119.86 74.7321,125.527 59.5,131.5C 57.2043,131.196 56.871,130.196 58.5,128.5C 73.0787,107.013 87.4121,85.3465 101.5,63.5C 102.488,62.205 103.488,60.8717 104.5,59.5 Z"/></g>
<g><path style="opacity:1" fill="#092d64" d="M 157.5,131.5 C 151.49,129.493 145.49,127.493 139.5,125.5C 129.988,121.694 120.322,118.027 110.5,114.5C 109.334,96.1758 109.167,77.8424 110,59.5C 126.102,83.3856 141.936,107.386 157.5,131.5 Z"/></g>
<g><path style="opacity:1" fill="#eeebe6" d="M 99.5,61.5 C 100.833,61.5 101.5,62.1667 101.5,63.5C 87.4121,85.3465 73.0787,107.013 58.5,128.5C 57.8902,127.609 57.5569,126.609 57.5,125.5C 71.0808,103.914 85.0808,82.5805 99.5,61.5 Z"/></g>
<g><path style="opacity:1" fill="#0d0f0d" d="M 105.5,117.5 C 107.199,117.34 108.866,117.506 110.5,118C 119.591,121.019 128.591,124.186 137.5,127.5C 141.5,128.833 145.5,130.167 149.5,131.5C 121.833,132.833 94.1667,132.833 66.5,131.5C 79.5934,127.121 92.5934,122.455 105.5,117.5 Z"/></g>
<g><path style="opacity:1" fill="#f1ede0" d="M 106.5,57.5 C 107.662,76.6623 107.829,95.9956 107,115.5C 106.283,116.044 105.783,116.711 105.5,117.5C 92.5934,122.455 79.5934,127.121 66.5,131.5C 64.8212,131.285 63.8212,131.952 63.5,133.5C 62.5326,132.194 61.1993,131.527 59.5,131.5C 74.7321,125.527 90.0655,119.86 105.5,114.5C 106.497,95.674 106.83,76.674 106.5,57.5 Z"/></g>
<g><path style="opacity:1" fill="#f6f6f7" d="M 57.5,125.5 C 57.5569,126.609 57.8902,127.609 58.5,128.5C 56.871,130.196 57.2043,131.196 59.5,131.5C 61.1993,131.527 62.5326,132.194 63.5,133.5C 93.5019,133.667 123.502,133.5 153.5,133C 152.255,132.209 150.922,131.709 149.5,131.5C 145.5,130.167 141.5,128.833 137.5,127.5C 137.5,126.167 138.167,125.5 139.5,125.5C 145.49,127.493 151.49,129.493 157.5,131.5C 157.435,131.938 157.601,132.272 158,132.5C 158.232,131.263 158.732,130.263 159.5,129.5C 161.326,131.147 162.66,133.147 163.5,135.5C 125.833,136.833 88.1667,136.833 50.5,135.5C 52.3535,131.779 54.6869,128.446 57.5,125.5 Z"/></g>
<g><path style="opacity:1" fill="#434643" d="M 66.5,131.5 C 94.1667,132.833 121.833,132.833 149.5,131.5C 150.922,131.709 152.255,132.209 153.5,133C 123.502,133.5 93.5019,133.667 63.5,133.5C 63.8212,131.952 64.8212,131.285 66.5,131.5 Z"/></g>
<g><path style="opacity:1" fill="#abacbc" d="M 50.5,135.5 C 88.1667,136.833 125.833,136.833 163.5,135.5C 164.043,135.56 164.376,135.893 164.5,136.5C 126.167,137.833 87.8333,137.833 49.5,136.5C 49.6236,135.893 49.9569,135.56 50.5,135.5 Z"/></g>
</svg>
