<?xml version="1.0" encoding="UTF-8"?>
<!DOCTYPE svg PUBLIC "-//W3C//DTD SVG 1.1//EN" "http://www.w3.org/Graphics/SVG/1.1/DTD/svg11.dtd">
<svg xmlns="http://www.w3.org/2000/svg" version="1.1" width="162px" height="162px" style="shape-rendering:geometricPrecision; text-rendering:geometricPrecision; image-rendering:optimizeQuality; fill-rule:evenodd; clip-rule:evenodd" xmlns:xlink="http://www.w3.org/1999/xlink">
<g><path style="opacity:0.009" fill="#000000" d="M -0.5,-0.5 C 13.1667,-0.5 26.8333,-0.5 40.5,-0.5C 40.8333,0.833333 41.1667,0.833333 41.5,-0.5C 43.1667,-0.5 44.8333,-0.5 46.5,-0.5C 46.8333,0.833333 47.1667,0.833333 47.5,-0.5C 85.5,-0.5 123.5,-0.5 161.5,-0.5C 161.5,39.5 161.5,79.5 161.5,119.5C 160.167,119.833 160.167,120.167 161.5,120.5C 161.5,133.833 161.5,147.167 161.5,160.5C 160.833,160.5 160.5,160.833 160.5,161.5C 106.833,161.5 53.1667,161.5 -0.5,161.5C -0.5,122.833 -0.5,84.1667 -0.5,45.5C 0.833333,45.1667 0.833333,44.8333 -0.5,44.5C -0.5,43.5 -0.5,42.5 -0.5,41.5C 0.833333,41.1667 0.833333,40.8333 -0.5,40.5C -0.5,28.1667 -0.5,15.8333 -0.5,3.5C 0.833333,3.16667 0.833333,2.83333 -0.5,2.5C -0.5,1.5 -0.5,0.5 -0.5,-0.5 Z"/></g>
<g><path style="opacity:0.994" fill="#040939" d="M 101.5,128.5 C 72.9999,137.72 50.4999,130.054 34,105.5C 21.406,74.5161 29.406,50.5161 58,33.5C 84.5571,23.6965 106.557,29.6965 124,51.5C 137.91,78.1033 134.077,101.603 112.5,122C 108.694,124.085 105.027,126.251 101.5,128.5 Z"/></g>
<g><path style="opacity:1" fill="#f1b918" d="M 78.5,44.5 C 79.4957,57.9898 79.829,71.6565 79.5,85.5C 79.1583,86.3382 78.4916,86.6716 77.5,86.5C 66.2832,90.1257 55.2832,94.1257 44.5,98.5C 43.7611,98.631 43.0944,98.4643 42.5,98C 43.3805,97.2917 44.0472,96.4584 44.5,95.5C 55.5984,78.2911 66.9317,61.2911 78.5,44.5 Z"/></g>
<g><path style="opacity:1" fill="#0a2d64" d="M 83.5,46.5 C 94.9324,63.7109 106.599,80.7109 118.5,97.5C 118.158,98.3382 117.492,98.6716 116.5,98.5C 105.114,94.4792 93.7811,90.1458 82.5,85.5C 82.1712,72.3226 82.5045,59.3226 83.5,46.5 Z"/></g>
<g><path style="opacity:1" fill="#ddddde" d="M 85.5,45.5 C 84.8333,45.8333 84.1667,46.1667 83.5,46.5C 83.6309,45.6236 83.2975,44.9569 82.5,44.5C 81.1745,58.3276 81.1745,71.9942 82.5,85.5C 93.7811,90.1458 105.114,94.4792 116.5,98.5C 115.833,99.1667 115.167,99.8333 114.5,100.5C 114.672,99.5084 114.338,98.8417 113.5,98.5C 101.431,94.8083 89.4309,91.1417 77.5,87.5C 77.5,87.1667 77.5,86.8333 77.5,86.5C 78.4916,86.6716 79.1583,86.3382 79.5,85.5C 80.8257,71.661 80.8257,57.661 79.5,43.5C 78.8933,43.6236 78.56,43.9569 78.5,44.5C 66.9317,61.2911 55.5984,78.2911 44.5,95.5C 43.5,95.5 42.5,95.5 41.5,95.5C 53.823,76.8619 66.1564,58.1952 78.5,39.5C 79.365,38.4173 80.365,38.2506 81.5,39C 83.2206,40.9438 84.554,43.1105 85.5,45.5 Z"/></g>
<g><path style="opacity:1" fill="#f9e8b5" d="M 78.5,44.5 C 78.56,43.9569 78.8933,43.6236 79.5,43.5C 80.8257,57.661 80.8257,71.661 79.5,85.5C 79.829,71.6565 79.4957,57.9898 78.5,44.5 Z"/></g>
<g><path style="opacity:1" fill="#5e779b" d="M 83.5,46.5 C 82.5045,59.3226 82.1712,72.3226 82.5,85.5C 81.1745,71.9942 81.1745,58.3276 82.5,44.5C 83.2975,44.9569 83.6309,45.6236 83.5,46.5 Z"/></g>
<g><path style="opacity:1" fill="#ccd0db" d="M 85.5,45.5 C 97.0683,62.2911 108.402,79.2911 119.5,96.5C 118.833,96.5 118.5,96.8333 118.5,97.5C 106.599,80.7109 94.9324,63.7109 83.5,46.5C 84.1667,46.1667 84.8333,45.8333 85.5,45.5 Z"/></g>
<g><path style="opacity:1" fill="#111311" d="M 77.5,87.5 C 89.4309,91.1417 101.431,94.8083 113.5,98.5C 91.8333,99.8333 70.1667,99.8333 48.5,98.5C 58.5487,95.5822 68.2153,91.9156 77.5,87.5 Z"/></g>
<g><path style="opacity:1" fill="#ece6d6" d="M 77.5,86.5 C 77.5,86.8333 77.5,87.1667 77.5,87.5C 68.2153,91.9156 58.5487,95.5822 48.5,98.5C 48.1667,98.5 47.8333,98.5 47.5,98.5C 46.5,98.5 45.5,98.5 44.5,98.5C 55.2832,94.1257 66.2832,90.1257 77.5,86.5 Z"/></g>
<g><path style="opacity:1" fill="#f3f3f4" d="M 41.5,95.5 C 42.5,95.5 43.5,95.5 44.5,95.5C 44.0472,96.4584 43.3805,97.2917 42.5,98C 43.0944,98.4643 43.7611,98.631 44.5,98.5C 45.5,98.5 46.5,98.5 47.5,98.5C 69.475,100.489 91.8083,101.156 114.5,100.5C 115.167,99.8333 115.833,99.1667 116.5,98.5C 117.492,98.6716 118.158,98.3382 118.5,97.5C 118.5,96.8333 118.833,96.5 119.5,96.5C 120.925,97.922 121.925,99.5887 122.5,101.5C 94.3382,102.498 66.0049,102.831 37.5,102.5C 38.5686,100.031 39.9019,97.6979 41.5,95.5 Z"/></g>
<g><path style="opacity:1" fill="#9c9d9c" d="M 47.5,98.5 C 47.8333,98.5 48.1667,98.5 48.5,98.5C 70.1667,99.8333 91.8333,99.8333 113.5,98.5C 114.338,98.8417 114.672,99.5084 114.5,100.5C 91.8083,101.156 69.475,100.489 47.5,98.5 Z"/></g>
<g><path style="opacity:1" fill="#595b7c" d="M 122.5,101.5 C 123.043,101.56 123.376,101.893 123.5,102.5C 94.6695,103.83 66.0028,103.83 37.5,102.5C 66.0049,102.831 94.3382,102.498 122.5,101.5 Z"/></g>
</svg>
