<?xml version="1.0" encoding="UTF-8"?>
<!DOCTYPE svg PUBLIC "-//W3C//DTD SVG 1.1//EN" "http://www.w3.org/Graphics/SVG/1.1/DTD/svg11.dtd">
<svg xmlns="http://www.w3.org/2000/svg" version="1.1" width="96px" height="96px" style="shape-rendering:geometricPrecision; text-rendering:geometricPrecision; image-rendering:optimizeQuality; fill-rule:evenodd; clip-rule:evenodd" xmlns:xlink="http://www.w3.org/1999/xlink">
<g><path style="opacity:0.008" fill="#010101" d="M -0.5,-0.5 C 31.5,-0.5 63.5,-0.5 95.5,-0.5C 95.5,31.5 95.5,63.5 95.5,95.5C 63.5,95.5 31.5,95.5 -0.5,95.5C -0.5,63.5 -0.5,31.5 -0.5,-0.5 Z"/></g>
<g><path style="opacity:0.99" fill="#050a3a" d="M 91.5,39.5 C 93.0362,65.1109 81.7029,81.9443 57.5,90C 30.805,93.7925 13.1383,82.9592 4.5,57.5C 3.83537,51.523 3.50204,45.523 3.5,39.5C 3.5,38.5 3.5,37.5 3.5,36.5C 4.67373,35.4863 5.3404,34.153 5.5,32.5C 6.42892,27.9755 8.42892,23.9755 11.5,20.5C 15.8184,15.6947 20.4851,11.3614 25.5,7.5C 38.3034,2.82735 51.3034,2.32735 64.5,6C 79.2137,12.5484 88.2137,23.715 91.5,39.5 Z"/></g>
<g><path style="opacity:1" fill="#f9e3a4" d="M 45.5,17.5 C 45.56,16.9569 45.8933,16.6236 46.5,16.5C 47.4989,28.1477 47.8322,39.8143 47.5,51.5C 47.1667,51.5 46.8333,51.5 46.5,51.5C 46.8281,39.9877 46.4948,28.6544 45.5,17.5 Z"/></g>
<g><path style="opacity:1" fill="#f1b817" d="M 45.5,17.5 C 46.4948,28.6544 46.8281,39.9877 46.5,51.5C 38.2378,54.5368 29.9044,57.7034 21.5,61C 20.0563,61.7805 18.723,61.6139 17.5,60.5C 26.8856,46.1314 36.2189,31.798 45.5,17.5 Z"/></g>
<g><path style="opacity:1" fill="#0a2d65" d="M 50.5,20.5 C 59.4899,33.8046 68.4899,47.138 77.5,60.5C 77,60.8333 76.5,61.1667 76,61.5C 68.5672,58.6016 61.0672,55.9349 53.5,53.5C 51.847,53.3404 50.5137,52.6737 49.5,51.5C 49.1724,40.9865 49.5058,30.6532 50.5,20.5 Z"/></g>
<g><path style="opacity:0.008" fill="#8c8d8f" d="M 5.5,32.5 C 5.3404,34.153 4.67373,35.4863 3.5,36.5C 3.22911,34.6203 3.89578,33.287 5.5,32.5 Z"/></g>
<g><path style="opacity:1" fill="#c7ccd6" d="M 79.5,60.5 C 78.3406,62.2503 76.674,63.2503 74.5,63.5C 66.9011,60.3009 59.2344,57.3009 51.5,54.5C 52.4916,54.6716 53.1583,54.3382 53.5,53.5C 61.0672,55.9349 68.5672,58.6016 76,61.5C 76.5,61.1667 77,60.8333 77.5,60.5C 68.4899,47.138 59.4899,33.8046 50.5,20.5C 50.2172,19.7109 49.7172,19.0442 49,18.5C 48.5002,29.495 48.3335,40.495 48.5,51.5C 48.1667,51.5 47.8333,51.5 47.5,51.5C 47.8322,39.8143 47.4989,28.1477 46.5,16.5C 45.8933,16.6236 45.56,16.9569 45.5,17.5C 44.8333,17.5 44.1667,17.5 43.5,17.5C 44.6138,16.1147 45.6138,14.6147 46.5,13C 47.4491,12.3828 48.2825,12.5494 49,13.5C 58.6791,29.5359 68.8457,45.2025 79.5,60.5 Z"/></g>
<g><path style="opacity:1" fill="#395883" d="M 50.5,20.5 C 49.5058,30.6532 49.1724,40.9865 49.5,51.5C 49.1667,51.5 48.8333,51.5 48.5,51.5C 48.3335,40.495 48.5002,29.495 49,18.5C 49.7172,19.0442 50.2172,19.7109 50.5,20.5 Z"/></g>
<g><path style="opacity:1" fill="#e2ded6" d="M 43.5,17.5 C 44.1667,17.5 44.8333,17.5 45.5,17.5C 36.2189,31.798 26.8856,46.1314 17.5,60.5C 18.723,61.6139 20.0563,61.7805 21.5,61C 29.9044,57.7034 38.2378,54.5368 46.5,51.5C 46.8333,51.5 47.1667,51.5 47.5,51.5C 47.8333,51.5 48.1667,51.5 48.5,51.5C 48.8333,51.5 49.1667,51.5 49.5,51.5C 50.5137,52.6737 51.847,53.3404 53.5,53.5C 53.1583,54.3382 52.4916,54.6716 51.5,54.5C 49.5454,53.6765 47.5454,53.5099 45.5,54C 36.8578,56.6668 28.5245,59.8335 20.5,63.5C 18.283,62.6314 15.9496,62.298 13.5,62.5C 23.5,47.5 33.5,32.5 43.5,17.5 Z"/></g>
<g><path style="opacity:1" fill="#131512" d="M 51.5,54.5 C 59.2344,57.3009 66.9011,60.3009 74.5,63.5C 56.5,63.5 38.5,63.5 20.5,63.5C 28.5245,59.8335 36.8578,56.6668 45.5,54C 47.5454,53.5099 49.5454,53.6765 51.5,54.5 Z"/></g>
<g><path style="opacity:0.282" fill="#666671" d="M 3.5,39.5 C 3.50204,45.523 3.83537,51.523 4.5,57.5C 4.16667,57.5 3.83333,57.5 3.5,57.5C 1.96916,52.7498 1.30249,47.7498 1.5,42.5C 2.16667,41.5 2.83333,40.5 3.5,39.5 Z"/></g>
<g><path style="opacity:0.157" fill="#929297" d="M 91.5,39.5 C 95.1712,67.6123 83.1712,85.4456 55.5,93C 35.1931,95.677 19.3598,88.5103 8,71.5C 5.88496,67.0429 4.38496,62.3762 3.5,57.5C 3.83333,57.5 4.16667,57.5 4.5,57.5C 13.1383,82.9592 30.805,93.7925 57.5,90C 81.7029,81.9443 93.0362,65.1109 91.5,39.5 Z"/></g>
<g><path style="opacity:1" fill="#42456a" d="M 12.5,64.5 C 35.6607,65.4975 58.994,65.8309 82.5,65.5C 58.9966,66.8288 35.3299,66.8288 11.5,65.5C 11.6236,64.8933 11.9569,64.56 12.5,64.5 Z"/></g>
<g><path style="opacity:1" fill="#f8f9f9" d="M 79.5,60.5 C 80.7515,62.0009 81.7515,63.6675 82.5,65.5C 58.994,65.8309 35.6607,65.4975 12.5,64.5C 12.8333,63.8333 13.1667,63.1667 13.5,62.5C 15.9496,62.298 18.283,62.6314 20.5,63.5C 38.5,63.5 56.5,63.5 74.5,63.5C 76.674,63.2503 78.3406,62.2503 79.5,60.5 Z"/></g>
</svg>
