<?xml version="1.0" encoding="UTF-8"?>
<!DOCTYPE svg PUBLIC "-//W3C//DTD SVG 1.1//EN" "http://www.w3.org/Graphics/SVG/1.1/DTD/svg11.dtd">
<svg xmlns="http://www.w3.org/2000/svg" version="1.1" width="144px" height="144px" style="shape-rendering:geometricPrecision; text-rendering:geometricPrecision; image-rendering:optimizeQuality; fill-rule:evenodd; clip-rule:evenodd" xmlns:xlink="http://www.w3.org/1999/xlink">
<g><path style="opacity:0.008" fill="#000000" d="M -0.5,-0.5 C -0.166667,-0.5 0.166667,-0.5 0.5,-0.5C 0.5,-0.166667 0.5,0.166667 0.5,0.5C 0.166667,0.166667 -0.166667,-0.166667 -0.5,-0.5 Z"/></g>
<g><path style="opacity:0.008" fill="#000000" d="M 1.5,-0.5 C 3.5,-0.5 5.5,-0.5 7.5,-0.5C 6.73747,0.26791 5.73747,0.76791 4.5,1C 6.46278,1.84421 7.79611,1.34421 8.5,-0.5C 18.5,-0.5 28.5,-0.5 38.5,-0.5C 37.537,0.3635 37.537,1.03017 38.5,1.5C 39.2975,1.04311 39.6309,0.376442 39.5,-0.5C 40.8333,-0.5 42.1667,-0.5 43.5,-0.5C 43.3691,0.376442 43.7025,1.04311 44.5,1.5C 45.463,1.03017 45.463,0.3635 44.5,-0.5C 45.5,-0.5 46.5,-0.5 47.5,-0.5C 47.3893,0.117425 47.056,0.617425 46.5,1C 50.6667,1.16667 54.8333,1.33333 59,1.5C 63.5572,1.49147 67.7238,0.824798 71.5,-0.5C 72.1667,-0.5 72.8333,-0.5 73.5,-0.5C 73.8333,2.16667 74.1667,2.16667 74.5,-0.5C 74.8333,-0.5 75.1667,-0.5 75.5,-0.5C 75.8333,2.16667 76.1667,2.16667 76.5,-0.5C 76.8333,-0.5 77.1667,-0.5 77.5,-0.5C 77.8333,2.16667 78.1667,2.16667 78.5,-0.5C 79.8333,-0.5 81.1667,-0.5 82.5,-0.5C 82.8333,2.16667 83.1667,2.16667 83.5,-0.5C 83.8333,-0.5 84.1667,-0.5 84.5,-0.5C 84.8333,2.16667 85.1667,2.16667 85.5,-0.5C 85.8333,-0.5 86.1667,-0.5 86.5,-0.5C 86.8333,2.16667 87.1667,2.16667 87.5,-0.5C 88.8333,-0.5 90.1667,-0.5 91.5,-0.5C 91.8333,2.16667 92.1667,2.16667 92.5,-0.5C 92.8333,-0.5 93.1667,-0.5 93.5,-0.5C 93.8333,2.16667 94.1667,2.16667 94.5,-0.5C 94.8333,-0.5 95.1667,-0.5 95.5,-0.5C 95.8333,0.833333 96.1667,0.833333 96.5,-0.5C 97.8333,-0.5 99.1667,-0.5 100.5,-0.5C 100.833,2.16667 101.167,2.16667 101.5,-0.5C 102.5,-0.5 103.5,-0.5 104.5,-0.5C 104.833,0.833333 105.167,0.833333 105.5,-0.5C 106.833,-0.5 108.167,-0.5 109.5,-0.5C 109.833,2.16667 110.167,2.16667 110.5,-0.5C 111.5,-0.5 112.5,-0.5 113.5,-0.5C 113.833,0.833333 114.167,0.833333 114.5,-0.5C 115.833,-0.5 117.167,-0.5 118.5,-0.5C 118.833,2.16667 119.167,2.16667 119.5,-0.5C 120.5,-0.5 121.5,-0.5 122.5,-0.5C 122.833,0.833333 123.167,0.833333 123.5,-0.5C 124.833,-0.5 126.167,-0.5 127.5,-0.5C 127.833,2.16667 128.167,2.16667 128.5,-0.5C 129.5,-0.5 130.5,-0.5 131.5,-0.5C 131.833,0.833333 132.167,0.833333 132.5,-0.5C 133.833,-0.5 135.167,-0.5 136.5,-0.5C 136.833,2.16667 137.167,2.16667 137.5,-0.5C 138.5,-0.5 139.5,-0.5 140.5,-0.5C 140.833,0.833333 141.167,0.833333 141.5,-0.5C 142.167,-0.5 142.833,-0.5 143.5,-0.5C 143.5,11.5 143.5,23.5 143.5,35.5C 138.71,34.8951 133.71,34.8951 128.5,35.5C 128.5,34.8333 128.167,34.5 127.5,34.5C 125.833,32.5 124.167,30.5 122.5,28.5C 123.833,28.1667 123.833,27.8333 122.5,27.5C 121.833,27.5 121.5,27.1667 121.5,26.5C 121.167,25.1667 120.833,25.1667 120.5,26.5C 118.534,23.8676 116.201,21.5342 113.5,19.5C 114.833,19.1667 114.833,18.8333 113.5,18.5C 107.46,15.1489 101.46,11.8156 95.5,8.5C 95.1667,8.5 94.8333,8.5 94.5,8.5C 94.1667,1.83333 93.8333,1.83333 93.5,8.5C 93.1667,8.5 92.8333,8.5 92.5,8.5C 92.6621,6.4727 92.4955,4.4727 92,2.5C 91.5065,4.13414 91.3398,5.80081 91.5,7.5C 90.1667,7.16667 88.8333,6.83333 87.5,6.5C 87.1667,1.16667 86.8333,1.16667 86.5,6.5C 85.8333,6.5 85.5,6.16667 85.5,5.5C 85.1667,2.83333 84.8333,2.83333 84.5,5.5C 84.1667,5.5 83.8333,5.5 83.5,5.5C 83.1667,1.5 82.8333,1.5 82.5,5.5C 81.1667,5.5 79.8333,5.5 78.5,5.5C 78.1667,1.5 77.8333,1.5 77.5,5.5C 77.1667,5.5 76.8333,5.5 76.5,5.5C 76.1667,2.83333 75.8333,2.83333 75.5,5.5C 75.1667,5.5 74.8333,5.5 74.5,5.5C 74.1667,1.5 73.8333,1.5 73.5,5.5C 66.0359,5.09058 58.7026,5.75725 51.5,7.5C 45.8236,7.33391 40.1569,7.50058 34.5,8C 35.0442,8.71719 35.7109,9.21719 36.5,9.5C 35.3143,10.9613 35.3143,12.2946 36.5,13.5C 36.5,13.8333 36.5,14.1667 36.5,14.5C 34.7837,16.0248 32.7837,17.0248 30.5,17.5C 28.1432,17.3367 25.8098,17.5034 23.5,18C 22.0439,18.4226 21.5439,19.2559 22,20.5C 22.6708,19.7476 23.5041,19.4142 24.5,19.5C 22.7215,20.6697 21.7215,22.3364 21.5,24.5C 20.8333,24.5 20.1667,24.5 19.5,24.5C 20.087,23.2334 20.087,22.2334 19.5,21.5C 18.6143,22.325 18.281,23.325 18.5,24.5C 17.375,25.3478 17.375,26.3478 18.5,27.5C 17.1667,28.1667 17.1667,28.8333 18.5,29.5C 16.5498,32.4058 14.8831,35.4058 13.5,38.5C 13.2172,37.7109 12.7172,37.0442 12,36.5C 9.43617,37.531 6.60284,37.531 3.5,36.5C 3.52992,35.5028 3.02992,34.8361 2,34.5C 1.66258,36.0731 0.829246,37.4065 -0.5,38.5C -0.5,28.5 -0.5,18.5 -0.5,8.5C 0.833333,8.16667 0.833333,7.83333 -0.5,7.5C -0.5,5.5 -0.5,3.5 -0.5,1.5C 0.166667,1.5 0.5,1.16667 0.5,0.5C 1.16667,0.5 1.5,0.166667 1.5,-0.5 Z M 51.5,7.5 C 50.1225,8.23442 48.6225,8.90109 47,9.5C 46.6667,9.16667 46.3333,8.83333 46,8.5C 43.5544,10.8162 40.721,12.4829 37.5,13.5C 37.1667,12.1667 36.8333,12.1667 36.5,13.5C 35.3143,12.2946 35.3143,10.9613 36.5,9.5C 35.7109,9.21719 35.0442,8.71719 34.5,8C 40.1569,7.50058 45.8236,7.33391 51.5,7.5 Z M 30.5,17.5 C 30.1667,18.5 29.5,19.1667 28.5,19.5C 28.1667,18.1667 27.8333,18.1667 27.5,19.5C 26.8333,19.5 26.1667,19.5 25.5,19.5C 25.1667,18.1667 24.8333,18.1667 24.5,19.5C 23.5041,19.4142 22.6708,19.7476 22,20.5C 21.5439,19.2559 22.0439,18.4226 23.5,18C 25.8098,17.5034 28.1432,17.3367 30.5,17.5 Z M 18.5,18.5 C 21.0009,18.5109 21.1676,19.1776 19,20.5C 18.5357,19.9056 18.369,19.2389 18.5,18.5 Z M 24.5,19.5 C 24.8333,19.5 25.1667,19.5 25.5,19.5C 26.625,20.6522 26.625,21.6522 25.5,22.5C 25.1667,21.1667 24.8333,21.1667 24.5,22.5C 23.2223,22.7822 22.2223,23.4489 21.5,24.5C 21.7215,22.3364 22.7215,20.6697 24.5,19.5 Z M 19.5,24.5 C 19.1667,24.5 18.8333,24.5 18.5,24.5C 18.281,23.325 18.6143,22.325 19.5,21.5C 20.087,22.2334 20.087,23.2334 19.5,24.5 Z M 18.5,24.5 C 18.5,25.1667 18.8333,25.5 19.5,25.5C 19.5,26.1667 19.5,26.8333 19.5,27.5C 19.1667,27.5 18.8333,27.5 18.5,27.5C 17.375,26.3478 17.375,25.3478 18.5,24.5 Z M 19.5,25.5 C 19.5,25.1667 19.5,24.8333 19.5,24.5C 20.1667,24.5 20.8333,24.5 21.5,24.5C 22.5042,26.6773 21.8375,27.0107 19.5,25.5 Z M 18.5,27.5 C 18.5,28.1667 18.8333,28.5 19.5,28.5C 19.5,29.1667 19.1667,29.5 18.5,29.5C 17.1667,28.8333 17.1667,28.1667 18.5,27.5 Z"/></g>
<g><path style="opacity:0.008" fill="#000000" d="M 48.5,-0.5 C 49.8333,-0.5 51.1667,-0.5 52.5,-0.5C 51.1667,0.833333 49.8333,0.833333 48.5,-0.5 Z"/></g>
<g><path style="opacity:0.008" fill="#000000" d="M 53.5,-0.5 C 53.8333,-0.5 54.1667,-0.5 54.5,-0.5C 54.3147,0.170143 53.9813,0.170143 53.5,-0.5 Z"/></g>
<g><path style="opacity:0.008" fill="#000000" d="M 55.5,-0.5 C 55.8333,-0.5 56.1667,-0.5 56.5,-0.5C 56.3147,0.170143 55.9813,0.170143 55.5,-0.5 Z"/></g>
<g><path style="opacity:0.008" fill="#000000" d="M 57.5,-0.5 C 58.8333,-0.5 60.1667,-0.5 61.5,-0.5C 60.1667,0.833333 58.8333,0.833333 57.5,-0.5 Z"/></g>
<g><path style="opacity:0.008" fill="#000000" d="M 62.5,-0.5 C 62.8333,-0.5 63.1667,-0.5 63.5,-0.5C 63.3147,0.170143 62.9813,0.170143 62.5,-0.5 Z"/></g>
<g><path style="opacity:0.008" fill="#000000" d="M 64.5,-0.5 C 64.8333,-0.5 65.1667,-0.5 65.5,-0.5C 65.3147,0.170143 64.9813,0.170143 64.5,-0.5 Z"/></g>
<g><path style="opacity:0.008" fill="#000000" d="M 66.5,-0.5 C 67.8333,-0.5 69.1667,-0.5 70.5,-0.5C 69.1667,0.833333 67.8333,0.833333 66.5,-0.5 Z"/></g>
<g><path style="opacity:0.992" fill="#050a3a" d="M 73.5,5.5 C 73.8333,5.5 74.1667,5.5 74.5,5.5C 74.8333,5.5 75.1667,5.5 75.5,5.5C 75.8333,5.5 76.1667,5.5 76.5,5.5C 76.8333,5.5 77.1667,5.5 77.5,5.5C 77.8333,5.5 78.1667,5.5 78.5,5.5C 79.8333,5.5 81.1667,5.5 82.5,5.5C 82.8333,5.5 83.1667,5.5 83.5,5.5C 83.8333,5.5 84.1667,5.5 84.5,5.5C 84.8333,5.5 85.1667,5.5 85.5,5.5C 85.5,6.16667 85.8333,6.5 86.5,6.5C 86.8333,6.5 87.1667,6.5 87.5,6.5C 88.8333,6.83333 90.1667,7.16667 91.5,7.5C 91.5,8.16667 91.8333,8.5 92.5,8.5C 92.8333,8.5 93.1667,8.5 93.5,8.5C 93.8333,8.5 94.1667,8.5 94.5,8.5C 94.8333,8.5 95.1667,8.5 95.5,8.5C 101.46,11.8156 107.46,15.1489 113.5,18.5C 113.5,18.8333 113.5,19.1667 113.5,19.5C 116.201,21.5342 118.534,23.8676 120.5,26.5C 120.833,26.5 121.167,26.5 121.5,26.5C 121.5,27.1667 121.833,27.5 122.5,27.5C 122.5,27.8333 122.5,28.1667 122.5,28.5C 124.167,30.5 125.833,32.5 127.5,34.5C 127.157,36.4832 127.824,37.8166 129.5,38.5C 129.455,41.0772 130.455,43.0772 132.5,44.5C 132.932,45.7095 133.599,46.7095 134.5,47.5C 134.5,48.1667 134.5,48.8333 134.5,49.5C 135.265,52.6702 136.265,55.6702 137.5,58.5C 137.5,58.8333 137.5,59.1667 137.5,59.5C 139.9,98.5612 122.567,124.061 85.5,136C 45.7286,140.873 19.5619,124.373 7,86.5C 6.16379,77.3469 5.33046,68.3469 4.5,59.5C 4.5,58.8333 4.83333,58.5 5.5,58.5C 6.33854,56.2186 7.33854,53.8852 8.5,51.5C 8.04311,50.7025 7.37644,50.3691 6.5,50.5C 6.91753,49.7784 7.5842,49.2784 8.5,49C 7.83333,48.6667 7.16667,48.3333 6.5,48C 7.4158,47.7216 8.08247,47.2216 8.5,46.5C 9.33825,46.1583 9.67158,45.4916 9.5,44.5C 9.83333,44.5 10.1667,44.5 10.5,44.5C 11.404,43.791 11.7373,42.791 11.5,41.5C 11.5569,40.391 11.8902,39.391 12.5,38.5C 12.8333,38.5 13.1667,38.5 13.5,38.5C 14.8831,35.4058 16.5498,32.4058 18.5,29.5C 19.1667,29.5 19.5,29.1667 19.5,28.5C 20.8333,28.1667 20.8333,27.8333 19.5,27.5C 19.5,26.8333 19.5,26.1667 19.5,25.5C 21.8375,27.0107 22.5042,26.6773 21.5,24.5C 22.2223,23.4489 23.2223,22.7822 24.5,22.5C 24.8333,23.8333 25.1667,23.8333 25.5,22.5C 26.625,21.6522 26.625,20.6522 25.5,19.5C 26.1667,19.5 26.8333,19.5 27.5,19.5C 27.8333,20.8333 28.1667,20.8333 28.5,19.5C 29.5,19.1667 30.1667,18.5 30.5,17.5C 32.7837,17.0248 34.7837,16.0248 36.5,14.5C 37.1667,14.5 37.5,14.1667 37.5,13.5C 40.721,12.4829 43.5544,10.8162 46,8.5C 46.3333,8.83333 46.6667,9.16667 47,9.5C 48.6225,8.90109 50.1225,8.23442 51.5,7.5C 58.7026,5.75725 66.0359,5.09058 73.5,5.5 Z"/></g>
<g><path style="opacity:1" fill="#f1b916" d="M 69.5,25.5 C 70.8333,43.1667 70.8333,60.8333 69.5,78.5C 54.821,83.8406 40.1543,88.5073 25.5,92.5C 40.1927,70.149 54.8594,47.8156 69.5,25.5 Z"/></g>
<g><path style="opacity:0.008" fill="#000000" d="M 3.5,36.5 C 2.83333,37.1667 2.83333,37.1667 3.5,36.5 Z"/></g>
<g><path style="opacity:0.008" fill="#000000" d="M 132.5,36.5 C 133.833,36.5 135.167,36.5 136.5,36.5C 136.5,37.8333 136.5,39.1667 136.5,40.5C 135.167,40.5 133.833,40.5 132.5,40.5C 132.5,39.1667 132.5,37.8333 132.5,36.5 Z"/></g>
<g><path style="opacity:0.008" fill="#000000" d="M 137.5,36.5 C 138.5,36.5 139.5,36.5 140.5,36.5C 140.5,37.8333 140.5,39.1667 140.5,40.5C 139.5,40.5 138.5,40.5 137.5,40.5C 137.5,39.1667 137.5,37.8333 137.5,36.5 Z"/></g>
<g><path style="opacity:0.008" fill="#000000" d="M 143.5,36.5 C 143.5,37.8333 143.5,39.1667 143.5,40.5C 142.414,40.38 141.747,39.7133 141.5,38.5C 141.747,37.2867 142.414,36.62 143.5,36.5 Z"/></g>
<g><path style="opacity:0.008" fill="#000000" d="M 3.5,39.5 C 3.89657,38.475 4.56323,38.3083 5.5,39C 4.90558,39.4643 4.23891,39.631 3.5,39.5 Z"/></g>
<g><path style="opacity:0.008" fill="#040404" d="M 12.5,38.5 C 11.8902,39.391 11.5569,40.391 11.5,41.5C 11.1667,41.5 10.8333,41.5 10.5,41.5C 10.1667,38.8333 9.83333,38.8333 9.5,41.5C 6.83333,41.8333 6.83333,42.1667 9.5,42.5C 9.5,43.1667 9.5,43.8333 9.5,44.5C 9.67158,45.4916 9.33825,46.1583 8.5,46.5C 6.70848,46.634 5.04181,46.3007 3.5,45.5C 4.61512,43.545 5.94845,41.7116 7.5,40C 7.16667,39.6667 6.83333,39.3333 6.5,39C 8.4727,38.5045 10.4727,38.3379 12.5,38.5 Z"/></g>
<g><path style="opacity:0.008" fill="#000000" d="M -0.5,39.5 C 0.238911,39.369 0.905578,39.5357 1.5,40C 0.166667,41 0.166667,42 1.5,43C 0.905578,43.4643 0.238911,43.631 -0.5,43.5C -0.5,42.1667 -0.5,40.8333 -0.5,39.5 Z"/></g>
<g><path style="opacity:0.008" fill="#000000" d="M 3.5,39.5 C 2.83333,40.1667 2.83333,40.1667 3.5,39.5 Z"/></g>
<g><path style="opacity:0.757" fill="#363452" d="M 127.5,34.5 C 128.167,34.5 128.5,34.8333 128.5,35.5C 129.209,36.404 130.209,36.7373 131.5,36.5C 131.216,38.4147 131.549,40.0813 132.5,41.5C 132.5,42.5 132.5,43.5 132.5,44.5C 130.455,43.0772 129.455,41.0772 129.5,38.5C 127.824,37.8166 127.157,36.4832 127.5,34.5 Z"/></g>
<g><path style="opacity:0.008" fill="#000000" d="M 132.5,41.5 C 133.833,41.5 135.167,41.5 136.5,41.5C 136.715,43.1788 136.048,44.1788 134.5,44.5C 133.833,44.5 133.167,44.5 132.5,44.5C 132.5,43.5 132.5,42.5 132.5,41.5 Z"/></g>
<g><path style="opacity:0.008" fill="#000000" d="M 138.5,42.5 C 137.833,41.1667 137.833,41.1667 138.5,42.5 Z"/></g>
<g><path style="opacity:0.008" fill="#000000" d="M 139.5,41.5 C 140.833,42.1667 140.833,42.1667 139.5,41.5 Z"/></g>
<g><path style="opacity:0.008" fill="#000000" d="M 143.5,41.5 C 143.5,41.8333 143.5,42.1667 143.5,42.5C 142.167,42.8333 142.167,43.1667 143.5,43.5C 143.5,43.8333 143.5,44.1667 143.5,44.5C 140.833,43.5 140.833,42.5 143.5,41.5 Z"/></g>
<g><path style="opacity:0.008" fill="#000000" d="M 2.5,42.5 C 3.83333,43.1667 3.83333,43.1667 2.5,42.5 Z"/></g>
<g><path style="opacity:0.008" fill="#000000" d="M 138.5,42.5 C 138.833,42.5 139.167,42.5 139.5,42.5C 139.5,42.8333 139.5,43.1667 139.5,43.5C 139.167,43.1667 138.833,42.8333 138.5,42.5 Z"/></g>
<g><path style="opacity:0.039" fill="#6f6f77" d="M 9.5,42.5 C 9.5,42.1667 9.5,41.8333 9.5,41.5C 9.83333,41.5 10.1667,41.5 10.5,41.5C 10.8333,41.5 11.1667,41.5 11.5,41.5C 11.7373,42.791 11.404,43.791 10.5,44.5C 10.6716,43.5084 10.3382,42.8417 9.5,42.5 Z"/></g>
<g><path style="opacity:0.008" fill="#000000" d="M 138.5,43.5 C 137.833,44.1667 137.833,44.1667 138.5,43.5 Z"/></g>
<g><path style="opacity:0.008" fill="#000000" d="M 139.5,43.5 C 140.833,44.1667 140.833,44.1667 139.5,43.5 Z"/></g>
<g><path style="opacity:0.008" fill="#000000" d="M -0.5,44.5 C 2.16667,45.5 2.16667,46.5 -0.5,47.5C -0.5,46.5 -0.5,45.5 -0.5,44.5 Z"/></g>
<g><path style="opacity:0.008" fill="#969696" d="M 132.5,44.5 C 133.167,44.5 133.833,44.5 134.5,44.5C 134.5,44.8333 134.5,45.1667 134.5,45.5C 134.5,46.1667 134.5,46.8333 134.5,47.5C 133.599,46.7095 132.932,45.7095 132.5,44.5 Z"/></g>
<g><path style="opacity:0.008" fill="#000000" d="M 3.5,45.5 C 2.83333,46.1667 2.83333,46.1667 3.5,45.5 Z"/></g>
<g><path style="opacity:0.008" fill="#040404" d="M 134.5,45.5 C 136.308,46.9179 136.975,48.9179 136.5,51.5C 135.833,50.8333 135.167,50.1667 134.5,49.5C 134.5,48.8333 134.5,48.1667 134.5,47.5C 134.5,46.8333 134.5,46.1667 134.5,45.5 Z"/></g>
<g><path style="opacity:0.008" fill="#000000" d="M 139.5,49.5 C 139.167,45.5 138.833,45.5 138.5,49.5C 137.566,48.4324 137.232,47.099 137.5,45.5C 138.5,45.5 139.5,45.5 140.5,45.5C 140.768,47.099 140.434,48.4324 139.5,49.5 Z"/></g>
<g><path style="opacity:0.008" fill="#000000" d="M 143.5,45.5 C 143.5,46.8333 143.5,48.1667 143.5,49.5C 142.167,49.8333 142.167,50.1667 143.5,50.5C 143.5,50.8333 143.5,51.1667 143.5,51.5C 142.307,51.0296 141.64,50.0296 141.5,48.5C 141.64,46.9704 142.307,45.9704 143.5,45.5 Z"/></g>
<g><path style="opacity:0.008" fill="#000000" d="M 4.5,47.5 C 5.83333,48.1667 5.83333,48.1667 4.5,47.5 Z"/></g>
<g><path style="opacity:0.008" fill="#000000" d="M -0.5,48.5 C 0.833333,49.8333 0.833333,51.1667 -0.5,52.5C -0.5,51.1667 -0.5,49.8333 -0.5,48.5 Z"/></g>
<g><path style="opacity:0.008" fill="#000000" d="M 2.5,48.5 C 3.83333,49.1667 3.83333,49.1667 2.5,48.5 Z"/></g>
<g><path style="opacity:0.008" fill="#000000" d="M 4.5,49.5 C 5.83333,50.1667 5.83333,50.1667 4.5,49.5 Z"/></g>
<g><path style="opacity:0.008" fill="#000000" d="M 138.5,49.5 C 138.833,49.5 139.167,49.5 139.5,49.5C 139.5,49.8333 139.5,50.1667 139.5,50.5C 139.167,50.1667 138.833,49.8333 138.5,49.5 Z"/></g>
<g><path style="opacity:0.008" fill="#000000" d="M 138.5,50.5 C 137.833,51.1667 137.833,51.1667 138.5,50.5 Z"/></g>
<g><path style="opacity:0.008" fill="#000000" d="M 139.5,50.5 C 140.833,51.1667 140.833,51.1667 139.5,50.5 Z"/></g>
<g><path style="opacity:0.008" fill="#000000" d="M 2.5,51.5 C 3.83333,52.1667 3.83333,52.1667 2.5,51.5 Z"/></g>
<g><path style="opacity:1" fill="#e3e4e5" d="M 119.5,91.5 C 118.619,93.3036 117.286,94.8036 115.5,96C 108.321,96.8213 101.321,96.6546 94.5,95.5C 100.842,95.6662 107.175,95.4995 113.5,95C 112.099,94.5899 110.766,94.0899 109.5,93.5C 97.7429,89.6362 86.0763,85.4695 74.5,81C 72.8659,80.5065 71.1992,80.3398 69.5,80.5C 69.5,79.8333 69.5,79.1667 69.5,78.5C 70.8333,60.8333 70.8333,43.1667 69.5,25.5C 68.391,25.5569 67.391,25.8902 66.5,26.5C 67.5566,24.0587 68.89,21.7254 70.5,19.5C 71.1667,18.1667 71.8333,18.1667 72.5,19.5C 88.1928,43.5177 103.859,67.5177 119.5,91.5 Z"/></g>
<g><path style="opacity:1" fill="#092d64" d="M 74.5,27.5 C 88.5747,49.3097 102.908,70.9764 117.5,92.5C 102.521,88.7286 87.8546,83.7286 73.5,77.5C 73.1702,60.6583 73.5035,43.9916 74.5,27.5 Z"/></g>
<g><path style="opacity:0.008" fill="#000000" d="M 137.5,53.5 C 138.251,52.4265 139.251,52.2599 140.5,53C 139.552,53.4828 138.552,53.6495 137.5,53.5 Z"/></g>
<g><path style="opacity:0.008" fill="#000000" d="M 143.5,52.5 C 143.5,52.8333 143.5,53.1667 143.5,53.5C 140.833,53.1667 140.833,52.8333 143.5,52.5 Z"/></g>
<g><path style="opacity:0.008" fill="#000000" d="M -0.5,53.5 C 0.833333,54.1667 0.833333,54.1667 -0.5,53.5 Z"/></g>
<g><path style="opacity:0.008" fill="#000000" d="M 2.5,54.5 C 3.83333,55.1667 3.83333,55.1667 2.5,54.5 Z"/></g>
<g><path style="opacity:0.008" fill="#000000" d="M 137.5,54.5 C 138.397,55.5981 139.23,55.5981 140,54.5C 140.765,56.0657 140.598,57.3991 139.5,58.5C 139.167,55.8333 138.833,55.8333 138.5,58.5C 138.167,58.5 137.833,58.5 137.5,58.5C 137.5,57.1667 137.5,55.8333 137.5,54.5 Z"/></g>
<g><path style="opacity:0.008" fill="#000000" d="M 143.5,54.5 C 143.5,55.8333 143.5,57.1667 143.5,58.5C 142.167,58.8333 142.167,59.1667 143.5,59.5C 143.5,59.8333 143.5,60.1667 143.5,60.5C 142.307,60.0296 141.64,59.0296 141.5,57.5C 141.64,55.9704 142.307,54.9704 143.5,54.5 Z"/></g>
<g><path style="opacity:0.008" fill="#000000" d="M -0.5,55.5 C 0.833333,56.1667 0.833333,56.1667 -0.5,55.5 Z"/></g>
<g><path style="opacity:0.016" fill="#6d6d6e" d="M 6.5,50.5 C 7.37644,50.3691 8.04311,50.7025 8.5,51.5C 7.33854,53.8852 6.33854,56.2186 5.5,58.5C 4.96368,56.4877 4.79702,54.1544 5,51.5C 6.08747,53.9316 6.58747,53.5983 6.5,50.5 Z"/></g>
<g><path style="opacity:0.016" fill="#9b9b9d" d="M 134.5,49.5 C 135.167,50.1667 135.833,50.8333 136.5,51.5C 136.328,52.4916 136.662,53.1583 137.5,53.5C 137.5,53.8333 137.5,54.1667 137.5,54.5C 137.5,55.8333 137.5,57.1667 137.5,58.5C 136.265,55.6702 135.265,52.6702 134.5,49.5 Z"/></g>
<g><path style="opacity:0.008" fill="#000000" d="M -0.5,57.5 C 0.833333,58.8333 0.833333,60.1667 -0.5,61.5C -0.5,60.1667 -0.5,58.8333 -0.5,57.5 Z"/></g>
<g><path style="opacity:0.008" fill="#000000" d="M 2.5,57.5 C 3.83333,58.1667 3.83333,58.1667 2.5,57.5 Z"/></g>
<g><path style="opacity:0.008" fill="#000000" d="M 138.5,58.5 C 138.833,58.5 139.167,58.5 139.5,58.5C 139.5,58.8333 139.5,59.1667 139.5,59.5C 139.167,59.1667 138.833,58.8333 138.5,58.5 Z"/></g>
<g><path style="opacity:0.008" fill="#000000" d="M 139.5,59.5 C 140.833,60.1667 140.833,60.1667 139.5,59.5 Z"/></g>
<g><path style="opacity:0.008" fill="#000000" d="M 2.5,60.5 C 3.83333,61.1667 3.83333,61.1667 2.5,60.5 Z"/></g>
<g><path style="opacity:1" fill="#8fa1b9" d="M 74.5,27.5 C 73.5035,43.9916 73.1702,60.6583 73.5,77.5C 72.173,60.662 72.173,43.662 73.5,26.5C 74.1067,26.6236 74.44,26.9569 74.5,27.5 Z"/></g>
<g><path style="opacity:0.008" fill="#000000" d="M 143.5,61.5 C 143.5,61.8333 143.5,62.1667 143.5,62.5C 140.833,62.1667 140.833,61.8333 143.5,61.5 Z"/></g>
<g><path style="opacity:0.008" fill="#000000" d="M -0.5,62.5 C 0.833333,63.1667 0.833333,63.1667 -0.5,62.5 Z"/></g>
<g><path style="opacity:0.008" fill="#000000" d="M 3.5,64.5 C 2.83333,63.1667 2.83333,63.1667 3.5,64.5 Z"/></g>
<g><path style="opacity:0.008" fill="#000000" d="M 143.5,63.5 C 143.5,64.8333 143.5,66.1667 143.5,67.5C 142.167,67.8333 142.167,68.1667 143.5,68.5C 143.5,68.8333 143.5,69.1667 143.5,69.5C 142.307,69.0296 141.64,68.0296 141.5,66.5C 141.64,64.9704 142.307,63.9704 143.5,63.5 Z"/></g>
<g><path style="opacity:0.008" fill="#000000" d="M -0.5,64.5 C 0.833333,65.1667 0.833333,65.1667 -0.5,64.5 Z"/></g>
<g><path style="opacity:0.008" fill="#000000" d="M -0.5,66.5 C 0.833333,67.8333 0.833333,69.1667 -0.5,70.5C -0.5,69.1667 -0.5,67.8333 -0.5,66.5 Z"/></g>
<g><path style="opacity:0.008" fill="#010101" d="M 139.5,70.5 C 140.702,71.4054 142.036,71.4054 143.5,70.5C 143.5,94.8333 143.5,119.167 143.5,143.5C 119.5,143.5 95.5,143.5 71.5,143.5C 71.5,142.5 71.5,141.5 71.5,140.5C 72.1667,140.5 72.8333,140.5 73.5,140.5C 73.8333,141.833 74.1667,141.833 74.5,140.5C 75.5,140.5 76.5,140.5 77.5,140.5C 77.8333,141.833 78.1667,141.833 78.5,140.5C 87.6628,139.377 96.3295,136.71 104.5,132.5C 105.167,132.5 105.5,132.167 105.5,131.5C 106.833,130.833 108.167,130.167 109.5,129.5C 112.159,126.854 115.159,124.521 118.5,122.5C 118.833,121.5 119.5,120.833 120.5,120.5C 122.117,117.216 124.45,114.549 127.5,112.5C 128.833,112.167 128.833,111.833 127.5,111.5C 128.441,109.228 129.774,107.228 131.5,105.5C 132.833,105.167 132.833,104.833 131.5,104.5C 131.944,102.887 132.944,101.72 134.5,101C 134.167,100.667 133.833,100.333 133.5,100C 134.229,97.9419 135.229,96.1086 136.5,94.5C 137.833,94.1667 137.833,93.8333 136.5,93.5C 136.653,91.247 137.32,88.9137 138.5,86.5C 138.5,86.1667 138.5,85.8333 138.5,85.5C 139.833,85.1667 139.833,84.8333 138.5,84.5C 139.229,79.8696 139.563,75.2029 139.5,70.5 Z"/></g>
<g><path style="opacity:0.008" fill="#000000" d="M -0.5,71.5 C 0.833333,71.5 2.16667,71.5 3.5,71.5C 3.61326,76.518 3.94659,81.518 4.5,86.5C 4.5,87.1667 4.83333,87.5 5.5,87.5C 5.92582,89.1388 5.92582,90.4721 5.5,91.5C 4.16667,91.8333 4.16667,92.1667 5.5,92.5C 6.16667,92.5 6.5,92.8333 6.5,93.5C 3.83333,93.8333 3.83333,94.1667 6.5,94.5C 7.77092,96.1086 8.77092,97.9419 9.5,100C 9.27155,100.399 8.93822,100.565 8.5,100.5C 3.16667,100.833 3.16667,101.167 8.5,101.5C 9.37644,101.369 10.0431,101.702 10.5,102.5C 11.3195,104.974 12.3195,107.307 13.5,109.5C 13.5,110.167 13.8333,110.5 14.5,110.5C 15.4013,111.29 16.0679,112.29 16.5,113.5C 22.1874,120.517 28.8541,126.517 36.5,131.5C 35.9326,132.42 36.5992,132.754 38.5,132.5C 38.5,133.833 38.5,135.167 38.5,136.5C 36.0065,136.131 35.3398,136.797 36.5,138.5C 35.1667,138.833 35.1667,139.167 36.5,139.5C 36.3893,140.117 36.056,140.617 35.5,141C 37.1193,141.236 38.1193,142.069 38.5,143.5C 38.1667,143.5 37.8333,143.5 37.5,143.5C 37.1667,142.167 36.8333,142.167 36.5,143.5C 24.1667,143.5 11.8333,143.5 -0.5,143.5C -0.5,142.833 -0.5,142.167 -0.5,141.5C 0.833333,141.167 0.833333,140.833 -0.5,140.5C -0.5,139.5 -0.5,138.5 -0.5,137.5C 2.16667,137.167 2.16667,136.833 -0.5,136.5C -0.5,135.167 -0.5,133.833 -0.5,132.5C 0.833333,132.167 0.833333,131.833 -0.5,131.5C -0.5,130.5 -0.5,129.5 -0.5,128.5C 2.16667,128.167 2.16667,127.833 -0.5,127.5C -0.5,126.167 -0.5,124.833 -0.5,123.5C 0.833333,123.167 0.833333,122.833 -0.5,122.5C -0.5,121.5 -0.5,120.5 -0.5,119.5C 2.16667,119.167 2.16667,118.833 -0.5,118.5C -0.5,117.167 -0.5,115.833 -0.5,114.5C 0.833333,114.167 0.833333,113.833 -0.5,113.5C -0.5,112.5 -0.5,111.5 -0.5,110.5C 2.16667,110.167 2.16667,109.833 -0.5,109.5C -0.5,108.167 -0.5,106.833 -0.5,105.5C 0.833333,105.167 0.833333,104.833 -0.5,104.5C -0.5,103.5 -0.5,102.5 -0.5,101.5C 2.16667,101.167 2.16667,100.833 -0.5,100.5C -0.5,99.1667 -0.5,97.8333 -0.5,96.5C 0.833333,96.1667 0.833333,95.8333 -0.5,95.5C -0.5,95.1667 -0.5,94.8333 -0.5,94.5C 2.16667,94.1667 2.16667,93.8333 -0.5,93.5C -0.5,93.1667 -0.5,92.8333 -0.5,92.5C 2.16667,92.1667 2.16667,91.8333 -0.5,91.5C -0.5,90.1667 -0.5,88.8333 -0.5,87.5C 2.16667,87.1667 2.16667,86.8333 -0.5,86.5C -0.5,86.1667 -0.5,85.8333 -0.5,85.5C 2.16667,85.1667 2.16667,84.8333 -0.5,84.5C -0.5,84.1667 -0.5,83.8333 -0.5,83.5C 2.16667,83.1667 2.16667,82.8333 -0.5,82.5C -0.5,81.1667 -0.5,79.8333 -0.5,78.5C 2.16667,78.1667 2.16667,77.8333 -0.5,77.5C -0.5,77.1667 -0.5,76.8333 -0.5,76.5C 2.16667,76.1667 2.16667,75.8333 -0.5,75.5C -0.5,75.1667 -0.5,74.8333 -0.5,74.5C 2.16667,74.1667 2.16667,73.8333 -0.5,73.5C -0.5,72.8333 -0.5,72.1667 -0.5,71.5 Z"/></g>
<g><path style="opacity:1" fill="#f6f4f2" d="M 69.5,25.5 C 54.8594,47.8156 40.1927,70.149 25.5,92.5C 40.1543,88.5073 54.821,83.8406 69.5,78.5C 69.5,79.1667 69.5,79.8333 69.5,80.5C 57.7561,84.6367 46.0895,88.97 34.5,93.5C 33.0783,93.7086 31.745,94.2086 30.5,95C 51.8307,95.5 73.1641,95.6666 94.5,95.5C 101.321,96.6546 108.321,96.8213 115.5,96C 117.286,94.8036 118.619,93.3036 119.5,91.5C 121.316,93.1184 122.649,95.1184 123.5,97.5C 88.5,98.8333 53.5,98.8333 18.5,97.5C 34.2654,73.6235 50.2654,49.9568 66.5,26.5C 67.391,25.8902 68.391,25.5569 69.5,25.5 Z"/></g>
<g><path style="opacity:0.285" fill="#979799" d="M 4.5,59.5 C 5.33046,68.3469 6.16379,77.3469 7,86.5C 19.5619,124.373 45.7286,140.873 85.5,136C 122.567,124.061 139.9,98.5612 137.5,59.5C 137.833,59.5 138.167,59.5 138.5,59.5C 138.577,60.7498 139.244,61.5831 140.5,62C 139.692,62.3076 139.025,62.8076 138.5,63.5C 138.846,64.6956 139.346,64.6956 140,63.5C 140.203,66.1544 140.036,68.4877 139.5,70.5C 139.563,75.2029 139.229,79.8696 138.5,84.5C 138.5,84.8333 138.5,85.1667 138.5,85.5C 138.5,85.8333 138.5,86.1667 138.5,86.5C 137.32,88.9137 136.653,91.247 136.5,93.5C 136.5,93.8333 136.5,94.1667 136.5,94.5C 135.229,96.1086 134.229,97.9419 133.5,100C 133.833,100.333 134.167,100.667 134.5,101C 132.944,101.72 131.944,102.887 131.5,104.5C 131.5,104.833 131.5,105.167 131.5,105.5C 129.774,107.228 128.441,109.228 127.5,111.5C 127.5,111.833 127.5,112.167 127.5,112.5C 124.45,114.549 122.117,117.216 120.5,120.5C 119.5,120.833 118.833,121.5 118.5,122.5C 115.159,124.521 112.159,126.854 109.5,129.5C 108.167,130.167 106.833,130.833 105.5,131.5C 104.833,131.5 104.5,131.833 104.5,132.5C 96.3295,136.71 87.6628,139.377 78.5,140.5C 78.1667,140.5 77.8333,140.5 77.5,140.5C 76.5,140.5 75.5,140.5 74.5,140.5C 74.1667,140.5 73.8333,140.5 73.5,140.5C 72.8333,140.5 72.1667,140.5 71.5,140.5C 71.1667,140.5 70.8333,140.5 70.5,140.5C 70.1667,140.5 69.8333,140.5 69.5,140.5C 68.8333,140.5 68.1667,140.5 67.5,140.5C 67.1667,140.5 66.8333,140.5 66.5,140.5C 65.5084,140.328 64.8417,140.662 64.5,141.5C 64.1667,141.5 63.8333,141.5 63.5,141.5C 63.1583,140.662 62.4916,140.328 61.5,140.5C 60.4324,139.566 59.099,139.232 57.5,139.5C 56.8333,139.833 56.1667,140.167 55.5,140.5C 53.2844,138.768 50.6177,137.768 47.5,137.5C 46.0736,136.659 44.7403,135.659 43.5,134.5C 42.0413,134.567 40.7079,134.234 39.5,133.5C 39.5,132.833 39.1667,132.5 38.5,132.5C 38.1583,131.662 37.4916,131.328 36.5,131.5C 28.8541,126.517 22.1874,120.517 16.5,113.5C 16.0679,112.29 15.4013,111.29 14.5,110.5C 13.8333,110.5 13.5,110.167 13.5,109.5C 12.3195,107.307 11.3195,104.974 10.5,102.5C 10.0431,101.702 9.37644,101.369 8.5,101.5C 8.5,101.167 8.5,100.833 8.5,100.5C 8.93822,100.565 9.27155,100.399 9.5,100C 8.77092,97.9419 7.77092,96.1086 6.5,94.5C 6.5,94.1667 6.5,93.8333 6.5,93.5C 6.5,92.8333 6.16667,92.5 5.5,92.5C 5.5,92.1667 5.5,91.8333 5.5,91.5C 5.92582,90.4721 5.92582,89.1388 5.5,87.5C 4.83333,87.5 4.5,87.1667 4.5,86.5C 3.94659,81.518 3.61326,76.518 3.5,71.5C 3.22837,69.2286 3.22837,66.8953 3.5,64.5C 4.45115,63.0813 4.78448,61.4147 4.5,59.5 Z"/></g>
<g><path style="opacity:1" fill="#616483" d="M 18.5,97.5 C 53.5,98.8333 88.5,98.8333 123.5,97.5C 124.043,97.56 124.376,97.8933 124.5,98.5C 88.8333,99.8333 53.1667,99.8333 17.5,98.5C 17.6236,97.8933 17.9569,97.56 18.5,97.5 Z"/></g>
<g><path style="opacity:1" fill="#2e312e" d="M 34.5,93.5 C 59.5,94.8333 84.5,94.8333 109.5,93.5C 110.766,94.0899 112.099,94.5899 113.5,95C 107.175,95.4995 100.842,95.6662 94.5,95.5C 73.1641,95.6666 51.8307,95.5 30.5,95C 31.745,94.2086 33.0783,93.7086 34.5,93.5 Z"/></g>
<g><path style="opacity:1" fill="#0d100d" d="M 69.5,80.5 C 71.1992,80.3398 72.8659,80.5065 74.5,81C 86.0763,85.4695 97.7429,89.6362 109.5,93.5C 84.5,94.8333 59.5,94.8333 34.5,93.5C 46.0895,88.97 57.7561,84.6367 69.5,80.5 Z"/></g>
<g><path style="opacity:0.008" fill="#000000" d="M 39.5,133.5 C 40.7079,134.234 42.0413,134.567 43.5,134.5C 42.8166,136.176 41.4832,136.843 39.5,136.5C 39.5,135.5 39.5,134.5 39.5,133.5 Z"/></g>
<g><path style="opacity:0.008" fill="#000000" d="M 37.5,137.5 C 38.8333,138.167 38.8333,138.167 37.5,137.5 Z"/></g>
<g><path style="opacity:0.008" fill="#000000" d="M 39.5,137.5 C 40.8333,137.5 42.1667,137.5 43.5,137.5C 43.5,138.5 43.5,139.5 43.5,140.5C 42.1667,140.5 40.8333,140.5 39.5,140.5C 39.5,139.5 39.5,138.5 39.5,137.5 Z"/></g>
<g><path style="opacity:0.008" fill="#000000" d="M 45.5,138.5 C 44.8333,137.167 44.8333,137.167 45.5,138.5 Z"/></g>
<g><path style="opacity:0.008" fill="#000000" d="M 47.5,137.5 C 46.8333,138.167 46.8333,138.167 47.5,137.5 Z"/></g>
<g><path style="opacity:0.008" fill="#000000" d="M 36.5,138.5 C 36.8333,138.5 37.1667,138.5 37.5,138.5C 37.5,138.833 37.5,139.167 37.5,139.5C 37.1667,139.167 36.8333,138.833 36.5,138.5 Z"/></g>
<g><path style="opacity:0.008" fill="#000000" d="M 45.5,138.5 C 45.8333,138.5 46.1667,138.5 46.5,138.5C 46.5,138.833 46.5,139.167 46.5,139.5C 46.1667,139.167 45.8333,138.833 45.5,138.5 Z"/></g>
<g><path style="opacity:0.008" fill="#000000" d="M 37.5,139.5 C 38.8333,140.167 38.8333,140.167 37.5,139.5 Z"/></g>
<g><path style="opacity:0.008" fill="#000000" d="M 45.5,139.5 C 44.8333,140.167 44.8333,140.167 45.5,139.5 Z"/></g>
<g><path style="opacity:0.008" fill="#000000" d="M 46.5,139.5 C 47.8333,140.167 47.8333,140.167 46.5,139.5 Z"/></g>
<g><path style="opacity:0.008" fill="#000000" d="M 52.5,143.5 C 51.1667,143.5 49.8333,143.5 48.5,143.5C 48.5,142.167 48.5,140.833 48.5,139.5C 49.8333,139.5 51.1667,139.5 52.5,139.5C 52.5,140.833 52.5,142.167 52.5,143.5 Z"/></g>
<g><path style="opacity:0.008" fill="#000000" d="M 54.5,140.5 C 53.8333,139.167 53.8333,139.167 54.5,140.5 Z"/></g>
<g><path style="opacity:0.008" fill="#0c0c0c" d="M 57.5,139.5 C 59.099,139.232 60.4324,139.566 61.5,140.5C 61.5,141.5 61.5,142.5 61.5,143.5C 60.1667,143.5 58.8333,143.5 57.5,143.5C 57.5,142.167 57.5,140.833 57.5,139.5 Z"/></g>
<g><path style="opacity:0.008" fill="#000000" d="M 54.5,140.5 C 54.8333,140.5 55.1667,140.5 55.5,140.5C 55.5,140.833 55.5,141.167 55.5,141.5C 55.1667,141.167 54.8333,140.833 54.5,140.5 Z"/></g>
<g><path style="opacity:0.008" fill="#000000" d="M 66.5,140.5 C 66.8333,140.5 67.1667,140.5 67.5,140.5C 68.1667,141.833 68.8333,141.833 69.5,140.5C 69.8333,140.5 70.1667,140.5 70.5,140.5C 70.5,141.5 70.5,142.5 70.5,143.5C 69.1667,143.5 67.8333,143.5 66.5,143.5C 66.5,142.5 66.5,141.5 66.5,140.5 Z"/></g>
<g><path style="opacity:0.008" fill="#000000" d="M 43.5,143.5 C 42.1667,143.5 40.8333,143.5 39.5,143.5C 39.62,142.414 40.2867,141.747 41.5,141.5C 42.7133,141.747 43.38,142.414 43.5,143.5 Z"/></g>
<g><path style="opacity:0.008" fill="#000000" d="M 47.5,143.5 C 47.1667,143.5 46.8333,143.5 46.5,143.5C 46.1667,142.167 45.8333,142.167 45.5,143.5C 45.1667,143.5 44.8333,143.5 44.5,143.5C 45.5,140.833 46.5,140.833 47.5,143.5 Z"/></g>
<g><path style="opacity:0.008" fill="#000000" d="M 54.5,141.5 C 54.5,142.167 54.5,142.833 54.5,143.5C 54.1667,143.5 53.8333,143.5 53.5,143.5C 53.3284,142.508 53.6618,141.842 54.5,141.5 Z"/></g>
<g><path style="opacity:0.008" fill="#000000" d="M 55.5,141.5 C 56.3382,141.842 56.6716,142.508 56.5,143.5C 56.1667,143.5 55.8333,143.5 55.5,143.5C 55.5,142.833 55.5,142.167 55.5,141.5 Z"/></g>
<g><path style="opacity:0.008" fill="#000000" d="M 63.5,141.5 C 63.5,142.167 63.5,142.833 63.5,143.5C 63.1667,143.5 62.8333,143.5 62.5,143.5C 62.3284,142.508 62.6618,141.842 63.5,141.5 Z"/></g>
<g><path style="opacity:0.008" fill="#000000" d="M 64.5,141.5 C 65.3382,141.842 65.6716,142.508 65.5,143.5C 65.1667,143.5 64.8333,143.5 64.5,143.5C 64.5,142.833 64.5,142.167 64.5,141.5 Z"/></g>
</svg>
