<?xml version="1.0" encoding="UTF-8"?>
<!DOCTYPE svg PUBLIC "-//W3C//DTD SVG 1.1//EN" "http://www.w3.org/Graphics/SVG/1.1/DTD/svg11.dtd">
<svg xmlns="http://www.w3.org/2000/svg" version="1.1" width="96px" height="96px" style="shape-rendering:geometricPrecision; text-rendering:geometricPrecision; image-rendering:optimizeQuality; fill-rule:evenodd; clip-rule:evenodd" xmlns:xlink="http://www.w3.org/1999/xlink">
<g><path style="opacity:0.008" fill="#000000" d="M -0.5,-0.5 C 31.5,-0.5 63.5,-0.5 95.5,-0.5C 95.5,31.5 95.5,63.5 95.5,95.5C 63.5,95.5 31.5,95.5 -0.5,95.5C -0.5,63.5 -0.5,31.5 -0.5,-0.5 Z M 47.5,7.5 C 41.8333,7.5 36.1667,7.5 30.5,7.5C 30.6107,6.88258 30.944,6.38258 31.5,6C 34.1667,5.83333 36.8333,5.66667 39.5,5.5C 42.5902,5.52168 45.2568,6.18834 47.5,7.5 Z"/></g>
<g><path style="opacity:0.02" fill="#909198" d="M 30.5,7.5 C 36.1667,7.5 41.8333,7.5 47.5,7.5C 59.1714,7.33347 70.8381,7.50014 82.5,8C 83.056,8.38258 83.3893,8.88258 83.5,9.5C 59.5,9.5 35.5,9.5 11.5,9.5C 11.9175,8.77842 12.5842,8.27842 13.5,8C 19.1569,7.50058 24.8236,7.33391 30.5,7.5 Z"/></g>
<g><path style="opacity:1" fill="#04093a" d="M 11.5,9.5 C 35.5,9.5 59.5,9.5 83.5,9.5C 83.5,10.8333 84.1667,11.5 85.5,11.5C 85.9801,35.5901 85.4801,59.5901 84,83.5C 83.2496,84.1258 82.4162,84.6258 81.5,85C 58.5,85.6667 35.5,85.6667 12.5,85C 12,84.5 11.5,84 11,83.5C 9.51988,59.5901 9.01988,35.5901 9.5,11.5C 9.5,10.1667 10.1667,9.5 11.5,9.5 Z"/></g>
<g><path style="opacity:0.039" fill="#98989d" d="M 83.5,9.5 C 84.8333,9.5 85.5,10.1667 85.5,11.5C 85.5,10.1667 84.8333,9.5 83.5,9.5 Z"/></g>
<g><path style="opacity:0.163" fill="#969699" d="M 9.5,11.5 C 9.01988,35.5901 9.51988,59.5901 11,83.5C 11.5,84 12,84.5 12.5,85C 35.5,85.6667 58.5,85.6667 81.5,85C 82.4162,84.6258 83.2496,84.1258 84,83.5C 85.4801,59.5901 85.9801,35.5901 85.5,11.5C 86.8324,23.1476 87.499,35.1476 87.5,47.5C 87.3333,59.5 87.1667,71.5 87,83.5C 85.8906,85.8147 84.0573,87.3147 81.5,88C 58.8333,88.6667 36.1667,88.6667 13.5,88C 10.9427,87.3147 9.1094,85.8147 8,83.5C 7.33333,60.1667 7.33333,36.8333 8,13.5C 8.27842,12.5842 8.77842,11.9175 9.5,11.5 Z"/></g>
<g><path style="opacity:1" fill="#c9cad4" d="M 76.5,61.5 C 77.0431,61.56 77.3764,61.8933 77.5,62.5C 67.3333,62.8333 57.1667,63.1667 47,63.5C 36.4245,63.512 26.5911,63.1787 17.5,62.5C 37.3404,62.8304 57.0071,62.4971 76.5,61.5 Z"/></g>
<g><path style="opacity:1" fill="#efeeed" d="M 49.5,20.5 C 49.1583,21.3382 48.4916,21.6716 47.5,21.5C 46.5084,21.3284 45.8417,21.6618 45.5,22.5C 37.2404,34.6913 29.2404,47.0246 21.5,59.5C 21.555,60.4692 22.555,61.1358 24.5,61.5C 40.1667,61.5 55.8333,61.5 71.5,61.5C 72.8333,60.8333 74.1667,60.1667 75.5,59.5C 76.3382,59.8417 76.6716,60.5084 76.5,61.5C 57.0071,62.4971 37.3404,62.8304 17.5,62.5C 26.7485,47.0043 36.7485,32.0043 47.5,17.5C 48.4252,18.3569 49.0919,19.3569 49.5,20.5 Z"/></g>
<g><path style="opacity:1" fill="#454745" d="M 27.5,59.5 C 40.8333,60.8333 54.1667,60.8333 67.5,59.5C 69.153,59.6596 70.4863,60.3263 71.5,61.5C 55.8333,61.5 40.1667,61.5 24.5,61.5C 24.9731,60.0937 25.9731,59.427 27.5,59.5 Z"/></g>
<g><path style="opacity:1" fill="#b9bfca" d="M 49.5,20.5 C 58.8977,32.9471 67.5644,45.9471 75.5,59.5C 74.1667,60.1667 72.8333,60.8333 71.5,61.5C 70.4863,60.3263 69.153,59.6596 67.5,59.5C 60.5474,57.0122 53.5474,54.6788 46.5,52.5C 46.5,52.1667 46.5,51.8333 46.5,51.5C 47.494,41.6806 47.8274,31.6806 47.5,21.5C 48.4916,21.6716 49.1583,21.3382 49.5,20.5 Z"/></g>
<g><path style="opacity:1" fill="#111311" d="M 46.5,52.5 C 53.5474,54.6788 60.5474,57.0122 67.5,59.5C 54.1667,60.8333 40.8333,60.8333 27.5,59.5C 33.9262,57.3586 40.2596,55.0253 46.5,52.5 Z"/></g>
<g><path style="opacity:1" fill="#e4dbc6" d="M 46.5,51.5 C 46.5,51.8333 46.5,52.1667 46.5,52.5C 40.2596,55.0253 33.9262,57.3586 27.5,59.5C 25.9731,59.427 24.9731,60.0937 24.5,61.5C 22.555,61.1358 21.555,60.4692 21.5,59.5C 29.9157,57.1274 38.249,54.4607 46.5,51.5 Z"/></g>
<g><path style="opacity:1" fill="#0c2f66" d="M 48.5,22.5 C 56.9703,34.4884 65.3037,46.6551 73.5,59C 65.2046,56.6721 56.8713,54.1721 48.5,51.5C 48.5,41.8333 48.5,32.1667 48.5,22.5 Z"/></g>
<g><path style="opacity:1" fill="#f1b918" d="M 45.5,22.5 C 46.4938,31.9856 46.8271,41.6522 46.5,51.5C 38.249,54.4607 29.9157,57.1274 21.5,59.5C 29.2404,47.0246 37.2404,34.6913 45.5,22.5 Z"/></g>
<g><path style="opacity:1" fill="#f8de93" d="M 45.5,22.5 C 45.8417,21.6618 46.5084,21.3284 47.5,21.5C 47.8274,31.6806 47.494,41.6806 46.5,51.5C 46.8271,41.6522 46.4938,31.9856 45.5,22.5 Z"/></g>
</svg>
