<?xml version="1.0" encoding="UTF-8"?>
<!DOCTYPE svg PUBLIC "-//W3C//DTD SVG 1.1//EN" "http://www.w3.org/Graphics/SVG/1.1/DTD/svg11.dtd">
<svg xmlns="http://www.w3.org/2000/svg" version="1.1" width="512px" height="512px" style="shape-rendering:geometricPrecision; text-rendering:geometricPrecision; image-rendering:optimizeQuality; fill-rule:evenodd; clip-rule:evenodd" xmlns:xlink="http://www.w3.org/1999/xlink">
<g><path style="opacity:0.016" fill="#9d9d9d" d="M 467.5,83.5 C 468.666,199.666 468.833,315.999 468,432.5C 467.802,434.382 467.302,436.048 466.5,437.5C 466.38,435.801 466.046,434.135 465.5,432.5C 466.933,430.664 467.433,428.664 467,426.5C 466.237,429.063 465.737,429.063 465.5,426.5C 466.663,313.48 466.829,200.48 466,87.5C 466.333,88.1667 466.667,88.8333 467,89.5C 467.495,87.5273 467.662,85.5273 467.5,83.5 Z"/></g>
<g><path style="opacity:0.136" fill="#a4a4a5" d="M 467.5,83.5 C 467.662,85.5273 467.495,87.5273 467,89.5C 466.667,88.8333 466.333,88.1667 466,87.5C 466.829,200.48 466.663,313.48 465.5,426.5C 465.737,429.063 466.237,429.063 467,426.5C 467.433,428.664 466.933,430.664 465.5,432.5C 466.046,434.135 466.38,435.801 466.5,437.5C 462.365,456.916 450.365,467.583 430.5,469.5C 428.473,469.662 426.473,469.495 424.5,469C 427.063,468.237 427.063,467.737 424.5,467.5C 311.48,468.663 198.48,468.829 85.5,468C 86.5,468.333 87.5,468.667 88.5,469C 86.5273,469.495 84.5273,469.662 82.5,469.5C 66.7664,468.214 55.2664,460.548 48,446.5C 45.8795,441.018 44.5461,435.351 44,429.5C 43.3333,315.167 43.3333,200.833 44,86.5C 46.8366,62.33 60.3366,48.83 84.5,46C 198.833,45.3333 313.167,45.3333 427.5,46C 450.73,48.0664 464.064,60.5664 467.5,83.5 Z"/></g>
<g><path style="opacity:0.024" fill="#b8b8b8" d="M 44.5,88.5 C 45.1174,88.6107 45.6174,88.944 46,89.5C 46.8333,202.168 46.6667,314.835 45.5,427.5C 44.5,314.502 44.1667,201.502 44.5,88.5 Z"/></g>
<g><path style="opacity:1" fill="#04093a" d="M 79.5,52.5 C 196.5,52.3333 313.5,52.5 430.5,53C 444.894,55.7275 453.727,64.2275 457,78.5C 457.667,195.5 457.667,312.5 457,429.5C 454.519,445.314 445.352,454.481 429.5,457C 312.5,457.667 195.5,457.667 78.5,457C 63.3384,453.503 54.8384,444.003 53,428.5C 52.3333,312.167 52.3333,195.833 53,79.5C 56.0137,64.6539 64.847,55.6539 79.5,52.5 Z"/></g>
<g><path style="opacity:1" fill="#8689a0" d="M 417.5,338.5 C 418.043,338.56 418.376,338.893 418.5,339.5C 375.172,340.5 331.838,340.833 288.5,340.5C 288.5,340.167 288.5,339.833 288.5,339.5C 331.67,339.832 374.67,339.499 417.5,338.5 Z"/></g>
<g><path style="opacity:1" fill="#545779" d="M 91.5,337.5 C 156.825,339.497 222.492,340.163 288.5,339.5C 288.5,339.833 288.5,340.167 288.5,340.5C 222.5,340.5 156.5,340.5 90.5,340.5C 90.2627,339.209 90.596,338.209 91.5,337.5 Z"/></g>
<g><path style="opacity:1" fill="#dcdde3" d="M 416.5,336.5 C 417.338,336.842 417.672,337.508 417.5,338.5C 374.67,339.499 331.67,339.832 288.5,339.5C 222.492,340.163 156.825,339.497 91.5,337.5C 91.8333,337.5 92.1667,337.5 92.5,337.5C 146.332,338.167 200.332,338.5 254.5,338.5C 308.837,338.5 362.837,337.833 416.5,336.5 Z"/></g>
<g><path style="opacity:1" fill="#f8f8f8" d="M 416.5,336.5 C 362.837,337.833 308.837,338.5 254.5,338.5C 200.332,338.5 146.332,338.167 92.5,337.5C 118.397,297.386 144.564,257.386 171,217.5C 198.684,175.451 226.851,133.784 255.5,92.5C 309.674,173.519 363.341,254.852 416.5,336.5 Z"/></g>
<g><path style="opacity:1" fill="#c9c9c9" d="M 388.5,327.5 C 389.478,327.811 390.145,328.478 390.5,329.5C 363.67,330.829 337.003,330.829 310.5,329.5C 336.855,330.158 362.855,329.491 388.5,327.5 Z"/></g>
<g><path style="opacity:1" fill="#848584" d="M 386.5,327.5 C 387.167,327.5 387.833,327.5 388.5,327.5C 362.855,329.491 336.855,330.158 310.5,329.5C 310.5,329.167 310.5,328.833 310.5,328.5C 336.005,328.831 361.339,328.498 386.5,327.5 Z"/></g>
<g><path style="opacity:1" fill="#cacaca" d="M 129.5,326.5 C 154.478,328.491 179.811,329.157 205.5,328.5C 240.5,328.5 275.5,328.5 310.5,328.5C 310.5,328.833 310.5,329.167 310.5,329.5C 249.833,329.5 189.167,329.5 128.5,329.5C 128.263,328.209 128.596,327.209 129.5,326.5 Z"/></g>
<g><path style="opacity:1" fill="#4c4e4c" d="M 129.5,326.5 C 130.167,326.5 130.833,326.5 131.5,326.5C 156.167,327.167 180.833,327.833 205.5,328.5C 179.811,329.157 154.478,328.491 129.5,326.5 Z"/></g>
<g><path style="opacity:1" fill="#5b5d5b" d="M 199.5,301.5 C 197.967,303.245 195.967,304.245 193.5,304.5C 195.033,302.755 197.033,301.755 199.5,301.5 Z"/></g>
<g><path style="opacity:1" fill="#4b4e4b" d="M 213.5,296.5 C 211.967,298.245 209.967,299.245 207.5,299.5C 209.033,297.755 211.033,296.755 213.5,296.5 Z"/></g>
<g><path style="opacity:1" fill="#0b0e0b" d="M 386.5,327.5 C 361.339,328.498 336.005,328.831 310.5,328.5C 275.5,328.5 240.5,328.5 205.5,328.5C 180.833,327.833 156.167,327.167 131.5,326.5C 151.958,318.606 172.625,311.272 193.5,304.5C 195.967,304.245 197.967,303.245 199.5,301.5C 201.993,300.226 204.659,299.56 207.5,299.5C 209.967,299.245 211.967,298.245 213.5,296.5C 227.325,291.113 241.325,286.113 255.5,281.5C 298.972,297.214 342.639,312.547 386.5,327.5 Z"/></g>
<g><path style="opacity:1" fill="#274879" d="M 261.5,117.5 C 261.833,118.167 262.167,118.833 262.5,119.5C 261.501,170.997 261.168,222.664 261.5,274.5C 260.503,258.008 260.17,241.342 260.5,224.5C 260.168,188.663 260.502,152.996 261.5,117.5 Z"/></g>
<g><path style="opacity:1" fill="#a2b0c5" d="M 261.5,117.5 C 260.502,152.996 260.168,188.663 260.5,224.5C 259.17,188.664 259.17,152.664 260.5,116.5C 261.107,116.624 261.44,116.957 261.5,117.5 Z"/></g>
<g><path style="opacity:1" fill="#052c64" d="M 262.5,119.5 C 308.601,187.515 354.601,255.681 400.5,324C 396.433,323.65 392.433,322.65 388.5,321C 346.25,305.195 303.917,289.695 261.5,274.5C 261.168,222.664 261.501,170.997 262.5,119.5 Z"/></g>
<g><path style="opacity:1" fill="#f2b810" d="M 250.5,113.5 C 251.833,135.823 252.5,158.49 252.5,181.5C 252.368,213.171 252.034,244.837 251.5,276.5C 205.032,291.907 158.699,307.574 112.5,323.5C 112.351,322.448 112.517,321.448 113,320.5C 158.854,251.443 204.687,182.443 250.5,113.5 Z"/></g>
<g><path style="opacity:0.024" fill="#b8b8b8" d="M 87.5,46.5 C 200.169,46.1667 312.835,46.5 425.5,47.5C 312.501,48.6667 199.501,48.8333 86.5,48C 87.056,47.6174 87.3893,47.1174 87.5,46.5 Z"/></g>
<g><path style="opacity:0.016" fill="#9d9d9d" d="M 430.5,469.5 C 314.5,470.833 198.5,470.833 82.5,469.5C 84.5273,469.662 86.5273,469.495 88.5,469C 87.5,468.667 86.5,468.333 85.5,468C 198.48,468.829 311.48,468.663 424.5,467.5C 427.063,467.737 427.063,468.237 424.5,469C 426.473,469.495 428.473,469.662 430.5,469.5 Z"/></g>
</svg>
