<?xml version="1.0" encoding="UTF-8"?>
<!DOCTYPE svg PUBLIC "-//W3C//DTD SVG 1.1//EN" "http://www.w3.org/Graphics/SVG/1.1/DTD/svg11.dtd">
<svg xmlns="http://www.w3.org/2000/svg" version="1.1" width="108px" height="108px" style="shape-rendering:geometricPrecision; text-rendering:geometricPrecision; image-rendering:optimizeQuality; fill-rule:evenodd; clip-rule:evenodd" xmlns:xlink="http://www.w3.org/1999/xlink">
<g><path style="opacity:0.011" fill="#000000" d="M -0.5,-0.5 C 35.5,-0.5 71.5,-0.5 107.5,-0.5C 107.5,35.5 107.5,71.5 107.5,107.5C 71.5,107.5 35.5,107.5 -0.5,107.5C -0.5,71.5 -0.5,35.5 -0.5,-0.5 Z"/></g>
<g><path style="opacity:0.971" fill="#040a39" d="M 43.5,19.5 C 69.7979,16.1525 84.7979,27.4859 88.5,53.5C 87.5855,70.1481 79.2522,81.3147 63.5,87C 43.4194,90.876 28.9194,83.7093 20,65.5C 14.9807,43.4076 22.814,28.0743 43.5,19.5 Z"/></g>
<g><path style="opacity:1" fill="#e1ddd6" d="M 55.5,28.5 C 55.1583,29.3382 54.4916,29.6716 53.5,29.5C 51.8073,30.4749 50.3073,31.8082 49,33.5C 42.6634,44.1764 35.8301,54.5097 28.5,64.5C 28.8333,64.8333 29.1667,65.1667 29.5,65.5C 35.2198,62.5722 41.2198,60.5722 47.5,59.5C 43.8305,61.7623 39.8305,63.429 35.5,64.5C 34.0783,64.7086 32.745,65.2086 31.5,66C 46.1629,66.4999 60.8295,66.6666 75.5,66.5C 77.0418,65.6993 78.7085,65.366 80.5,65.5C 80.5,65.8333 80.5,66.1667 80.5,66.5C 62.3409,67.4968 44.0076,67.8302 25.5,67.5C 34.0839,53.734 42.9172,40.0674 52,26.5C 54.1489,25.1602 55.3155,25.8269 55.5,28.5 Z"/></g>
<g><path style="opacity:1" fill="#f1ba24" d="M 53.5,29.5 C 53.5,38.8333 53.5,48.1667 53.5,57.5C 51.1016,57.2594 49.1016,57.9261 47.5,59.5C 41.2198,60.5722 35.2198,62.5722 29.5,65.5C 29.1667,65.1667 28.8333,64.8333 28.5,64.5C 35.8301,54.5097 42.6634,44.1764 49,33.5C 50.3073,31.8082 51.8073,30.4749 53.5,29.5 Z"/></g>
<g><path style="opacity:1" fill="#b7bdc9" d="M 55.5,28.5 C 64.1917,40.5371 72.5251,52.8704 80.5,65.5C 78.7085,65.366 77.0418,65.6993 75.5,66.5C 74.4863,65.3263 73.153,64.6596 71.5,64.5C 66.0918,62.9665 60.7584,61.1332 55.5,59C 52.8078,58.5702 50.1411,58.7369 47.5,59.5C 49.1016,57.9261 51.1016,57.2594 53.5,57.5C 53.5,48.1667 53.5,38.8333 53.5,29.5C 54.4916,29.6716 55.1583,29.3382 55.5,28.5 Z"/></g>
<g><path style="opacity:1" fill="#0d2f66" d="M 54.5,30.5 C 62.2239,40.9249 69.7239,51.5916 77,62.5C 77.5908,63.4835 77.2575,64.1501 76,64.5C 68.7742,62.3855 61.7742,59.7188 55,56.5C 54.5002,47.8397 54.3336,39.1731 54.5,30.5 Z"/></g>
<g><path style="opacity:1" fill="#111211" d="M 71.5,64.5 C 59.5,65.8333 47.5,65.8333 35.5,64.5C 39.8305,63.429 43.8305,61.7623 47.5,59.5C 50.1411,58.7369 52.8078,58.5702 55.5,59C 60.7584,61.1332 66.0918,62.9665 71.5,64.5 Z"/></g>
<g><path style="opacity:1" fill="#474947" d="M 35.5,64.5 C 47.5,65.8333 59.5,65.8333 71.5,64.5C 73.153,64.6596 74.4863,65.3263 75.5,66.5C 60.8295,66.6666 46.1629,66.4999 31.5,66C 32.745,65.2086 34.0783,64.7086 35.5,64.5 Z"/></g>
<g><path style="opacity:1" fill="#b7b8c5" d="M 80.5,66.5 C 81.0431,66.56 81.3764,66.8933 81.5,67.5C 72,67.8333 62.5,68.1667 53,68.5C 43.0906,68.513 33.9239,68.1796 25.5,67.5C 44.0076,67.8302 62.3409,67.4968 80.5,66.5 Z"/></g>
</svg>
