<?xml version="1.0" encoding="UTF-8"?>
<!DOCTYPE svg PUBLIC "-//W3C//DTD SVG 1.1//EN" "http://www.w3.org/Graphics/SVG/1.1/DTD/svg11.dtd">
<svg xmlns="http://www.w3.org/2000/svg" version="1.1" width="512px" height="512px" style="shape-rendering:geometricPrecision; text-rendering:geometricPrecision; image-rendering:optimizeQuality; fill-rule:evenodd; clip-rule:evenodd" xmlns:xlink="http://www.w3.org/1999/xlink">
<g><path style="opacity:1" fill="#040939" d="M -0.5,-0.5 C 170.167,-0.5 340.833,-0.5 511.5,-0.5C 511.5,170.167 511.5,340.833 511.5,511.5C 340.833,511.5 170.167,511.5 -0.5,511.5C -0.5,340.833 -0.5,170.167 -0.5,-0.5 Z"/></g>
<g><path style="opacity:1" fill="#f7f7f7" d="M 460.5,358.5 C 460.557,359.609 460.89,360.609 461.5,361.5C 323.163,362.165 185.163,361.498 47.5,359.5C 94.3398,287.815 141.673,216.482 189.5,145.5C 190.906,145.027 191.573,144.027 191.5,142.5C 192.449,140.223 193.782,138.223 195.5,136.5C 196.906,136.027 197.573,135.027 197.5,133.5C 215.913,104.344 235.08,75.6777 255,47.5C 255.5,47.6667 256,47.8333 256.5,48C 324.396,151.643 392.396,255.143 460.5,358.5 Z"/></g>
<g><path style="opacity:1" fill="#f2b810" d="M 251.5,192.5 C 251.942,222.423 251.275,252.256 249.5,282C 190.842,302.489 132.176,322.656 73.5,342.5C 73.3433,341.127 73.51,339.793 74,338.5C 131.963,250.87 190.13,163.537 248.5,76.5C 249.117,76.3893 249.617,76.056 250,75.5C 250.167,114.669 250.667,153.669 251.5,192.5 Z"/></g>
<g><path style="opacity:1" fill="#f3c334" d="M 251.5,192.5 C 250.667,153.669 250.167,114.669 250,75.5C 249.617,76.056 249.117,76.3893 248.5,76.5C 248.821,74.9519 249.821,74.2852 251.5,74.5C 251.5,113.833 251.5,153.167 251.5,192.5 Z"/></g>
<g><path style="opacity:1" fill="#052c64" d="M 264.5,82.5 C 322.644,168.768 380.81,255.101 439,341.5C 439.688,342.332 439.521,342.998 438.5,343.5C 436.885,342.846 435.218,342.346 433.5,342C 422.678,337.377 411.678,333.211 400.5,329.5C 399.07,328.463 397.403,327.796 395.5,327.5C 385.441,324.157 375.441,320.823 365.5,317.5C 363.967,315.755 361.967,314.755 359.5,314.5C 355.952,313.87 352.619,312.87 349.5,311.5C 346.491,308.682 342.825,307.349 338.5,307.5C 332.234,305.771 326.234,303.437 320.5,300.5C 318.485,299.076 316.152,298.41 313.5,298.5C 311.579,297.637 309.579,296.971 307.5,296.5C 305.967,294.755 303.967,293.755 301.5,293.5C 299.784,293.371 298.117,293.038 296.5,292.5C 294.967,290.755 292.967,289.755 290.5,289.5C 288.784,289.371 287.117,289.038 285.5,288.5C 283.967,286.755 281.967,285.755 279.5,285.5C 273.914,283.083 268.247,281.083 262.5,279.5C 262.333,213.499 262.5,147.499 263,81.5C 263.383,82.056 263.883,82.3893 264.5,82.5 Z"/></g>
<g><path style="opacity:1" fill="#aab8ca" d="M 263.5,79.5 C 261.511,100.474 260.844,121.807 261.5,143.5C 260.172,121.663 260.172,99.663 261.5,77.5C 262.522,77.8555 263.189,78.5222 263.5,79.5 Z"/></g>
<g><path style="opacity:1" fill="#546e94" d="M 263.5,79.5 C 264.11,80.391 264.443,81.391 264.5,82.5C 263.883,82.3893 263.383,82.056 263,81.5C 262.5,147.499 262.333,213.499 262.5,279.5C 261.501,234.336 261.168,189.003 261.5,143.5C 260.844,121.807 261.511,100.474 263.5,79.5 Z"/></g>
<g><path style="opacity:1" fill="#8d8fa5" d="M 197.5,133.5 C 197.573,135.027 196.906,136.027 195.5,136.5C 195.427,134.973 196.094,133.973 197.5,133.5 Z"/></g>
<g><path style="opacity:1" fill="#8d8fa5" d="M 191.5,142.5 C 191.573,144.027 190.906,145.027 189.5,145.5C 189.427,143.973 190.094,142.973 191.5,142.5 Z"/></g>
<g><path style="opacity:1" fill="#7c90ad" d="M 279.5,285.5 C 281.967,285.755 283.967,286.755 285.5,288.5C 283.033,288.245 281.033,287.245 279.5,285.5 Z"/></g>
<g><path style="opacity:1" fill="#6a6c6a" d="M 257.5,289.5 C 253.397,290.09 249.397,291.09 245.5,292.5C 247.385,290.689 249.719,289.522 252.5,289C 254.387,288.22 256.054,288.387 257.5,289.5 Z"/></g>
<g><path style="opacity:1" fill="#0b0e0b" d="M 257.5,289.5 C 258.167,289.5 258.833,289.5 259.5,289.5C 261.033,291.245 263.033,292.245 265.5,292.5C 269.015,293.043 272.348,294.043 275.5,295.5C 279.841,297.008 284.174,298.675 288.5,300.5C 290.042,301.301 291.708,301.634 293.5,301.5C 293.611,302.117 293.944,302.617 294.5,303C 298.518,304.171 302.518,305.337 306.5,306.5C 306.833,306.5 307.167,306.5 307.5,306.5C 309.509,308.065 311.843,309.065 314.5,309.5C 315.833,309.833 317.167,310.167 318.5,310.5C 320.509,312.065 322.843,313.065 325.5,313.5C 338.424,318.132 351.424,322.466 364.5,326.5C 365.635,328.213 367.302,328.88 369.5,328.5C 371.214,329.738 373.214,330.405 375.5,330.5C 376.635,332.213 378.302,332.88 380.5,332.5C 383.254,333.946 386.254,334.946 389.5,335.5C 391.509,337.065 393.843,338.065 396.5,338.5C 405.137,341.49 413.803,344.49 422.5,347.5C 360.669,348.499 298.669,348.832 236.5,348.5C 214.167,348.5 191.833,348.5 169.5,348.5C 145.167,347.833 120.833,347.167 96.5,346.5C 96.8333,346.5 97.1667,346.5 97.5,346.5C 100.947,345.917 103.947,344.584 106.5,342.5C 107.167,342.5 107.833,342.5 108.5,342.5C 111.947,341.917 114.947,340.584 117.5,338.5C 119.117,337.962 120.784,337.629 122.5,337.5C 124.967,337.245 126.967,336.245 128.5,334.5C 130.117,333.962 131.784,333.629 133.5,333.5C 136.397,332.871 139.064,331.871 141.5,330.5C 142.209,329.596 143.209,329.263 144.5,329.5C 147.947,328.917 150.947,327.584 153.5,325.5C 165.176,320.945 176.842,316.611 188.5,312.5C 191.152,312.59 193.485,311.924 195.5,310.5C 197.214,309.262 199.214,308.595 201.5,308.5C 203.967,308.245 205.967,307.245 207.5,305.5C 208.167,305.5 208.833,305.5 209.5,305.5C 211.153,305.34 212.486,304.674 213.5,303.5C 216.152,303.59 218.485,302.924 220.5,301.5C 222.153,301.34 223.486,300.674 224.5,299.5C 227.152,299.59 229.485,298.924 231.5,297.5C 232.209,296.596 233.209,296.263 234.5,296.5C 237.397,295.871 240.064,294.871 242.5,293.5C 243.209,292.596 244.209,292.263 245.5,292.5C 249.397,291.09 253.397,290.09 257.5,289.5 Z"/></g>
<g><path style="opacity:1" fill="#747674" d="M 259.5,289.5 C 261.967,289.755 263.967,290.755 265.5,292.5C 263.033,292.245 261.033,291.245 259.5,289.5 Z"/></g>
<g><path style="opacity:1" fill="#7f92af" d="M 290.5,289.5 C 292.967,289.755 294.967,290.755 296.5,292.5C 294.033,292.245 292.033,291.245 290.5,289.5 Z"/></g>
<g><path style="opacity:1" fill="#6a6c6a" d="M 242.5,293.5 C 240.064,294.871 237.397,295.871 234.5,296.5C 236.617,294.345 239.284,293.345 242.5,293.5 Z"/></g>
<g><path style="opacity:1" fill="#8395b1" d="M 301.5,293.5 C 303.967,293.755 305.967,294.755 307.5,296.5C 305.033,296.245 303.033,295.245 301.5,293.5 Z"/></g>
<g><path style="opacity:1" fill="#b6b7b6" d="M 275.5,295.5 C 280.597,295.473 284.93,297.14 288.5,300.5C 284.174,298.675 279.841,297.008 275.5,295.5 Z"/></g>
<g><path style="opacity:1" fill="#6d6f6d" d="M 231.5,297.5 C 229.485,298.924 227.152,299.59 224.5,299.5C 226.515,298.076 228.848,297.41 231.5,297.5 Z"/></g>
<g><path style="opacity:1" fill="#7287a7" d="M 313.5,298.5 C 316.152,298.41 318.485,299.076 320.5,300.5C 317.848,300.59 315.515,299.924 313.5,298.5 Z"/></g>
<g><path style="opacity:1" fill="#7c7e7c" d="M 224.5,299.5 C 223.486,300.674 222.153,301.34 220.5,301.5C 221.287,299.896 222.62,299.229 224.5,299.5 Z"/></g>
<g><path style="opacity:1" fill="#6d6f6d" d="M 220.5,301.5 C 218.485,302.924 216.152,303.59 213.5,303.5C 215.515,302.076 217.848,301.41 220.5,301.5 Z"/></g>
<g><path style="opacity:1" fill="#a3a4a3" d="M 293.5,301.5 C 296.738,302.633 300.071,303.467 303.5,304C 304.942,304.377 305.942,305.21 306.5,306.5C 302.518,305.337 298.518,304.171 294.5,303C 293.944,302.617 293.611,302.117 293.5,301.5 Z"/></g>
<g><path style="opacity:1" fill="#7e7f7e" d="M 213.5,303.5 C 212.486,304.674 211.153,305.34 209.5,305.5C 210.287,303.896 211.62,303.229 213.5,303.5 Z"/></g>
<g><path style="opacity:1" fill="#767876" d="M 207.5,305.5 C 205.967,307.245 203.967,308.245 201.5,308.5C 203.033,306.755 205.033,305.755 207.5,305.5 Z"/></g>
<g><path style="opacity:1" fill="#a6a7a6" d="M 307.5,306.5 C 310.491,306.166 312.824,307.166 314.5,309.5C 311.843,309.065 309.509,308.065 307.5,306.5 Z"/></g>
<g><path style="opacity:1" fill="#586d94" d="M 338.5,307.5 C 342.825,307.349 346.491,308.682 349.5,311.5C 345.74,310.314 342.074,308.981 338.5,307.5 Z"/></g>
<g><path style="opacity:1" fill="#7e7f7e" d="M 195.5,310.5 C 193.485,311.924 191.152,312.59 188.5,312.5C 190.515,311.076 192.848,310.41 195.5,310.5 Z"/></g>
<g><path style="opacity:1" fill="#979897" d="M 318.5,310.5 C 321.491,310.166 323.824,311.166 325.5,313.5C 322.843,313.065 320.509,312.065 318.5,310.5 Z"/></g>
<g><path style="opacity:1" fill="#899ab5" d="M 359.5,314.5 C 361.967,314.755 363.967,315.755 365.5,317.5C 363.033,317.245 361.033,316.245 359.5,314.5 Z"/></g>
<g><path style="opacity:1" fill="#565856" d="M 153.5,325.5 C 150.947,327.584 147.947,328.917 144.5,329.5C 147.053,327.416 150.053,326.083 153.5,325.5 Z"/></g>
<g><path style="opacity:1" fill="#757675" d="M 364.5,326.5 C 366.403,326.796 368.07,327.463 369.5,328.5C 367.302,328.88 365.635,328.213 364.5,326.5 Z"/></g>
<g><path style="opacity:1" fill="#8194b0" d="M 395.5,327.5 C 397.403,327.796 399.07,328.463 400.5,329.5C 398.302,329.88 396.635,329.213 395.5,327.5 Z"/></g>
<g><path style="opacity:1" fill="#585a58" d="M 141.5,330.5 C 139.064,331.871 136.397,332.871 133.5,333.5C 135.617,331.345 138.284,330.345 141.5,330.5 Z"/></g>
<g><path style="opacity:1" fill="#666866" d="M 375.5,330.5 C 377.403,330.796 379.07,331.463 380.5,332.5C 378.302,332.88 376.635,332.213 375.5,330.5 Z"/></g>
<g><path style="opacity:1" fill="#616361" d="M 128.5,334.5 C 126.967,336.245 124.967,337.245 122.5,337.5C 124.033,335.755 126.033,334.755 128.5,334.5 Z"/></g>
<g><path style="opacity:1" fill="#969896" d="M 389.5,335.5 C 392.491,335.166 394.824,336.166 396.5,338.5C 393.843,338.065 391.509,337.065 389.5,335.5 Z"/></g>
<g><path style="opacity:1" fill="#656765" d="M 117.5,338.5 C 114.947,340.584 111.947,341.917 108.5,342.5C 111.053,340.416 114.053,339.083 117.5,338.5 Z"/></g>
<g><path style="opacity:1" fill="#666866" d="M 106.5,342.5 C 103.947,344.584 100.947,345.917 97.5,346.5C 97.5,346.167 97.5,345.833 97.5,345.5C 100.421,344.304 103.421,343.304 106.5,342.5 Z"/></g>
<g><path style="opacity:1" fill="#616361" d="M 96.5,346.5 C 120.833,347.167 145.167,347.833 169.5,348.5C 144.824,348.833 120.158,348.5 95.5,347.5C 95.6236,346.893 95.9569,346.56 96.5,346.5 Z"/></g>
<g><path style="opacity:1" fill="#c5c5c5" d="M 97.5,345.5 C 97.5,345.833 97.5,346.167 97.5,346.5C 97.1667,346.5 96.8333,346.5 96.5,346.5C 95.9569,346.56 95.6236,346.893 95.5,347.5C 120.158,348.5 144.824,348.833 169.5,348.5C 191.833,348.5 214.167,348.5 236.5,348.5C 236.5,348.833 236.5,349.167 236.5,349.5C 188.833,349.5 141.167,349.5 93.5,349.5C 93.1667,346.5 94.5,345.167 97.5,345.5 Z"/></g>
<g><path style="opacity:1" fill="#717371" d="M 422.5,347.5 C 423.5,347.5 424.5,347.5 425.5,347.5C 407.197,349.487 388.53,350.154 369.5,349.5C 325.167,349.5 280.833,349.5 236.5,349.5C 236.5,349.167 236.5,348.833 236.5,348.5C 298.669,348.832 360.669,348.499 422.5,347.5 Z"/></g>
<g><path style="opacity:1" fill="#b3b4b3" d="M 425.5,347.5 C 426.478,347.811 427.145,348.478 427.5,349.5C 408.004,350.828 388.671,350.828 369.5,349.5C 388.53,350.154 407.197,349.487 425.5,347.5 Z"/></g>
<g><path style="opacity:1" fill="#c9cad4" d="M 47.5,359.5 C 185.163,361.498 323.163,362.165 461.5,361.5C 323.903,362.5 185.57,362.833 46.5,362.5C 45.2848,361.221 45.6182,360.221 47.5,359.5 Z"/></g>
<g><path style="opacity:1" fill="#747792" d="M 460.5,358.5 C 462.727,359.401 463.727,361.067 463.5,363.5C 324.332,363.833 185.332,363.5 46.5,362.5C 185.57,362.833 323.903,362.5 461.5,361.5C 460.89,360.609 460.557,359.609 460.5,358.5 Z"/></g>
</svg>
