<?xml version="1.0" encoding="UTF-8"?>
<!DOCTYPE svg PUBLIC "-//W3C//DTD SVG 1.1//EN" "http://www.w3.org/Graphics/SVG/1.1/DTD/svg11.dtd">
<svg xmlns="http://www.w3.org/2000/svg" version="1.1" width="96px" height="96px" style="shape-rendering:geometricPrecision; text-rendering:geometricPrecision; image-rendering:optimizeQuality; fill-rule:evenodd; clip-rule:evenodd" xmlns:xlink="http://www.w3.org/1999/xlink">
<g><path style="opacity:0.008" fill="#020202" d="M -0.5,-0.5 C 31.5,-0.5 63.5,-0.5 95.5,-0.5C 95.5,31.5 95.5,63.5 95.5,95.5C 63.5,95.5 31.5,95.5 -0.5,95.5C -0.5,63.5 -0.5,31.5 -0.5,-0.5 Z"/></g>
<g><path style="opacity:0.99" fill="#fafafb" d="M 91.5,57.5 C 80.6318,85.1031 60.6318,95.6031 31.5,89C 18.1073,82.1074 8.774,71.6074 3.5,57.5C -0.132047,36.0906 7.20129,19.4239 25.5,7.5C 49.848,-2.55229 70.0147,2.78104 86,23.5C 92.1981,34.2113 94.0315,45.5446 91.5,57.5 Z"/></g>
<g><path style="opacity:1" fill="#191b5c" d="M 36.5,40.5 C 35.4154,42.5869 33.7488,43.9202 31.5,44.5C 29.6536,34.3109 32.9869,26.4775 41.5,21C 54.5615,19.0184 61.8948,24.5184 63.5,37.5C 61.8333,37.5 60.1667,37.5 58.5,37.5C 57.6796,28.1769 52.6796,24.3436 43.5,26C 38.1035,29.2943 35.7702,34.1276 36.5,40.5 Z"/></g>
<g><path style="opacity:1" fill="#29c1f9" d="M 31.5,44.5 C 33.7488,43.9202 35.4154,42.5869 36.5,40.5C 39.4706,38.3427 42.4706,36.1761 45.5,34C 47.6354,33.3653 49.6354,33.6986 51.5,35C 56.3333,39.1667 61.1667,43.3333 66,47.5C 66.6667,49.8333 66.6667,52.1667 66,54.5C 63.841,52.0437 63.0077,52.7104 63.5,56.5C 61.8333,56.5 60.1667,56.5 58.5,56.5C 58.6646,53.4816 58.498,50.4816 58,47.5C 54.6167,44.6085 51.1167,41.9419 47.5,39.5C 43.7712,41.7906 40.2712,44.4572 37,47.5C 36.502,50.4816 36.3354,53.4816 36.5,56.5C 34.8333,56.5 33.1667,56.5 31.5,56.5C 31.9923,52.7104 31.159,52.0437 29,54.5C 27.8613,50.5789 28.6946,47.2456 31.5,44.5 Z"/></g>
<g><path style="opacity:1" fill="#242362" d="M 45.5,48.5 C 48.5904,47.83 50.257,48.9967 50.5,52C 48.5,63.3333 46.5,63.3333 44.5,52C 44.6483,50.7441 44.9816,49.5774 45.5,48.5 Z"/></g>
<g><path style="opacity:0.323" fill="#a5a5a5" d="M 3.5,57.5 C 8.774,71.6074 18.1073,82.1074 31.5,89C 60.6318,95.6031 80.6318,85.1031 91.5,57.5C 85.6201,80.6369 70.6201,92.6369 46.5,93.5C 23.3401,92.0044 9.00681,80.0044 3.5,57.5 Z"/></g>
<g><path style="opacity:1" fill="#575b8a" d="M 36.5,59.5 C 35.1667,59.5 33.8333,59.5 32.5,59.5C 32.5,60.8333 32.5,62.1667 32.5,63.5C 31.5489,62.0813 31.2155,60.4147 31.5,58.5C 33.4147,58.2155 35.0813,58.5489 36.5,59.5 Z"/></g>
<g><path style="opacity:1" fill="#17175a" d="M 36.5,59.5 C 36.472,61.5824 37.1387,63.4157 38.5,65C 44.5,65.6667 50.5,65.6667 56.5,65C 57.8613,63.4157 58.528,61.5824 58.5,59.5C 59.8333,59.5 61.1667,59.5 62.5,59.5C 62.5,60.8333 62.5,62.1667 62.5,63.5C 59.9208,70.3649 54.9208,73.0316 47.5,71.5C 40.0792,73.0316 35.0792,70.3649 32.5,63.5C 32.5,62.1667 32.5,60.8333 32.5,59.5C 33.8333,59.5 35.1667,59.5 36.5,59.5 Z"/></g>
<g><path style="opacity:1" fill="#585c8a" d="M 58.5,59.5 C 59.9187,58.5489 61.5853,58.2155 63.5,58.5C 63.7845,60.4147 63.4511,62.0813 62.5,63.5C 62.5,62.1667 62.5,60.8333 62.5,59.5C 61.1667,59.5 59.8333,59.5 58.5,59.5 Z"/></g>
</svg>
