<?xml version="1.0" encoding="UTF-8"?>
<!DOCTYPE svg PUBLIC "-//W3C//DTD SVG 1.1//EN" "http://www.w3.org/Graphics/SVG/1.1/DTD/svg11.dtd">
<svg xmlns="http://www.w3.org/2000/svg" version="1.1" width="216px" height="216px" style="shape-rendering:geometricPrecision; text-rendering:geometricPrecision; image-rendering:optimizeQuality; fill-rule:evenodd; clip-rule:evenodd" xmlns:xlink="http://www.w3.org/1999/xlink">
<g><path style="opacity:0.008" fill="#000000" d="M -0.5,-0.5 C 1.16667,-0.5 2.83333,-0.5 4.5,-0.5C 4.83333,2.16667 5.16667,2.16667 5.5,-0.5C 5.83333,-0.5 6.16667,-0.5 6.5,-0.5C 6.83333,0.833333 7.16667,0.833333 7.5,-0.5C 16.8333,-0.5 26.1667,-0.5 35.5,-0.5C 35.8333,2.16667 36.1667,2.16667 36.5,-0.5C 37.5,-0.5 38.5,-0.5 39.5,-0.5C 39.8333,2.16667 40.1667,2.16667 40.5,-0.5C 41.8333,-0.5 43.1667,-0.5 44.5,-0.5C 43.537,0.3635 43.537,1.03017 44.5,1.5C 45.2975,1.04311 45.6309,0.376442 45.5,-0.5C 48.1667,-0.5 50.8333,-0.5 53.5,-0.5C 54.1667,2.16667 54.8333,2.16667 55.5,-0.5C 57.5,-0.5 59.5,-0.5 61.5,-0.5C 61.5,0.833333 62.1667,1.5 63.5,1.5C 63.5,0.833333 63.5,0.166667 63.5,-0.5C 90.5,-0.5 117.5,-0.5 144.5,-0.5C 144.833,0.833333 145.167,0.833333 145.5,-0.5C 149.5,-0.5 153.5,-0.5 157.5,-0.5C 158.167,0.833333 158.833,0.833333 159.5,-0.5C 163.5,-0.5 167.5,-0.5 171.5,-0.5C 171.833,0.833333 172.167,0.833333 172.5,-0.5C 181.167,-0.5 189.833,-0.5 198.5,-0.5C 198.833,0.833333 199.167,0.833333 199.5,-0.5C 203.5,-0.5 207.5,-0.5 211.5,-0.5C 212.167,0.833333 212.833,0.833333 213.5,-0.5C 214.167,-0.5 214.833,-0.5 215.5,-0.5C 215.5,0.5 215.5,1.5 215.5,2.5C 214.167,2.83333 214.167,3.16667 215.5,3.5C 215.5,46.1667 215.5,88.8333 215.5,131.5C 214.167,132.167 214.167,132.833 215.5,133.5C 215.5,137.5 215.5,141.5 215.5,145.5C 213.067,146.548 213.067,147.214 215.5,147.5C 215.5,151.5 215.5,155.5 215.5,159.5C 212.833,160.167 212.833,160.833 215.5,161.5C 215.5,165.167 215.5,168.833 215.5,172.5C 213.067,173.548 213.067,174.214 215.5,174.5C 215.5,178.167 215.5,181.833 215.5,185.5C 214.167,186.167 214.167,186.833 215.5,187.5C 215.5,191.5 215.5,195.5 215.5,199.5C 213.067,200.548 213.067,201.214 215.5,201.5C 215.5,205.5 215.5,209.5 215.5,213.5C 214.167,213.5 213.5,214.167 213.5,215.5C 210.5,215.5 207.5,215.5 204.5,215.5C 204.167,212.833 203.833,212.833 203.5,215.5C 202.833,215.5 202.167,215.5 201.5,215.5C 201.214,213.067 200.548,213.067 199.5,215.5C 196.833,215.5 194.167,215.5 191.5,215.5C 191.167,212.833 190.833,212.833 190.5,215.5C 189.5,215.5 188.5,215.5 187.5,215.5C 186.833,214.167 186.167,214.167 185.5,215.5C 181.833,215.5 178.167,215.5 174.5,215.5C 174.214,213.067 173.548,213.067 172.5,215.5C 168.833,215.5 165.167,215.5 161.5,215.5C 160.833,212.833 160.167,212.833 159.5,215.5C 156.5,215.5 153.5,215.5 150.5,215.5C 150.167,212.833 149.833,212.833 149.5,215.5C 148.833,215.5 148.167,215.5 147.5,215.5C 147.214,213.067 146.548,213.067 145.5,215.5C 142.833,215.5 140.167,215.5 137.5,215.5C 137.167,212.833 136.833,212.833 136.5,215.5C 135.5,215.5 134.5,215.5 133.5,215.5C 132.833,214.167 132.167,214.167 131.5,215.5C 87.5,215.5 43.5,215.5 -0.5,215.5C -0.5,164.833 -0.5,114.167 -0.5,63.5C 1.23846,61.8805 1.73846,59.8805 1,57.5C 0.721579,58.4158 0.221579,59.0825 -0.5,59.5C -0.5,58.1667 -0.5,56.8333 -0.5,55.5C 2.16667,54.8333 2.16667,54.1667 -0.5,53.5C -0.5,52.8333 -0.5,52.1667 -0.5,51.5C 0.376442,51.6309 1.04311,51.2975 1.5,50.5C 1.03017,49.537 0.3635,49.537 -0.5,50.5C -0.5,47.1667 -0.5,43.8333 -0.5,40.5C 2.16667,40.1667 2.16667,39.8333 -0.5,39.5C -0.5,28.8333 -0.5,18.1667 -0.5,7.5C 0.833333,7.16667 0.833333,6.83333 -0.5,6.5C -0.5,6.16667 -0.5,5.83333 -0.5,5.5C 2.16667,4.83333 2.16667,4.16667 -0.5,3.5C -0.5,2.16667 -0.5,0.833333 -0.5,-0.5 Z M 63.5,1.5 C 65.337,1.63945 65.6704,2.30612 64.5,3.5C 63.7025,3.04311 63.3691,2.37644 63.5,1.5 Z M 107.5,1.5 C 109.337,1.63945 109.67,2.30612 108.5,3.5C 107.702,3.04311 107.369,2.37644 107.5,1.5 Z M 119.5,1.5 C 120.978,1.23798 122.311,1.57131 123.5,2.5C 122.833,2.83333 122.167,3.16667 121.5,3.5C 120.287,3.25284 119.62,2.58617 119.5,1.5 Z M 2.5,65.5 C 3.08419,68.2084 3.08419,70.8751 2.5,73.5C 1.55075,70.8742 1.55075,68.2075 2.5,65.5 Z M 1.5,79.5 C 2.47197,78.2486 3.13864,78.582 3.5,80.5C 3.12044,82.4743 2.78711,84.4743 2.5,86.5C 1.86702,84.0045 1.53369,81.6712 1.5,79.5 Z M 2.5,95.5 C 2.09409,93.8908 2.09409,92.5575 2.5,91.5C 3.78202,92.9584 3.78202,94.2918 2.5,95.5 Z M 2.5,95.5 C 3.2916,96.9669 3.2916,98.3002 2.5,99.5C 1.21798,98.0416 1.21798,96.7082 2.5,95.5 Z M 2.5,105.5 C 3.70901,107.435 3.54234,109.435 2,111.5C 1.50987,109.455 1.67653,107.455 2.5,105.5 Z M 1.5,119.5 C 2.69459,119.866 3.36126,120.699 3.5,122C 2.68712,123.342 2.35379,124.508 2.5,125.5C 1.53443,123.604 1.2011,121.604 1.5,119.5 Z M 160.5,131.5 C 163.001,131.511 163.168,132.178 161,133.5C 160.536,132.906 160.369,132.239 160.5,131.5 Z M 174.5,133.5 C 174.167,133.5 173.833,133.5 173.5,133.5C 173.369,132.624 173.702,131.957 174.5,131.5C 175.463,131.97 175.463,132.637 174.5,133.5 Z M 160.5,145.5 C 161.773,146.077 161.773,146.743 160.5,147.5C 159.537,147.03 159.537,146.363 160.5,145.5 Z M 133.5,157.5 C 134.289,157.783 134.956,158.283 135.5,159C 134.184,159.528 133.517,159.028 133.5,157.5 Z M 187.5,157.5 C 188.289,157.783 188.956,158.283 189.5,159C 188.184,159.528 187.517,159.028 187.5,157.5 Z M 147.5,159.5 C 147.483,161.028 146.816,161.528 145.5,161C 146.044,160.283 146.711,159.783 147.5,159.5 Z M 159.5,159.5 C 161.337,159.639 161.67,160.306 160.5,161.5C 159.702,161.043 159.369,160.376 159.5,159.5 Z M 174.5,159.5 C 174.291,160.922 173.791,162.255 173,163.5C 172.227,161.648 172.727,160.314 174.5,159.5 Z M 201.5,159.5 C 201.483,161.028 200.816,161.528 199.5,161C 200.044,160.283 200.711,159.783 201.5,159.5 Z M 131.5,160.5 C 133.646,160.696 133.812,161.696 132,163.5C 131.517,162.552 131.351,161.552 131.5,160.5 Z M 185.5,160.5 C 187.646,160.696 187.812,161.696 186,163.5C 185.517,162.552 185.351,161.552 185.5,160.5 Z M 133.5,173.5 C 133.639,171.663 134.306,171.33 135.5,172.5C 135.043,173.298 134.376,173.631 133.5,173.5 Z M 149.5,173.5 C 148.833,173.5 148.167,173.5 147.5,173.5C 147.786,171.067 148.452,171.067 149.5,173.5 Z M 174.5,174.5 C 173.778,174.918 173.278,175.584 173,176.5C 172.278,174.339 172.945,172.672 175,171.5C 175.47,172.577 175.303,173.577 174.5,174.5 Z M 187.5,173.5 C 187.639,171.663 188.306,171.33 189.5,172.5C 189.043,173.298 188.376,173.631 187.5,173.5 Z M 203.5,173.5 C 202.833,173.5 202.167,173.5 201.5,173.5C 201.786,171.067 202.452,171.067 203.5,173.5 Z M 160.5,172.5 C 162.975,172.747 162.975,173.413 160.5,174.5C 159.537,174.03 159.537,173.363 160.5,172.5 Z M 133.5,173.5 C 133.5,173.833 133.5,174.167 133.5,174.5C 132.778,174.918 132.278,175.584 132,176.5C 131.275,174.843 131.775,173.843 133.5,173.5 Z M 187.5,173.5 C 187.5,173.833 187.5,174.167 187.5,174.5C 186.778,174.918 186.278,175.584 186,176.5C 185.275,174.843 185.775,173.843 187.5,173.5 Z M 160.5,185.5 C 163.001,185.511 163.168,186.178 161,187.5C 160.536,186.906 160.369,186.239 160.5,185.5 Z M 174.5,187.5 C 174.167,187.5 173.833,187.5 173.5,187.5C 173.369,186.624 173.702,185.957 174.5,185.5C 175.463,185.97 175.463,186.637 174.5,187.5 Z M 160.5,199.5 C 161.773,200.077 161.773,200.743 160.5,201.5C 159.537,201.03 159.537,200.363 160.5,199.5 Z M 133.5,211.5 C 134.289,211.783 134.956,212.283 135.5,213C 134.184,213.528 133.517,213.028 133.5,211.5 Z M 187.5,211.5 C 188.289,211.783 188.956,212.283 189.5,213C 188.184,213.528 187.517,213.028 187.5,211.5 Z"/></g>
<g><path style="opacity:0.839" fill="#030b50" d="M 90.5,94.5 C 88.2433,98.1509 85.2433,101.151 81.5,103.5C 78.1038,88.4335 82.1038,75.9335 93.5,66C 112.338,57.8378 125.505,63.3378 133,82.5C 133.498,85.4816 133.665,88.4816 133.5,91.5C 130.5,91.5 127.5,91.5 124.5,91.5C 122.73,76.8759 114.73,71.0426 100.5,74C 93.0477,78.7392 89.7143,85.5726 90.5,94.5 Z"/></g>
<g><path style="opacity:0.96" fill="#00b9f6" d="M 121.5,91.5 C 127.576,97.0795 133.576,102.913 139.5,109C 139.25,112.332 139.25,115.832 139.5,119.5C 137.516,119.617 135.85,118.95 134.5,117.5C 133.534,119.396 133.201,121.396 133.5,123.5C 130.5,123.5 127.5,123.5 124.5,123.5C 124.666,118.489 124.499,113.489 124,108.5C 119.833,104.667 115.667,100.833 111.5,97C 109.305,95.627 106.971,95.2937 104.5,96C 100,100.167 95.5,104.333 91,108.5C 90.5007,113.489 90.3341,118.489 90.5,123.5C 87.5,123.5 84.5,123.5 81.5,123.5C 81.7989,121.396 81.4656,119.396 80.5,117.5C 79.1502,118.95 77.4835,119.617 75.5,119.5C 75.1758,115.445 75.5091,111.445 76.5,107.5C 78.0147,105.918 79.6814,104.584 81.5,103.5C 85.2433,101.151 88.2433,98.1509 90.5,94.5C 94.2907,91.8819 97.9574,89.0486 101.5,86C 105.5,85.3333 109.5,85.3333 113.5,86C 116.065,88.0795 118.732,89.9128 121.5,91.5 Z"/></g>
<g><path style="opacity:0.763" fill="#030a4f" d="M 112.5,109.5 C 112.995,111.452 113.328,113.452 113.5,115.5C 112.272,119.575 111.272,123.741 110.5,128C 110.833,128.333 111.167,128.667 111.5,129C 109.098,129.814 106.765,129.647 104.5,128.5C 103.986,125.356 103.153,122.356 102,119.5C 99.9441,110.316 103.444,106.983 112.5,109.5 Z"/></g>
<g><path style="opacity:0.867" fill="#030a50" d="M 81.5,125.5 C 84.5,125.5 87.5,125.5 90.5,125.5C 90.379,129.31 91.7124,132.477 94.5,135C 103.167,135.667 111.833,135.667 120.5,135C 123.288,132.477 124.621,129.31 124.5,125.5C 127.5,125.5 130.5,125.5 133.5,125.5C 135.072,136.208 130.738,143.042 120.5,146C 111.833,146.667 103.167,146.667 94.5,146C 84.3428,142.986 80.0095,136.152 81.5,125.5 Z"/></g>
</svg>
