<?xml version="1.0" encoding="UTF-8"?>
<!DOCTYPE svg PUBLIC "-//W3C//DTD SVG 1.1//EN" "http://www.w3.org/Graphics/SVG/1.1/DTD/svg11.dtd">
<svg xmlns="http://www.w3.org/2000/svg" version="1.1" width="162px" height="162px" style="shape-rendering:geometricPrecision; text-rendering:geometricPrecision; image-rendering:optimizeQuality; fill-rule:evenodd; clip-rule:evenodd" xmlns:xlink="http://www.w3.org/1999/xlink">
<g><path style="opacity:0.009" fill="#000000" d="M -0.5,-0.5 C 13.1667,-0.5 26.8333,-0.5 40.5,-0.5C 40.8333,0.833333 41.1667,0.833333 41.5,-0.5C 43.1667,-0.5 44.8333,-0.5 46.5,-0.5C 46.8333,0.833333 47.1667,0.833333 47.5,-0.5C 85.5,-0.5 123.5,-0.5 161.5,-0.5C 161.5,39.5 161.5,79.5 161.5,119.5C 160.167,119.833 160.167,120.167 161.5,120.5C 161.5,133.833 161.5,147.167 161.5,160.5C 160.833,160.5 160.5,160.833 160.5,161.5C 106.833,161.5 53.1667,161.5 -0.5,161.5C -0.5,122.833 -0.5,84.1667 -0.5,45.5C 0.833333,45.1667 0.833333,44.8333 -0.5,44.5C -0.5,43.5 -0.5,42.5 -0.5,41.5C 0.833333,41.1667 0.833333,40.8333 -0.5,40.5C -0.5,28.1667 -0.5,15.8333 -0.5,3.5C 0.833333,3.16667 0.833333,2.83333 -0.5,2.5C -0.5,1.5 -0.5,0.5 -0.5,-0.5 Z"/></g>
<g><path style="opacity:0.803" fill="#030a4f" d="M 68.5,69.5 C 66.8333,73.1667 64.1667,75.8333 60.5,77.5C 57.1183,60.2209 63.7849,49.5543 80.5,45.5C 93.4374,47.7055 100.104,55.3722 100.5,68.5C 97.8333,68.5 95.1667,68.5 92.5,68.5C 91.5538,57.0536 85.5538,52.8869 74.5,56C 69.9184,59.3971 67.9184,63.8971 68.5,69.5 Z"/></g>
<g><path style="opacity:1" fill="#00b7f4" d="M 60.5,77.5 C 64.1667,75.8333 66.8333,73.1667 68.5,69.5C 70.958,67.8811 73.2913,66.0478 75.5,64C 78.8333,63.3333 82.1667,63.3333 85.5,64C 91.3526,69.3537 97.3526,74.5203 103.5,79.5C 104.417,82.7577 104.751,86.091 104.5,89.5C 103.178,89.67 102.011,89.3366 101,88.5C 100.51,89.7932 100.343,91.1266 100.5,92.5C 97.8333,92.5 95.1667,92.5 92.5,92.5C 93.6274,82.6157 89.6274,75.6157 80.5,71.5C 71.3726,75.6157 67.3726,82.6157 68.5,92.5C 65.8333,92.5 63.1667,92.5 60.5,92.5C 60.6567,91.1266 60.49,89.7932 60,88.5C 58.9887,89.3366 57.8221,89.67 56.5,89.5C 56.3354,86.4816 56.502,83.4816 57,80.5C 57.7202,78.9443 58.8868,77.9443 60.5,77.5 Z"/></g>
<g><path style="opacity:0.714" fill="#030a4e" d="M 78.5,80.5 C 82.683,80.35 85.0163,82.35 85.5,86.5C 84.1391,89.6333 83.3058,92.9666 83,96.5C 81.3333,97.8333 79.6667,97.8333 78,96.5C 77.6942,92.9666 76.8609,89.6333 75.5,86.5C 75.4672,83.8984 76.4672,81.8984 78.5,80.5 Z"/></g>
<g><path style="opacity:0.8" fill="#030a4f" d="M 60.5,93.5 C 63.1667,93.5 65.8333,93.5 68.5,93.5C 68.1601,96.1441 68.8267,98.4775 70.5,100.5C 77.1667,101.833 83.8333,101.833 90.5,100.5C 92.1733,98.4775 92.8399,96.1441 92.5,93.5C 95.1667,93.5 97.8333,93.5 100.5,93.5C 100.435,106.571 93.7686,112.238 80.5,110.5C 67.5657,111.885 60.899,106.218 60.5,93.5 Z"/></g>
</svg>
