<?xml version="1.0" encoding="UTF-8"?>
<!DOCTYPE svg PUBLIC "-//W3C//DTD SVG 1.1//EN" "http://www.w3.org/Graphics/SVG/1.1/DTD/svg11.dtd">
<svg xmlns="http://www.w3.org/2000/svg" version="1.1" width="96px" height="96px" style="shape-rendering:geometricPrecision; text-rendering:geometricPrecision; image-rendering:optimizeQuality; fill-rule:evenodd; clip-rule:evenodd" xmlns:xlink="http://www.w3.org/1999/xlink">
<g><path style="opacity:0.008" fill="#000000" d="M -0.5,-0.5 C 31.5,-0.5 63.5,-0.5 95.5,-0.5C 95.5,31.5 95.5,63.5 95.5,95.5C 63.5,95.5 31.5,95.5 -0.5,95.5C -0.5,63.5 -0.5,31.5 -0.5,-0.5 Z M 47.5,7.5 C 41.8333,7.5 36.1667,7.5 30.5,7.5C 30.6107,6.88258 30.944,6.38258 31.5,6C 34.1667,5.83333 36.8333,5.66667 39.5,5.5C 42.5902,5.52168 45.2568,6.18834 47.5,7.5 Z"/></g>
<g><path style="opacity:0.02" fill="#929292" d="M 30.5,7.5 C 36.1667,7.5 41.8333,7.5 47.5,7.5C 59.1714,7.33347 70.8381,7.50014 82.5,8C 83.056,8.38258 83.3893,8.88258 83.5,9.5C 59.5,9.5 35.5,9.5 11.5,9.5C 11.9175,8.77842 12.5842,8.27842 13.5,8C 19.1569,7.50058 24.8236,7.33391 30.5,7.5 Z"/></g>
<g><path style="opacity:1" fill="#161616" d="M 11.5,9.5 C 35.5,9.5 59.5,9.5 83.5,9.5C 83.5,10.8333 84.1667,11.5 85.5,11.5C 85.9801,35.5901 85.4801,59.5901 84,83.5C 83.2496,84.1258 82.4162,84.6258 81.5,85C 58.5,85.6667 35.5,85.6667 12.5,85C 12,84.5 11.5,84 11,83.5C 9.51988,59.5901 9.01988,35.5901 9.5,11.5C 9.5,10.1667 10.1667,9.5 11.5,9.5 Z"/></g>
<g><path style="opacity:0.039" fill="#999999" d="M 83.5,9.5 C 84.8333,9.5 85.5,10.1667 85.5,11.5C 85.5,10.1667 84.8333,9.5 83.5,9.5 Z"/></g>
<g><path style="opacity:0.163" fill="#969696" d="M 9.5,11.5 C 9.01988,35.5901 9.51988,59.5901 11,83.5C 11.5,84 12,84.5 12.5,85C 35.5,85.6667 58.5,85.6667 81.5,85C 82.4162,84.6258 83.2496,84.1258 84,83.5C 85.4801,59.5901 85.9801,35.5901 85.5,11.5C 86.8324,23.1476 87.499,35.1476 87.5,47.5C 87.3333,59.5 87.1667,71.5 87,83.5C 85.8906,85.8147 84.0573,87.3147 81.5,88C 58.8333,88.6667 36.1667,88.6667 13.5,88C 10.9427,87.3147 9.1094,85.8147 8,83.5C 7.33333,60.1667 7.33333,36.8333 8,13.5C 8.27842,12.5842 8.77842,11.9175 9.5,11.5 Z"/></g>
<g><path style="opacity:1" fill="#979696" d="M 21.5,50.5 C 20.596,49.791 20.2627,48.791 20.5,47.5C 18.8333,47.5 17.1667,47.5 15.5,47.5C 15.5,48.8333 15.5,50.1667 15.5,51.5C 14.5489,50.0813 14.2155,48.4147 14.5,46.5C 16.8333,46.5 19.1667,46.5 21.5,46.5C 21.5,47.8333 21.5,49.1667 21.5,50.5 Z"/></g>
<g><path style="opacity:1" fill="#f0efef" d="M 57.5,23.5 C 45.4601,18.1311 34.9601,20.4644 26,30.5C 24.2443,32.2742 24.2443,33.9409 26,35.5C 33.086,24.7606 42.9194,21.094 55.5,24.5C 59.6782,28.8455 63.3449,28.3455 66.5,23C 70.855,24.6872 74.0217,27.8538 76,32.5C 81.8644,48.2292 78.3644,61.3958 65.5,72C 61.9124,72.6114 60.7458,71.1114 62,67.5C 72.7188,57.9599 75.2188,46.6266 69.5,33.5C 68.7261,32.2888 67.8928,32.2888 67,33.5C 73.3783,48.0323 69.7116,59.3656 56,67.5C 56.5653,70.404 57.0653,73.404 57.5,76.5C 35.6677,80.9291 21.6677,72.5958 15.5,51.5C 15.5,50.1667 15.5,48.8333 15.5,47.5C 17.1667,47.5 18.8333,47.5 20.5,47.5C 20.2627,48.791 20.596,49.791 21.5,50.5C 24.9556,64.6217 33.9556,71.6217 48.5,71.5C 48.5,70.5 48.5,69.5 48.5,68.5C 37.0979,69.2098 29.2646,64.2098 25,53.5C 24.2127,49.8208 23.3793,46.1541 22.5,42.5C 20.2534,41.6258 17.9201,41.2924 15.5,41.5C 18.6477,24.4044 28.981,15.4044 46.5,14.5C 52.1612,14.1118 57.1612,15.6118 61.5,19C 61.1778,21.521 59.8445,23.021 57.5,23.5 Z"/></g>
<g><path style="opacity:1" fill="#161616" d="M 39.5,29.5 C 50.8599,27.3254 59.0266,31.3254 64,41.5C 64.6577,57.1753 57.1577,64.3419 41.5,63C 29.7884,56.5339 26.9551,47.3672 33,35.5C 35.3353,33.5998 37.502,31.5998 39.5,29.5 Z"/></g>
<g><path style="opacity:1" fill="#e0dfdf" d="M 44.5,39.5 C 47.5715,38.9245 49.5715,40.0912 50.5,43C 48.7746,45.8857 48.1079,49.0523 48.5,52.5C 47.1779,52.67 46.0113,52.3366 45,51.5C 43.8079,47.4468 43.6412,43.4468 44.5,39.5 Z"/></g>
<g><path style="opacity:1" fill="#272727" d="M 57.5,23.5 C 56.5084,23.3284 55.8417,23.6618 55.5,24.5C 42.9194,21.094 33.086,24.7606 26,35.5C 24.2443,33.9409 24.2443,32.2742 26,30.5C 34.9601,20.4644 45.4601,18.1311 57.5,23.5 Z"/></g>
</svg>
