<?xml version="1.0" encoding="UTF-8"?>
<!DOCTYPE svg PUBLIC "-//W3C//DTD SVG 1.1//EN" "http://www.w3.org/Graphics/SVG/1.1/DTD/svg11.dtd">
<svg xmlns="http://www.w3.org/2000/svg" version="1.1" width="96px" height="96px" style="shape-rendering:geometricPrecision; text-rendering:geometricPrecision; image-rendering:optimizeQuality; fill-rule:evenodd; clip-rule:evenodd" xmlns:xlink="http://www.w3.org/1999/xlink">
<g><path style="opacity:0.008" fill="#010101" d="M -0.5,-0.5 C 31.5,-0.5 63.5,-0.5 95.5,-0.5C 95.5,31.5 95.5,63.5 95.5,95.5C 63.5,95.5 31.5,95.5 -0.5,95.5C -0.5,63.5 -0.5,31.5 -0.5,-0.5 Z"/></g>
<g><path style="opacity:0.972" fill="#191919" d="M 91.5,39.5 C 92.976,65.0687 81.6426,81.902 57.5,90C 41.5496,93.5977 27.7162,89.7643 16,78.5C 10.7866,72.0651 6.61989,65.0651 3.5,57.5C 2.66175,57.1583 2.32842,56.4916 2.5,55.5C 3.48808,50.3595 3.82141,45.0262 3.5,39.5C 4.8038,30.2257 8.8038,22.2257 15.5,15.5C 18.903,12.8141 22.2363,10.1474 25.5,7.5C 49.9427,-2.28332 70.1094,3.05001 86,23.5C 88.96,28.5491 90.7933,33.8824 91.5,39.5 Z"/></g>
<g><path style="opacity:1" fill="#f0efef" d="M 47.5,75.5 C 48.4345,74.4324 48.7678,73.099 48.5,71.5C 46.1667,71.5 43.8333,71.5 41.5,71.5C 26.4137,67.3709 19.0804,57.3709 19.5,41.5C 16.4552,41.4921 13.4552,41.1587 10.5,40.5C 10.5734,35.8729 11.7401,31.5396 14,27.5C 26.8551,9.43944 43.5218,4.77277 64,13.5C 63.7782,15.4564 62.9448,17.2897 61.5,19C 46.0995,13.0221 32.9329,16.1888 22,28.5C 19.9481,30.5199 20.1147,32.1866 22.5,33.5C 33.1755,18.3622 46.6755,15.3622 63,24.5C 65.6332,22.7038 68.1332,20.7038 70.5,18.5C 75.9631,22.1444 79.7964,27.1444 82,33.5C 86.666,50.6929 82.166,64.8596 68.5,76C 64.8146,76.1802 63.3146,74.3468 64,70.5C 76.5947,59.784 79.5947,46.784 73,31.5C 71.7025,30.2164 70.5358,30.3831 69.5,32C 75.2919,42.9624 74.4586,53.4624 67,63.5C 64.1914,66.572 60.8581,68.9053 57,70.5C 56.8082,73.5953 57.6415,76.4286 59.5,79C 38.0733,86.824 22.2399,80.324 12,59.5C 10.5877,55.272 9.75436,50.9387 9.5,46.5C 12.1194,46.2317 14.6194,46.565 17,47.5C 19.3786,65.3806 29.5453,74.7139 47.5,75.5 Z"/></g>
<g><path style="opacity:1" fill="#151515" d="M 39.5,26.5 C 58.2986,24.605 67.1319,32.9383 66,51.5C 60.2982,63.9664 50.7982,68.1331 37.5,64C 27.6898,57.6114 24.5231,48.7781 28,37.5C 31.0703,32.9273 34.9036,29.2607 39.5,26.5 Z"/></g>
<g><path style="opacity:1" fill="#e7e5e5" d="M 44.5,38.5 C 46.4672,38.2606 48.3005,38.5939 50,39.5C 49.0263,43.9755 48.5263,48.6422 48.5,53.5C 47.1779,53.67 46.0113,53.3366 45,52.5C 44.8537,48.9313 44.0203,45.598 42.5,42.5C 42.7517,40.9271 43.4183,39.5938 44.5,38.5 Z"/></g>
<g><path style="opacity:0.016" fill="#6a6a6a" d="M 3.5,39.5 C 3.82141,45.0262 3.48808,50.3595 2.5,55.5C 1.80049,51.2022 1.46716,46.8689 1.5,42.5C 2.16667,41.5 2.83333,40.5 3.5,39.5 Z"/></g>
<g><path style="opacity:0.323" fill="#979797" d="M 91.5,39.5 C 95.1712,67.6123 83.1712,85.4456 55.5,93C 35.1931,95.677 19.3598,88.5103 8,71.5C 5.88496,67.0429 4.38496,62.3762 3.5,57.5C 6.61989,65.0651 10.7866,72.0651 16,78.5C 27.7162,89.7643 41.5496,93.5977 57.5,90C 81.6426,81.902 92.976,65.0687 91.5,39.5 Z"/></g>
<g><path style="opacity:1" fill="#9b9a9a" d="M 41.5,71.5 C 43.8333,71.5 46.1667,71.5 48.5,71.5C 48.7678,73.099 48.4345,74.4324 47.5,75.5C 47.5,74.5 47.5,73.5 47.5,72.5C 45.2646,72.7947 43.2646,72.4614 41.5,71.5 Z"/></g>
</svg>
