<?xml version="1.0" encoding="UTF-8"?>
<!DOCTYPE svg PUBLIC "-//W3C//DTD SVG 1.1//EN" "http://www.w3.org/Graphics/SVG/1.1/DTD/svg11.dtd">
<svg xmlns="http://www.w3.org/2000/svg" version="1.1" width="144px" height="144px" style="shape-rendering:geometricPrecision; text-rendering:geometricPrecision; image-rendering:optimizeQuality; fill-rule:evenodd; clip-rule:evenodd" xmlns:xlink="http://www.w3.org/1999/xlink">
<g><path style="opacity:0.008" fill="#000000" d="M -0.5,-0.5 C -0.166667,-0.5 0.166667,-0.5 0.5,-0.5C 0.5,-0.166667 0.5,0.166667 0.5,0.5C 0.166667,0.166667 -0.166667,-0.166667 -0.5,-0.5 Z"/></g>
<g><path style="opacity:0.008" fill="#000000" d="M 1.5,-0.5 C 3.5,-0.5 5.5,-0.5 7.5,-0.5C 6.73747,0.26791 5.73747,0.76791 4.5,1C 6.46278,1.84421 7.79611,1.34421 8.5,-0.5C 18.5,-0.5 28.5,-0.5 38.5,-0.5C 37.537,0.3635 37.537,1.03017 38.5,1.5C 39.2975,1.04311 39.6309,0.376442 39.5,-0.5C 40.8333,-0.5 42.1667,-0.5 43.5,-0.5C 43.3691,0.376442 43.7025,1.04311 44.5,1.5C 45.463,1.03017 45.463,0.3635 44.5,-0.5C 45.5,-0.5 46.5,-0.5 47.5,-0.5C 47.3893,0.117425 47.056,0.617425 46.5,1C 50.6667,1.16667 54.8333,1.33333 59,1.5C 63.5572,1.49147 67.7238,0.824798 71.5,-0.5C 72.1667,-0.5 72.8333,-0.5 73.5,-0.5C 73.8333,2.16667 74.1667,2.16667 74.5,-0.5C 74.8333,-0.5 75.1667,-0.5 75.5,-0.5C 75.8333,2.16667 76.1667,2.16667 76.5,-0.5C 76.8333,-0.5 77.1667,-0.5 77.5,-0.5C 77.8333,2.16667 78.1667,2.16667 78.5,-0.5C 79.8333,-0.5 81.1667,-0.5 82.5,-0.5C 82.8333,2.16667 83.1667,2.16667 83.5,-0.5C 83.8333,-0.5 84.1667,-0.5 84.5,-0.5C 84.8333,2.16667 85.1667,2.16667 85.5,-0.5C 85.8333,-0.5 86.1667,-0.5 86.5,-0.5C 86.8333,2.16667 87.1667,2.16667 87.5,-0.5C 88.8333,-0.5 90.1667,-0.5 91.5,-0.5C 91.8333,2.16667 92.1667,2.16667 92.5,-0.5C 92.8333,-0.5 93.1667,-0.5 93.5,-0.5C 93.8333,2.16667 94.1667,2.16667 94.5,-0.5C 94.8333,-0.5 95.1667,-0.5 95.5,-0.5C 95.8333,0.833333 96.1667,0.833333 96.5,-0.5C 97.8333,-0.5 99.1667,-0.5 100.5,-0.5C 100.833,2.16667 101.167,2.16667 101.5,-0.5C 102.5,-0.5 103.5,-0.5 104.5,-0.5C 104.833,0.833333 105.167,0.833333 105.5,-0.5C 106.833,-0.5 108.167,-0.5 109.5,-0.5C 109.833,2.16667 110.167,2.16667 110.5,-0.5C 111.5,-0.5 112.5,-0.5 113.5,-0.5C 113.833,0.833333 114.167,0.833333 114.5,-0.5C 115.833,-0.5 117.167,-0.5 118.5,-0.5C 118.833,2.16667 119.167,2.16667 119.5,-0.5C 120.5,-0.5 121.5,-0.5 122.5,-0.5C 122.833,0.833333 123.167,0.833333 123.5,-0.5C 124.833,-0.5 126.167,-0.5 127.5,-0.5C 127.833,2.16667 128.167,2.16667 128.5,-0.5C 129.5,-0.5 130.5,-0.5 131.5,-0.5C 131.833,0.833333 132.167,0.833333 132.5,-0.5C 133.833,-0.5 135.167,-0.5 136.5,-0.5C 136.833,2.16667 137.167,2.16667 137.5,-0.5C 138.5,-0.5 139.5,-0.5 140.5,-0.5C 140.833,0.833333 141.167,0.833333 141.5,-0.5C 142.167,-0.5 142.833,-0.5 143.5,-0.5C 143.5,11.5 143.5,23.5 143.5,35.5C 139.725,35.6312 135.725,35.2979 131.5,34.5C 131.5,33.1667 131.5,31.8333 131.5,30.5C 132.833,30.1667 132.833,29.8333 131.5,29.5C 131.5,29.1667 131.5,28.8333 131.5,28.5C 132.833,28.1667 132.833,27.8333 131.5,27.5C 131.5,27.1667 131.5,26.8333 131.5,26.5C 132.833,26.1667 132.833,25.8333 131.5,25.5C 131.5,24.1667 131.5,22.8333 131.5,21.5C 132.833,21.1667 132.833,20.8333 131.5,20.5C 130.186,16.5843 127.519,13.9176 123.5,12.5C 123.5,11.8333 123.167,11.5 122.5,11.5C 105.5,11.5 88.5,11.5 71.5,11.5C 71.5,10.1667 71.5,8.83333 71.5,7.5C 59.1622,7.33346 46.8288,7.50012 34.5,8C 35.0442,8.71719 35.7109,9.21719 36.5,9.5C 36.1667,10.1667 35.8333,10.8333 35.5,11.5C 15.4963,8.84179 7.49633,17.5085 11.5,37.5C 8.93562,37.6294 6.26895,37.296 3.5,36.5C 3.52992,35.5028 3.02992,34.8361 2,34.5C 1.66258,36.0731 0.829246,37.4065 -0.5,38.5C -0.5,28.5 -0.5,18.5 -0.5,8.5C 0.833333,8.16667 0.833333,7.83333 -0.5,7.5C -0.5,5.5 -0.5,3.5 -0.5,1.5C 0.166667,1.5 0.5,1.16667 0.5,0.5C 1.16667,0.5 1.5,0.166667 1.5,-0.5 Z M 71.5,11.5 C 59.5,11.5 47.5,11.5 35.5,11.5C 35.8333,10.8333 36.1667,10.1667 36.5,9.5C 35.7109,9.21719 35.0442,8.71719 34.5,8C 46.8288,7.50012 59.1622,7.33346 71.5,7.5C 71.5,8.83333 71.5,10.1667 71.5,11.5 Z"/></g>
<g><path style="opacity:0.008" fill="#000000" d="M 48.5,-0.5 C 49.8333,-0.5 51.1667,-0.5 52.5,-0.5C 51.1667,0.833333 49.8333,0.833333 48.5,-0.5 Z"/></g>
<g><path style="opacity:0.008" fill="#000000" d="M 53.5,-0.5 C 53.8333,-0.5 54.1667,-0.5 54.5,-0.5C 54.3147,0.170143 53.9813,0.170143 53.5,-0.5 Z"/></g>
<g><path style="opacity:0.008" fill="#000000" d="M 55.5,-0.5 C 55.8333,-0.5 56.1667,-0.5 56.5,-0.5C 56.3147,0.170143 55.9813,0.170143 55.5,-0.5 Z"/></g>
<g><path style="opacity:0.008" fill="#000000" d="M 57.5,-0.5 C 58.8333,-0.5 60.1667,-0.5 61.5,-0.5C 60.1667,0.833333 58.8333,0.833333 57.5,-0.5 Z"/></g>
<g><path style="opacity:0.008" fill="#000000" d="M 62.5,-0.5 C 62.8333,-0.5 63.1667,-0.5 63.5,-0.5C 63.3147,0.170143 62.9813,0.170143 62.5,-0.5 Z"/></g>
<g><path style="opacity:0.008" fill="#000000" d="M 64.5,-0.5 C 64.8333,-0.5 65.1667,-0.5 65.5,-0.5C 65.3147,0.170143 64.9813,0.170143 64.5,-0.5 Z"/></g>
<g><path style="opacity:0.008" fill="#000000" d="M 66.5,-0.5 C 67.8333,-0.5 69.1667,-0.5 70.5,-0.5C 69.1667,0.833333 67.8333,0.833333 66.5,-0.5 Z"/></g>
<g><path style="opacity:0.008" fill="#000000" d="M 3.5,36.5 C 2.83333,37.1667 2.83333,37.1667 3.5,36.5 Z"/></g>
<g><path style="opacity:0.008" fill="#000000" d="M 132.5,36.5 C 133.833,36.5 135.167,36.5 136.5,36.5C 136.5,37.8333 136.5,39.1667 136.5,40.5C 135.167,40.5 133.833,40.5 132.5,40.5C 132.5,39.1667 132.5,37.8333 132.5,36.5 Z"/></g>
<g><path style="opacity:0.008" fill="#000000" d="M 137.5,36.5 C 138.5,36.5 139.5,36.5 140.5,36.5C 140.5,37.8333 140.5,39.1667 140.5,40.5C 139.5,40.5 138.5,40.5 137.5,40.5C 137.5,39.1667 137.5,37.8333 137.5,36.5 Z"/></g>
<g><path style="opacity:0.008" fill="#000000" d="M 143.5,36.5 C 143.5,37.8333 143.5,39.1667 143.5,40.5C 142.414,40.38 141.747,39.7133 141.5,38.5C 141.747,37.2867 142.414,36.62 143.5,36.5 Z"/></g>
<g><path style="opacity:0.008" fill="#000000" d="M 3.5,39.5 C 3.89657,38.475 4.56323,38.3083 5.5,39C 4.90558,39.4643 4.23891,39.631 3.5,39.5 Z"/></g>
<g><path style="opacity:0.008" fill="#000000" d="M 11.5,38.5 C 11.5,39.5 11.5,40.5 11.5,41.5C 10.7784,41.0825 10.2784,40.4158 10,39.5C 9.5,40.6667 8.66667,41.5 7.5,42C 8.66667,42.5 9.5,43.3333 10,44.5C 10.2784,43.5842 10.7784,42.9175 11.5,42.5C 11.5,43.8333 11.5,45.1667 11.5,46.5C 8.93562,46.6294 6.26895,46.296 3.5,45.5C 4.61512,43.545 5.94845,41.7116 7.5,40C 7.16667,39.6667 6.83333,39.3333 6.5,39C 8.13414,38.5065 9.80081,38.3398 11.5,38.5 Z"/></g>
<g><path style="opacity:0.008" fill="#000000" d="M -0.5,39.5 C 0.238911,39.369 0.905578,39.5357 1.5,40C 0.166667,41 0.166667,42 1.5,43C 0.905578,43.4643 0.238911,43.631 -0.5,43.5C -0.5,42.1667 -0.5,40.8333 -0.5,39.5 Z"/></g>
<g><path style="opacity:0.008" fill="#000000" d="M 3.5,39.5 C 2.83333,40.1667 2.83333,40.1667 3.5,39.5 Z"/></g>
<g><path style="opacity:0.008" fill="#000000" d="M 132.5,41.5 C 133.833,41.5 135.167,41.5 136.5,41.5C 136.5,42.5 136.5,43.5 136.5,44.5C 135.167,44.5 133.833,44.5 132.5,44.5C 132.5,43.5 132.5,42.5 132.5,41.5 Z"/></g>
<g><path style="opacity:0.008" fill="#000000" d="M 138.5,42.5 C 137.833,41.1667 137.833,41.1667 138.5,42.5 Z"/></g>
<g><path style="opacity:0.008" fill="#000000" d="M 139.5,41.5 C 140.833,42.1667 140.833,42.1667 139.5,41.5 Z"/></g>
<g><path style="opacity:0.008" fill="#000000" d="M 143.5,41.5 C 143.5,41.8333 143.5,42.1667 143.5,42.5C 142.167,42.8333 142.167,43.1667 143.5,43.5C 143.5,43.8333 143.5,44.1667 143.5,44.5C 140.833,43.5 140.833,42.5 143.5,41.5 Z"/></g>
<g><path style="opacity:0.008" fill="#000000" d="M 2.5,42.5 C 3.83333,43.1667 3.83333,43.1667 2.5,42.5 Z"/></g>
<g><path style="opacity:0.008" fill="#000000" d="M 138.5,42.5 C 138.833,42.5 139.167,42.5 139.5,42.5C 139.5,42.8333 139.5,43.1667 139.5,43.5C 139.167,43.1667 138.833,42.8333 138.5,42.5 Z"/></g>
<g><path style="opacity:0.008" fill="#000000" d="M 138.5,43.5 C 137.833,44.1667 137.833,44.1667 138.5,43.5 Z"/></g>
<g><path style="opacity:0.008" fill="#000000" d="M 139.5,43.5 C 140.833,44.1667 140.833,44.1667 139.5,43.5 Z"/></g>
<g><path style="opacity:0.008" fill="#000000" d="M -0.5,44.5 C 2.16667,45.5 2.16667,46.5 -0.5,47.5C -0.5,46.5 -0.5,45.5 -0.5,44.5 Z"/></g>
<g><path style="opacity:0.008" fill="#000000" d="M 3.5,45.5 C 2.83333,46.1667 2.83333,46.1667 3.5,45.5 Z"/></g>
<g><path style="opacity:0.008" fill="#000000" d="M 132.5,45.5 C 133.833,45.5 135.167,45.5 136.5,45.5C 136.5,47.5 136.5,49.5 136.5,51.5C 135.167,51.5 133.833,51.5 132.5,51.5C 132.5,49.5 132.5,47.5 132.5,45.5 Z"/></g>
<g><path style="opacity:0.008" fill="#000000" d="M 139.5,49.5 C 139.167,45.5 138.833,45.5 138.5,49.5C 137.566,48.4324 137.232,47.099 137.5,45.5C 138.5,45.5 139.5,45.5 140.5,45.5C 140.768,47.099 140.434,48.4324 139.5,49.5 Z"/></g>
<g><path style="opacity:0.008" fill="#000000" d="M 143.5,45.5 C 143.5,46.8333 143.5,48.1667 143.5,49.5C 142.167,49.8333 142.167,50.1667 143.5,50.5C 143.5,50.8333 143.5,51.1667 143.5,51.5C 142.307,51.0296 141.64,50.0296 141.5,48.5C 141.64,46.9704 142.307,45.9704 143.5,45.5 Z"/></g>
<g><path style="opacity:0.008" fill="#000000" d="M 4.5,47.5 C 5.83333,48.1667 5.83333,48.1667 4.5,47.5 Z"/></g>
<g><path style="opacity:0.008" fill="#000000" d="M 6.5,48.5 C 7.25057,47.4265 8.25057,47.2599 9.5,48C 8.55198,48.4828 7.55198,48.6495 6.5,48.5 Z"/></g>
<g><path style="opacity:0.008" fill="#000000" d="M -0.5,48.5 C 0.833333,49.8333 0.833333,51.1667 -0.5,52.5C -0.5,51.1667 -0.5,49.8333 -0.5,48.5 Z"/></g>
<g><path style="opacity:0.008" fill="#000000" d="M 2.5,48.5 C 3.83333,49.1667 3.83333,49.1667 2.5,48.5 Z"/></g>
<g><path style="opacity:0.008" fill="#000000" d="M 4.5,49.5 C 5.83333,50.1667 5.83333,50.1667 4.5,49.5 Z"/></g>
<g><path style="opacity:0.008" fill="#000000" d="M 6.5,50.5 C 7.25057,49.4265 8.25057,49.2599 9.5,50C 8.55198,50.4828 7.55198,50.6495 6.5,50.5 Z"/></g>
<g><path style="opacity:0.008" fill="#000000" d="M 138.5,49.5 C 138.833,49.5 139.167,49.5 139.5,49.5C 139.5,49.8333 139.5,50.1667 139.5,50.5C 139.167,50.1667 138.833,49.8333 138.5,49.5 Z"/></g>
<g><path style="opacity:0.008" fill="#000000" d="M 138.5,50.5 C 137.833,51.1667 137.833,51.1667 138.5,50.5 Z"/></g>
<g><path style="opacity:0.008" fill="#000000" d="M 139.5,50.5 C 140.833,51.1667 140.833,51.1667 139.5,50.5 Z"/></g>
<g><path style="opacity:0.008" fill="#000000" d="M 2.5,51.5 C 3.83333,52.1667 3.83333,52.1667 2.5,51.5 Z"/></g>
<g><path style="opacity:0.008" fill="#000000" d="M 4.5,51.5 C 5.59832,52.6009 5.76498,53.9343 5,55.5C 4.50999,54.2068 4.34332,52.8734 4.5,51.5 Z"/></g>
<g><path style="opacity:0.008" fill="#000000" d="M 6.5,51.5 C 7.5,51.5 8.5,51.5 9.5,51.5C 9.5,52.8333 9.5,54.1667 9.5,55.5C 8.5,55.5 7.5,55.5 6.5,55.5C 6.5,54.1667 6.5,52.8333 6.5,51.5 Z"/></g>
<g><path style="opacity:0.008" fill="#000000" d="M 132.5,53.5 C 133.601,52.4017 134.934,52.235 136.5,53C 135.207,53.49 133.873,53.6567 132.5,53.5 Z"/></g>
<g><path style="opacity:0.008" fill="#000000" d="M 137.5,53.5 C 138.251,52.4265 139.251,52.2599 140.5,53C 139.552,53.4828 138.552,53.6495 137.5,53.5 Z"/></g>
<g><path style="opacity:0.008" fill="#000000" d="M 143.5,52.5 C 143.5,52.8333 143.5,53.1667 143.5,53.5C 140.833,53.1667 140.833,52.8333 143.5,52.5 Z"/></g>
<g><path style="opacity:0.008" fill="#000000" d="M -0.5,53.5 C 0.833333,54.1667 0.833333,54.1667 -0.5,53.5 Z"/></g>
<g><path style="opacity:0.008" fill="#000000" d="M 2.5,54.5 C 3.83333,55.1667 3.83333,55.1667 2.5,54.5 Z"/></g>
<g><path style="opacity:0.008" fill="#000000" d="M 132.5,54.5 C 133.833,54.5 135.167,54.5 136.5,54.5C 136.5,56.5 136.5,58.5 136.5,60.5C 135.167,60.5 133.833,60.5 132.5,60.5C 132.5,58.5 132.5,56.5 132.5,54.5 Z"/></g>
<g><path style="opacity:0.008" fill="#000000" d="M 139.5,58.5 C 139.167,55.8333 138.833,55.8333 138.5,58.5C 137.402,57.3991 137.235,56.0657 138,54.5C 138.667,55.8333 139.333,55.8333 140,54.5C 140.765,56.0657 140.598,57.3991 139.5,58.5 Z"/></g>
<g><path style="opacity:0.008" fill="#000000" d="M 143.5,54.5 C 143.5,55.8333 143.5,57.1667 143.5,58.5C 142.167,58.8333 142.167,59.1667 143.5,59.5C 143.5,59.8333 143.5,60.1667 143.5,60.5C 142.307,60.0296 141.64,59.0296 141.5,57.5C 141.64,55.9704 142.307,54.9704 143.5,54.5 Z"/></g>
<g><path style="opacity:0.008" fill="#000000" d="M -0.5,55.5 C 0.833333,56.1667 0.833333,56.1667 -0.5,55.5 Z"/></g>
<g><path style="opacity:0.008" fill="#000000" d="M 4.5,56.5 C 5.83333,57.1667 5.83333,57.1667 4.5,56.5 Z"/></g>
<g><path style="opacity:0.008" fill="#000000" d="M 6.5,57.5 C 7.25057,56.4265 8.25057,56.2599 9.5,57C 8.55198,57.4828 7.55198,57.6495 6.5,57.5 Z"/></g>
<g><path style="opacity:0.008" fill="#000000" d="M -0.5,57.5 C 0.833333,58.8333 0.833333,60.1667 -0.5,61.5C -0.5,60.1667 -0.5,58.8333 -0.5,57.5 Z"/></g>
<g><path style="opacity:0.008" fill="#000000" d="M 2.5,57.5 C 3.83333,58.1667 3.83333,58.1667 2.5,57.5 Z"/></g>
<g><path style="opacity:0.008" fill="#000000" d="M 4.5,58.5 C 5.83333,59.1667 5.83333,59.1667 4.5,58.5 Z"/></g>
<g><path style="opacity:0.008" fill="#000000" d="M 6.5,59.5 C 7.25057,58.4265 8.25057,58.2599 9.5,59C 8.55198,59.4828 7.55198,59.6495 6.5,59.5 Z"/></g>
<g><path style="opacity:0.008" fill="#000000" d="M 138.5,58.5 C 138.833,58.5 139.167,58.5 139.5,58.5C 139.5,58.8333 139.5,59.1667 139.5,59.5C 139.167,59.1667 138.833,58.8333 138.5,58.5 Z"/></g>
<g><path style="opacity:0.008" fill="#000000" d="M 138.5,59.5 C 137.833,60.1667 137.833,60.1667 138.5,59.5 Z"/></g>
<g><path style="opacity:0.008" fill="#000000" d="M 139.5,59.5 C 140.833,60.1667 140.833,60.1667 139.5,59.5 Z"/></g>
<g><path style="opacity:0.008" fill="#000000" d="M 2.5,60.5 C 3.83333,61.1667 3.83333,61.1667 2.5,60.5 Z"/></g>
<g><path style="opacity:0.008" fill="#000000" d="M 4.5,60.5 C 5.59832,61.6009 5.76498,62.9343 5,64.5C 4.50999,63.2068 4.34332,61.8734 4.5,60.5 Z"/></g>
<g><path style="opacity:0.008" fill="#000000" d="M 6.5,60.5 C 7.5,60.5 8.5,60.5 9.5,60.5C 9.5,61.8333 9.5,63.1667 9.5,64.5C 8.5,64.5 7.5,64.5 6.5,64.5C 6.5,63.1667 6.5,61.8333 6.5,60.5 Z"/></g>
<g><path style="opacity:0.008" fill="#000000" d="M 132.5,62.5 C 133.601,61.4017 134.934,61.235 136.5,62C 135.207,62.49 133.873,62.6567 132.5,62.5 Z"/></g>
<g><path style="opacity:0.008" fill="#000000" d="M 137.5,62.5 C 138.251,61.4265 139.251,61.2599 140.5,62C 139.552,62.4828 138.552,62.6495 137.5,62.5 Z"/></g>
<g><path style="opacity:0.008" fill="#000000" d="M 143.5,61.5 C 143.5,61.8333 143.5,62.1667 143.5,62.5C 140.833,62.1667 140.833,61.8333 143.5,61.5 Z"/></g>
<g><path style="opacity:0.008" fill="#000000" d="M -0.5,62.5 C 0.833333,63.1667 0.833333,63.1667 -0.5,62.5 Z"/></g>
<g><path style="opacity:0.008" fill="#000000" d="M 2.5,63.5 C 3.83333,64.1667 3.83333,64.1667 2.5,63.5 Z"/></g>
<g><path style="opacity:0.008" fill="#000000" d="M 132.5,63.5 C 133.833,63.5 135.167,63.5 136.5,63.5C 136.5,65.5 136.5,67.5 136.5,69.5C 135.167,69.5 133.833,69.5 132.5,69.5C 132.5,67.5 132.5,65.5 132.5,63.5 Z"/></g>
<g><path style="opacity:0.008" fill="#000000" d="M 139.5,67.5 C 139.167,64.8333 138.833,64.8333 138.5,67.5C 137.402,66.3991 137.235,65.0657 138,63.5C 138.667,64.8333 139.333,64.8333 140,63.5C 140.765,65.0657 140.598,66.3991 139.5,67.5 Z"/></g>
<g><path style="opacity:0.008" fill="#000000" d="M 143.5,63.5 C 143.5,64.8333 143.5,66.1667 143.5,67.5C 142.167,67.8333 142.167,68.1667 143.5,68.5C 143.5,68.8333 143.5,69.1667 143.5,69.5C 142.307,69.0296 141.64,68.0296 141.5,66.5C 141.64,64.9704 142.307,63.9704 143.5,63.5 Z"/></g>
<g><path style="opacity:0.008" fill="#000000" d="M -0.5,64.5 C 0.833333,65.1667 0.833333,65.1667 -0.5,64.5 Z"/></g>
<g><path style="opacity:0.008" fill="#000000" d="M 4.5,65.5 C 5.83333,66.1667 5.83333,66.1667 4.5,65.5 Z"/></g>
<g><path style="opacity:0.008" fill="#000000" d="M 6.5,66.5 C 7.25057,65.4265 8.25057,65.2599 9.5,66C 8.55198,66.4828 7.55198,66.6495 6.5,66.5 Z"/></g>
<g><path style="opacity:0.008" fill="#000000" d="M -0.5,66.5 C 0.833333,67.8333 0.833333,69.1667 -0.5,70.5C -0.5,69.1667 -0.5,67.8333 -0.5,66.5 Z"/></g>
<g><path style="opacity:0.008" fill="#000000" d="M 2.5,66.5 C 3.83333,67.1667 3.83333,67.1667 2.5,66.5 Z"/></g>
<g><path style="opacity:0.008" fill="#000000" d="M 4.5,67.5 C 5.83333,68.1667 5.83333,68.1667 4.5,67.5 Z"/></g>
<g><path style="opacity:0.008" fill="#000000" d="M 6.5,68.5 C 7.25057,67.4265 8.25057,67.2599 9.5,68C 8.55198,68.4828 7.55198,68.6495 6.5,68.5 Z"/></g>
<g><path style="opacity:0.008" fill="#000000" d="M 138.5,67.5 C 138.833,67.5 139.167,67.5 139.5,67.5C 139.5,67.8333 139.5,68.1667 139.5,68.5C 139.167,68.1667 138.833,67.8333 138.5,67.5 Z"/></g>
<g><path style="opacity:0.008" fill="#000000" d="M 138.5,68.5 C 137.833,69.1667 137.833,69.1667 138.5,68.5 Z"/></g>
<g><path style="opacity:0.008" fill="#000000" d="M 139.5,68.5 C 140.833,69.1667 140.833,69.1667 139.5,68.5 Z"/></g>
<g><path style="opacity:0.008" fill="#000000" d="M 2.5,69.5 C 3.83333,70.1667 3.83333,70.1667 2.5,69.5 Z"/></g>
<g><path style="opacity:0.008" fill="#000000" d="M 11.5,69.5 C 11.1671,88.1786 11.5004,106.845 12.5,125.5C 14.1356,128.972 16.8022,131.139 20.5,132C 26.4908,132.499 32.4908,132.666 38.5,132.5C 38.5,133.833 38.5,135.167 38.5,136.5C 36.0065,136.131 35.3398,136.797 36.5,138.5C 35.1667,138.833 35.1667,139.167 36.5,139.5C 36.3893,140.117 36.056,140.617 35.5,141C 37.1193,141.236 38.1193,142.069 38.5,143.5C 38.1667,143.5 37.8333,143.5 37.5,143.5C 37.1667,142.167 36.8333,142.167 36.5,143.5C 24.1667,143.5 11.8333,143.5 -0.5,143.5C -0.5,142.833 -0.5,142.167 -0.5,141.5C 0.833333,141.167 0.833333,140.833 -0.5,140.5C -0.5,139.5 -0.5,138.5 -0.5,137.5C 2.16667,137.167 2.16667,136.833 -0.5,136.5C -0.5,135.167 -0.5,133.833 -0.5,132.5C 0.833333,132.167 0.833333,131.833 -0.5,131.5C -0.5,130.5 -0.5,129.5 -0.5,128.5C 2.16667,128.167 2.16667,127.833 -0.5,127.5C -0.5,126.167 -0.5,124.833 -0.5,123.5C 0.833333,123.167 0.833333,122.833 -0.5,122.5C -0.5,121.5 -0.5,120.5 -0.5,119.5C 2.16667,119.167 2.16667,118.833 -0.5,118.5C -0.5,117.167 -0.5,115.833 -0.5,114.5C 0.833333,114.167 0.833333,113.833 -0.5,113.5C -0.5,112.5 -0.5,111.5 -0.5,110.5C 2.16667,110.167 2.16667,109.833 -0.5,109.5C -0.5,108.167 -0.5,106.833 -0.5,105.5C 0.833333,105.167 0.833333,104.833 -0.5,104.5C -0.5,103.5 -0.5,102.5 -0.5,101.5C 2.16667,101.167 2.16667,100.833 -0.5,100.5C -0.5,99.1667 -0.5,97.8333 -0.5,96.5C 0.833333,96.1667 0.833333,95.8333 -0.5,95.5C -0.5,95.1667 -0.5,94.8333 -0.5,94.5C 2.16667,94.1667 2.16667,93.8333 -0.5,93.5C -0.5,93.1667 -0.5,92.8333 -0.5,92.5C 2.16667,92.1667 2.16667,91.8333 -0.5,91.5C -0.5,90.1667 -0.5,88.8333 -0.5,87.5C 2.16667,87.1667 2.16667,86.8333 -0.5,86.5C -0.5,86.1667 -0.5,85.8333 -0.5,85.5C 2.16667,85.1667 2.16667,84.8333 -0.5,84.5C -0.5,84.1667 -0.5,83.8333 -0.5,83.5C 2.16667,83.1667 2.16667,82.8333 -0.5,82.5C -0.5,81.1667 -0.5,79.8333 -0.5,78.5C 2.16667,78.1667 2.16667,77.8333 -0.5,77.5C -0.5,77.1667 -0.5,76.8333 -0.5,76.5C 2.16667,76.1667 2.16667,75.8333 -0.5,75.5C -0.5,75.1667 -0.5,74.8333 -0.5,74.5C 2.16667,74.1667 2.16667,73.8333 -0.5,73.5C -0.5,72.8333 -0.5,72.1667 -0.5,71.5C 1.76595,71.8588 3.59928,71.1922 5,69.5C 5.33333,70.1667 5.66667,70.8333 6,71.5C 7.33333,68.8333 8.66667,68.8333 10,71.5C 10.2784,70.5842 10.7784,69.9175 11.5,69.5 Z"/></g>
<g><path style="opacity:0.008" fill="#000000" d="M 143.5,70.5 C 143.5,94.8333 143.5,119.167 143.5,143.5C 119.5,143.5 95.5,143.5 71.5,143.5C 71.5,139.833 71.5,136.167 71.5,132.5C 88.5,132.5 105.5,132.5 122.5,132.5C 123.167,132.5 123.5,132.167 123.5,131.5C 124.708,130.766 126.041,130.433 127.5,130.5C 128.167,130.5 128.5,130.167 128.5,129.5C 128.5,128.833 128.833,128.5 129.5,128.5C 130.833,128.167 130.833,127.833 129.5,127.5C 130.167,126.167 130.833,124.833 131.5,123.5C 132.833,123.167 132.833,122.833 131.5,122.5C 131.5,122.167 131.5,121.833 131.5,121.5C 132.833,121.167 132.833,120.833 131.5,120.5C 131.5,118.5 131.5,116.5 131.5,114.5C 132.833,114.167 132.833,113.833 131.5,113.5C 131.5,113.167 131.5,112.833 131.5,112.5C 132.833,112.167 132.833,111.833 131.5,111.5C 131.5,109.5 131.5,107.5 131.5,105.5C 132.833,105.167 132.833,104.833 131.5,104.5C 131.5,104.167 131.5,103.833 131.5,103.5C 132.833,103.167 132.833,102.833 131.5,102.5C 131.5,100.5 131.5,98.5 131.5,96.5C 132.833,96.1667 132.833,95.8333 131.5,95.5C 131.5,95.1667 131.5,94.8333 131.5,94.5C 132.833,94.1667 132.833,93.8333 131.5,93.5C 131.5,93.1667 131.5,92.8333 131.5,92.5C 132.833,92.1667 132.833,91.8333 131.5,91.5C 131.5,90.1667 131.5,88.8333 131.5,87.5C 132.833,87.1667 132.833,86.8333 131.5,86.5C 131.5,86.1667 131.5,85.8333 131.5,85.5C 132.833,85.1667 132.833,84.8333 131.5,84.5C 131.5,84.1667 131.5,83.8333 131.5,83.5C 132.833,83.1667 132.833,82.8333 131.5,82.5C 131.5,81.1667 131.5,79.8333 131.5,78.5C 132.833,78.1667 132.833,77.8333 131.5,77.5C 131.5,77.1667 131.5,76.8333 131.5,76.5C 132.833,76.1667 132.833,75.8333 131.5,75.5C 131.5,75.1667 131.5,74.8333 131.5,74.5C 132.833,74.1667 132.833,73.8333 131.5,73.5C 131.5,72.8333 131.5,72.1667 131.5,71.5C 135.489,71.1891 139.489,70.8558 143.5,70.5 Z"/></g>
<g><path style="opacity:0.272" fill="#9b9b9c" d="M 35.5,11.5 C 47.5,11.5 59.5,11.5 71.5,11.5C 88.5,11.5 105.5,11.5 122.5,11.5C 123.167,11.5 123.5,11.8333 123.5,12.5C 127.519,13.9176 130.186,16.5843 131.5,20.5C 131.5,20.8333 131.5,21.1667 131.5,21.5C 131.5,22.8333 131.5,24.1667 131.5,25.5C 131.5,25.8333 131.5,26.1667 131.5,26.5C 131.5,26.8333 131.5,27.1667 131.5,27.5C 131.5,27.8333 131.5,28.1667 131.5,28.5C 131.5,28.8333 131.5,29.1667 131.5,29.5C 131.5,29.8333 131.5,30.1667 131.5,30.5C 131.5,31.8333 131.5,33.1667 131.5,34.5C 131.5,46.8333 131.5,59.1667 131.5,71.5C 131.5,72.1667 131.5,72.8333 131.5,73.5C 131.5,73.8333 131.5,74.1667 131.5,74.5C 131.5,74.8333 131.5,75.1667 131.5,75.5C 131.5,75.8333 131.5,76.1667 131.5,76.5C 131.5,76.8333 131.5,77.1667 131.5,77.5C 131.5,77.8333 131.5,78.1667 131.5,78.5C 131.5,79.8333 131.5,81.1667 131.5,82.5C 131.5,82.8333 131.5,83.1667 131.5,83.5C 131.5,83.8333 131.5,84.1667 131.5,84.5C 131.5,84.8333 131.5,85.1667 131.5,85.5C 131.5,85.8333 131.5,86.1667 131.5,86.5C 131.5,86.8333 131.5,87.1667 131.5,87.5C 131.5,88.8333 131.5,90.1667 131.5,91.5C 131.5,91.8333 131.5,92.1667 131.5,92.5C 131.5,92.8333 131.5,93.1667 131.5,93.5C 131.5,93.8333 131.5,94.1667 131.5,94.5C 131.5,94.8333 131.5,95.1667 131.5,95.5C 131.5,95.8333 131.5,96.1667 131.5,96.5C 131.5,98.5 131.5,100.5 131.5,102.5C 131.5,102.833 131.5,103.167 131.5,103.5C 131.5,103.833 131.5,104.167 131.5,104.5C 131.5,104.833 131.5,105.167 131.5,105.5C 131.5,107.5 131.5,109.5 131.5,111.5C 131.5,111.833 131.5,112.167 131.5,112.5C 131.5,112.833 131.5,113.167 131.5,113.5C 131.5,113.833 131.5,114.167 131.5,114.5C 131.5,116.5 131.5,118.5 131.5,120.5C 131.5,120.833 131.5,121.167 131.5,121.5C 131.5,121.833 131.5,122.167 131.5,122.5C 131.5,122.833 131.5,123.167 131.5,123.5C 130.833,124.833 130.167,126.167 129.5,127.5C 129.5,127.833 129.5,128.167 129.5,128.5C 128.833,128.5 128.5,128.833 128.5,129.5C 127.833,129.5 127.5,129.833 127.5,130.5C 126.041,130.433 124.708,130.766 123.5,131.5C 122.833,131.5 122.5,131.833 122.5,132.5C 105.5,132.5 88.5,132.5 71.5,132.5C 71.1667,132.5 70.8333,132.5 70.5,132.5C 69.1667,132.5 67.8333,132.5 66.5,132.5C 66.1667,132.5 65.8333,132.5 65.5,132.5C 65.1667,132.5 64.8333,132.5 64.5,132.5C 64.1667,132.5 63.8333,132.5 63.5,132.5C 63.1667,132.5 62.8333,132.5 62.5,132.5C 62.1667,132.5 61.8333,132.5 61.5,132.5C 60.1667,132.5 58.8333,132.5 57.5,132.5C 57.1667,132.5 56.8333,132.5 56.5,132.5C 56.1667,132.5 55.8333,132.5 55.5,132.5C 55.1667,132.5 54.8333,132.5 54.5,132.5C 54.1667,132.5 53.8333,132.5 53.5,132.5C 53.1667,132.5 52.8333,132.5 52.5,132.5C 51.1667,132.5 49.8333,132.5 48.5,132.5C 48.1667,132.5 47.8333,132.5 47.5,132.5C 46.5,132.5 45.5,132.5 44.5,132.5C 44.1667,132.5 43.8333,132.5 43.5,132.5C 42.1667,132.5 40.8333,132.5 39.5,132.5C 39.1667,132.5 38.8333,132.5 38.5,132.5C 32.4908,132.666 26.4908,132.499 20.5,132C 16.8022,131.139 14.1356,128.972 12.5,125.5C 11.5004,106.845 11.1671,88.1786 11.5,69.5C 11.5,61.8333 11.5,54.1667 11.5,46.5C 11.5,45.1667 11.5,43.8333 11.5,42.5C 11.5,42.1667 11.5,41.8333 11.5,41.5C 11.5,40.5 11.5,39.5 11.5,38.5C 11.5,38.1667 11.5,37.8333 11.5,37.5C 7.49633,17.5085 15.4963,8.84179 35.5,11.5 Z"/></g>
<g><path style="opacity:1" fill="#06041a" d="M 18.5,14.5 C 53.1683,14.3333 87.8349,14.5 122.5,15C 124.329,15.2735 125.829,16.1068 127,17.5C 128.653,52.415 128.986,87.415 128,122.5C 127.215,124.286 126.049,125.786 124.5,127C 89.8806,128.64 55.2139,128.973 20.5,128C 18.714,127.215 17.214,126.049 16,124.5C 14.347,89.2516 14.0136,53.9182 15,18.5C 16.3756,17.2949 17.5423,15.9616 18.5,14.5 Z"/></g>
<g><path style="opacity:1" fill="#181829" d="M 33.5,66.5 C 33.1936,69.3854 33.5269,72.0521 34.5,74.5C 38.7622,95.0927 51.4289,105.426 72.5,105.5C 72.5,107.167 72.5,108.833 72.5,110.5C 46.6514,109.654 32.3181,96.3209 29.5,70.5C 26.5,70.5 23.5,70.5 20.5,70.5C 21.964,69.8401 23.6307,69.5068 25.5,69.5C 27.7148,69.6705 29.7148,70.3372 31.5,71.5C 32.1698,69.7086 32.8365,68.0419 33.5,66.5 Z"/></g>
<g><path style="opacity:1" fill="#676474" d="M 20.5,80.5 C 21.5375,81.9303 22.2041,83.597 22.5,85.5C 20.7868,84.3646 20.1201,82.698 20.5,80.5 Z"/></g>
<g><path style="opacity:1" fill="#a4a2ab" d="M 30.5,62.5 C 31.8333,62.5 33.1667,62.5 34.5,62.5C 34.5,66.5 34.5,70.5 34.5,74.5C 33.5269,72.0521 33.1936,69.3854 33.5,66.5C 33.5,65.5 33.5,64.5 33.5,63.5C 32.209,63.7373 31.209,63.404 30.5,62.5 Z"/></g>
<g><path style="opacity:1" fill="#f3f1f2" d="M 88.5,33.5 C 67.7116,24.0718 50.2116,28.4051 36,46.5C 34.9914,48.0249 34.4914,49.6916 34.5,51.5C 35.8734,51.6567 37.2068,51.49 38.5,51C 51.5388,33.4056 68.2055,28.9056 88.5,37.5C 90.0463,38.8598 91.8796,39.8598 94,40.5C 96.8487,37.984 99.3487,35.1507 101.5,32C 102.5,31.3333 103.5,31.3333 104.5,32C 121.957,48.3509 126.124,67.5176 117,89.5C 113.406,98.4333 107.573,105.6 99.5,111C 98.5,111.667 97.5,111.667 96.5,111C 95.0755,108.899 93.7422,106.733 92.5,104.5C 112.686,89.074 116.853,70.074 105,47.5C 103.842,47.9981 103.009,48.8315 102.5,50C 112.204,73.7204 105.871,91.8871 83.5,104.5C 85.0134,108.186 86.68,111.853 88.5,115.5C 65.726,123.975 46.226,118.975 30,100.5C 26.9773,95.788 24.4773,90.788 22.5,85.5C 22.2041,83.597 21.5375,81.9303 20.5,80.5C 19.4095,77.0145 19.4095,73.6812 20.5,70.5C 23.5,70.5 26.5,70.5 29.5,70.5C 32.3181,96.3209 46.6514,109.654 72.5,110.5C 72.5,108.833 72.5,107.167 72.5,105.5C 51.4289,105.426 38.7622,95.0927 34.5,74.5C 34.5,70.5 34.5,66.5 34.5,62.5C 33.1667,62.5 31.8333,62.5 30.5,62.5C 27.1933,61.9492 23.8599,61.6159 20.5,61.5C 23.0394,44.4448 32.0394,31.9448 47.5,24C 59.4885,19.2494 71.8218,18.2494 84.5,21C 88.1982,22.1102 91.5315,23.7768 94.5,26C 93.2135,28.0712 92.0468,30.2379 91,32.5C 90.3292,33.2524 89.4959,33.5858 88.5,33.5 Z"/></g>
<g><path style="opacity:1" fill="#0d0c1e" d="M 63.5,42.5 C 79.0333,40.5149 90.2,46.5149 97,60.5C 99.4705,85.3602 88.3038,97.1935 63.5,96C 48.759,90.6924 41.9257,80.1924 43,64.5C 45.6096,53.062 52.443,45.7287 63.5,42.5 Z"/></g>
<g><path style="opacity:1" fill="#d4d2d6" d="M 88.5,83.5 C 88.5,74.5 88.5,65.5 88.5,56.5C 87.5,56.5 86.5,56.5 85.5,56.5C 87.6167,64.0316 87.95,71.6983 86.5,79.5C 85.8933,79.3764 85.56,79.0431 85.5,78.5C 84.6618,78.8417 84.3284,79.5084 84.5,80.5C 84.1667,80.5 83.8333,80.5 83.5,80.5C 81.3719,77.8697 79.0386,75.3697 76.5,73C 74.3228,72.6551 72.3228,73.1551 70.5,74.5C 68.5952,73.935 66.9285,72.935 65.5,71.5C 63.1456,74.5211 60.4789,77.1877 57.5,79.5C 57.1667,79.5 56.8333,79.5 56.5,79.5C 55.5,79.5 54.5,79.5 53.5,79.5C 53.0502,71.6722 53.7169,64.0055 55.5,56.5C 54.5,56.5 53.5,56.5 52.5,56.5C 52.5,65.5 52.5,74.5 52.5,83.5C 51.5062,74.0144 51.1729,64.3478 51.5,54.5C 64.1667,54.5 76.8333,54.5 89.5,54.5C 89.8271,64.3478 89.4938,74.0144 88.5,83.5 Z"/></g>
<g><path style="opacity:1" fill="#faf8f9" d="M 56.5,79.5 C 60.7825,80.8266 65.4492,81.4933 70.5,81.5C 75.3457,81.4992 80.0124,81.1659 84.5,80.5C 84.3284,79.5084 84.6618,78.8417 85.5,78.5C 85.56,79.0431 85.8933,79.3764 86.5,79.5C 87.95,71.6983 87.6167,64.0316 85.5,56.5C 86.5,56.5 87.5,56.5 88.5,56.5C 88.5,65.5 88.5,74.5 88.5,83.5C 76.5,83.5 64.5,83.5 52.5,83.5C 52.5,74.5 52.5,65.5 52.5,56.5C 53.5,56.5 54.5,56.5 55.5,56.5C 53.7169,64.0055 53.0502,71.6722 53.5,79.5C 54.5,79.5 55.5,79.5 56.5,79.5 Z"/></g>
<g><path style="opacity:1" fill="#686676" d="M 56.5,79.5 C 56.8333,79.5 57.1667,79.5 57.5,79.5C 65.9839,80.493 74.6506,80.8264 83.5,80.5C 83.8333,80.5 84.1667,80.5 84.5,80.5C 80.0124,81.1659 75.3457,81.4992 70.5,81.5C 65.4492,81.4933 60.7825,80.8266 56.5,79.5 Z"/></g>
<g><path style="opacity:1" fill="#0a071c" d="M 83.5,80.5 C 74.6506,80.8264 65.9839,80.493 57.5,79.5C 60.4789,77.1877 63.1456,74.5211 65.5,71.5C 66.9285,72.935 68.5952,73.935 70.5,74.5C 72.3228,73.1551 74.3228,72.6551 76.5,73C 79.0386,75.3697 81.3719,77.8697 83.5,80.5 Z"/></g>
<g><path style="opacity:1" fill="#100f21" d="M 85.5,78.5 C 82.8556,75.5198 80.189,72.5198 77.5,69.5C 80.1504,66.3489 82.9838,63.3489 86,60.5C 86.8192,66.6812 86.6525,72.6812 85.5,78.5 Z"/></g>
<g><path style="opacity:1" fill="#141425" d="M 54.5,60.5 C 57.8123,63.1456 60.8123,66.1456 63.5,69.5C 60.8496,72.6511 58.0162,75.6511 55,78.5C 54.5005,72.5092 54.3338,66.5092 54.5,60.5 Z"/></g>
<g><path style="opacity:1" fill="#06041a" d="M 57.5,59.5 C 65.9839,58.507 74.6506,58.1736 83.5,58.5C 79.521,63.1456 75.1877,67.479 70.5,71.5C 66.1465,67.4781 61.8131,63.4781 57.5,59.5 Z"/></g>
<g><path style="opacity:1" fill="#5c5a6a" d="M 83.5,58.5 C 74.6506,58.1736 65.9839,58.507 57.5,59.5C 56.9569,59.44 56.6236,59.1067 56.5,58.5C 61.1667,58.1667 65.8333,57.8333 70.5,57.5C 75.5867,57.4706 79.92,57.8039 83.5,58.5 Z"/></g>
<g><path style="opacity:1" fill="#171728" d="M 88.5,33.5 C 87.3143,34.7054 87.3143,36.0387 88.5,37.5C 68.2055,28.9056 51.5388,33.4056 38.5,51C 37.2068,51.49 35.8734,51.6567 34.5,51.5C 34.4914,49.6916 34.9914,48.0249 36,46.5C 50.2116,28.4051 67.7116,24.0718 88.5,33.5 Z"/></g>
<g><path style="opacity:0.008" fill="#000000" d="M 39.5,132.5 C 40.8333,132.5 42.1667,132.5 43.5,132.5C 43.5,133.833 43.5,135.167 43.5,136.5C 42.1667,136.5 40.8333,136.5 39.5,136.5C 39.5,135.167 39.5,133.833 39.5,132.5 Z"/></g>
<g><path style="opacity:0.008" fill="#000000" d="M 44.5,132.5 C 45.5,132.5 46.5,132.5 47.5,132.5C 47.5,133.833 47.5,135.167 47.5,136.5C 46.5,136.5 45.5,136.5 44.5,136.5C 44.5,135.167 44.5,133.833 44.5,132.5 Z"/></g>
<g><path style="opacity:0.008" fill="#000000" d="M 48.5,132.5 C 49.8333,132.5 51.1667,132.5 52.5,132.5C 52.5,133.833 52.5,135.167 52.5,136.5C 51.1667,136.5 49.8333,136.5 48.5,136.5C 48.5,135.167 48.5,133.833 48.5,132.5 Z"/></g>
<g><path style="opacity:0.008" fill="#000000" d="M 53.5,132.5 C 53.8333,132.5 54.1667,132.5 54.5,132.5C 54.8333,135.167 55.1667,135.167 55.5,132.5C 55.8333,132.5 56.1667,132.5 56.5,132.5C 56.6567,133.873 56.49,135.207 56,136.5C 55.3333,135.167 54.6667,135.167 54,136.5C 53.51,135.207 53.3433,133.873 53.5,132.5 Z"/></g>
<g><path style="opacity:0.008" fill="#000000" d="M 57.5,132.5 C 58.8333,132.5 60.1667,132.5 61.5,132.5C 61.5,133.833 61.5,135.167 61.5,136.5C 60.1667,136.5 58.8333,136.5 57.5,136.5C 57.5,135.167 57.5,133.833 57.5,132.5 Z"/></g>
<g><path style="opacity:0.008" fill="#000000" d="M 62.5,132.5 C 62.8333,132.5 63.1667,132.5 63.5,132.5C 63.8333,135.167 64.1667,135.167 64.5,132.5C 64.8333,132.5 65.1667,132.5 65.5,132.5C 65.6567,133.873 65.49,135.207 65,136.5C 64.3333,135.167 63.6667,135.167 63,136.5C 62.51,135.207 62.3433,133.873 62.5,132.5 Z"/></g>
<g><path style="opacity:0.008" fill="#000000" d="M 66.5,132.5 C 67.8333,132.5 69.1667,132.5 70.5,132.5C 70.5,133.833 70.5,135.167 70.5,136.5C 69.1667,136.5 67.8333,136.5 66.5,136.5C 66.5,135.167 66.5,133.833 66.5,132.5 Z"/></g>
<g><path style="opacity:0.008" fill="#000000" d="M 37.5,137.5 C 38.8333,138.167 38.8333,138.167 37.5,137.5 Z"/></g>
<g><path style="opacity:0.008" fill="#000000" d="M 39.5,137.5 C 40.8333,137.5 42.1667,137.5 43.5,137.5C 43.5,138.5 43.5,139.5 43.5,140.5C 42.1667,140.5 40.8333,140.5 39.5,140.5C 39.5,139.5 39.5,138.5 39.5,137.5 Z"/></g>
<g><path style="opacity:0.008" fill="#000000" d="M 45.5,138.5 C 44.8333,137.167 44.8333,137.167 45.5,138.5 Z"/></g>
<g><path style="opacity:0.008" fill="#000000" d="M 46.5,137.5 C 47.8333,138.167 47.8333,138.167 46.5,137.5 Z"/></g>
<g><path style="opacity:0.008" fill="#000000" d="M 48.5,138.5 C 49.6009,137.402 50.9343,137.235 52.5,138C 51.2068,138.49 49.8734,138.657 48.5,138.5 Z"/></g>
<g><path style="opacity:0.008" fill="#000000" d="M 53.5,138.5 C 54.2506,137.427 55.2506,137.26 56.5,138C 55.552,138.483 54.552,138.649 53.5,138.5 Z"/></g>
<g><path style="opacity:0.008" fill="#000000" d="M 57.5,138.5 C 58.6009,137.402 59.9343,137.235 61.5,138C 60.2068,138.49 58.8734,138.657 57.5,138.5 Z"/></g>
<g><path style="opacity:0.008" fill="#000000" d="M 62.5,138.5 C 63.2506,137.427 64.2506,137.26 65.5,138C 64.552,138.483 63.552,138.649 62.5,138.5 Z"/></g>
<g><path style="opacity:0.008" fill="#000000" d="M 66.5,138.5 C 67.6009,137.402 68.9343,137.235 70.5,138C 69.2068,138.49 67.8734,138.657 66.5,138.5 Z"/></g>
<g><path style="opacity:0.008" fill="#000000" d="M 36.5,138.5 C 36.8333,138.5 37.1667,138.5 37.5,138.5C 37.5,138.833 37.5,139.167 37.5,139.5C 37.1667,139.167 36.8333,138.833 36.5,138.5 Z"/></g>
<g><path style="opacity:0.008" fill="#000000" d="M 45.5,138.5 C 45.8333,138.5 46.1667,138.5 46.5,138.5C 46.5,138.833 46.5,139.167 46.5,139.5C 46.1667,139.167 45.8333,138.833 45.5,138.5 Z"/></g>
<g><path style="opacity:0.008" fill="#000000" d="M 37.5,139.5 C 38.8333,140.167 38.8333,140.167 37.5,139.5 Z"/></g>
<g><path style="opacity:0.008" fill="#000000" d="M 45.5,139.5 C 44.8333,140.167 44.8333,140.167 45.5,139.5 Z"/></g>
<g><path style="opacity:0.008" fill="#000000" d="M 46.5,139.5 C 47.8333,140.167 47.8333,140.167 46.5,139.5 Z"/></g>
<g><path style="opacity:0.008" fill="#000000" d="M 52.5,143.5 C 51.1667,143.5 49.8333,143.5 48.5,143.5C 48.5,142.167 48.5,140.833 48.5,139.5C 49.8333,139.5 51.1667,139.5 52.5,139.5C 52.5,140.833 52.5,142.167 52.5,143.5 Z"/></g>
<g><path style="opacity:0.008" fill="#000000" d="M 54.5,140.5 C 53.8333,139.167 53.8333,139.167 54.5,140.5 Z"/></g>
<g><path style="opacity:0.008" fill="#000000" d="M 55.5,139.5 C 56.8333,140.167 56.8333,140.167 55.5,139.5 Z"/></g>
<g><path style="opacity:0.008" fill="#000000" d="M 61.5,143.5 C 60.1667,143.5 58.8333,143.5 57.5,143.5C 57.5,142.167 57.5,140.833 57.5,139.5C 58.8333,139.5 60.1667,139.5 61.5,139.5C 61.5,140.833 61.5,142.167 61.5,143.5 Z"/></g>
<g><path style="opacity:0.008" fill="#000000" d="M 63.5,140.5 C 62.8333,139.167 62.8333,139.167 63.5,140.5 Z"/></g>
<g><path style="opacity:0.008" fill="#000000" d="M 64.5,139.5 C 65.8333,140.167 65.8333,140.167 64.5,139.5 Z"/></g>
<g><path style="opacity:0.008" fill="#000000" d="M 70.5,143.5 C 69.1667,143.5 67.8333,143.5 66.5,143.5C 66.5,142.167 66.5,140.833 66.5,139.5C 67.8333,139.5 69.1667,139.5 70.5,139.5C 70.5,140.833 70.5,142.167 70.5,143.5 Z"/></g>
<g><path style="opacity:0.008" fill="#000000" d="M 54.5,140.5 C 54.8333,140.5 55.1667,140.5 55.5,140.5C 55.5,140.833 55.5,141.167 55.5,141.5C 55.1667,141.167 54.8333,140.833 54.5,140.5 Z"/></g>
<g><path style="opacity:0.008" fill="#000000" d="M 63.5,140.5 C 63.8333,140.5 64.1667,140.5 64.5,140.5C 64.5,140.833 64.5,141.167 64.5,141.5C 64.1667,141.167 63.8333,140.833 63.5,140.5 Z"/></g>
<g><path style="opacity:0.008" fill="#000000" d="M 43.5,143.5 C 42.1667,143.5 40.8333,143.5 39.5,143.5C 39.62,142.414 40.2867,141.747 41.5,141.5C 42.7133,141.747 43.38,142.414 43.5,143.5 Z"/></g>
<g><path style="opacity:0.008" fill="#000000" d="M 47.5,143.5 C 47.1667,143.5 46.8333,143.5 46.5,143.5C 46.1667,142.167 45.8333,142.167 45.5,143.5C 45.1667,143.5 44.8333,143.5 44.5,143.5C 45.5,140.833 46.5,140.833 47.5,143.5 Z"/></g>
<g><path style="opacity:0.008" fill="#000000" d="M 54.5,141.5 C 54.5,142.167 54.5,142.833 54.5,143.5C 54.1667,143.5 53.8333,143.5 53.5,143.5C 53.3284,142.508 53.6618,141.842 54.5,141.5 Z"/></g>
<g><path style="opacity:0.008" fill="#000000" d="M 55.5,141.5 C 56.3382,141.842 56.6716,142.508 56.5,143.5C 56.1667,143.5 55.8333,143.5 55.5,143.5C 55.5,142.833 55.5,142.167 55.5,141.5 Z"/></g>
<g><path style="opacity:0.008" fill="#000000" d="M 63.5,141.5 C 63.5,142.167 63.5,142.833 63.5,143.5C 63.1667,143.5 62.8333,143.5 62.5,143.5C 62.3284,142.508 62.6618,141.842 63.5,141.5 Z"/></g>
<g><path style="opacity:0.008" fill="#000000" d="M 64.5,141.5 C 65.3382,141.842 65.6716,142.508 65.5,143.5C 65.1667,143.5 64.8333,143.5 64.5,143.5C 64.5,142.833 64.5,142.167 64.5,141.5 Z"/></g>
</svg>
